<svg xmlns="http://www.w3.org/2000/svg" xmlns:xlink="http://www.w3.org/1999/xlink" width="18" height="18" viewBox="0 0 18 18" fill="none"><path d="M1.52371 14.0476C1.29151 13.6534 1.1394 13.3891 1.0638 13.248C1.02025 13.1667 0.977958 13.0849 0.936922 13.0023C0.895903 12.9198 0.856154 12.8367 0.817679 12.7529C0.779219 12.6691 0.742058 12.5848 0.706199 12.4999C0.67034 12.4149 0.635797 12.3295 0.602566 12.2435C0.569337 12.1576 0.537443 12.0711 0.506884 11.9841C0.476328 11.8972 0.44712 11.8098 0.419261 11.7219C0.39139 11.634 0.36489 11.5458 0.339759 11.4571C0.314619 11.3684 0.290855 11.2794 0.268462 11.19C0.246073 11.1006 0.225066 11.0108 0.205443 10.9208C0.18582 10.8307 0.167592 10.7404 0.150758 10.6497C0.133923 10.5591 0.11849 10.4682 0.104459 10.3771C0.0904273 10.286 0.0778034 10.1947 0.0665872 10.1033C0.0553723 10.0118 0.0455715 9.92015 0.0371847 9.82835C0.0287978 9.73655 0.0218278 9.64467 0.0162744 9.55265C0.0107226 9.46064 0.00659099 9.36859 0.00387975 9.27645C0.00116853 9.18432 -0.000121665 9.09216 9.01221e-06 9C9.01221e-06 4.02954 4.02954 0 9 0C13.9705 0 18 4.02954 18 9C18 13.9705 13.9705 18 9 18C8.94944 18.0001 8.89888 17.9997 8.84831 17.9989C8.79775 17.9981 8.74719 17.9969 8.69665 17.9953C8.64611 17.9937 8.59559 17.9916 8.54509 17.9891C8.49457 17.9866 8.44409 17.9837 8.39364 17.9804C8.3432 17.977 8.29277 17.9732 8.24238 17.969C8.19198 17.9648 8.14163 17.9602 8.09132 17.9552C8.04101 17.9501 7.99075 17.9446 7.94052 17.9387C7.8903 17.9328 7.84012 17.9265 7.79002 17.9197C7.7399 17.913 7.68985 17.9058 7.63985 17.8982C7.58986 17.8906 7.53993 17.8826 7.49009 17.8741C7.44024 17.8657 7.39046 17.8568 7.34074 17.8475C7.29103 17.8382 7.24141 17.8285 7.19187 17.8184C7.14232 17.8083 7.09287 17.7977 7.04351 17.7868C6.99415 17.7758 6.94488 17.7644 6.89571 17.7526C6.84654 17.7408 6.79748 17.7286 6.74852 17.716C6.69956 17.7033 6.65071 17.6903 6.60196 17.6768C6.55321 17.6634 6.50459 17.6495 6.45607 17.6352C6.40758 17.6209 6.35919 17.6062 6.31093 17.5912C6.26267 17.5761 6.21453 17.5605 6.16654 17.5446C6.11855 17.5287 6.07069 17.5124 6.02298 17.4957C5.97524 17.4789 5.92768 17.4618 5.88024 17.4443C5.83282 17.4267 5.78555 17.4088 5.7384 17.3905C5.69128 17.3721 5.6443 17.3534 5.5975 17.3343C5.55069 17.3152 5.50405 17.2956 5.45758 17.2757C5.41109 17.2558 5.36479 17.2355 5.31866 17.2148C5.27253 17.1941 5.22656 17.173 5.18079 17.1515C5.13499 17.1301 5.08941 17.1082 5.044 17.0859C4.99858 17.0637 4.95338 17.0411 4.90834 17.018C4.86333 16.995 4.8185 16.9716 4.77387 16.9479C4.72924 16.9241 4.68481 16.8999 4.6406 16.8754C4.59637 16.8509 4.55236 16.826 4.50857 16.8007C4.46476 16.7754 4.42118 16.7498 4.37784 16.7238C4.23718 16.6405 4.09617 16.5578 3.95482 16.4756L1.75253 17.0764C1.24854 17.2136 0.786376 16.7512 0.923865 16.2475L1.52371 14.0476ZM2.90115 14.1275L2.53711 15.4629L3.87247 15.0989C3.88325 15.0959 3.89407 15.0932 3.90498 15.0908C3.91588 15.0884 3.92683 15.0863 3.93784 15.0844C3.94883 15.0826 3.95988 15.081 3.97098 15.0797C3.98205 15.0784 3.99317 15.0773 4.00431 15.0766C4.01542 15.0758 4.02658 15.0753 4.03774 15.0751C4.0489 15.0749 4.06006 15.075 4.07122 15.0753C4.08238 15.0757 4.09351 15.0763 4.10463 15.0772C4.11575 15.0781 4.12684 15.0793 4.13792 15.0807C4.14899 15.0821 4.16 15.0839 4.17099 15.0859C4.18198 15.0879 4.19291 15.0901 4.20377 15.0927C4.21463 15.0952 4.22543 15.098 4.23617 15.1011C4.24691 15.1042 4.25754 15.1075 4.26811 15.1111C4.27867 15.1147 4.28914 15.1186 4.29951 15.1227C4.30989 15.1268 4.32016 15.1312 4.33031 15.1358C4.34046 15.1404 4.3505 15.1453 4.36041 15.1505C4.37033 15.1556 4.38011 15.161 4.38975 15.1666C4.61778 15.2988 4.84525 15.432 5.07218 15.5662C5.14588 15.6104 5.22032 15.6533 5.29548 15.695C5.37063 15.7367 5.44649 15.7771 5.52301 15.8162C5.59954 15.8553 5.6767 15.8931 5.75452 15.9296C5.83233 15.9661 5.91072 16.0013 5.98971 16.0351C6.06871 16.069 6.14827 16.1015 6.22837 16.1326C6.30846 16.1637 6.38908 16.1935 6.47019 16.222C6.55129 16.2504 6.63286 16.2774 6.71489 16.3031C6.79693 16.3287 6.87936 16.353 6.9622 16.3758C7.04505 16.3987 7.12827 16.4201 7.21184 16.4402C7.29541 16.4602 7.3793 16.4788 7.46351 16.4961C7.54772 16.5132 7.6322 16.529 7.71693 16.5434C7.80166 16.5577 7.88663 16.5706 7.97181 16.5821C8.05698 16.5935 8.14233 16.6035 8.22784 16.6121C8.31336 16.6207 8.399 16.6278 8.48474 16.6334C8.57051 16.6391 8.65634 16.6433 8.74223 16.6461C8.82813 16.6488 8.91404 16.6501 9 16.65C13.2251 16.65 16.65 13.2251 16.65 9C16.65 4.77495 13.2251 1.34999 9 1.34999C4.77495 1.34999 1.35 4.77495 1.35 9C1.35 10.278 1.6632 11.5092 2.25338 12.6099C2.33168 12.7557 2.52608 13.0914 2.83074 13.6062C2.83647 13.6159 2.84196 13.6257 2.84721 13.6357C2.85246 13.6456 2.85744 13.6557 2.86219 13.666C2.86693 13.6762 2.87141 13.6865 2.87562 13.6969C2.87984 13.7073 2.88381 13.7179 2.8875 13.7285C2.89119 13.7392 2.89463 13.7499 2.89779 13.7607C2.90094 13.7715 2.90383 13.7824 2.90644 13.7933C2.90906 13.8043 2.9114 13.8153 2.91347 13.8264C2.91553 13.8374 2.91733 13.8485 2.91882 13.8597C2.92032 13.8709 2.92155 13.8821 2.92249 13.8933C2.92344 13.9045 2.92412 13.9157 2.9245 13.927C2.92488 13.9383 2.92498 13.9495 2.92481 13.9608C2.92462 13.972 2.92416 13.9833 2.92342 13.9945C2.92268 14.0057 2.92167 14.017 2.92036 14.0281C2.91908 14.0393 2.9175 14.0504 2.91562 14.0616C2.91376 14.0727 2.91163 14.0837 2.90921 14.0947C2.9068 14.1057 2.90412 14.1166 2.90115 14.1275ZM5.98073 12.6346C5.97208 12.6276 5.96362 12.6204 5.95533 12.613C5.94704 12.6055 5.93894 12.5979 5.93103 12.5901C5.92312 12.5822 5.9154 12.5742 5.90789 12.566C5.90038 12.5578 5.89308 12.5494 5.88597 12.5408C5.87886 12.5322 5.87199 12.5235 5.86532 12.5146C5.85866 12.5057 5.85222 12.4966 5.846 12.4874C5.83978 12.4781 5.83381 12.4687 5.82805 12.4592C5.82229 12.4497 5.81679 12.44 5.81151 12.4302C5.80624 12.4204 5.8012 12.4105 5.79641 12.4004C5.79162 12.3904 5.78711 12.3802 5.78282 12.3699C5.77854 12.3596 5.77454 12.3493 5.77076 12.3388C5.76698 12.3283 5.76348 12.3177 5.76023 12.3071C5.75701 12.2964 5.75403 12.2857 5.75131 12.2749C5.74859 12.2641 5.74614 12.2533 5.74397 12.2424C5.7418 12.2314 5.73988 12.2205 5.73825 12.2095C5.73663 12.1985 5.73526 12.1874 5.73418 12.1763C5.73309 12.1652 5.73226 12.1541 5.73174 12.143C5.73121 12.1319 5.73093 12.1208 5.73096 12.1097C5.73098 12.0985 5.73125 12.0874 5.73182 12.0763C5.73239 12.0652 5.73321 12.0541 5.73433 12.043C5.73545 12.0319 5.73682 12.0209 5.73849 12.0099C5.74015 11.9989 5.74207 11.9879 5.74427 11.977C5.74648 11.9661 5.74895 11.9552 5.75169 11.9444C5.75441 11.9336 5.75743 11.9229 5.7607 11.9123C5.76397 11.9016 5.76749 11.8911 5.77129 11.8806C5.77506 11.8701 5.77911 11.8598 5.78342 11.8495C5.78772 11.8392 5.79228 11.8291 5.79708 11.819C5.80189 11.809 5.80694 11.7991 5.81223 11.7893C5.81752 11.7795 5.82307 11.7698 5.82883 11.7603C5.83461 11.7508 5.84062 11.7414 5.84687 11.7322C5.85309 11.723 5.85956 11.7139 5.86625 11.705C5.87294 11.6961 5.87984 11.6874 5.88694 11.6788C5.89405 11.6703 5.90139 11.6619 5.90892 11.6537C5.91645 11.6455 5.9242 11.6375 5.93213 11.6297C5.94004 11.6219 5.94816 11.6143 5.95647 11.6068C5.96478 11.5994 5.97326 11.5922 5.98193 11.5852C5.99058 11.5782 5.99939 11.5715 6.0084 11.5649C6.01741 11.5584 6.02656 11.552 6.03587 11.5459C6.04517 11.5398 6.05464 11.5339 6.06424 11.5283C6.07383 11.5227 6.08358 11.5173 6.09343 11.5121C6.1033 11.507 6.1133 11.5021 6.1234 11.4974C6.13351 11.4927 6.14374 11.4883 6.15405 11.4842C6.16439 11.48 6.17481 11.4761 6.18534 11.4725C6.19586 11.4689 6.20645 11.4655 6.21714 11.4624C6.22784 11.4592 6.2386 11.4564 6.24942 11.4538C6.26024 11.4512 6.27114 11.4489 6.28209 11.4469C6.29304 11.4448 6.30401 11.4431 6.31504 11.4416C6.32607 11.4401 6.33715 11.4388 6.34824 11.4379C6.35932 11.4369 6.37043 11.4363 6.38155 11.4359C6.39269 11.4355 6.40382 11.4353 6.41494 11.4355C6.42608 11.4356 6.43719 11.4361 6.44831 11.4367C6.45943 11.4374 6.4705 11.4384 6.48158 11.4397C6.49263 11.4409 6.50366 11.4424 6.51465 11.4442C6.52564 11.446 6.53657 11.4481 6.54745 11.4504C6.55834 11.4527 6.56916 11.4554 6.57992 11.4582C6.59067 11.4611 6.60135 11.4642 6.61196 11.4676C6.62257 11.471 6.63307 11.4747 6.64349 11.4786C6.65391 11.4825 6.66423 11.4867 6.67444 11.4911C6.68465 11.4955 6.69475 11.5002 6.70473 11.5052C6.7147 11.5101 6.72458 11.5152 6.7343 11.5207C6.74402 11.5261 6.7536 11.5317 6.76305 11.5376C6.7725 11.5435 6.7818 11.5496 6.79094 11.556C6.80007 11.5623 6.80906 11.5689 6.81789 11.5757C6.82671 11.5825 6.83536 11.5895 6.84382 11.5967C6.86255 11.6123 6.88145 11.6277 6.9005 11.6429C6.91955 11.6581 6.93876 11.6731 6.95815 11.6878C6.97753 11.7026 6.99706 11.7172 7.01677 11.7315C7.03647 11.7459 7.05632 11.76 7.07633 11.7739C7.09635 11.7878 7.1165 11.8015 7.13679 11.815C7.1571 11.8285 7.17754 11.8417 7.19815 11.8547C7.21874 11.8678 7.23947 11.8806 7.26034 11.8932C7.28122 11.9057 7.30223 11.9181 7.32336 11.9302C7.34452 11.9423 7.36578 11.9542 7.38717 11.9659C7.40858 11.9775 7.4301 11.9889 7.45176 12.0001C7.4734 12.0113 7.49517 12.0223 7.51705 12.033C7.53894 12.0437 7.56094 12.0542 7.58307 12.0644C7.60518 12.0747 7.62739 12.0847 7.64973 12.0944C7.67206 12.1042 7.69449 12.1136 7.71704 12.1229C7.73958 12.1322 7.76222 12.1412 7.78496 12.15C7.8077 12.1587 7.83052 12.1673 7.85345 12.1756C7.87638 12.1838 7.89937 12.1918 7.92247 12.1996C7.94557 12.2074 7.96875 12.2149 7.99201 12.2222C8.01528 12.2294 8.03861 12.2365 8.06202 12.2432C8.08544 12.25 8.10892 12.2565 8.13246 12.2627C8.15602 12.269 8.17964 12.275 8.20333 12.2807C8.22702 12.2864 8.25075 12.2919 8.27456 12.2971C8.29836 12.3023 8.32222 12.3073 8.34614 12.312C8.37003 12.3167 8.394 12.3211 8.41802 12.3253C8.44203 12.3295 8.46607 12.3334 8.49016 12.3371C8.51427 12.3407 8.5384 12.3441 8.56256 12.3472C8.58673 12.3504 8.61092 12.3532 8.63516 12.3558C8.6594 12.3584 8.68366 12.3608 8.70794 12.3628C8.73221 12.3649 8.75651 12.3667 8.78084 12.3683C8.80516 12.3698 8.82948 12.3711 8.85382 12.3721C8.87818 12.3731 8.90252 12.3739 8.92689 12.3743C8.95125 12.3748 8.97564 12.375 9 12.375C9.7992 12.375 10.5541 12.0971 11.1555 11.597C11.164 11.5899 11.1727 11.583 11.1815 11.5764C11.1903 11.5697 11.1993 11.5633 11.2084 11.5571C11.2176 11.5509 11.2269 11.545 11.2363 11.5392C11.2458 11.5335 11.2553 11.528 11.265 11.5227C11.2748 11.5175 11.2846 11.5124 11.2946 11.5076C11.3045 11.5029 11.3146 11.4983 11.3248 11.494C11.3349 11.4897 11.3452 11.4857 11.3556 11.4819C11.366 11.4781 11.3764 11.4746 11.387 11.4713C11.3975 11.468 11.4082 11.465 11.4189 11.4623C11.4296 11.4595 11.4403 11.457 11.4512 11.4548C11.462 11.4526 11.4728 11.4506 11.4837 11.4489C11.4947 11.4472 11.5056 11.4458 11.5166 11.4447C11.5276 11.4435 11.5386 11.4426 11.5496 11.442C11.5607 11.4414 11.5717 11.4411 11.5828 11.441C11.5938 11.4409 11.6048 11.4411 11.6159 11.4416C11.6269 11.4421 11.6379 11.4428 11.6489 11.4438C11.6599 11.4448 11.6709 11.4461 11.6818 11.4477C11.6928 11.4492 11.7037 11.451 11.7145 11.4531C11.7254 11.4552 11.7362 11.4576 11.7469 11.4602C11.7576 11.4628 11.7683 11.4657 11.7789 11.4688C11.7895 11.472 11.8 11.4753 11.8104 11.479C11.8208 11.4827 11.8312 11.4866 11.8414 11.4907C11.8516 11.4949 11.8617 11.4993 11.8718 11.504C11.8818 11.5086 11.8917 11.5135 11.9015 11.5187C11.9112 11.5238 11.9209 11.5292 11.9304 11.5348C11.9399 11.5404 11.9493 11.5463 11.9585 11.5524C11.9677 11.5585 11.9768 11.5647 11.9857 11.5713C11.9946 11.5778 12.0034 11.5845 12.012 11.5915C12.0205 11.5985 12.029 11.6056 12.0372 11.613C12.0454 11.6203 12.0535 11.6279 12.0613 11.6357C12.0692 11.6434 12.0769 11.6514 12.0843 11.6595C12.0918 11.6677 12.099 11.676 12.1061 11.6845C12.1132 11.693 12.12 11.7016 12.1267 11.7105C12.1333 11.7193 12.1397 11.7283 12.1459 11.7374C12.1521 11.7466 12.1581 11.7559 12.1638 11.7653C12.1696 11.7747 12.1751 11.7843 12.1803 11.794C12.1856 11.8037 12.1906 11.8136 12.1954 11.8235C12.2002 11.8335 12.2047 11.8435 12.2091 11.8537C12.2133 11.8639 12.2174 11.8742 12.2212 11.8846C12.225 11.8949 12.2285 11.9054 12.2317 11.916C12.235 11.9265 12.238 11.9371 12.2408 11.9478C12.2436 11.9585 12.246 11.9693 12.2483 11.9801C12.2505 11.9909 12.2524 12.0018 12.2541 12.0127C12.2558 12.0236 12.2572 12.0346 12.2584 12.0456C12.2596 12.0566 12.2604 12.0676 12.261 12.0786C12.2617 12.0896 12.262 12.1007 12.2621 12.1117C12.2621 12.1228 12.2619 12.1338 12.2615 12.1448C12.261 12.1559 12.2602 12.1669 12.2592 12.1779C12.2582 12.1889 12.2569 12.1999 12.2554 12.2108C12.2539 12.2218 12.252 12.2327 12.2499 12.2435C12.2478 12.2543 12.2455 12.2651 12.2429 12.2759C12.2403 12.2866 12.2374 12.2973 12.2343 12.3079C12.2311 12.3184 12.2277 12.3289 12.224 12.3394C12.2204 12.3498 12.2165 12.3601 12.2123 12.3704C12.2082 12.3806 12.2038 12.3907 12.1991 12.4008C12.1944 12.4107 12.1895 12.4206 12.1844 12.4304C12.1792 12.4402 12.1739 12.4498 12.1682 12.4594C12.1626 12.4689 12.1568 12.4782 12.1507 12.4875C12.1446 12.4967 12.1383 12.5058 12.1318 12.5147C12.1253 12.5236 12.1185 12.5323 12.1116 12.5409C12.1046 12.5495 12.0974 12.5579 12.0901 12.5661C12.0827 12.5744 12.0751 12.5824 12.0674 12.5903C12.0596 12.5981 12.0517 12.6058 12.0435 12.6133C12.0354 12.6208 12.0271 12.628 12.0186 12.6351C11.9924 12.6569 11.9659 12.6785 11.9392 12.6997C11.9126 12.721 11.8856 12.7419 11.8585 12.7626C11.8313 12.7833 11.804 12.8036 11.7764 12.8237C11.7488 12.8438 11.721 12.8636 11.693 12.883C11.665 12.9025 11.6368 12.9217 11.6083 12.9405C11.5799 12.9594 11.5513 12.9779 11.5225 12.9962C11.4936 13.0144 11.4646 13.0323 11.4354 13.0499C11.4061 13.0675 11.3767 13.0848 11.3471 13.1018C11.3175 13.1187 11.2878 13.1354 11.2578 13.1517C11.2278 13.168 11.1977 13.184 11.1674 13.1997C11.1371 13.2153 11.1066 13.2306 11.076 13.2456C11.0453 13.2606 11.0145 13.2753 10.9835 13.2896C10.9526 13.304 10.9215 13.3179 10.8902 13.3316C10.8589 13.3452 10.8275 13.3586 10.796 13.3715C10.7644 13.3845 10.7327 13.3971 10.7009 13.4094C10.6691 13.4217 10.6371 13.4336 10.605 13.4452C10.573 13.4568 10.5407 13.468 10.5084 13.4789C10.4761 13.4898 10.4436 13.5003 10.4111 13.5105C10.3785 13.5207 10.3458 13.5305 10.3131 13.54C10.2803 13.5495 10.2474 13.5586 10.2144 13.5673C10.1815 13.5761 10.1484 13.5845 10.1152 13.5925C10.0821 13.6005 10.0489 13.6082 10.0155 13.6155C9.98221 13.6228 9.94882 13.6298 9.91534 13.6364C9.88186 13.643 9.84833 13.6492 9.81472 13.6551C9.78112 13.6609 9.74743 13.6664 9.71371 13.6715C9.67998 13.6767 9.6462 13.6814 9.61237 13.6858C9.57854 13.6902 9.54466 13.6942 9.51074 13.6979C9.47682 13.7015 9.44286 13.7048 9.40888 13.7078C9.3749 13.7107 9.34087 13.7132 9.30683 13.7154C9.27278 13.7176 9.23872 13.7194 9.20463 13.7208C9.17054 13.7223 9.13645 13.7233 9.10235 13.724C9.06824 13.7247 9.03411 13.725 9 13.725C8.96587 13.725 8.93174 13.7247 8.89763 13.724C8.86352 13.7233 8.82941 13.7223 8.79533 13.7208C8.76122 13.7194 8.72715 13.7176 8.69311 13.7154C8.65904 13.7132 8.62502 13.7107 8.59101 13.7078C8.55701 13.7048 8.52305 13.7015 8.48913 13.6979C8.45519 13.6942 8.42131 13.6902 8.38748 13.6858C8.35362 13.6814 8.31983 13.6766 8.2861 13.6715C8.25237 13.6664 8.21869 13.6609 8.18506 13.655C8.15146 13.6492 8.1179 13.643 8.08443 13.6364C8.05095 13.6298 8.01754 13.6228 7.98421 13.6155C7.95088 13.6082 7.91764 13.6005 7.88446 13.5925C7.8513 13.5844 7.81822 13.576 7.78525 13.5673C7.75226 13.5585 7.71938 13.5494 7.6866 13.5399C7.65382 13.5304 7.62114 13.5206 7.58858 13.5105C7.55601 13.5003 7.52354 13.4897 7.49121 13.4789C7.45887 13.4679 7.42664 13.4567 7.39456 13.4451C7.36247 13.4335 7.33049 13.4216 7.29866 13.4093C7.26683 13.397 7.23513 13.3844 7.20355 13.3714C7.172 13.3584 7.14059 13.3451 7.1093 13.3315C7.07804 13.3178 7.04693 13.3038 7.01594 13.2895C6.98498 13.2751 6.95418 13.2605 6.92353 13.2455C6.89288 13.2305 6.8624 13.2151 6.83209 13.1994C6.80178 13.1838 6.77164 13.1678 6.74166 13.1515C6.71169 13.1351 6.6819 13.1185 6.65231 13.1015C6.62271 13.0845 6.59329 13.0673 6.56405 13.0497C6.53484 13.032 6.50579 13.0141 6.47696 12.9959C6.44812 12.9776 6.41948 12.9591 6.39104 12.9402C6.36261 12.9213 6.33438 12.9022 6.30635 12.8827C6.27834 12.8632 6.25054 12.8434 6.22295 12.8234C6.19536 12.8033 6.168 12.7829 6.14085 12.7622C6.1137 12.7415 6.08679 12.7206 6.0601 12.6993C6.03342 12.678 6.00695 12.6565 5.98073 12.6346Z"   fill="#2AC763" ></path></svg>