<svg xmlns="http://www.w3.org/2000/svg" xmlns:xlink="http://www.w3.org/1999/xlink" width="16" height="16" viewBox="0 0 16 16" fill="none"><path     fill="#F15554"  d="M15.9944 7.4594C16.0003 7.53305 15.9948 7.6088 15.9748 7.68422L14.5348 14.0405C14.5298 14.0589 14.5241 14.0771 14.5176 14.095C14.5111 14.113 14.5038 14.1306 14.4958 14.1479C14.4877 14.1653 14.479 14.1822 14.4695 14.1988C14.46 14.2153 14.4498 14.2315 14.4389 14.2472C14.2847 14.5552 14.0502 14.8275 13.7384 15.0258C13.7187 15.0383 13.6989 15.0504 13.6789 15.0622C13.6588 15.074 13.6385 15.0854 13.6181 15.0964C13.5976 15.1075 13.577 15.1182 13.5561 15.1285C13.5353 15.1388 13.5143 15.1487 13.4931 15.1583C13.4719 15.1678 13.4505 15.177 13.429 15.1858C13.4075 15.1946 13.3858 15.203 13.364 15.2111C13.3422 15.2191 13.3202 15.2267 13.2981 15.234C13.276 15.2412 13.2538 15.2481 13.2315 15.2545C13.2091 15.261 13.1867 15.267 13.1641 15.2727C13.1416 15.2784 13.1189 15.2836 13.0962 15.2885C13.0734 15.2933 13.0506 15.2978 13.0277 15.3018C13.0048 15.3058 12.9819 15.3094 12.9588 15.3126C12.9358 15.3159 12.9127 15.3187 12.8896 15.3211C12.8664 15.3235 12.8433 15.3254 12.8201 15.327C12.7969 15.3286 12.7737 15.3297 12.7504 15.3304C12.7272 15.3312 12.7039 15.3315 12.6807 15.3314L12.6807 15.3275L3.43077 15.3236C3.39841 15.3283 3.36576 15.3315 3.33205 15.3315C3.29825 15.3315 3.26535 15.3284 3.23276 15.3234L0.772321 15.3225C0.737257 15.3283 0.701948 15.3313 0.666392 15.3315C0.655486 15.3315 0.644588 15.3313 0.633695 15.3308C0.622801 15.3302 0.611928 15.3295 0.601076 15.3284C0.590223 15.3274 0.579401 15.326 0.568613 15.3243C0.557826 15.3228 0.547082 15.321 0.536386 15.3189C0.52569 15.3167 0.515053 15.3143 0.504472 15.3117C0.493894 15.309 0.483386 15.3061 0.472949 15.3029C0.462514 15.2998 0.452161 15.2964 0.441892 15.2926C0.431624 15.289 0.421451 15.285 0.411376 15.2809C0.4013 15.2767 0.391333 15.2723 0.381473 15.2676C0.371615 15.263 0.361875 15.2581 0.352258 15.2529C0.342641 15.2478 0.333153 15.2424 0.323798 15.2368C0.314444 15.2312 0.305233 15.2254 0.296165 15.2193C0.287098 15.2132 0.278183 15.207 0.269422 15.2005C0.260663 15.194 0.252069 15.1873 0.243638 15.1803C0.235208 15.1734 0.226952 15.1663 0.218871 15.159C0.210791 15.1517 0.202895 15.1441 0.195182 15.1364C0.18747 15.1287 0.179953 15.1208 0.172628 15.1127C0.165304 15.1046 0.158183 15.0964 0.151265 15.088C0.144346 15.0795 0.137638 15.0709 0.131141 15.0622C0.124644 15.0534 0.118367 15.0445 0.112307 15.0354C0.106248 15.0264 0.100415 15.0172 0.0948085 15.0078C0.0892019 14.9985 0.083828 14.989 0.0786869 14.9793C0.0735457 14.9697 0.0686437 14.96 0.0639808 14.9501C0.0593178 14.9403 0.0548996 14.9303 0.0507262 14.9202C0.0465527 14.9101 0.0426288 14.9 0.0389545 14.8897C0.0352805 14.8794 0.0318605 14.8691 0.0286946 14.8587C0.0255289 14.8482 0.022621 14.8377 0.019971 14.8271C0.0173209 14.8166 0.0149322 14.8059 0.0128046 14.7952C0.0106769 14.7845 0.00881291 14.7738 0.00721269 14.763C0.00561244 14.7522 0.00427783 14.7414 0.00320885 14.7305C0.00213989 14.7197 0.00133783 14.7088 0.000802698 14.6979C0.000267566 14.687 0 14.6761 0 14.6652L0.0060851 6.66466C0.0060864 6.65374 0.00635531 6.64284 0.0068918 6.63194C0.00742829 6.62104 0.00823174 6.61018 0.00930214 6.59932C0.0103725 6.58847 0.0117086 6.57765 0.0133103 6.56686C0.0149121 6.55607 0.0167775 6.54532 0.0189066 6.53463C0.0210359 6.52393 0.0234262 6.5133 0.0260777 6.50271C0.0287293 6.49212 0.0316389 6.48162 0.0348062 6.47118C0.0379739 6.46075 0.0413955 6.4504 0.0450712 6.44013C0.048747 6.42985 0.0526725 6.41969 0.0568478 6.4096C0.0610232 6.39953 0.0654431 6.38957 0.0701077 6.3797C0.0747724 6.36983 0.0796761 6.36011 0.0848188 6.35049C0.0899619 6.34087 0.0953376 6.33138 0.100946 6.32203C0.106555 6.31266 0.11239 6.30345 0.11845 6.2944C0.124511 6.28533 0.130791 6.27641 0.137289 6.26764C0.143788 6.25888 0.150498 6.2503 0.157418 6.24187C0.16434 6.23344 0.171463 6.22518 0.178787 6.2171C0.186114 6.20901 0.193634 6.20112 0.201347 6.19341C0.209061 6.1857 0.21696 6.17818 0.225042 6.17086C0.233125 6.16352 0.241382 6.15641 0.249814 6.1495C0.258246 6.14257 0.266843 6.13586 0.275604 6.12937C0.284367 6.12288 0.293283 6.11659 0.302351 6.11053C0.311421 6.10447 0.320635 6.09864 0.329991 6.09304C0.339347 6.08743 0.348835 6.08206 0.358455 6.07692C0.368076 6.07177 0.377815 6.06688 0.387677 6.0622C0.397538 6.05754 0.407507 6.05313 0.417584 6.04896C0.427661 6.04478 0.437835 6.04086 0.448105 6.03718C0.458376 6.03351 0.46873 6.0301 0.479168 6.02693C0.489606 6.02377 0.500115 6.02086 0.510696 6.01821C0.521276 6.01557 0.531917 6.01318 0.542615 6.01105C0.553312 6.00893 0.564056 6.00706 0.574846 6.00545C0.585636 6.00386 0.596458 6.00253 0.607312 6.00145C0.618168 6.00039 0.629043 5.99959 0.639936 5.99906C0.650831 5.99853 0.661732 5.99826 0.672638 5.99826C0.700101 5.99826 0.727083 6.00042 0.753746 6.0037L2.96543 5.99857L2.96543 5.986C5.00031 5.84036 6.61277 4.17218 6.67033 2.11407C6.66514 2.05619 6.66153 1.99797 6.66153 1.93873C6.66153 0.868 7.52945 0 8.60026 0C9.52039 0 10.2891 0.641651 10.4877 1.50133L10.4974 1.50004C10.5253 1.62502 10.5498 1.75067 10.5709 1.877C10.5919 2.00332 10.6094 2.13013 10.6235 2.25742C10.6376 2.3847 10.6482 2.51227 10.6553 2.64014C10.6624 2.768 10.666 2.89597 10.6661 3.02403C10.6661 3.12184 10.6642 3.21963 10.6601 3.31735C10.6561 3.41509 10.65 3.51268 10.6418 3.61015C10.6337 3.70762 10.6235 3.80489 10.6112 3.90194C10.599 3.99898 10.5847 4.09573 10.5684 4.19217C10.552 4.28861 10.5337 4.38467 10.5133 4.48034C10.4929 4.576 10.4706 4.67121 10.4462 4.76594C10.4218 4.86066 10.3954 4.95483 10.3671 5.04846C10.3387 5.14207 10.3084 5.23503 10.2761 5.32738L13.9959 5.33138C14.0301 5.33138 14.0635 5.33482 14.0964 5.33987C14.7315 5.36477 15.3432 5.69185 15.7037 6.27264C15.7173 6.29463 15.7306 6.31688 15.7432 6.33939C15.756 6.36189 15.7684 6.38464 15.7803 6.40763C15.7922 6.43064 15.8036 6.45386 15.8145 6.4773C15.8256 6.50074 15.8361 6.5244 15.8461 6.54825C15.8561 6.57211 15.8657 6.59616 15.8749 6.6204C15.884 6.64464 15.8926 6.66905 15.9007 6.69363C15.9088 6.7182 15.9165 6.74294 15.9235 6.76782C15.9307 6.7927 15.9374 6.81772 15.9435 6.84285C15.9496 6.868 15.9553 6.89325 15.9604 6.91862C15.9656 6.944 15.9703 6.96946 15.9745 6.99499C15.9787 7.02055 15.9823 7.04618 15.9855 7.07187C15.9886 7.09756 15.9912 7.12332 15.9933 7.14911C15.9955 7.17491 15.997 7.20074 15.9981 7.22661C15.9992 7.25247 15.9998 7.27835 16 7.30424C16 7.33012 15.9995 7.356 15.9986 7.38186C15.9977 7.40774 15.9962 7.43358 15.9944 7.4594ZM1.33343 13.9898L2.66621 13.9904L2.67119 7.33209L1.33967 7.33504L1.33343 13.9898ZM14.5787 6.96891C14.575 6.96281 14.5711 6.95679 14.5671 6.95083C14.5631 6.94487 14.5591 6.93898 14.5549 6.93315C14.5507 6.92733 14.5464 6.92157 14.5421 6.9159C14.5377 6.91022 14.5333 6.90461 14.5287 6.89907C14.5242 6.89355 14.5195 6.88809 14.5148 6.88271C14.51 6.87735 14.5052 6.87205 14.5003 6.86683C14.4954 6.86162 14.4904 6.85649 14.4853 6.85144C14.4802 6.84639 14.475 6.84143 14.4698 6.83655C14.4645 6.83169 14.4592 6.8269 14.4538 6.82219C14.4484 6.8175 14.4429 6.81291 14.4373 6.80839C14.4317 6.80387 14.4261 6.79946 14.4204 6.79514C14.4147 6.79081 14.4089 6.78659 14.403 6.78246C14.3972 6.77833 14.3913 6.7743 14.3853 6.77037C14.3793 6.76645 14.3732 6.76261 14.3671 6.75888C14.361 6.75514 14.3548 6.75151 14.3486 6.74799C14.3423 6.74447 14.336 6.74105 14.3297 6.73775C14.3233 6.73443 14.3169 6.73123 14.3105 6.72813C14.304 6.72504 14.2975 6.72205 14.2909 6.71917C14.2844 6.71629 14.2778 6.71353 14.2711 6.71087C14.2645 6.70821 14.2578 6.70566 14.251 6.70322C14.2443 6.7008 14.2375 6.69847 14.2307 6.69626C14.2239 6.69406 14.217 6.69198 14.2101 6.68999C14.2032 6.688 14.1963 6.68614 14.1894 6.68441C14.1824 6.68266 14.1754 6.68103 14.1684 6.67951C14.1614 6.678 14.1544 6.67661 14.1474 6.67534C14.1403 6.67406 14.1332 6.6729 14.1261 6.67185C14.1191 6.6708 14.1119 6.66988 14.1048 6.66908C14.0977 6.66829 14.0906 6.6676 14.0834 6.66703C14.0763 6.66647 14.0691 6.66603 14.062 6.66571C14.0548 6.66538 14.0477 6.66517 14.0405 6.66508C14.0333 6.665 14.0262 6.66503 14.019 6.66519C14.0119 6.66535 14.0047 6.66563 13.9975 6.66602L13.9975 6.66409L13.9959 6.66409L9.29404 6.6592C9.28313 6.6592 9.27223 6.65893 9.26133 6.6584C9.25043 6.65786 9.23956 6.65706 9.22871 6.65598C9.21786 6.6549 9.20703 6.65357 9.19624 6.65198C9.18545 6.65036 9.17471 6.6485 9.16401 6.64638C9.15332 6.64423 9.14268 6.64184 9.13211 6.6392C9.12153 6.63654 9.11102 6.63363 9.10059 6.63047C9.09016 6.6273 9.0798 6.62387 9.06953 6.6202C9.05925 6.61652 9.04909 6.6126 9.039 6.60842C9.02893 6.60425 9.01897 6.59982 9.0091 6.59516C8.99924 6.59049 8.98951 6.58559 8.97989 6.58045C8.97027 6.5753 8.96078 6.56994 8.95143 6.56432C8.94208 6.55871 8.93287 6.55288 8.9238 6.54681C8.91473 6.54076 8.90582 6.53447 8.89706 6.52798C8.8883 6.52148 8.8797 6.51477 8.87127 6.50786C8.86284 6.50093 8.85458 6.49381 8.8465 6.48648C8.83842 6.47914 8.83052 6.47162 8.82281 6.46391C8.8151 6.4562 8.80759 6.44831 8.80026 6.44022C8.79294 6.43214 8.78582 6.42388 8.7789 6.41545C8.77199 6.40702 8.76528 6.39842 8.75877 6.38966C8.75228 6.38091 8.74599 6.37199 8.73994 6.36292C8.73389 6.35385 8.72806 6.34464 8.72244 6.33529C8.71683 6.32592 8.71147 6.31643 8.70632 6.30681C8.70118 6.2972 8.69628 6.28747 8.69162 6.2776C8.68696 6.26773 8.68254 6.25777 8.67836 6.2477C8.67419 6.23762 8.67028 6.22745 8.6666 6.21718C8.66293 6.2069 8.6595 6.19655 8.65634 6.18612C8.65317 6.17567 8.65026 6.16516 8.64762 6.15459C8.64497 6.14401 8.64258 6.13337 8.64045 6.12268C8.63831 6.11198 8.63645 6.10124 8.63486 6.09045C8.63325 6.07966 8.63192 6.06883 8.63085 6.05798C8.62977 6.04711 8.62898 6.03625 8.62844 6.02536C8.62791 6.01446 8.62765 6.00356 8.62765 5.99265C8.62765 5.88673 8.65311 5.7868 8.69714 5.69785L8.69001 5.69201C8.72371 5.62919 8.75619 5.56576 8.78748 5.50172C8.81877 5.43769 8.84883 5.37307 8.87768 5.30789C8.90653 5.24271 8.93414 5.17702 8.96049 5.11079C8.98684 5.04456 9.01193 4.97787 9.03578 4.9107C9.05961 4.84354 9.08216 4.77593 9.10343 4.70789C9.12472 4.63987 9.14468 4.57147 9.16337 4.50269C9.18206 4.4339 9.19945 4.3648 9.21551 4.29535C9.23159 4.2259 9.24633 4.15618 9.25977 4.08619L9.2681 4.08642C9.2681 4.08642 9.35672 3.72653 9.35553 3.03636C9.35464 2.4895 9.25496 1.99037 9.25496 1.99037L9.24991 1.99037C9.2504 1.98077 9.25152 1.97123 9.25152 1.96138C9.25152 1.95118 9.25127 1.94099 9.25077 1.93081C9.25027 1.92063 9.24952 1.91045 9.24852 1.9003C9.24752 1.89015 9.24627 1.88001 9.24477 1.86993C9.24328 1.85984 9.24153 1.84979 9.23954 1.83979C9.23756 1.82978 9.23532 1.81984 9.23284 1.80994C9.23037 1.80004 9.22764 1.79022 9.22469 1.78046C9.22173 1.77069 9.21853 1.76101 9.21509 1.75141C9.21165 1.74181 9.20797 1.7323 9.20408 1.72287C9.20017 1.71344 9.19604 1.70412 9.19168 1.69491C9.18731 1.68568 9.18273 1.67656 9.17793 1.66757C9.17311 1.65858 9.16808 1.6497 9.16284 1.64096C9.1576 1.63221 9.15214 1.6236 9.14648 1.61511C9.14081 1.60663 9.13494 1.5983 9.12886 1.5901C9.12278 1.58191 9.11651 1.57387 9.11005 1.56599C9.10357 1.5581 9.09691 1.55037 9.09006 1.54281C9.08321 1.53526 9.07618 1.52787 9.06897 1.52067C9.06176 1.51346 9.05436 1.50642 9.04681 1.49957C9.03925 1.49273 9.03153 1.48606 9.02365 1.47959C9.01577 1.47312 9.00773 1.46684 8.99953 1.46076C8.99134 1.45468 8.983 1.44881 8.97451 1.44315C8.96604 1.43748 8.95742 1.43202 8.94868 1.42678C8.93992 1.42154 8.93104 1.41651 8.92205 1.4117C8.91306 1.4069 8.90394 1.40231 8.89473 1.39794C8.88552 1.39358 8.8762 1.38946 8.86677 1.38556C8.85734 1.38165 8.84783 1.37798 8.83821 1.37455C8.82861 1.37111 8.81893 1.36791 8.80917 1.36495C8.79941 1.36199 8.78958 1.35927 8.77968 1.35678C8.76978 1.35431 8.75983 1.35208 8.74984 1.35009C8.73983 1.3481 8.72978 1.34635 8.71969 1.34485C8.70961 1.34336 8.69949 1.34212 8.68934 1.34111C8.67919 1.34011 8.66901 1.33936 8.65883 1.33886C8.64865 1.33836 8.63845 1.33811 8.62824 1.33811C8.61804 1.33811 8.60785 1.33836 8.59765 1.33886C8.58747 1.33936 8.57729 1.34011 8.56714 1.34111C8.55699 1.34212 8.54688 1.34336 8.53679 1.34485C8.5267 1.34635 8.51665 1.3481 8.50664 1.35009C8.49665 1.35208 8.4867 1.35431 8.4768 1.35678C8.4669 1.35927 8.45708 1.36199 8.44731 1.36495C8.43755 1.36791 8.42787 1.37111 8.41827 1.37455C8.40867 1.37798 8.39916 1.38165 8.38973 1.38556C8.3803 1.38946 8.37098 1.39358 8.36175 1.39794C8.35254 1.40231 8.34343 1.4069 8.33443 1.4117C8.32544 1.41651 8.31656 1.42154 8.30782 1.42678C8.29906 1.43202 8.29044 1.43748 8.28197 1.44315C8.27348 1.44881 8.26514 1.45468 8.25696 1.46076C8.24877 1.46684 8.24073 1.47312 8.23283 1.47959C8.22495 1.48606 8.21723 1.49273 8.20967 1.49957C8.20212 1.50642 8.19473 1.51346 8.18752 1.52067C8.18031 1.52787 8.17327 1.53526 8.16642 1.54281C8.15957 1.55037 8.15291 1.5581 8.14645 1.56599C8.13998 1.57387 8.13371 1.58191 8.12762 1.5901C8.12154 1.5983 8.11567 1.60663 8.11001 1.61511C8.10434 1.6236 8.09888 1.63221 8.09364 1.64096C8.0884 1.6497 8.08337 1.65858 8.07857 1.66757C8.07376 1.67656 8.06917 1.68568 8.0648 1.69491C8.06044 1.70412 8.05631 1.71344 8.0524 1.72287C8.04851 1.7323 8.04484 1.74181 8.04139 1.75141C8.03797 1.76101 8.03476 1.77069 8.03181 1.78046C8.02885 1.79022 8.02613 1.80004 8.02365 1.80994C8.02116 1.81984 8.01892 1.82978 8.01694 1.83979C8.01495 1.84979 8.0132 1.85984 8.01171 1.86993C8.01021 1.88001 8.00896 1.89015 8.00796 1.9003C8.00698 1.91045 8.00622 1.92063 8.00571 1.93081C8.00522 1.94099 8.00497 1.95118 8.00497 1.96138C8.00497 1.9758 8.00624 1.98996 8.00713 2.00415L7.99848 2.00423C7.99848 2.00423 8.00906 2.52449 7.9052 3.06414C7.86109 3.29305 7.79912 3.5065 7.74266 3.67561C7.7416 3.67508 7.74054 3.67455 7.73947 3.674C7.17844 5.38886 5.76799 6.71814 4.0054 7.16595L3.99901 13.9909L12.6838 13.9944C12.7132 13.9944 12.7419 13.997 12.7702 14.0008C12.7925 13.9979 12.8145 13.9937 12.8363 13.9883C12.8581 13.983 12.8796 13.9765 12.9007 13.9688C12.9218 13.9611 12.9424 13.9523 12.9625 13.9423C12.9827 13.9324 13.0022 13.9214 13.0211 13.9093C13.0345 13.9009 13.0475 13.8919 13.0601 13.8824C13.0728 13.873 13.085 13.8631 13.0969 13.8527C13.1088 13.8423 13.1203 13.8315 13.1313 13.8202C13.1424 13.809 13.153 13.7973 13.1632 13.7852C13.1734 13.7732 13.1831 13.7607 13.1923 13.7479C13.2015 13.7351 13.2102 13.722 13.2184 13.7085C13.2266 13.695 13.2343 13.6812 13.2415 13.6671C13.2487 13.6531 13.2553 13.6388 13.2613 13.6242L13.2631 13.6252L14.6496 7.50543L14.6442 7.50382C14.6478 7.4928 14.6511 7.48168 14.654 7.47047C14.657 7.45927 14.6596 7.448 14.662 7.43664C14.6643 7.42529 14.6663 7.41389 14.6681 7.40243C14.6698 7.39096 14.6712 7.37947 14.6723 7.36793C14.6734 7.3564 14.6742 7.34485 14.6747 7.33326C14.6751 7.32167 14.6753 7.3101 14.6751 7.29851C14.675 7.28692 14.6745 7.27534 14.6737 7.26378C14.6729 7.25222 14.6719 7.24068 14.6704 7.22919C14.669 7.21769 14.6673 7.20623 14.6653 7.19482C14.6633 7.18342 14.6609 7.17206 14.6583 7.16079C14.6556 7.1495 14.6527 7.13829 14.6494 7.12717C14.6462 7.11605 14.6426 7.10502 14.6388 7.09409C14.6349 7.08316 14.6308 7.07236 14.6263 7.06164C14.6219 7.05093 14.6172 7.04036 14.6121 7.02991C14.6071 7.01945 14.6018 7.00915 14.5963 6.999C14.5907 6.98883 14.5849 6.97882 14.5787 6.96899"></path></svg>