<svg xmlns="http://www.w3.org/2000/svg" xmlns:xlink="http://www.w3.org/1999/xlink" width="16" height="16.000274658203125" viewBox="0 0 16 16.000274658203125" fill="none"><g opacity="0.7"><path d="M15.1274 7.11416L14.8498 7.11416C14.8244 6.92133 14.7908 6.72996 14.7488 6.54006C14.7069 6.35015 14.6568 6.16243 14.5985 5.97686C13.7786 3.37218 11.5573 1.52074 8.87307 1.177L8.87307 0.872675C8.87307 0.397075 8.4769 0 8.00046 0C7.52459 0 7.14118 0.383444 7.11452 0.859341L7.11452 1.19004C6.95599 1.21671 6.79747 1.22975 6.63866 1.26945C3.75623 1.85114 1.54821 4.24454 1.1645 7.12749L0.873824 7.12749C0.635895 7.12749 0.411299 7.21995 0.239148 7.39181C0.0806266 7.56368 -0.0118193 7.7886 0.001218 8.01349C0.001218 8.4894 0.397964 8.87284 0.873824 8.87284L1.16479 8.87284C1.56124 12.0071 4.03388 14.4666 7.14088 14.863L7.14088 15.1276C7.14088 15.6036 7.53794 16.0003 8.01379 16.0003C8.48966 16.0003 8.8864 15.6036 8.8864 15.1276L8.8864 14.8497C9.50775 14.7706 10.116 14.5987 10.698 14.3608C12.9854 13.3953 14.5588 11.306 14.8498 8.85951L15.1274 8.85951C15.6033 8.85951 16 8.46302 16 7.98683C16 7.97254 15.9996 7.95827 15.999 7.944C15.9984 7.92973 15.9973 7.91548 15.9959 7.90126C15.9945 7.88704 15.9928 7.87287 15.9906 7.85874C15.9885 7.8446 15.9862 7.83054 15.9834 7.81652C15.9806 7.8025 15.9775 7.78856 15.974 7.7747C15.9706 7.76084 15.9668 7.74708 15.9626 7.7334C15.9585 7.71973 15.954 7.70617 15.9492 7.69271C15.9445 7.67926 15.9393 7.66594 15.9337 7.65274C15.9284 7.63953 15.9226 7.62647 15.9164 7.61355C15.9104 7.60064 15.904 7.58789 15.8971 7.57528C15.8906 7.56267 15.8835 7.55025 15.876 7.53799C15.8689 7.52573 15.8612 7.51366 15.8532 7.50179C15.8453 7.48991 15.837 7.47824 15.8285 7.46675C15.8201 7.45527 15.8112 7.44402 15.8021 7.43297C15.7931 7.42192 15.7839 7.41111 15.7742 7.40053C15.7646 7.38995 15.7548 7.3796 15.7446 7.36949C15.7346 7.35938 15.7242 7.34954 15.7135 7.33994C15.7031 7.33037 15.6923 7.32104 15.6812 7.31197C15.6703 7.30291 15.659 7.29413 15.6474 7.28561C15.6359 7.27711 15.6242 7.26889 15.6124 7.26095C15.6005 7.25301 15.5884 7.24537 15.5762 7.23804C15.5639 7.2307 15.5515 7.22367 15.5389 7.21693C15.5263 7.2102 15.5136 7.20379 15.5006 7.19768C15.4877 7.19159 15.4747 7.1858 15.4615 7.18035C15.4483 7.17488 15.4349 7.16974 15.4215 7.16494C15.408 7.16015 15.3945 7.15568 15.3808 7.15154C15.3671 7.14739 15.3534 7.1436 15.3395 7.14013C15.3256 7.13667 15.3117 7.13355 15.2977 7.13077C15.2837 7.128 15.2696 7.12556 15.2555 7.12349C15.2413 7.12141 15.2272 7.11967 15.213 7.11828C15.1987 7.11689 15.1845 7.11585 15.1702 7.11516C15.156 7.11447 15.1417 7.11414 15.1274 7.11416ZM13.144 9.57364C12.3241 12.2183 9.66657 13.7918 6.95599 13.2498C4.2321 12.6945 2.39385 10.2084 2.67178 7.45789C2.93638 4.69437 5.22382 2.61833 8.00046 2.61833C8.74121 2.61833 9.455 2.76353 10.1027 3.05451C10.1787 3.08609 10.2538 3.11942 10.3282 3.15449C10.4026 3.18954 10.4762 3.22631 10.5489 3.26476C10.6216 3.30323 10.6934 3.34336 10.7642 3.38515C10.8351 3.42693 10.9049 3.47033 10.9737 3.51535C11.0426 3.56037 11.1103 3.60697 11.177 3.65511C11.2437 3.70326 11.3092 3.75293 11.3736 3.80413C11.438 3.8553 11.5012 3.90795 11.5631 3.96206C11.6251 4.01618 11.6857 4.07168 11.7451 4.12861C11.8045 4.18552 11.8625 4.24378 11.9192 4.30338C11.9759 4.36299 12.0312 4.42387 12.085 4.48602C12.1389 4.54818 12.1913 4.61156 12.2422 4.67615C12.2932 4.74073 12.3426 4.80645 12.3905 4.87332C12.4384 4.94019 12.4847 5.00813 12.5295 5.07715C12.5742 5.14617 12.6173 5.21618 12.6589 5.28719C12.7004 5.35819 12.7402 5.43012 12.7784 5.50299C12.8166 5.57584 12.8531 5.64953 12.8878 5.72409C12.9226 5.79863 12.9557 5.87393 12.9869 5.95C13.0182 6.02607 13.0477 6.10283 13.0755 6.18026C13.1032 6.25769 13.1292 6.33572 13.1533 6.41437C13.1774 6.493 13.1997 6.57215 13.2202 6.65183C13.2407 6.7315 13.2593 6.8116 13.276 6.89212C13.2928 6.97264 13.3077 7.05353 13.3207 7.13475C13.3337 7.21596 13.3448 7.29744 13.3541 7.37918C13.3633 7.46091 13.3707 7.54281 13.3762 7.62489C13.3816 7.70696 13.3852 7.78911 13.3868 7.87135C13.3885 7.9536 13.3883 8.03584 13.3861 8.11806C13.384 8.20029 13.3799 8.28242 13.374 8.36446C13.368 8.4465 13.3602 8.52837 13.3505 8.61005C13.3407 8.69173 13.3291 8.77313 13.3156 8.85427C13.3021 8.93541 13.2867 9.0162 13.2695 9.09663C13.2523 9.17706 13.2332 9.25703 13.2122 9.33659C13.1913 9.41614 13.1685 9.49515 13.144 9.57364ZM8.00046 4.70741C7.94654 4.70727 7.89265 4.70848 7.83879 4.71099C7.78492 4.71351 7.73117 4.71737 7.6775 4.72254C7.62383 4.72771 7.57033 4.7342 7.51697 4.74201C7.46361 4.74981 7.41048 4.75892 7.35759 4.76934C7.30468 4.77976 7.25207 4.79148 7.19974 4.8045C7.14741 4.81752 7.09545 4.83182 7.04383 4.8474C6.99221 4.86298 6.941 4.87981 6.89022 4.8979C6.83943 4.916 6.78911 4.93533 6.73927 4.95591C6.68944 4.97649 6.64012 4.99827 6.59136 5.02129C6.54259 5.04429 6.49444 5.06848 6.44686 5.09386C6.39928 5.11923 6.35235 5.14577 6.30609 5.17344C6.25982 5.20113 6.21427 5.22995 6.16941 5.25987C6.12457 5.28981 6.08049 5.32083 6.03716 5.35293C5.99383 5.38504 5.95133 5.41818 5.90964 5.45239C5.86796 5.48658 5.82713 5.52179 5.78717 5.55799C5.74722 5.5942 5.70819 5.63136 5.67006 5.66951C5.63194 5.70763 5.59478 5.74668 5.55858 5.78664C5.52237 5.8266 5.48717 5.86743 5.45298 5.90912C5.41879 5.95081 5.38565 5.99332 5.35356 6.03665C5.32145 6.07998 5.29045 6.12406 5.26052 6.16893C5.2306 6.21379 5.20179 6.25936 5.1741 6.30563C5.14643 6.3519 5.1199 6.39882 5.09454 6.44641C5.06916 6.49399 5.04497 6.54217 5.02197 6.59094C4.99897 6.63971 4.97719 6.68901 4.95663 6.73886C4.93605 6.7887 4.91672 6.83902 4.89863 6.88982C4.88055 6.94063 4.86372 6.99183 4.84814 7.04345C4.83256 7.09508 4.81828 7.14705 4.80528 7.19938C4.79227 7.25172 4.78056 7.30433 4.77014 7.35724C4.75972 7.41014 4.75061 7.46327 4.74281 7.51663C4.73502 7.57 4.72853 7.6235 4.72336 7.67718C4.71819 7.73086 4.71434 7.78463 4.71183 7.83849C4.70931 7.89236 4.70811 7.94624 4.70825 8.00016C4.70812 8.05409 4.70933 8.10797 4.71184 8.16183C4.71436 8.2157 4.7182 8.26945 4.72337 8.32313C4.72855 8.37681 4.73505 8.43031 4.74284 8.48366C4.75064 8.53703 4.75977 8.59016 4.77019 8.64305C4.78061 8.69595 4.79231 8.74856 4.80533 8.80089C4.81835 8.85323 4.83264 8.9052 4.84822 8.95682C4.86378 9.00843 4.88061 9.05964 4.89871 9.11044C4.9168 9.16123 4.93613 9.21154 4.95671 9.26138C4.97728 9.31122 4.99907 9.36053 5.02207 9.4093C5.04507 9.45807 5.06926 9.50623 5.09463 9.55381C5.11999 9.60139 5.14652 9.6483 5.17421 9.69457C5.20188 9.74084 5.2307 9.78641 5.26062 9.83126C5.29054 9.87611 5.32156 9.92019 5.35367 9.96352C5.38576 10.0069 5.4189 10.0494 5.45309 10.091C5.48728 10.1327 5.52248 10.1736 5.55869 10.2135C5.59489 10.2535 5.63205 10.2925 5.67017 10.3306C5.7083 10.3688 5.74733 10.4059 5.78728 10.4421C5.82724 10.4783 5.86807 10.5135 5.90975 10.5477C5.95144 10.5819 5.99394 10.6151 6.03726 10.6472C6.08058 10.6793 6.12466 10.7103 6.16951 10.7402C6.21435 10.7701 6.25992 10.799 6.30618 10.8266C6.35245 10.8543 6.39936 10.8809 6.44693 10.9062C6.49451 10.9316 6.54267 10.9558 6.59144 10.9788C6.6402 11.0018 6.6895 11.0236 6.73935 11.0442C6.78917 11.0647 6.83949 11.0841 6.89029 11.1022C6.94107 11.1203 6.99227 11.1371 7.04388 11.1526C7.09551 11.1682 7.14748 11.1825 7.19979 11.1955C7.25212 11.2086 7.30473 11.2203 7.35762 11.2307C7.41053 11.2411 7.46365 11.2502 7.517 11.258C7.57034 11.2658 7.62384 11.2723 7.67752 11.2775C7.73119 11.2827 7.78494 11.2865 7.8388 11.289C7.89266 11.2916 7.94654 11.2928 8.00046 11.2926C8.05438 11.2928 8.10826 11.2916 8.16212 11.2891C8.21599 11.2865 8.26975 11.2827 8.32342 11.2775C8.37709 11.2723 8.43059 11.2659 8.48395 11.2581C8.53731 11.2503 8.59044 11.2412 8.64333 11.2307C8.69624 11.2203 8.74885 11.2086 8.80118 11.1956C8.85351 11.1826 8.90547 11.1683 8.9571 11.1527C9.00871 11.1371 9.05993 11.1203 9.11071 11.1022C9.16151 11.0841 9.21182 11.0648 9.26167 11.0442C9.31151 11.0237 9.36081 11.0019 9.40958 10.9789C9.45834 10.9559 9.50652 10.9317 9.5541 10.9063C9.60167 10.881 9.6486 10.8544 9.69486 10.8267C9.74113 10.7991 9.78671 10.7702 9.83155 10.7403C9.8764 10.7104 9.92049 10.6794 9.96382 10.6473C10.0071 10.6152 10.0497 10.582 10.0913 10.5478C10.133 10.5136 10.1739 10.4784 10.2138 10.4422C10.2538 10.406 10.2928 10.3689 10.3309 10.3307C10.3691 10.2926 10.4062 10.2536 10.4424 10.2136C10.4786 10.1736 10.5138 10.1328 10.548 10.0911C10.5822 10.0495 10.6154 10.0069 10.6475 9.96361C10.6796 9.92028 10.7106 9.8762 10.7405 9.83135C10.7705 9.78649 10.7993 9.74094 10.8269 9.69467C10.8546 9.6484 10.8812 9.60147 10.9065 9.55389C10.9319 9.50631 10.9561 9.45815 10.9791 9.40937C11.0021 9.3606 11.0239 9.31129 11.0445 9.26145C11.0651 9.21161 11.0844 9.16129 11.1025 9.11049C11.1206 9.0597 11.1374 9.00849 11.153 8.95686C11.1686 8.90525 11.1829 8.85326 11.1959 8.80093C11.2089 8.74859 11.2206 8.69598 11.231 8.64308C11.2415 8.59017 11.2506 8.53704 11.2584 8.48369C11.2662 8.43033 11.2727 8.37682 11.2778 8.32315C11.283 8.26947 11.2869 8.21571 11.2894 8.16185C11.2919 8.10799 11.2931 8.05409 11.293 8.00016C11.2931 7.94624 11.2919 7.89234 11.2894 7.83848C11.2869 7.78461 11.283 7.73084 11.2779 7.67716C11.2727 7.62349 11.2662 7.56997 11.2584 7.5166C11.2506 7.46324 11.2415 7.41011 11.2311 7.3572C11.2207 7.3043 11.2089 7.25167 11.1959 7.19934C11.1829 7.147 11.1686 7.09503 11.1531 7.0434C11.1375 6.99177 11.1207 6.94056 11.1026 6.88976C11.0845 6.83896 11.0651 6.78863 11.0446 6.73879C11.024 6.68895 11.0022 6.63963 10.9792 6.59086C10.9562 6.54209 10.932 6.4939 10.9066 6.44631C10.8813 6.39873 10.8547 6.3518 10.8271 6.30553C10.7994 6.25926 10.7706 6.2137 10.7406 6.16883C10.7107 6.12397 10.6797 6.07989 10.6476 6.03656C10.6155 5.99322 10.5823 5.95072 10.5481 5.90901C10.514 5.86732 10.4788 5.82649 10.4425 5.78653C10.4063 5.74657 10.3692 5.70752 10.331 5.6694C10.2929 5.63127 10.2539 5.59409 10.2139 5.55789C10.174 5.52168 10.1331 5.48647 10.0914 5.45228C10.0497 5.41808 10.0072 5.38493 9.96391 5.35282C9.92059 5.32072 9.87651 5.2897 9.83165 5.25978C9.78679 5.22985 9.74122 5.20104 9.69496 5.17335C9.64869 5.14566 9.60177 5.11912 9.55417 5.09375C9.50659 5.06839 9.45842 5.0442 9.40965 5.02119C9.36089 4.99819 9.31157 4.97641 9.26173 4.95583C9.2119 4.93525 9.16157 4.91592 9.11077 4.89782C9.05998 4.87973 9.00877 4.8629 8.95715 4.84732C8.90552 4.83174 8.85355 4.81746 8.80122 4.80444C8.74889 4.79142 8.69627 4.77972 8.64336 4.76929C8.59047 4.75887 8.53734 4.74976 8.48398 4.74196C8.43064 4.73417 8.37711 4.72768 8.32343 4.72251C8.26976 4.71734 8.21599 4.71349 8.16213 4.71098C8.10827 4.70846 8.05438 4.70727 8.00046 4.70741Z"   fill="#000000" ></path></g></svg>