<svg xmlns="http://www.w3.org/2000/svg" xmlns:xlink="http://www.w3.org/1999/xlink" width="10" height="10" viewBox="0 0 10 10" fill="none"><path     fill="#BA6F0D"  d="M9.08 0.874996C9.08148 0.874996 9.08295 0.875069 9.08441 0.875216C9.08588 0.875362 9.08733 0.875578 9.08878 0.87586C9.09023 0.876143 9.09165 0.8765 9.09307 0.87693C9.09448 0.877359 9.09587 0.877857 9.09723 0.878424C9.09859 0.878991 9.09991 0.87962 9.10122 0.880313C9.10252 0.881006 9.10378 0.881764 9.10501 0.882584C9.10623 0.883404 9.10741 0.884279 9.10855 0.885206C9.1097 0.886143 9.11078 0.887135 9.11182 0.88818C9.11286 0.889215 9.11386 0.890304 9.11479 0.891446C9.11572 0.892589 9.1166 0.893771 9.11742 0.894991C9.11824 0.896222 9.119 0.897486 9.11969 0.898785C9.12037 0.900084 9.12101 0.901412 9.12158 0.902769C9.12215 0.904136 9.12265 0.905523 9.12307 0.90693C9.1235 0.908346 9.12386 0.909776 9.12414 0.911222C9.12442 0.912667 9.12464 0.914122 9.12478 0.915587C9.12493 0.917052 9.125 0.918521 9.125 0.919996L9.125 7.78C9.125 7.78148 9.12493 7.78294 9.12478 7.78441C9.12464 7.78589 9.12442 7.78734 9.12414 7.78879C9.12386 7.79024 9.1235 7.79166 9.12307 7.79306C9.12265 7.79449 9.12215 7.79586 9.12158 7.79722C9.12101 7.79859 9.12037 7.79991 9.11969 7.80121C9.119 7.80251 9.11824 7.80379 9.11742 7.805C9.11661 7.80623 9.11573 7.80742 9.11479 7.80855C9.11386 7.80969 9.11286 7.81079 9.11182 7.81183C9.11078 7.81287 9.1097 7.81385 9.10855 7.81479C9.10741 7.81573 9.10623 7.8166 9.10501 7.81742C9.10378 7.81823 9.10252 7.81899 9.10122 7.81969C9.09991 7.82038 9.09859 7.82101 9.09723 7.82158C9.09587 7.82214 9.09448 7.82264 9.09307 7.82306C9.09165 7.82349 9.09023 7.82386 9.08878 7.82413C9.08733 7.82443 9.08588 7.82465 9.08441 7.82479C9.08295 7.82492 9.08148 7.825 9.08 7.825L0.919996 7.825C0.918521 7.825 0.917052 7.82492 0.915587 7.82479C0.914122 7.82465 0.912667 7.82443 0.911222 7.82413C0.909776 7.82386 0.908346 7.82349 0.90693 7.82306C0.905523 7.82264 0.904136 7.82214 0.902769 7.82158C0.901412 7.82101 0.900084 7.82038 0.898785 7.81969C0.897486 7.81899 0.896222 7.81823 0.894991 7.81742C0.893771 7.8166 0.892589 7.81573 0.891446 7.81479C0.890304 7.81385 0.889215 7.81287 0.88818 7.81183C0.887135 7.81079 0.886143 7.80969 0.885206 7.80855C0.884279 7.80742 0.883404 7.80623 0.882584 7.805C0.881764 7.80379 0.881006 7.80251 0.880313 7.80121C0.87962 7.79991 0.878991 7.79859 0.878424 7.79722C0.877857 7.79586 0.877359 7.79449 0.87693 7.79306C0.8765 7.79166 0.876143 7.79024 0.87586 7.78879C0.875578 7.78734 0.875362 7.78589 0.875216 7.78441C0.875069 7.78294 0.874996 7.78148 0.874996 7.78L0.874996 0.919996C0.874996 0.918521 0.875069 0.917052 0.875216 0.915587C0.875362 0.914122 0.875578 0.912667 0.87586 0.911222C0.876143 0.909776 0.8765 0.908346 0.87693 0.90693C0.877359 0.905523 0.877857 0.904136 0.878424 0.902769C0.878991 0.901412 0.87962 0.900084 0.880313 0.898785C0.881006 0.897486 0.881764 0.896222 0.882584 0.894991C0.883404 0.893771 0.884279 0.892589 0.885206 0.891446C0.886143 0.890304 0.887135 0.889215 0.88818 0.88818C0.889215 0.887135 0.890304 0.886143 0.891446 0.885206C0.892589 0.884279 0.893771 0.883404 0.894991 0.882584C0.896222 0.881764 0.897486 0.881006 0.898785 0.880313C0.900084 0.87962 0.901412 0.878991 0.902769 0.878424C0.904136 0.877857 0.905523 0.877359 0.90693 0.87693C0.908346 0.8765 0.909776 0.876143 0.911222 0.87586C0.912667 0.875578 0.914122 0.875362 0.915587 0.875216C0.917052 0.875069 0.918521 0.874996 0.919996 0.874996L9.08 0.874996ZM9.08 0L0.919996 0C0.904937 0 0.889889 0.000366122 0.874849 0.00109859C0.85981 0.00184067 0.844801 0.00294908 0.82982 0.00442364C0.814839 0.0058984 0.799904 0.00773907 0.785011 0.00994609C0.770109 0.0121629 0.755274 0.0147363 0.740509 0.0176659C0.725743 0.0206054 0.711061 0.0239061 0.696461 0.0275682C0.681852 0.0312207 0.667344 0.0352342 0.65294 0.0396093C0.638526 0.0439843 0.624234 0.0487061 0.610064 0.0537743C0.595884 0.0588428 0.581837 0.0642578 0.567921 0.0700196C0.554015 0.0757811 0.540254 0.0818848 0.526641 0.0883302C0.513037 0.0947657 0.499596 0.101533 0.486314 0.108633C0.473032 0.115723 0.459936 0.12314 0.447027 0.130884C0.434107 0.138628 0.421388 0.146679 0.408868 0.155039C0.396348 0.163408 0.384043 0.172075 0.371953 0.18104C0.359864 0.190015 0.347999 0.199278 0.336358 0.208828C0.324717 0.218379 0.31332 0.228208 0.302168 0.238316C0.291006 0.248433 0.280103 0.258813 0.269458 0.269458C0.258813 0.280103 0.248433 0.291006 0.238316 0.302168C0.228208 0.31332 0.218379 0.324717 0.208828 0.336358C0.199278 0.347999 0.190015 0.359864 0.18104 0.371953C0.172075 0.384043 0.163408 0.396348 0.155039 0.408868C0.146679 0.421388 0.138628 0.434107 0.130884 0.447027C0.12314 0.459936 0.115723 0.473032 0.108633 0.486314C0.101533 0.499585 0.0947657 0.513028 0.0883302 0.526641C0.0818848 0.540254 0.0757811 0.554015 0.0700196 0.567921C0.0642578 0.581837 0.0588428 0.595884 0.0537743 0.610064C0.0487061 0.624234 0.0439843 0.638526 0.0396093 0.65294C0.035244 0.667344 0.0312304 0.681852 0.0275682 0.696461C0.0239061 0.711061 0.0206054 0.725743 0.0176659 0.740509C0.0147363 0.755274 0.0121629 0.770109 0.00994609 0.785011C0.00773907 0.799904 0.0058984 0.814839 0.00442364 0.82982C0.00294908 0.844801 0.00184067 0.85981 0.00109859 0.874849C0.000366122 0.889889 0 0.904937 0 0.919996L0 7.78C0 7.79506 0.000366122 7.8101 0.00109859 7.82514C0.00184067 7.84019 0.00294908 7.85519 0.00442364 7.87017C0.0058984 7.88516 0.00773907 7.9001 0.00994609 7.915C0.0121629 7.9299 0.0147363 7.94472 0.0176659 7.95949C0.0206054 7.97425 0.0239061 7.98894 0.0275682 8.00355C0.0312207 8.01815 0.0352342 8.03265 0.0396093 8.04707C0.0439843 8.06147 0.0487061 8.07576 0.0537743 8.08994C0.0588428 8.10411 0.0642578 8.11816 0.0700196 8.13207C0.0757811 8.14598 0.0818848 8.15974 0.0883302 8.17335C0.0947657 8.18696 0.101533 8.20041 0.108633 8.21369C0.115723 8.22697 0.12314 8.24006 0.130884 8.25298C0.138628 8.26589 0.146679 8.2786 0.155039 8.29113C0.163408 8.30365 0.172075 8.31596 0.18104 8.32804C0.190015 8.34014 0.199278 8.35201 0.208828 8.36365C0.218379 8.3753 0.228208 8.38669 0.238316 8.39784C0.248433 8.40899 0.258813 8.41989 0.269458 8.43054C0.280103 8.44118 0.291006 8.45157 0.302168 8.46168C0.31332 8.47179 0.324717 8.48162 0.336358 8.49118C0.347999 8.50073 0.359864 8.50999 0.371953 8.51895C0.384043 8.52793 0.396348 8.53659 0.408868 8.54495C0.421388 8.55332 0.434107 8.56138 0.447027 8.56911C0.459936 8.57686 0.473032 8.58427 0.486314 8.59138C0.499596 8.59846 0.513037 8.60523 0.526641 8.61168C0.540254 8.61811 0.554015 8.62422 0.567921 8.62997C0.581837 8.63573 0.595884 8.64115 0.610064 8.64622C0.624234 8.6513 0.638526 8.65602 0.65294 8.66038C0.667344 8.66476 0.681852 8.66878 0.696461 8.67243C0.711061 8.67609 0.725743 8.67938 0.740509 8.68233C0.755274 8.68527 0.770109 8.68784 0.785011 8.69005C0.799904 8.69226 0.814839 8.69409 0.82982 8.69557C0.844801 8.69705 0.85981 8.69815 0.874849 8.6989C0.889889 8.69964 0.904937 8.70001 0.919996 8.70001L9.08 8.70001C9.09506 8.69999 9.11011 8.69961 9.12514 8.69887C9.14018 8.69812 9.15518 8.69701 9.17017 8.69553C9.18515 8.69405 9.20008 8.69219 9.21496 8.68996C9.22986 8.68775 9.24468 8.68517 9.25945 8.68223C9.27421 8.67928 9.28889 8.67597 9.3035 8.67231C9.3181 8.66865 9.3326 8.66463 9.347 8.66025C9.3614 8.65587 9.3757 8.65116 9.38986 8.64607C9.40403 8.64099 9.41808 8.63557 9.43198 8.6298C9.44588 8.62404 9.45963 8.61793 9.47324 8.6115C9.48685 8.60506 9.5003 8.59829 9.51357 8.59119C9.52684 8.58408 9.53994 8.57667 9.55284 8.56892C9.56575 8.56118 9.57846 8.55313 9.59099 8.54476C9.6035 8.5364 9.6158 8.52773 9.62789 8.51876C9.63999 8.5098 9.65185 8.50054 9.66348 8.49099C9.67513 8.48144 9.68652 8.47161 9.69767 8.46149C9.70882 8.45138 9.71972 8.44101 9.73037 8.43036C9.74102 8.41971 9.75139 8.40881 9.76149 8.39766C9.7716 8.38652 9.78143 8.37512 9.79098 8.36347C9.80053 8.35184 9.80979 8.33998 9.81877 8.32789C9.82773 8.31581 9.83641 8.3035 9.84477 8.29098C9.85313 8.27847 9.86118 8.26575 9.86893 8.25285C9.87667 8.23994 9.88409 8.22685 9.89119 8.21356C9.8983 8.20029 9.90506 8.18686 9.91149 8.17325C9.91794 8.15964 9.92405 8.14587 9.9298 8.13197C9.93558 8.11807 9.941 8.10402 9.94608 8.08986C9.95116 8.07569 9.95588 8.06139 9.96026 8.047C9.96464 8.0326 9.96865 8.01809 9.97231 8.00349C9.97598 7.98888 9.97929 7.97421 9.98223 7.95944C9.98518 7.94468 9.98775 7.92985 9.98997 7.91497C9.99218 7.90007 9.99404 7.88514 9.99552 7.87016C9.997 7.85517 9.99813 7.84017 9.99887 7.82513C9.99962 7.8101 9.99999 7.79506 10 7.78L10 0.919996C10 0.904937 9.99963 0.889889 9.9989 0.874849C9.99815 0.85981 9.99706 0.844801 9.99558 0.82982C9.9941 0.814839 9.99227 0.799904 9.99005 0.785011C9.98784 0.770109 9.98526 0.755274 9.98233 0.740509C9.97939 0.725743 9.97609 0.711061 9.97243 0.696461C9.96877 0.681852 9.96476 0.667344 9.96039 0.65294C9.95601 0.638526 9.95129 0.624234 9.94623 0.610064C9.94116 0.595884 9.93574 0.581837 9.92997 0.567921C9.92421 0.554015 9.91812 0.540254 9.91167 0.526641C9.90524 0.513037 9.89847 0.499596 9.89137 0.486314C9.88428 0.473032 9.87687 0.459936 9.86912 0.447027C9.86137 0.434107 9.85332 0.421388 9.84496 0.408868C9.8366 0.396348 9.82792 0.384043 9.81896 0.371953C9.80998 0.359864 9.80072 0.347999 9.79117 0.336358C9.78162 0.324717 9.77179 0.31332 9.76168 0.302168C9.75156 0.291006 9.74119 0.280103 9.73054 0.269458C9.71989 0.258813 9.70899 0.248433 9.69783 0.238316C9.68668 0.228208 9.67529 0.218379 9.66364 0.208828C9.652 0.199278 9.64013 0.190015 9.62805 0.18104C9.61596 0.172075 9.60366 0.163408 9.59113 0.155039C9.57861 0.146679 9.56589 0.138628 9.55297 0.130884C9.54007 0.12314 9.52697 0.115723 9.51369 0.108633C9.5004 0.101533 9.48697 0.0947657 9.47336 0.0883302C9.45975 0.0818848 9.44598 0.0757811 9.43207 0.0700196C9.41816 0.0642578 9.40412 0.0588428 9.38994 0.0537743C9.37577 0.0487061 9.36147 0.0439843 9.34706 0.0396093C9.33266 0.035244 9.31814 0.0312304 9.30354 0.0275682C9.28893 0.0239061 9.27426 0.0206054 9.25949 0.0176659C9.24473 0.0147363 9.22989 0.0121629 9.21499 0.00994609C9.20009 0.00773907 9.18517 0.0058984 9.17018 0.00442364C9.15519 0.00294908 9.14019 0.00184067 9.12515 0.00109859C9.11011 0.000366122 9.09506 0 9.08 0ZM7.80001 9.56251C7.80001 9.55535 7.79983 9.5482 7.79948 9.54103C7.79913 9.53389 7.7986 9.52675 7.7979 9.51962C7.79719 9.5125 7.79632 9.50539 7.79526 9.49831C7.79422 9.49123 7.79299 9.48417 7.7916 9.47715C7.79021 9.47014 7.78864 9.46315 7.7869 9.45621C7.78515 9.44925 7.78324 9.44235 7.78117 9.43551C7.77909 9.42865 7.77685 9.42185 7.77443 9.41512C7.77201 9.40838 7.76944 9.4017 7.7667 9.39508C7.76396 9.38847 7.76106 9.38192 7.758 9.37545C7.75493 9.36897 7.75173 9.36259 7.74834 9.35627C7.74496 9.34996 7.74143 9.34372 7.73775 9.33758C7.73408 9.33144 7.73025 9.32539 7.72627 9.31945C7.7223 9.31349 7.71817 9.30764 7.7139 9.30188C7.70964 9.29613 7.70523 9.29049 7.70069 9.28495C7.69615 9.27943 7.69148 9.27401 7.68667 9.26869C7.68185 9.26339 7.67692 9.2582 7.67186 9.25315C7.66679 9.24808 7.66161 9.24314 7.65631 9.23834C7.651 9.23353 7.64558 9.22886 7.64005 9.22431C7.63451 9.21976 7.62887 9.21537 7.62313 9.21111C7.61737 9.20685 7.61153 9.20271 7.60556 9.19873C7.5996 9.19476 7.59355 9.19092 7.58741 9.18725C7.58128 9.18357 7.57505 9.18004 7.56874 9.17667C7.56242 9.17329 7.55602 9.17006 7.54956 9.167C7.54309 9.16394 7.53654 9.16104 7.52992 9.1583C7.52331 9.15556 7.51663 9.153 7.50989 9.15058C7.50314 9.14816 7.49635 9.14592 7.4895 9.14384C7.48265 9.14176 7.47575 9.13986 7.46881 9.13811C7.46186 9.13637 7.45488 9.1348 7.44786 9.13341C7.44084 9.13202 7.43378 9.13079 7.42669 9.12974C7.41962 9.1287 7.41251 9.12782 7.40539 9.12711C7.39826 9.12641 7.39113 9.12588 7.38398 9.12553C7.37681 9.12518 7.36967 9.125 7.3625 9.125L2.6375 9.125C2.63033 9.125 2.62319 9.12518 2.61604 9.12553C2.60887 9.12588 2.60174 9.12641 2.59462 9.12711C2.58749 9.12782 2.58038 9.1287 2.57331 9.12974C2.56622 9.13079 2.55916 9.13202 2.55214 9.13341C2.54512 9.1348 2.53814 9.13637 2.53119 9.13811C2.52425 9.13986 2.51735 9.14176 2.5105 9.14384C2.50365 9.14592 2.49686 9.14816 2.4901 9.15058C2.48337 9.153 2.47669 9.15556 2.47007 9.1583C2.46346 9.16104 2.45691 9.16394 2.45044 9.167C2.44398 9.17006 2.43758 9.17329 2.43126 9.17667C2.42495 9.18004 2.41871 9.18357 2.41257 9.18725C2.40643 9.19092 2.4004 9.19476 2.39444 9.19873C2.38847 9.20271 2.38263 9.20685 2.37687 9.21111C2.37113 9.21537 2.36549 9.21976 2.35995 9.22431C2.35442 9.22886 2.349 9.23353 2.34369 9.23834C2.33839 9.24314 2.33321 9.24808 2.32814 9.25315C2.32308 9.2582 2.31815 9.26339 2.31333 9.26869C2.30852 9.27401 2.30385 9.27943 2.29931 9.28495C2.29477 9.29049 2.29036 9.29613 2.2861 9.30188C2.28183 9.30764 2.2777 9.31349 2.27373 9.31945C2.26975 9.32539 2.26591 9.33144 2.26223 9.33758C2.25856 9.34372 2.25504 9.34996 2.25166 9.35627C2.24827 9.36259 2.24507 9.36897 2.242 9.37545C2.23894 9.38192 2.23604 9.38847 2.2333 9.39508C2.23056 9.40168 2.22799 9.40836 2.22557 9.41512C2.22315 9.42185 2.22091 9.42865 2.21883 9.43551C2.21676 9.44235 2.21485 9.44925 2.2131 9.45621C2.21136 9.46315 2.20979 9.47014 2.2084 9.47715C2.20701 9.48417 2.20578 9.49123 2.20474 9.49831C2.20368 9.50539 2.2028 9.5125 2.2021 9.51962C2.2014 9.52675 2.20087 9.53389 2.20052 9.54103C2.20017 9.5482 2.19999 9.55535 2.19999 9.56251C2.19999 9.56967 2.20017 9.57682 2.20052 9.58397C2.20087 9.59112 2.2014 9.59825 2.2021 9.60539C2.2028 9.61252 2.20368 9.61962 2.20474 9.6267C2.20578 9.63377 2.20701 9.64083 2.2084 9.64785C2.20979 9.65487 2.21136 9.66185 2.2131 9.66881C2.21485 9.67576 2.21676 9.68266 2.21883 9.6895C2.22091 9.69635 2.22315 9.70315 2.22557 9.70989C2.22799 9.71664 2.23056 9.72332 2.2333 9.72993C2.23604 9.73653 2.23894 9.74308 2.242 9.74956C2.24507 9.75603 2.24827 9.76243 2.25166 9.76874C2.25504 9.77506 2.25856 9.78128 2.26223 9.78742C2.26591 9.79356 2.26975 9.79961 2.27373 9.80557C2.2777 9.81152 2.28183 9.81736 2.2861 9.82312C2.29036 9.82888 2.29477 9.83452 2.29931 9.84005C2.30385 9.84559 2.30852 9.85101 2.31333 9.85631C2.31815 9.86162 2.32308 9.8668 2.32814 9.87187C2.33321 9.87692 2.33839 9.88186 2.34369 9.88667C2.349 9.89148 2.35442 9.89616 2.35995 9.9007C2.36549 9.90524 2.37113 9.90965 2.37687 9.91391C2.38263 9.91817 2.38847 9.92229 2.39444 9.92627C2.4004 9.93024 2.40643 9.93408 2.41257 9.93776C2.41871 9.94144 2.42495 9.94497 2.43126 9.94835C2.43758 9.95172 2.44398 9.95494 2.45044 9.958C2.45691 9.96106 2.46346 9.96396 2.47007 9.9667C2.47669 9.96944 2.48337 9.97201 2.4901 9.97442C2.49686 9.97684 2.50365 9.97908 2.5105 9.98116C2.51735 9.98324 2.52425 9.98515 2.53119 9.98689C2.53814 9.98863 2.54512 9.9902 2.55214 9.99159C2.55916 9.99298 2.56622 9.99421 2.57331 9.99527C2.58038 9.99632 2.58749 9.9972 2.59462 9.99791C2.60174 9.99859 2.60887 9.99912 2.61604 9.99947C2.62319 9.99982 2.63033 10 2.6375 10L7.3625 10C7.36967 10 7.37681 9.99982 7.38398 9.99947C7.39113 9.99912 7.39826 9.99859 7.40539 9.99791C7.41251 9.9972 7.41962 9.99632 7.42669 9.99527C7.43378 9.99421 7.44084 9.99298 7.44786 9.99159C7.45488 9.9902 7.46186 9.98863 7.46881 9.98689C7.47575 9.98515 7.48265 9.98324 7.4895 9.98116C7.49635 9.97908 7.50314 9.97684 7.50989 9.97442C7.51663 9.97201 7.52331 9.96944 7.52992 9.9667C7.53654 9.96396 7.54309 9.96106 7.54956 9.958C7.55602 9.95494 7.56242 9.95172 7.56874 9.94835C7.57505 9.94497 7.58129 9.94144 7.58743 9.93776C7.59357 9.93408 7.5996 9.93024 7.60556 9.92627C7.61153 9.9223 7.61737 9.91817 7.62311 9.91391C7.62887 9.90965 7.63451 9.90524 7.64005 9.9007C7.64558 9.89616 7.651 9.89148 7.65631 9.88667C7.66161 9.88186 7.66679 9.87692 7.67186 9.87187C7.67692 9.8668 7.68185 9.86162 7.68667 9.85631C7.69148 9.85101 7.69615 9.84559 7.70069 9.84005C7.70523 9.83452 7.70964 9.82888 7.7139 9.82312C7.71817 9.81736 7.7223 9.81152 7.72627 9.80557C7.73025 9.79961 7.73408 9.79356 7.73775 9.78742C7.74143 9.78128 7.74496 9.77506 7.74834 9.76874C7.75173 9.76243 7.75493 9.75603 7.758 9.74956C7.76106 9.7431 7.76396 9.73655 7.7667 9.72993C7.76944 9.72332 7.77201 9.71664 7.77443 9.7099C7.77685 9.70315 7.77909 9.69635 7.78117 9.68951C7.78324 9.68266 7.78515 9.67576 7.7869 9.66881C7.78864 9.66187 7.79021 9.65488 7.7916 9.64785C7.79299 9.64083 7.79422 9.63377 7.79526 9.6267C7.79632 9.61962 7.79719 9.61252 7.7979 9.60539C7.7986 9.59827 7.79913 9.59113 7.79948 9.58397C7.79983 9.57682 7.80001 9.56967 7.80001 9.56251ZM4.29999 3.06249L6.5 4.35L4.2875 5.6275L4.2875 3.0725M4.09749 2.055C4.08629 2.05516 4.07508 2.05559 4.06391 2.05631C4.05271 2.05702 4.04155 2.058 4.0304 2.05926C4.01926 2.06052 4.00815 2.06206 3.99709 2.06386C3.98603 2.06567 3.97502 2.06775 3.96405 2.0701C3.95308 2.07245 3.94218 2.07506 3.93135 2.07794C3.92051 2.08083 3.90976 2.08396 3.89908 2.08738C3.8884 2.09079 3.87781 2.09447 3.86731 2.09839C3.85681 2.10232 3.84641 2.10651 3.83611 2.11094C3.82581 2.11538 3.81563 2.12009 3.80557 2.12502C3.7955 2.12996 3.78557 2.13514 3.77576 2.14058C3.76596 2.14601 3.75629 2.15167 3.74675 2.15757C3.73722 2.16347 3.72783 2.16961 3.7186 2.17597C3.70937 2.18234 3.7003 2.18892 3.6914 2.19573C3.68249 2.20254 3.67376 2.20957 3.66519 2.21681C3.65662 2.22405 3.64824 2.23149 3.64005 2.23915C3.63186 2.24679 3.62385 2.25463 3.61604 2.26267C3.60824 2.27071 3.60062 2.27895 3.59321 2.28737C3.58581 2.29579 3.5786 2.30438 3.57161 2.31315C3.56463 2.32193 3.55787 2.33086 3.55133 2.33996C3.54478 2.34906 3.53845 2.35831 3.53236 2.36773C3.52628 2.37715 3.52042 2.3867 3.51479 2.3964C3.50917 2.4061 3.50379 2.41593 3.49865 2.4259C3.49351 2.43586 3.48862 2.44594 3.48397 2.45615C3.47933 2.46636 3.47494 2.47667 3.47079 2.48709C3.46666 2.4975 3.46278 2.50802 3.45916 2.51864C3.45554 2.52925 3.45217 2.53994 3.44908 2.55072C3.44599 2.56149 3.44315 2.57234 3.44058 2.58325C3.43802 2.59417 3.43572 2.60514 3.4337 2.61617C3.43166 2.6272 3.42992 2.63826 3.42844 2.64938C3.42696 2.6605 3.42575 2.67163 3.42481 2.68281C3.42387 2.69398 3.42321 2.70517 3.42283 2.71638C3.42244 2.72759 3.42233 2.73879 3.42249 2.75L3.42249 5.96C3.42251 5.96746 3.42263 5.9749 3.42287 5.98235C3.42312 5.9898 3.42349 5.99724 3.42399 6.00468C3.42447 6.01211 3.42509 6.01953 3.42582 6.02694C3.42657 6.03437 3.42742 6.04177 3.4284 6.04915C3.42938 6.05653 3.43046 6.0639 3.43168 6.07126C3.43289 6.07861 3.43424 6.08593 3.43569 6.09324C3.43716 6.10055 3.43874 6.10783 3.44044 6.11508C3.44212 6.12233 3.44394 6.12957 3.44587 6.13676C3.44781 6.14396 3.44986 6.15112 3.45202 6.15825C3.45419 6.16539 3.45648 6.17248 3.45888 6.17952C3.46128 6.18658 3.4638 6.1936 3.46642 6.20057C3.46906 6.20755 3.4718 6.21447 3.47466 6.22134C3.47751 6.22823 3.48049 6.23507 3.48356 6.24185C3.48665 6.24863 3.48985 6.25536 3.49314 6.26205C3.49644 6.26873 3.49985 6.27535 3.50337 6.28192C3.50688 6.28849 3.5105 6.295 3.51424 6.30144C3.51797 6.3079 3.52181 6.31429 3.52575 6.3206C3.52969 6.32693 3.53373 6.33318 3.53788 6.33938C3.54202 6.34558 3.54627 6.3517 3.55062 6.35775C3.55497 6.3638 3.55941 6.36978 3.56395 6.37568C3.56849 6.38158 3.57314 6.38741 3.57787 6.39317C3.5826 6.39893 3.58742 6.40461 3.59234 6.41021C3.59726 6.4158 3.60227 6.42131 3.60737 6.42674C3.61247 6.43218 3.61765 6.43754 3.62293 6.4428C3.6282 6.44806 3.63356 6.45324 3.63901 6.45833C3.64445 6.46341 3.64997 6.4684 3.65558 6.47331C3.66119 6.47822 3.66689 6.48302 3.67265 6.48776C3.67842 6.49247 3.68426 6.4971 3.69016 6.50163C3.69608 6.50615 3.70207 6.51059 3.70814 6.51491C3.7142 6.51925 3.72034 6.52348 3.72654 6.52761C3.73273 6.53174 3.739 6.53577 3.74533 6.5397C3.75167 6.54364 3.75806 6.54746 3.76452 6.55117C3.77098 6.55489 3.7775 6.55851 3.78408 6.56201C3.79065 6.56551 3.79727 6.56889 3.80397 6.57219C3.81066 6.57548 3.8174 6.57865 3.82418 6.58171C3.83098 6.58477 3.83782 6.58773 3.84471 6.59057C3.85159 6.59341 3.85852 6.59614 3.86551 6.59876C3.87248 6.60138 3.8795 6.60387 3.88656 6.60626C3.89362 6.60865 3.90072 6.61092 3.90786 6.61307C3.91499 6.61523 3.92215 6.61725 3.92934 6.61917C3.93655 6.62109 3.94379 6.62289 3.95104 6.62457C3.95829 6.62626 3.96558 6.62781 3.97289 6.62926C3.9802 6.63071 3.98754 6.63203 3.9949 6.63323C4.00225 6.63443 4.00962 6.63551 4.017 6.63647C4.0244 6.63742 4.0318 6.63827 4.03921 6.63899C4.04663 6.6397 4.05406 6.6403 4.06149 6.64077C4.06893 6.64126 4.07637 6.64161 4.08381 6.64184C4.09127 6.64206 4.09871 6.64218 4.10617 6.64216C4.11362 6.64215 4.12106 6.64202 4.12852 6.64175C4.13596 6.64151 4.1434 6.64112 4.15083 6.64063C4.15827 6.64011 4.1657 6.6395 4.17311 6.63875C4.18052 6.638 4.18792 6.63714 4.1953 6.63616C4.2027 6.63518 4.21007 6.63406 4.21741 6.63285C4.22476 6.63162 4.23208 6.63027 4.23939 6.62881C4.2467 6.62733 4.25398 6.62574 4.26123 6.62404C4.26849 6.62233 4.27571 6.62051 4.2829 6.61857C4.29009 6.61662 4.29726 6.61457 4.30439 6.61238C4.31151 6.6102 4.3186 6.60792 4.32564 6.60551C4.3327 6.6031 4.33972 6.60058 4.34668 6.59794C4.35365 6.5953 4.36058 6.59255 4.36745 6.58968C4.37432 6.58682 4.38116 6.58385 4.38794 6.58076C4.39473 6.57767 4.40145 6.57446 4.40813 6.57115C4.41479 6.56784 4.42142 6.56443 4.42799 6.56089C4.43456 6.55736 4.44106 6.55373 4.4475 6.55L7.235 4.9425C7.24792 4.93503 7.26059 4.92715 7.273 4.91885C7.28541 4.91054 7.29754 4.90186 7.30937 4.89276C7.32121 4.88366 7.33274 4.8742 7.34396 4.86434C7.35518 4.8545 7.36606 4.84429 7.37662 4.83373C7.38717 4.82316 7.39737 4.81228 7.40721 4.80104C7.41704 4.78982 7.4265 4.7783 7.43558 4.76645C7.44467 4.75459 7.45335 4.74245 7.46164 4.73004C7.46993 4.71764 7.47782 4.70497 7.48527 4.69203C7.49273 4.6791 7.49976 4.66594 7.50636 4.65255C7.51297 4.63915 7.51912 4.62556 7.52482 4.61177C7.53053 4.59799 7.53579 4.58401 7.54058 4.56988C7.54537 4.55574 7.54971 4.54146 7.55358 4.52705C7.55743 4.51262 7.56081 4.49809 7.56373 4.48345C7.56664 4.4688 7.56907 4.45408 7.57102 4.43929C7.57297 4.42448 7.57442 4.40964 7.5754 4.39474C7.57638 4.37984 7.57687 4.36493 7.57687 4.35C7.57687 4.33508 7.57638 4.32017 7.5754 4.30527C7.57442 4.29037 7.57297 4.27552 7.57102 4.26072C7.56907 4.24591 7.56664 4.23119 7.56373 4.21656C7.56081 4.20192 7.55743 4.18739 7.55358 4.17296C7.54971 4.15853 7.54537 4.14427 7.54058 4.13013C7.53579 4.116 7.53053 4.10202 7.52482 4.08824C7.51912 4.07444 7.51297 4.06084 7.50636 4.04746C7.49976 4.03407 7.49273 4.02091 7.48527 4.00798C7.47782 3.99504 7.46993 3.98237 7.46164 3.96995C7.45335 3.95754 7.44467 3.94541 7.43558 3.93356C7.4265 3.92171 7.41704 3.91018 7.40721 3.89895C7.39737 3.88773 7.38717 3.87683 7.37662 3.86627C7.36606 3.85571 7.35518 3.84551 7.34396 3.83565C7.33274 3.82581 7.32121 3.81635 7.30937 3.80725C7.29754 3.79815 7.28541 3.78947 7.273 3.78116C7.26059 3.77286 7.24792 3.76497 7.235 3.7575L4.4475 2.14749C4.43464 2.14007 4.42156 2.13306 4.40825 2.12649C4.39493 2.11989 4.38143 2.11374 4.36771 2.10804C4.354 2.10233 4.34012 2.09707 4.32607 2.09225C4.31202 2.08743 4.29784 2.08308 4.2835 2.07917C4.26917 2.07528 4.25473 2.07185 4.24018 2.06889C4.22564 2.06592 4.21101 2.06342 4.19628 2.0614C4.18156 2.05938 4.16681 2.05783 4.152 2.05676C4.13719 2.05569 4.12235 2.0551 4.1075 2.055L4.09749 2.055Z"></path></svg>