<svg xmlns="http://www.w3.org/2000/svg" xmlns:xlink="http://www.w3.org/1999/xlink" width="16" height="16" viewBox="0 0 16 16" fill="none"><g opacity="0.7"><path d="M12.458 4.11449L14.6865 4.11449C15.0968 4.11449 15.4294 4.44708 15.4294 4.85735L15.4294 13.7716C15.4294 14.1819 15.0968 14.5145 14.6865 14.5145L1.31512 14.5145C0.904857 14.5145 0.572266 14.1819 0.572266 13.7716L0.572266 1.88592C0.572266 1.47565 0.904857 1.14307 1.31512 1.14307L12.458 1.14307L12.458 4.11449ZM2.05798 5.6002L2.05798 13.0288L13.9437 13.0288L13.9437 5.6002L2.05798 5.6002ZM2.05798 2.62878L2.05798 4.11449L10.9723 4.11449L10.9723 2.62878L2.05798 2.62878ZM10.2294 8.57163L12.458 8.57163L12.458 10.0573L10.2294 10.0573L10.2294 8.57163Z"   fill="#000000" ></path></g></svg>