<svg xmlns="http://www.w3.org/2000/svg" xmlns:xlink="http://www.w3.org/1999/xlink" width="16" height="16" viewBox="0 0 16 16" fill="none"><g opacity="0.7"><path d="M16 14.8862L14.8862 16L12.6587 13.7724L13.7725 12.6586L16 14.8862ZM7.0889 0C11.0019 0 14.1777 3.17589 14.1778 7.08893C14.1778 11.002 11.002 14.1778 7.0889 14.1778C3.17583 14.1778 0 11.002 0 7.08893C8.65721e-05 3.1759 3.17588 0 7.0889 0ZM7.0889 1.57531C4.04269 1.57531 1.5754 4.04271 1.57531 7.08893C1.57531 10.1352 4.04264 12.6025 7.0889 12.6025C10.1352 12.6025 12.6025 10.1352 12.6025 7.08893C12.6024 4.04271 10.1351 1.57531 7.0889 1.57531ZM6.71815 4.1898C6.85717 3.85423 7.32071 3.85423 7.45965 4.1898L7.65885 4.67132C7.99912 5.49266 8.63389 6.14861 9.43186 6.50355L9.99724 6.75434C10.3206 6.89824 10.3205 7.3695 9.99724 7.51348L9.39878 7.77963C8.62074 8.12562 7.99739 8.7581 7.65121 9.55261L7.45658 9.99795C7.31449 10.3241 6.8634 10.3241 6.72122 9.99795L6.52738 9.55261C6.18122 8.7581 5.55705 8.12562 4.77901 7.77963L4.18058 7.51348C3.8573 7.3695 3.85728 6.89824 4.18058 6.75434L4.74593 6.50355C5.54392 6.14861 6.17873 5.49268 6.51895 4.67132L6.71815 4.1898Z"   fill="#000000" ></path></g></svg>