<svg xmlns="http://www.w3.org/2000/svg" xmlns:xlink="http://www.w3.org/1999/xlink" width="16" height="16" viewBox="0 0 16 16" fill="none"><g opacity="0.7"><path d="M15.6829 11.5061C15.6822 13.7079 14.1349 15.5483 12.0684 16L11.5791 14.532C12.5025 14.3813 13.2873 13.8184 13.7386 13.0383L11.8481 13.0383C11.001 13.0383 10.3142 12.3516 10.3142 11.5044L10.3142 8.43655C10.3142 7.58937 11.001 6.90263 11.8481 6.90263L14.1015 6.90263C13.7241 3.87597 11.1422 1.53392 8.01334 1.53392C4.88444 1.53392 2.30256 3.87597 1.92514 6.90263L4.17855 6.90263C5.02571 6.90263 5.71247 7.58937 5.71247 8.43655L5.71247 11.5044C5.71247 12.3516 5.02571 13.0383 4.17855 13.0383L1.87767 13.0383C1.03051 13.0383 0.34375 12.3516 0.34375 11.5044L0.34375 7.66959C0.34375 3.43379 3.77754 0 8.01334 0C12.2491 0 15.6829 3.43379 15.6829 7.66959L15.6829 8.43556L15.6829 8.43655L15.6829 11.5044L15.6829 11.5054L15.6829 11.5061ZM14.149 11.5044L14.149 8.43655L11.8481 8.43655L11.8481 11.5044L14.149 11.5044ZM1.87767 8.43655L1.87767 11.5044L4.17855 11.5044L4.17855 8.43655L1.87767 8.43655Z"   fill="#000000" ></path></g></svg>