<svg xmlns="http://www.w3.org/2000/svg" xmlns:xlink="http://www.w3.org/1999/xlink" width="16" height="16" viewBox="0 0 16 16" fill="none"><g opacity="0.7"><path d="M7.90909 0L14.8182 4L14.8182 12L7.90909 16L1 12L1 4L7.90909 0ZM7.90909 1.68073L2.45455 4.83863L2.45455 11.1614L7.90909 14.3193L13.3636 11.1614L13.3636 4.83863L7.90909 1.68073ZM7.90909 10.9091C6.30244 10.9091 5 9.60662 5 8C5 6.39335 6.30244 5.09091 7.90909 5.09091C9.51571 5.09091 10.8182 6.39335 10.8182 8C10.8182 9.60662 9.51571 10.9091 7.90909 10.9091ZM7.90909 9.45455C8.71244 9.45455 9.36364 8.80335 9.36364 8C9.36364 7.19665 8.71244 6.54545 7.90909 6.54545C7.10575 6.54545 6.45455 7.19665 6.45455 8C6.45455 8.80335 7.10575 9.45455 7.90909 9.45455Z"   fill="#000000" ></path></g></svg>