<svg xmlns="http://www.w3.org/2000/svg" xmlns:xlink="http://www.w3.org/1999/xlink" width="16" height="16" viewBox="0 0 16 16" fill="none"><g opacity="0.1"><path d="M7.60745 0.00963634C7.73822 0.00321211 7.86907 0 8 0C8.13093 0 8.26179 0.00321211 8.39255 0.00963634C8.52331 0.0160606 8.65385 0.0256892 8.78414 0.0385223C8.91444 0.0513551 9.04432 0.0673771 9.17384 0.086588C9.30336 0.105799 9.43231 0.128175 9.56071 0.153718C9.68914 0.179259 9.81685 0.207937 9.94385 0.23975C10.0708 0.271562 10.197 0.306473 10.3223 0.344476C10.4476 0.382482 10.5718 0.423539 10.6951 0.467646C10.8184 0.511755 10.9405 0.558861 11.0615 0.608964C11.1824 0.659068 11.3021 0.712107 11.4204 0.768086C11.5388 0.824064 11.6557 0.882913 11.7712 0.94463C11.8866 1.00635 12.0005 1.07086 12.1128 1.13817C12.2251 1.20548 12.3357 1.2755 12.4446 1.34824C12.5534 1.42099 12.6604 1.49635 12.7656 1.57435C12.8708 1.65233 12.9739 1.73286 13.0751 1.81593C13.1764 1.89896 13.2755 1.98446 13.3725 2.07239C13.4695 2.16031 13.5642 2.25056 13.6569 2.34314C13.7495 2.43572 13.8397 2.53052 13.9276 2.62754C14.0155 2.72455 14.101 2.82366 14.1841 2.92486C14.2671 3.02606 14.3476 3.12925 14.4256 3.2344C14.5036 3.33956 14.579 3.44657 14.6517 3.55544C14.7245 3.6643 14.7945 3.77487 14.8619 3.88718C14.9291 3.99948 14.9936 4.11336 15.0554 4.22883C15.1171 4.3443 15.176 4.4612 15.2319 4.57956C15.2879 4.69793 15.3409 4.81757 15.391 4.93854C15.4411 5.05949 15.4882 5.18161 15.5324 5.30487C15.5765 5.42816 15.6175 5.55244 15.6555 5.67771C15.6935 5.80301 15.7284 5.92916 15.7603 6.05615C15.792 6.18315 15.8208 6.31086 15.8462 6.43929C15.8717 6.56769 15.8942 6.69664 15.9135 6.82615C15.9326 6.95568 15.9486 7.08556 15.9614 7.21586C15.9744 7.34615 15.9839 7.47669 15.9904 7.60745C15.9967 7.73822 16 7.86907 16 8C16 8.13093 15.9967 8.26179 15.9904 8.39255C15.9839 8.52331 15.9744 8.65385 15.9614 8.78414C15.9486 8.91444 15.9326 9.04432 15.9135 9.17384C15.8942 9.30336 15.8717 9.43231 15.8462 9.56071C15.8208 9.68914 15.792 9.81685 15.7603 9.94385C15.7284 10.0708 15.6935 10.197 15.6555 10.3223C15.6175 10.4476 15.5765 10.5718 15.5324 10.6951C15.4882 10.8184 15.4411 10.9405 15.391 11.0615C15.3409 11.1824 15.2879 11.3021 15.2319 11.4204C15.176 11.5388 15.1171 11.6557 15.0554 11.7712C14.9936 11.8866 14.9291 12.0005 14.8619 12.1128C14.7945 12.2251 14.7245 12.3357 14.6517 12.4446C14.579 12.5534 14.5036 12.6604 14.4256 12.7656C14.3476 12.8708 14.2671 12.9739 14.1841 13.0751C14.101 13.1764 14.0155 13.2755 13.9276 13.3725C13.8396 13.4695 13.7494 13.5642 13.6569 13.6569C13.5642 13.7494 13.4695 13.8396 13.3725 13.9276C13.2755 14.0155 13.1764 14.101 13.0751 14.1841C12.9739 14.2671 12.8708 14.3476 12.7656 14.4256C12.6604 14.5036 12.5534 14.579 12.4446 14.6517C12.3357 14.7245 12.2251 14.7945 12.1128 14.8619C12.0005 14.9291 11.8866 14.9936 11.7712 15.0554C11.6557 15.1171 11.5388 15.176 11.4204 15.2319C11.3021 15.2879 11.1824 15.3409 11.0615 15.391C10.9405 15.4411 10.8184 15.4882 10.6951 15.5324C10.5718 15.5765 10.4476 15.6175 10.3223 15.6555C10.197 15.6935 10.0708 15.7284 9.94385 15.7603C9.81685 15.792 9.68914 15.8208 9.56071 15.8462C9.43231 15.8717 9.30336 15.8942 9.17384 15.9135C9.04432 15.9326 8.91444 15.9486 8.78414 15.9614C8.65385 15.9744 8.52331 15.9839 8.39255 15.9904C8.26179 15.9967 8.13093 16 8 16C7.86907 16 7.73822 15.9967 7.60745 15.9904C7.47669 15.9839 7.34615 15.9744 7.21586 15.9614C7.08556 15.9486 6.95568 15.9326 6.82615 15.9135C6.69664 15.8942 6.56769 15.8717 6.43929 15.8462C6.31086 15.8208 6.18315 15.792 6.05615 15.7603C5.92916 15.7284 5.80301 15.6935 5.67771 15.6555C5.55244 15.6175 5.42816 15.5765 5.30487 15.5324C5.18161 15.4882 5.05949 15.4411 4.93854 15.391C4.81757 15.3409 4.69793 15.2879 4.57956 15.2319C4.4612 15.176 4.3443 15.1171 4.22883 15.0554C4.11336 14.9936 3.99948 14.9291 3.88718 14.8619C3.77487 14.7945 3.6643 14.7245 3.55544 14.6517C3.44657 14.579 3.33956 14.5036 3.2344 14.4256C3.12925 14.3476 3.02606 14.2671 2.92486 14.1841C2.82366 14.101 2.72455 14.0155 2.62754 13.9276C2.53052 13.8397 2.43572 13.7495 2.34314 13.6569C2.25056 13.5642 2.16031 13.4695 2.07239 13.3725C1.98446 13.2755 1.89896 13.1764 1.81593 13.0751C1.73286 12.9739 1.65233 12.8708 1.57435 12.7656C1.49635 12.6604 1.42099 12.5534 1.34824 12.4446C1.2755 12.3357 1.20548 12.2251 1.13817 12.1128C1.07086 12.0005 1.00635 11.8866 0.94463 11.7712C0.882913 11.6557 0.824064 11.5388 0.768086 11.4204C0.712107 11.3021 0.659068 11.1824 0.608964 11.0615C0.558861 10.9405 0.511755 10.8184 0.467646 10.6951C0.423539 10.5718 0.382482 10.4476 0.344476 10.3223C0.306473 10.197 0.271562 10.0708 0.23975 9.94385C0.207937 9.81685 0.179259 9.68914 0.153718 9.56071C0.128175 9.43231 0.105799 9.30336 0.086588 9.17384C0.0673771 9.04432 0.0513551 8.91444 0.0385223 8.78414C0.0256892 8.65385 0.0160606 8.52331 0.00963634 8.39255C0.00321211 8.26179 0 8.13093 0 8C0 7.86907 0.00321211 7.73822 0.00963634 7.60745C0.0160606 7.47669 0.0256892 7.34615 0.0385223 7.21586C0.0513551 7.08556 0.0673771 6.95568 0.086588 6.82615C0.105799 6.69664 0.128175 6.56769 0.153718 6.43929C0.179259 6.31086 0.207937 6.18315 0.23975 6.05615C0.271562 5.92916 0.306473 5.80301 0.344476 5.67771C0.382482 5.55244 0.423539 5.42816 0.467646 5.30487C0.511755 5.18161 0.558861 5.05949 0.608964 4.93854C0.659068 4.81757 0.712107 4.69793 0.768086 4.57956C0.824064 4.4612 0.882913 4.3443 0.94463 4.22883C1.00635 4.11336 1.07086 3.99948 1.13817 3.88718C1.20548 3.77487 1.2755 3.6643 1.34824 3.55544C1.42099 3.44657 1.49635 3.33956 1.57435 3.2344C1.65233 3.12925 1.73286 3.02606 1.81593 2.92486C1.89896 2.82366 1.98446 2.72455 2.07239 2.62754C2.16031 2.53052 2.25056 2.43572 2.34314 2.34314C2.43572 2.25056 2.53052 2.16031 2.62754 2.07239C2.72455 1.98446 2.82366 1.89896 2.92486 1.81593C3.02606 1.73286 3.12925 1.65233 3.2344 1.57435C3.33956 1.49635 3.44657 1.42099 3.55544 1.34824C3.6643 1.2755 3.77487 1.20548 3.88718 1.13817C3.99948 1.07086 4.11336 1.00635 4.22883 0.94463C4.3443 0.882913 4.4612 0.824064 4.57956 0.768086C4.69793 0.712107 4.81757 0.659068 4.93854 0.608964C5.05949 0.558861 5.18161 0.511755 5.30487 0.467646C5.42816 0.423539 5.55244 0.382482 5.67771 0.344476C5.80301 0.306473 5.92916 0.271562 6.05615 0.23975C6.18315 0.207937 6.31086 0.179259 6.43929 0.153718C6.56769 0.128175 6.69664 0.105799 6.82615 0.086588C6.95568 0.0673771 7.08556 0.0513551 7.21586 0.0385223C7.34615 0.0256892 7.47669 0.0160606 7.60745 0.00963634ZM7.67287 14.6586C7.78186 14.664 7.89089 14.6666 8 14.6666C8.10911 14.6666 8.21814 14.664 8.32712 14.6586C8.43609 14.6532 8.54488 14.6453 8.65345 14.6345C8.76204 14.6239 8.87027 14.6105 8.9782 14.5945C9.08613 14.5785 9.1936 14.5599 9.30059 14.5386C9.40761 14.5173 9.51404 14.4934 9.61987 14.4669C9.7257 14.4404 9.83082 14.4113 9.93524 14.3796C10.0396 14.348 10.1432 14.3138 10.2459 14.277C10.3487 14.2402 10.4504 14.201 10.5512 14.1593C10.652 14.1174 10.7517 14.0732 10.8504 14.0266C10.949 13.98 11.0464 13.9309 11.1426 13.8795C11.2389 13.828 11.3338 13.7743 11.4273 13.7181C11.5209 13.6621 11.6131 13.6038 11.7038 13.5431C11.7945 13.4825 11.8837 13.4198 11.9713 13.3547C12.059 13.2898 12.1449 13.2226 12.2293 13.1534C12.3136 13.0843 12.3962 13.013 12.4771 12.9396C12.5579 12.8664 12.6369 12.7911 12.714 12.714C12.7911 12.6369 12.8664 12.5579 12.9396 12.4771C13.013 12.3962 13.0843 12.3136 13.1534 12.2293C13.2226 12.1449 13.2898 12.059 13.3547 11.9713C13.4198 11.8837 13.4825 11.7945 13.5431 11.7038C13.6038 11.6131 13.6621 11.5209 13.7181 11.4273C13.7743 11.3338 13.828 11.2389 13.8795 11.1426C13.9309 11.0464 13.98 10.949 14.0266 10.8504C14.0732 10.7517 14.1174 10.652 14.1591 10.5512C14.201 10.4504 14.2402 10.3487 14.277 10.2459C14.3138 10.1432 14.3479 10.0396 14.3796 9.93524C14.4113 9.83082 14.4404 9.7257 14.4669 9.61987C14.4934 9.51404 14.5173 9.40761 14.5386 9.30061C14.5599 9.1936 14.5785 9.08613 14.5945 8.9782C14.6105 8.87027 14.6239 8.76204 14.6345 8.65345C14.6453 8.54488 14.6532 8.43609 14.6586 8.32712C14.664 8.21814 14.6666 8.10911 14.6666 8C14.6666 7.89089 14.664 7.78186 14.6586 7.67287C14.6532 7.5639 14.6453 7.45512 14.6345 7.34655C14.6239 7.23798 14.6105 7.12972 14.5945 7.0218C14.5785 6.91388 14.5599 6.8064 14.5386 6.69939C14.5173 6.59239 14.4934 6.48596 14.4669 6.38013C14.4404 6.2743 14.4113 6.16918 14.3796 6.06476C14.348 5.96036 14.3138 5.8568 14.277 5.75406C14.2402 5.65133 14.201 5.54957 14.1593 5.44877C14.1174 5.34799 14.0732 5.24826 14.0266 5.14962C13.98 5.051 13.9309 4.95358 13.8795 4.85736C13.828 4.76113 13.7743 4.66622 13.7181 4.57264C13.6621 4.47906 13.6038 4.38693 13.5431 4.2962C13.4825 4.20549 13.4198 4.11631 13.3547 4.02868C13.2898 3.94103 13.2226 3.85505 13.1534 3.77073C13.0843 3.68637 13.013 3.60378 12.9396 3.52294C12.8664 3.4421 12.7911 3.3631 12.714 3.28595C12.6369 3.20881 12.5579 3.1336 12.4771 3.06032C12.3962 2.98706 12.3136 2.91581 12.2293 2.8466C12.1449 2.77739 12.059 2.71027 11.9713 2.64529C11.8837 2.5803 11.7945 2.51749 11.7038 2.45688C11.6131 2.39626 11.5209 2.33791 11.4273 2.28181C11.3338 2.22571 11.2389 2.17195 11.1426 2.12054C11.0464 2.06909 10.949 2.02005 10.8504 1.9734C10.7517 1.92676 10.652 1.88256 10.5512 1.8408C10.4504 1.79905 10.3487 1.7598 10.2459 1.72305C10.1432 1.68628 10.0396 1.65206 9.93524 1.62039C9.83082 1.58872 9.7257 1.55964 9.61987 1.53313C9.51404 1.50661 9.40761 1.48271 9.30061 1.46144C9.1936 1.44015 9.08613 1.4215 8.9782 1.40549C8.87027 1.38949 8.76204 1.37612 8.65345 1.36544C8.54488 1.35474 8.43609 1.34671 8.32712 1.34136C8.21814 1.33601 8.10911 1.33334 8 1.33334C7.89089 1.33334 7.78186 1.33601 7.67287 1.34136C7.5639 1.34671 7.45512 1.35474 7.34655 1.36544C7.23798 1.37612 7.12972 1.38949 7.0218 1.40549C6.91388 1.4215 6.8064 1.44015 6.69939 1.46144C6.59239 1.48271 6.48596 1.50661 6.38013 1.53313C6.2743 1.55964 6.16918 1.58872 6.06476 1.62039C5.96036 1.65206 5.8568 1.68628 5.75406 1.72305C5.65133 1.7598 5.54957 1.79905 5.44877 1.8408C5.34799 1.88256 5.24826 1.92676 5.14962 1.9734C5.051 2.02005 4.95358 2.06909 4.85736 2.12054C4.76113 2.17195 4.66622 2.22571 4.57264 2.28181C4.47906 2.33791 4.38693 2.39626 4.2962 2.45688C4.20549 2.51749 4.11631 2.5803 4.02868 2.64529C3.94103 2.71027 3.85505 2.77739 3.77073 2.8466C3.68637 2.91581 3.60378 2.98706 3.52294 3.06032C3.4421 3.1336 3.3631 3.20881 3.28595 3.28595C3.20881 3.3631 3.1336 3.4421 3.06032 3.52294C2.98706 3.60378 2.91581 3.68637 2.8466 3.77073C2.77739 3.85505 2.71027 3.94103 2.64529 4.02868C2.5803 4.11631 2.51749 4.20549 2.45688 4.2962C2.39626 4.38693 2.33791 4.47906 2.28181 4.57264C2.22571 4.66622 2.17195 4.76113 2.12054 4.85736C2.06909 4.95358 2.02005 5.051 1.9734 5.14962C1.92676 5.24826 1.88256 5.34799 1.8408 5.44877C1.79905 5.54957 1.7598 5.65133 1.72305 5.75406C1.68628 5.8568 1.65206 5.96036 1.62039 6.06476C1.58872 6.16918 1.55964 6.2743 1.53313 6.38013C1.50661 6.48596 1.48271 6.59239 1.46144 6.69939C1.44015 6.8064 1.4215 6.91388 1.40549 7.0218C1.38949 7.12972 1.37612 7.23798 1.36544 7.34655C1.35474 7.45512 1.34671 7.5639 1.34136 7.67287C1.33601 7.78186 1.33334 7.89089 1.33334 8C1.33334 8.10911 1.33601 8.21814 1.34136 8.32712C1.34671 8.43609 1.35474 8.54488 1.36544 8.65345C1.37612 8.76204 1.38949 8.87027 1.40549 8.9782C1.4215 9.08613 1.44015 9.1936 1.46144 9.30061C1.48271 9.40761 1.50661 9.51404 1.53313 9.61987C1.55964 9.7257 1.58872 9.83082 1.62039 9.93524C1.65206 10.0396 1.68628 10.1432 1.72305 10.2459C1.7598 10.3487 1.79905 10.4504 1.8408 10.5512C1.88256 10.652 1.92676 10.7517 1.9734 10.8504C2.02005 10.949 2.06909 11.0464 2.12054 11.1426C2.17195 11.2389 2.22571 11.3338 2.28181 11.4273C2.33791 11.5209 2.39626 11.6131 2.45688 11.7038C2.51749 11.7945 2.5803 11.8837 2.64529 11.9713C2.71027 12.059 2.77739 12.1449 2.8466 12.2293C2.91581 12.3136 2.98706 12.3962 3.06032 12.4771C3.1336 12.5579 3.20881 12.6369 3.28595 12.714C3.3631 12.7911 3.4421 12.8664 3.52294 12.9396C3.60378 13.013 3.68637 13.0843 3.77073 13.1534C3.85505 13.2226 3.94103 13.2898 4.02868 13.3547C4.11631 13.4198 4.20549 13.4825 4.2962 13.5431C4.38693 13.6038 4.47906 13.6621 4.57264 13.7181C4.66622 13.7743 4.76113 13.828 4.85736 13.8795C4.95358 13.9309 5.051 13.98 5.14962 14.0266C5.24826 14.0732 5.34799 14.1174 5.44877 14.1591C5.54957 14.201 5.65133 14.2402 5.75406 14.277C5.8568 14.3138 5.96036 14.3479 6.06476 14.3796C6.16918 14.4113 6.2743 14.4404 6.38013 14.4669C6.48596 14.4934 6.59239 14.5173 6.69939 14.5386C6.8064 14.5599 6.91388 14.5785 7.0218 14.5945C7.12972 14.6105 7.23798 14.6239 7.34655 14.6345C7.45512 14.6453 7.5639 14.6532 7.67287 14.6586ZM7.86352 5.17145C7.8716 5.17874 7.8795 5.1862 7.8872 5.19386L10.2205 7.5272C10.2283 7.53492 10.2359 7.54283 10.2433 7.55094C10.2507 7.55904 10.2579 7.5673 10.2649 7.57575C10.2719 7.5842 10.2787 7.59282 10.2852 7.60161C10.2918 7.6104 10.2981 7.61935 10.3042 7.62845C10.3104 7.63755 10.3162 7.6468 10.3219 7.65619C10.3276 7.66558 10.333 7.67509 10.3382 7.68476C10.3434 7.69443 10.3484 7.7042 10.3531 7.71411C10.3578 7.72401 10.3623 7.73403 10.3665 7.74414C10.3707 7.75426 10.3747 7.76449 10.3784 7.77481C10.3821 7.78514 10.3855 7.79555 10.3887 7.80603C10.3919 7.81651 10.3949 7.82708 10.3975 7.83773C10.4002 7.84836 10.4026 7.85905 10.4048 7.8698C10.4069 7.88056 10.4088 7.89136 10.4104 7.9022C10.4121 7.91305 10.4134 7.92392 10.4145 7.93485C10.4156 7.94576 10.4164 7.9567 10.4169 7.96765C10.4175 7.97861 10.4177 7.98956 10.4177 8.00053C10.4177 8.0115 10.4175 8.02245 10.4169 8.03341C10.4164 8.04436 10.4156 8.0553 10.4145 8.06623C10.4134 8.07714 10.4121 8.08801 10.4104 8.09886C10.4088 8.1097 10.4069 8.1205 10.4048 8.13126C10.4026 8.14201 10.4002 8.1527 10.3975 8.16334C10.3949 8.17399 10.3919 8.18455 10.3887 8.19503C10.3855 8.20551 10.3821 8.21593 10.3784 8.22625C10.3747 8.23658 10.3707 8.2468 10.3665 8.25692C10.3623 8.26705 10.3578 8.27706 10.3531 8.28695C10.3484 8.29686 10.3434 8.30664 10.3382 8.3163C10.333 8.32596 10.3276 8.33549 10.3219 8.34488C10.3162 8.35426 10.3104 8.36351 10.3042 8.37261C10.2981 8.38171 10.2918 8.39066 10.2852 8.39945C10.2787 8.40824 10.2719 8.41686 10.2649 8.42531C10.2579 8.43376 10.2507 8.44203 10.2433 8.45014C10.2359 8.45824 10.2283 8.46614 10.2205 8.47386L7.8872 10.8072C7.87954 10.8148 7.87169 10.8222 7.86368 10.8294C7.85564 10.8367 7.84744 10.8437 7.83908 10.8505C7.83071 10.8573 7.82219 10.8639 7.8135 10.8703C7.80481 10.8767 7.79598 10.8829 7.787 10.8889C7.77801 10.8949 7.76888 10.9007 7.75961 10.9062C7.75034 10.9117 7.74094 10.9171 7.73142 10.9221C7.72189 10.9272 7.71225 10.932 7.70249 10.9367C7.69273 10.9413 7.68286 10.9456 7.67289 10.9498C7.66292 10.9539 7.65285 10.9578 7.64269 10.9614C7.63252 10.9651 7.62227 10.9685 7.61195 10.9716C7.60162 10.9748 7.59124 10.9777 7.58076 10.9803C7.5703 10.9829 7.55977 10.9853 7.54919 10.9874C7.5386 10.9896 7.52798 10.9915 7.5173 10.9931C7.50663 10.9947 7.49591 10.996 7.48518 10.9971C7.47444 10.9982 7.46368 10.999 7.4529 10.9996C7.44212 11.0002 7.43134 11.0005 7.42054 11.0005C7.4096 11.0006 7.39867 11.0004 7.38775 10.9999C7.37682 10.9994 7.36591 10.9987 7.35502 10.9977C7.34415 10.9967 7.33329 10.9954 7.32247 10.9938C7.31165 10.9923 7.30086 10.9905 7.29012 10.9884C7.27939 10.9863 7.26871 10.984 7.2581 10.9814C7.24748 10.9788 7.23691 10.9759 7.22644 10.9728C7.21596 10.9697 7.20556 10.9663 7.19525 10.9627C7.18494 10.9591 7.17473 10.9552 7.16459 10.951C7.15448 10.9469 7.14447 10.9425 7.13456 10.9379C7.12465 10.9333 7.11485 10.9284 7.10519 10.9233C7.09552 10.9182 7.08599 10.9128 7.0766 10.9073C7.06719 10.9017 7.05793 10.8959 7.0488 10.8899C7.03969 10.8838 7.03073 10.8776 7.02191 10.8711C7.0131 10.8646 7.00445 10.8579 6.99598 10.851C6.98749 10.8441 6.97919 10.837 6.97105 10.8297C6.96291 10.8224 6.95496 10.8149 6.9472 10.8072C6.93941 10.7995 6.93181 10.7916 6.92443 10.7835C6.91703 10.7754 6.90984 10.7671 6.90285 10.7586C6.89586 10.7502 6.8891 10.7416 6.88252 10.7328C6.87598 10.724 6.86963 10.715 6.8635 10.7059C6.85738 10.6968 6.85147 10.6876 6.84581 10.6782C6.84015 10.6688 6.83472 10.6593 6.82952 10.6496C6.82434 10.64 6.81938 10.6302 6.81467 10.6203C6.80995 10.6104 6.80549 10.6004 6.80129 10.5903C6.79706 10.5801 6.79309 10.5699 6.78937 10.5596C6.78566 10.5493 6.78221 10.5389 6.77901 10.5284C6.77581 10.5179 6.77286 10.5073 6.77019 10.4967C6.76751 10.486 6.7651 10.4753 6.76295 10.4646C6.7608 10.4538 6.75891 10.443 6.7573 10.4322C6.75569 10.4213 6.75434 10.4105 6.75325 10.3996C6.75216 10.3886 6.75135 10.3777 6.75081 10.3667C6.75028 10.3558 6.75 10.3448 6.75 10.3339C6.75 10.3229 6.75028 10.3119 6.75081 10.301C6.75135 10.29 6.75217 10.2791 6.75325 10.2682C6.75434 10.2573 6.75569 10.2464 6.7573 10.2355C6.75891 10.2247 6.7608 10.2139 6.76295 10.2031C6.7651 10.1924 6.76751 10.1817 6.77019 10.1711C6.77286 10.1604 6.77581 10.1498 6.77901 10.1394C6.78221 10.1289 6.78566 10.1185 6.78937 10.1081C6.79309 10.0978 6.79706 10.0876 6.80129 10.0775C6.80549 10.0674 6.80995 10.0574 6.81467 10.0474C6.81938 10.0375 6.82434 10.0278 6.82952 10.0181C6.83472 10.0084 6.84015 9.9989 6.84581 9.98951C6.85147 9.98013 6.85738 9.97089 6.8635 9.96177C6.86963 9.95267 6.87598 9.94374 6.88252 9.93495C6.8891 9.92615 6.89586 9.91755 6.90285 9.9091C6.90984 9.90064 6.91703 9.89236 6.92443 9.88426C6.93181 9.87615 6.93941 9.86825 6.9472 9.86053L8.8072 8.00053L6.9472 6.14054C6.93941 6.13281 6.93181 6.1249 6.92443 6.1168C6.91703 6.1087 6.90984 6.10042 6.90285 6.09196C6.89586 6.08353 6.8891 6.0749 6.88252 6.06611C6.87598 6.05732 6.86963 6.04839 6.8635 6.03929C6.85738 6.03018 6.85149 6.02094 6.84583 6.01155C6.84016 6.00215 6.83472 5.99263 6.82952 5.98298C6.82434 5.97331 6.81938 5.96354 6.81467 5.95363C6.80996 5.94373 6.8055 5.9337 6.80129 5.92357C6.79706 5.91345 6.79309 5.90324 6.78937 5.89292C6.78566 5.8826 6.78221 5.87219 6.77901 5.8617C6.77581 5.85121 6.77286 5.84065 6.77019 5.83001C6.76751 5.81938 6.7651 5.80869 6.76295 5.79792C6.7608 5.78718 6.75892 5.77637 6.7573 5.76552C6.75569 5.75467 6.75434 5.74379 6.75325 5.73287C6.75216 5.72196 6.75135 5.71104 6.75081 5.70008C6.75028 5.68913 6.75 5.67817 6.75 5.6672C6.75 5.65624 6.75028 5.64528 6.75081 5.63431C6.75135 5.62336 6.75216 5.61242 6.75325 5.60151C6.75434 5.5906 6.75569 5.57971 6.7573 5.56887C6.75891 5.55802 6.7608 5.54722 6.76295 5.53646C6.7651 5.52571 6.76751 5.51501 6.77019 5.50437C6.77286 5.49374 6.77581 5.48317 6.77901 5.47269C6.78221 5.4622 6.78566 5.4518 6.78937 5.44149C6.79309 5.43116 6.79706 5.42094 6.80129 5.41081C6.8055 5.40069 6.80996 5.39068 6.81467 5.38076C6.81938 5.37087 6.82434 5.36109 6.82952 5.35143C6.83472 5.34176 6.84015 5.33224 6.84581 5.32284C6.85147 5.31346 6.85738 5.30421 6.8635 5.29511C6.86963 5.28601 6.87598 5.27707 6.88252 5.26829C6.8891 5.2595 6.89586 5.25087 6.90285 5.24242C6.90984 5.23397 6.91703 5.2257 6.92443 5.21759C6.93181 5.2095 6.93941 5.20159 6.9472 5.19386C6.95491 5.1862 6.9628 5.17874 6.97087 5.17145C6.97895 5.16419 6.98719 5.15711 6.99561 5.15024C7.00404 5.14336 7.01263 5.13669 7.02136 5.13024C7.03011 5.12379 7.03901 5.11755 7.04806 5.11154C7.05711 5.10551 7.06631 5.09971 7.07564 5.09416C7.08497 5.08859 7.09444 5.08325 7.10402 5.07814C7.11363 5.07304 7.12334 5.06816 7.13317 5.06354C7.143 5.0589 7.15295 5.05452 7.163 5.05037C7.17304 5.04623 7.18319 5.04234 7.19343 5.03869C7.20366 5.03504 7.21399 5.03164 7.22439 5.0285C7.2348 5.02535 7.24528 5.02246 7.25581 5.01982C7.26636 5.0172 7.27698 5.01484 7.28762 5.01271C7.29829 5.0106 7.309 5.00875 7.31975 5.00716C7.3305 5.00558 7.34129 5.00425 7.35211 5.00319C7.36293 5.00212 7.37375 5.00133 7.38461 5.0008C7.39546 5.00026 7.40632 5 7.4172 5C7.42806 5 7.43894 5.00026 7.4498 5.0008C7.46065 5.00133 7.47149 5.00212 7.4823 5.00319C7.49312 5.00425 7.5039 5.00558 7.51465 5.00716C7.52541 5.00875 7.53611 5.0106 7.54677 5.01271C7.55744 5.01484 7.56804 5.0172 7.57859 5.01982C7.58914 5.02246 7.59961 5.02535 7.61001 5.0285C7.62043 5.03164 7.63075 5.03504 7.64099 5.03869C7.65123 5.04234 7.66136 5.04623 7.67141 5.05037C7.68146 5.05452 7.6914 5.0589 7.70124 5.06354C7.71106 5.06816 7.72079 5.07304 7.73037 5.07814C7.73997 5.08325 7.74944 5.08859 7.75876 5.09416C7.7681 5.09971 7.77729 5.10551 7.78634 5.11154C7.7954 5.11755 7.8043 5.12379 7.81305 5.13024C7.82179 5.13669 7.83038 5.14336 7.8388 5.15024C7.84721 5.15711 7.85546 5.16419 7.86352 5.17145Z" fill-rule="evenodd"  fill="#000000" ></path></g></svg>