<svg xmlns="http://www.w3.org/2000/svg" xmlns:xlink="http://www.w3.org/1999/xlink" width="24" height="24" viewBox="0 0 24 24" fill="none"><path d="M10.529 14.068C11.0521 14.068 11.4766 14.4967 11.4766 15.025C11.4766 15.5533 11.0521 15.982 10.529 15.982L8.31775 15.982C5.9274 15.982 3.97542 17.8998 3.89532 20.294L3.89532 20.448C3.89532 20.8002 4.17836 21.086 4.5271 21.086L10.529 21.086C11.0521 21.086 11.4766 21.5147 11.4766 22.043C11.4766 22.5713 11.0521 23 10.529 23L3.89532 23C2.8491 23 2 22.1426 2 21.086L2 20.448C2 16.9262 4.83032 14.068 8.31775 14.068L10.529 14.068ZM18.2192 13.485L18.2519 13.496L18.2736 13.518L18.2954 13.54L18.3172 13.562L18.339 13.595C18.9239 14.7427 19.4667 15.577 19.9729 16.092C20.4405 16.5678 21.1593 17.0552 22.1297 17.555L22.3584 17.665L22.3802 17.676L22.3911 17.687L22.402 17.698L22.4238 17.709L22.4346 17.72L22.4455 17.731L22.4564 17.753L22.4673 17.764L22.4782 17.775L22.4782 17.797L22.4891 17.808L22.4891 17.83L22.5 17.841L22.5 17.863L22.5 17.885L22.5 17.896L22.5 17.918L22.5 17.94L22.5 17.951L22.4891 17.973L22.4891 17.984L22.4782 18.006L22.4782 18.017L22.4673 18.039L22.4564 18.05L22.4455 18.061L22.4346 18.072L22.4238 18.094L22.402 18.105L22.3911 18.105L22.3802 18.116L22.3584 18.127L21.89 18.358L21.4652 18.589C20.8458 18.9236 20.3434 19.2327 19.9729 19.513C19.4635 19.8984 18.9522 20.6963 18.4261 21.9L18.3281 22.109L18.3281 22.131L18.3172 22.142L18.3063 22.164L18.2954 22.175L18.2845 22.186L18.2628 22.208L18.2519 22.219L18.241 22.23L18.2192 22.23L18.2083 22.241L18.1865 22.252L18.1756 22.252L18.1538 22.263L18.132 22.263L18.1211 22.263L18.0994 22.263L18.0776 22.263L18.0667 22.263L18.0449 22.263L18.0231 22.263L18.0122 22.252L17.9904 22.241L17.9795 22.241L17.9578 22.23L17.9469 22.219L17.936 22.208L17.9142 22.197L17.9033 22.175L17.8924 22.164L17.8815 22.153L17.8706 22.131L17.8706 22.12C17.3249 20.8541 16.7993 19.9819 16.3021 19.513C15.8393 19.0766 15.1093 18.6433 14.1018 18.204L13.873 18.105L13.8621 18.094L13.8403 18.094L13.8294 18.083L13.8185 18.072L13.8077 18.061L13.7859 18.039L13.775 18.028L13.7641 18.017L13.7532 18.006L13.7532 17.984L13.7423 17.973L13.7314 17.951L13.7314 17.929L13.7314 17.918L13.7205 17.896L13.7205 17.885L13.7205 17.863L13.7205 17.841L13.7205 17.83L13.7314 17.808L13.7314 17.797L13.7423 17.775L13.7423 17.753L13.7532 17.742L13.7641 17.731L13.775 17.709L13.7859 17.698L13.7968 17.687L13.8077 17.676L13.8294 17.665L13.8403 17.654L13.8621 17.643L14.2978 17.412L14.4939 17.291L14.886 17.071C15.4999 16.7077 15.9696 16.382 16.3021 16.092C16.7737 15.6806 17.2682 14.9213 17.7835 13.826L17.8815 13.606L17.8924 13.595L17.9033 13.584L17.9033 13.573L17.9142 13.562L17.9142 13.551L17.9251 13.54L17.936 13.54L17.9469 13.529L17.9578 13.518L17.9687 13.507L17.9795 13.496L17.9904 13.485L18.0013 13.485L18.0122 13.474L18.0231 13.474L18.0449 13.474L18.0558 13.463L18.0667 13.463L18.0776 13.463L18.0885 13.463L18.0994 13.463L18.1103 13.463L18.1211 13.463L18.1429 13.463L18.1538 13.463L18.1647 13.463L18.1756 13.463L18.1865 13.474L18.1974 13.474L18.2083 13.474L18.2192 13.485ZM11.4766 1C14.6153 1 17.1517 3.57239 17.1517 6.742C17.1517 9.91164 14.6153 12.473 11.4766 12.473C8.3379 12.473 5.79065 9.91164 5.79065 6.742C5.79065 3.57239 8.3379 1 11.4766 1ZM11.4766 2.914C9.38416 2.914 7.68597 4.62892 7.68597 6.742C7.68597 8.85511 9.38416 10.57 11.4766 10.57C13.5691 10.57 15.2564 8.85511 15.2564 6.742C15.2564 4.62892 13.5691 2.914 11.4766 2.914Z"   fill="#000000" ></path></svg>