<svg xmlns="http://www.w3.org/2000/svg" xmlns:xlink="http://www.w3.org/1999/xlink" width="26" height="26" viewBox="0 0 26 26" fill="none"><path d="M13 26C5.82029 26 0 20.1796 0 13C0 5.82029 5.82029 0 13 0C20.1796 0 26 5.82029 26 13C26 20.1796 20.1796 26 13 26ZM13 23.4C18.7438 23.4 23.4 18.7438 23.4 13C23.4 7.25624 18.7438 2.6 13 2.6C7.25624 2.6 2.6 7.25624 2.6 13C2.6 18.7438 7.25624 23.4 13 23.4ZM11.2085 8.33897L17.551 12.5674C17.79 12.7266 17.8546 13.0495 17.6952 13.2885C17.6571 13.3455 17.6081 13.3946 17.551 13.4326L11.2085 17.661C10.9695 17.8204 10.6466 17.7558 10.4874 17.5168C10.4304 17.4314 10.4 17.3311 10.4 17.2284L10.4 8.77163C10.4 8.48444 10.6328 8.25163 10.92 8.25163C11.0227 8.25163 11.1231 8.28201 11.2085 8.33897Z"   fill="#0065FB" ></path></svg>