<svg xmlns="http://www.w3.org/2000/svg" xmlns:xlink="http://www.w3.org/1999/xlink" width="20" height="20" viewBox="0 0 20 20" fill="none"><g opacity="0.5"><path d="M10.3728 3.8L18.1 3.8C18.5971 3.8 19 4.20295 19 4.7L19 17.3C19 17.7971 18.5971 18.2 18.1 18.2L1.9 18.2C1.40295 18.2 1 17.7971 1 17.3L1 2.9C1 2.40295 1.40295 2 1.9 2L8.57278 2L10.3728 3.8ZM2.8 3.8L2.8 16.4L17.2 16.4L17.2 5.6L9.62722 5.6L7.82721 3.8L2.8 3.8ZM9.1 11.045L9.1 7.4L13.6 7.4L13.6 9.2L10.9 9.2L10.9 13.25C10.9 14.4926 9.89263 15.5 8.65 15.5C7.40736 15.5 6.4 14.4926 6.4 13.25C6.4 12.0074 7.40736 11 8.65 11C8.80408 11 8.95456 11.0155 9.1 11.045Z"   fill="#000000" ></path></g></svg>