<svg xmlns="http://www.w3.org/2000/svg" xmlns:xlink="http://www.w3.org/1999/xlink" width="24" height="24" viewBox="0 0 24 24" fill="none"><path d="M20.4826 1C20.5134 0.999995 20.5442 1.00071 20.575 1.00216C20.6059 1.0036 20.6366 1.00577 20.6673 1.00866C20.698 1.01154 20.7286 1.01515 20.7592 1.01948C20.7897 1.0238 20.8201 1.02884 20.8504 1.0346C20.8807 1.04035 20.9109 1.04681 20.9409 1.05398C20.9708 1.06115 21.0007 1.06902 21.0303 1.07759C21.0599 1.08616 21.0893 1.09542 21.1185 1.10537C21.1477 1.11532 21.1766 1.12595 21.2053 1.13726C21.234 1.14857 21.2624 1.16054 21.2906 1.17319C21.3187 1.18583 21.3465 1.19913 21.374 1.21308C21.4015 1.22703 21.4287 1.24161 21.4555 1.25684C21.4823 1.27206 21.5087 1.28791 21.5348 1.30438C21.5609 1.32084 21.5866 1.33791 21.6118 1.35559C21.6371 1.37326 21.662 1.39151 21.6864 1.41035C21.7108 1.42919 21.7347 1.44859 21.7583 1.46856C21.7818 1.48853 21.8048 1.50903 21.8273 1.53007C21.8499 1.55112 21.8719 1.57268 21.8934 1.59476C21.9149 1.61684 21.936 1.63942 21.9564 1.66248C21.9769 1.68555 21.9968 1.70908 22.0162 1.73309C22.0355 1.75709 22.0543 1.78153 22.0725 1.80641C22.0907 1.83129 22.1084 1.85659 22.1254 1.88232C22.1424 1.90802 22.1589 1.93412 22.1747 1.96061C22.1905 1.98708 22.2056 2.01392 22.2202 2.04111C22.2347 2.0683 22.2486 2.09583 22.2619 2.12368C22.2751 2.15153 22.2877 2.17967 22.2996 2.20811C22.3115 2.23655 22.3228 2.26526 22.3334 2.29423C22.344 2.32318 22.3539 2.35237 22.3631 2.38181C22.3723 2.41124 22.3808 2.44088 22.3886 2.47072C22.3964 2.50055 22.4036 2.53054 22.4099 2.56071C22.4164 2.59088 22.4221 2.62117 22.4271 2.6516C22.432 2.68204 22.4363 2.71257 22.4399 2.7432C22.4434 2.77383 22.4462 2.80453 22.4484 2.8353L22.4527 2.97016L22.4527 8.28778C22.4527 8.30158 22.4524 8.31536 22.4517 8.32913C22.451 8.34291 22.45 8.35666 22.4487 8.37036C22.4474 8.38408 22.4458 8.39775 22.4438 8.4114C22.4419 8.42505 22.4396 8.43864 22.437 8.45216C22.4344 8.46571 22.4314 8.47918 22.4282 8.49257C22.425 8.50598 22.4214 8.5193 22.4175 8.53253C22.4137 8.54577 22.4095 8.55888 22.405 8.57191C22.4005 8.58497 22.3957 8.5979 22.3906 8.61067C22.3855 8.6235 22.3801 8.63617 22.3744 8.64872C22.3687 8.66129 22.3627 8.6737 22.3565 8.68596C22.3502 8.69823 22.3436 8.71033 22.3368 8.72229C22.3299 8.73427 22.3228 8.74607 22.3153 8.75767C22.3079 8.76931 22.3003 8.78075 22.2923 8.79199C22.2844 8.80325 22.2761 8.81431 22.2677 8.82518C22.2592 8.83606 22.2505 8.84673 22.2415 8.85717C22.2325 8.86764 22.2233 8.8779 22.2138 8.88791C22.2043 8.89794 22.1947 8.90773 22.1847 8.91728C22.1748 8.92687 22.1647 8.93618 22.1543 8.94526C22.1439 8.95435 22.1334 8.9632 22.1226 8.97177C22.1118 8.98038 22.1008 8.9887 22.0896 8.99675C22.0785 9.00483 22.0671 9.01263 22.0556 9.02017C22.044 9.02771 22.0323 9.03495 22.0204 9.04193C22.0085 9.0489 21.9964 9.0556 21.9843 9.06201C21.9721 9.06843 21.9597 9.07456 21.9472 9.08035C21.9347 9.0862 21.9221 9.09172 21.9094 9.09695C21.8966 9.10218 21.8837 9.10711 21.8707 9.11173C21.8577 9.11635 21.8447 9.12066 21.8315 9.12466C21.8183 9.12868 21.805 9.13238 21.7916 9.13574C21.7783 9.13912 21.7649 9.1422 21.7513 9.14492C21.7378 9.14767 21.7242 9.15008 21.7106 9.15218C21.697 9.15429 21.6833 9.15608 21.6696 9.15752C21.6559 9.15898 21.6422 9.16011 21.6284 9.16093C21.6147 9.16175 21.6009 9.16221 21.5871 9.16237C21.5733 9.16252 21.5596 9.16237 21.5458 9.16185C21.532 9.16139 21.5182 9.16057 21.5045 9.15942C21.4908 9.15829 21.4771 9.1568 21.4634 9.155C21.4497 9.15323 21.4361 9.15113 21.4225 9.14867C21.409 9.14626 21.3955 9.14349 21.382 9.14041C21.3686 9.13735 21.3552 9.13397 21.342 9.13025C21.3287 9.12656 21.3155 9.12255 21.3024 9.11822C21.2893 9.11391 21.2763 9.10927 21.2635 9.10431C21.2506 9.09939 21.2378 9.09416 21.2252 9.08861C21.2126 9.08307 21.2001 9.07725 21.1878 9.07109C21.1754 9.06499 21.1632 9.05857 21.1512 9.05185C21.1392 9.04516 21.1273 9.03818 21.1156 9.0309C21.1038 9.02363 21.0923 9.01609 21.0809 9.00827C21.0696 9.00047 21.0584 8.99242 21.0474 8.98405C21.0365 8.97572 21.0257 8.96712 21.0151 8.95827C21.0045 8.94945 20.9942 8.94034 20.9841 8.931C20.9739 8.92167 20.964 8.9121 20.9543 8.9023C20.9446 8.8925 20.9352 8.88247 20.9259 8.87221C20.9167 8.86194 20.9078 8.85148 20.899 8.84081C20.8903 8.83014 20.8819 8.81928 20.8736 8.8082C20.8654 8.79712 20.8575 8.78586 20.8498 8.77439C20.8421 8.76295 20.8347 8.75133 20.8276 8.73953C20.8205 8.72773 20.8136 8.71577 20.8071 8.70364C20.8005 8.69153 20.7942 8.67924 20.7882 8.66683C20.7823 8.65441 20.7766 8.64187 20.7712 8.62917C20.7658 8.6165 20.7607 8.60367 20.7559 8.59074C20.7512 8.57784 20.7467 8.56481 20.7425 8.55165C20.7383 8.53851 20.7345 8.5253 20.7309 8.51196C20.7274 8.49865 20.7241 8.48526 20.7212 8.47176C20.7183 8.45829 20.7157 8.44475 20.7135 8.43115C20.7112 8.41756 20.7092 8.40394 20.7076 8.39024L20.7015 8.28778L20.7015 2.97016C20.7015 2.9671 20.7014 2.96404 20.7013 2.961C20.7012 2.95794 20.7009 2.95489 20.7007 2.95184C20.7004 2.9488 20.7001 2.94576 20.6997 2.94273C20.6993 2.93971 20.6989 2.93669 20.6984 2.93368C20.6978 2.93067 20.6973 2.92767 20.6966 2.9247C20.696 2.92171 20.6953 2.91873 20.6945 2.91577C20.6938 2.91281 20.6929 2.90987 20.692 2.90695C20.6911 2.90402 20.6902 2.90112 20.6892 2.89825C20.6882 2.89536 20.6871 2.8925 20.686 2.88966C20.6849 2.88682 20.6837 2.88401 20.6825 2.88122C20.6812 2.87843 20.6799 2.87567 20.6785 2.87293C20.6772 2.87021 20.6758 2.86751 20.6743 2.86483C20.6728 2.86216 20.6713 2.85951 20.6697 2.8569C20.6681 2.85428 20.6665 2.85171 20.6648 2.84918C20.6631 2.84663 20.6613 2.84412 20.6595 2.84166C20.6577 2.83918 20.6559 2.83675 20.654 2.83437C20.6521 2.83198 20.6502 2.82963 20.6482 2.82732C20.6462 2.82501 20.6441 2.82275 20.642 2.82052C20.6399 2.8183 20.6378 2.81612 20.6356 2.81398C20.6334 2.81184 20.6312 2.80976 20.6289 2.80772C20.6266 2.80567 20.6243 2.80367 20.622 2.80172C20.6196 2.79979 20.6172 2.7979 20.6148 2.79605C20.6124 2.7942 20.6099 2.79241 20.6074 2.79066C20.6049 2.78892 20.6023 2.78723 20.5997 2.78561C20.5972 2.78397 20.5946 2.78238 20.5919 2.78086C20.5893 2.77934 20.5866 2.77787 20.5839 2.77645C20.5812 2.77505 20.5784 2.7737 20.5757 2.7724C20.5729 2.7711 20.5701 2.76986 20.5673 2.76868C20.5645 2.76748 20.5617 2.76635 20.5588 2.76529C20.5559 2.76423 20.553 2.76323 20.5501 2.76229C20.5472 2.76135 20.5443 2.76047 20.5414 2.75965C20.5384 2.75883 20.5355 2.75807 20.5325 2.75736L20.4826 2.75123L2.97015 2.75123C2.96709 2.75125 2.96404 2.75132 2.96099 2.75144C2.95795 2.75157 2.9549 2.75177 2.95186 2.75203C2.94881 2.7523 2.94578 2.75263 2.94275 2.753C2.93971 2.7534 2.93668 2.75385 2.93367 2.75436C2.93066 2.75488 2.92767 2.75545 2.92469 2.75608C2.9217 2.75673 2.91872 2.75743 2.91576 2.75819C2.91281 2.75896 2.90986 2.75978 2.90694 2.76067C2.90403 2.76156 2.90113 2.76251 2.89824 2.76352C2.89535 2.76453 2.8925 2.7656 2.88968 2.76673C2.88684 2.76786 2.88402 2.76904 2.88124 2.77027C2.87843 2.77152 2.87567 2.77283 2.87295 2.77419C2.87021 2.77555 2.8675 2.77696 2.86482 2.77845C2.86215 2.77992 2.85951 2.78145 2.85689 2.78304C2.85429 2.78462 2.85172 2.78625 2.84917 2.78794C2.84662 2.78964 2.84412 2.79138 2.84165 2.79318C2.83919 2.79497 2.83676 2.79683 2.83437 2.79874C2.83197 2.80064 2.82962 2.80258 2.82731 2.80457C2.825 2.80657 2.82274 2.80862 2.82051 2.81072C2.81829 2.81281 2.81611 2.81495 2.81397 2.81714C2.81184 2.81931 2.80975 2.82153 2.80771 2.82381C2.80566 2.82608 2.80367 2.8284 2.80174 2.83076C2.79979 2.8331 2.79789 2.8355 2.79604 2.83794C2.79419 2.84037 2.7924 2.84284 2.79065 2.84535C2.78893 2.84785 2.78724 2.85039 2.7856 2.85297C2.78396 2.85556 2.78238 2.85817 2.78086 2.86082C2.77933 2.86346 2.77786 2.86613 2.77644 2.86885C2.77504 2.87155 2.77369 2.87429 2.77239 2.87706C2.77109 2.87981 2.76985 2.8826 2.76867 2.88542C2.76749 2.88825 2.76637 2.89109 2.76531 2.89394C2.76423 2.8968 2.76322 2.89968 2.76228 2.90259C2.76134 2.90549 2.76046 2.90842 2.75964 2.91136C2.75882 2.9143 2.75807 2.91726 2.75738 2.92024L2.75125 2.97016L2.75125 21.0298C2.75125 21.0329 2.75132 21.0359 2.75146 21.039C2.75159 21.0421 2.75179 21.0451 2.75205 21.0481C2.7523 21.0512 2.75263 21.0542 2.75302 21.0572C2.7534 21.0603 2.75384 21.0633 2.75436 21.0663C2.75487 21.0693 2.75545 21.0723 2.7561 21.0753C2.75673 21.0783 2.75743 21.0813 2.7582 21.0842C2.75896 21.0872 2.75978 21.0901 2.76067 21.093C2.76156 21.096 2.76251 21.0989 2.76351 21.1017C2.76452 21.1046 2.76559 21.1075 2.76672 21.1103C2.76785 21.1132 2.76904 21.116 2.77029 21.1188C2.77154 21.1216 2.77283 21.1243 2.77419 21.127C2.77555 21.1298 2.77697 21.1325 2.77844 21.1351C2.77991 21.1378 2.78145 21.1405 2.78304 21.1431C2.78463 21.1457 2.78627 21.1483 2.78796 21.1508C2.78965 21.1534 2.7914 21.1559 2.79319 21.1583C2.79499 21.1608 2.79684 21.1632 2.79874 21.1656C2.80063 21.168 2.80258 21.1704 2.80458 21.1727C2.80659 21.175 2.80863 21.1773 2.81072 21.1795C2.8128 21.1817 2.81494 21.1839 2.81713 21.186C2.81932 21.1882 2.82154 21.1903 2.8238 21.1923C2.82607 21.1943 2.82839 21.1963 2.83075 21.1983C2.83311 21.2002 2.8355 21.2021 2.83793 21.2039C2.84036 21.2058 2.84283 21.2076 2.84535 21.2093C2.84786 21.2111 2.85041 21.2127 2.85299 21.2144C2.85556 21.216 2.85817 21.2176 2.86082 21.2191C2.86347 21.2206 2.86614 21.2221 2.86884 21.2235C2.87155 21.225 2.87428 21.2263 2.87705 21.2276C2.87982 21.2289 2.88261 21.2301 2.88542 21.2313C2.88824 21.2325 2.89108 21.2336 2.89393 21.2347C2.89681 21.2358 2.8997 21.2368 2.9026 21.2377C2.90551 21.2386 2.90844 21.2395 2.91138 21.2403C2.91432 21.2411 2.91727 21.2419 2.92023 21.2426L2.97015 21.2487L9.61612 21.2487C9.62989 21.2488 9.64367 21.2491 9.65744 21.2498C9.67119 21.2505 9.68492 21.2515 9.69864 21.2528C9.71237 21.2542 9.72604 21.2558 9.73969 21.2578C9.75331 21.2597 9.7669 21.262 9.78045 21.2646C9.79397 21.2673 9.80744 21.2702 9.82083 21.2734C9.83422 21.2767 9.84753 21.2803 9.86074 21.2841C9.87395 21.288 9.88709 21.2922 9.90012 21.2967C9.91313 21.3012 9.92606 21.306 9.93886 21.3111C9.95166 21.3162 9.96433 21.3216 9.97687 21.3273C9.98942 21.333 10.0018 21.339 10.0141 21.3453C10.0263 21.3516 10.0384 21.3582 10.0504 21.3651C10.0623 21.372 10.0741 21.3791 10.0857 21.3865C10.0973 21.3939 10.1088 21.4016 10.12 21.4096C10.1313 21.4175 10.1423 21.4257 10.1532 21.4342C10.164 21.4427 10.1747 21.4515 10.1852 21.4604C10.1956 21.4694 10.2058 21.4786 10.2159 21.4881C10.2259 21.4976 10.2356 21.5073 10.2452 21.5172C10.2548 21.5271 10.2641 21.5373 10.2731 21.5476C10.2822 21.558 10.291 21.5686 10.2996 21.5794C10.3082 21.5902 10.3165 21.6011 10.3246 21.6123C10.3327 21.6235 10.3404 21.6349 10.3479 21.6464C10.3555 21.658 10.3627 21.6697 10.3697 21.6816C10.3766 21.6935 10.3833 21.7055 10.3897 21.7177C10.3961 21.7299 10.4023 21.7423 10.4081 21.7547C10.4139 21.7672 10.4194 21.7799 10.4246 21.7926C10.4298 21.8054 10.4348 21.8182 10.4394 21.8312C10.444 21.8442 10.4483 21.8573 10.4523 21.8705C10.4563 21.8837 10.46 21.897 10.4633 21.9103C10.4667 21.9237 10.4697 21.9371 10.4725 21.9506C10.4752 21.9641 10.4776 21.9777 10.4797 21.9913C10.4818 22.0049 10.4836 22.0186 10.4851 22.0323C10.4865 22.046 10.4876 22.0597 10.4884 22.0735C10.4892 22.0872 10.4897 22.101 10.4899 22.1148C10.49 22.1286 10.4898 22.1424 10.4893 22.1561C10.4888 22.1699 10.488 22.1836 10.4869 22.1974C10.4857 22.2111 10.4842 22.2248 10.4824 22.2385C10.4806 22.2521 10.4785 22.2658 10.4761 22.2793C10.4736 22.2929 10.4709 22.3064 10.4678 22.3198C10.4647 22.3332 10.4614 22.3466 10.4576 22.3598C10.4539 22.3731 10.4499 22.3863 10.4456 22.3994C10.4412 22.4125 10.4366 22.4254 10.4317 22.4383C10.4267 22.4512 10.4215 22.4639 10.416 22.4765C10.4104 22.4891 10.4046 22.5016 10.3985 22.514C10.3923 22.5263 10.3859 22.5385 10.3792 22.5505C10.3725 22.5626 10.3655 22.5745 10.3582 22.5862C10.351 22.5979 10.3434 22.6094 10.3356 22.6207C10.3278 22.6321 10.3197 22.6433 10.3114 22.6542C10.3031 22.6652 10.2945 22.676 10.2856 22.6865C10.2768 22.6971 10.2677 22.7075 10.2583 22.7176C10.249 22.7277 10.2394 22.7376 10.2296 22.7473C10.2198 22.757 10.2098 22.7664 10.1995 22.7757C10.1893 22.7849 10.1788 22.7938 10.1681 22.8025C10.1575 22.8113 10.1466 22.8197 10.1355 22.8279C10.1245 22.8361 10.1132 22.8441 10.1018 22.8517C10.0903 22.8594 10.0787 22.8668 10.0669 22.8739C10.0551 22.8811 10.0431 22.8879 10.031 22.8945C10.0189 22.901 10.0066 22.9073 9.99422 22.9133C9.9818 22.9193 9.96926 22.9249 9.95656 22.9303C9.94386 22.9357 9.93106 22.9408 9.91815 22.9456C9.90523 22.9504 9.89219 22.9548 9.87906 22.959C9.86592 22.9632 9.85269 22.967 9.83937 22.9705C9.82606 22.9741 9.81267 22.9773 9.7992 22.9802C9.78573 22.9832 9.77219 22.9858 9.75859 22.988C9.74502 22.9903 9.73137 22.9922 9.71768 22.9939L9.61524 23L2.97015 23C2.93931 23 2.9085 22.9993 2.8777 22.9978C2.84688 22.9964 2.81612 22.9942 2.78542 22.9913C2.75472 22.9884 2.7241 22.9848 2.69356 22.9805C2.66303 22.9762 2.63261 22.9711 2.60231 22.9654C2.57202 22.9596 2.54188 22.9532 2.51188 22.946C2.48189 22.9388 2.45208 22.931 2.42246 22.9224C2.39284 22.9138 2.36343 22.9046 2.33424 22.8946C2.30504 22.8847 2.2761 22.874 2.2474 22.8627C2.21872 22.8514 2.19032 22.8395 2.16218 22.8268C2.13405 22.8142 2.10623 22.8008 2.07873 22.7869C2.05123 22.773 2.02407 22.7584 1.99726 22.7432C1.97044 22.7279 1.944 22.7121 1.91791 22.6956C1.89183 22.6791 1.86617 22.6621 1.8409 22.6444C1.81563 22.6267 1.79078 22.6085 1.76636 22.5896C1.74194 22.5708 1.71798 22.5514 1.69448 22.5314C1.67098 22.5115 1.64796 22.491 1.62542 22.4699C1.60288 22.4489 1.58084 22.4273 1.55931 22.4052C1.53778 22.3832 1.51678 22.3606 1.49631 22.3375C1.47584 22.3144 1.45592 22.2909 1.43656 22.2669C1.4172 22.2429 1.39841 22.2184 1.38018 22.1936C1.36196 22.1687 1.34435 22.1434 1.32733 22.1177C1.3103 22.092 1.29388 22.0659 1.27808 22.0394C1.26228 22.0129 1.24711 21.9861 1.23257 21.9589C1.21802 21.9317 1.20411 21.9042 1.19086 21.8763C1.17762 21.8485 1.16503 21.8203 1.1531 21.7919C1.14118 21.7634 1.12992 21.7348 1.11934 21.7058C1.10875 21.6768 1.09886 21.6476 1.08966 21.6182C1.08044 21.5887 1.07192 21.5591 1.06411 21.5293C1.05629 21.4995 1.04918 21.4695 1.04276 21.4393C1.03637 21.4091 1.03067 21.3788 1.02568 21.3484C1.0207 21.318 1.01643 21.2874 1.01288 21.2568C1.00932 21.2262 1.00649 21.1955 1.00439 21.1647L1 21.0298L1 2.97016C1 2.9393 1.00072 2.90848 1.00215 2.87768C1.00361 2.84688 1.00577 2.81613 1.00865 2.78543C1.01154 2.75471 1.01514 2.72409 1.01947 2.69357C1.0238 2.66302 1.02884 2.63261 1.03461 2.60232C1.04035 2.57201 1.04681 2.54187 1.05397 2.51189C1.06116 2.4819 1.06903 2.45208 1.0776 2.42244C1.08617 2.39282 1.09543 2.36341 1.10538 2.33422C1.11532 2.30504 1.12595 2.27611 1.13727 2.24741C1.14857 2.21871 1.16054 2.19031 1.17318 2.16219C1.18582 2.13406 1.19912 2.10624 1.21307 2.07874C1.22703 2.05124 1.24162 2.02407 1.25684 1.99724C1.27206 1.97043 1.2879 1.94399 1.30437 1.91792C1.32084 1.89184 1.33791 1.86616 1.35558 1.84089C1.37326 1.81562 1.39152 1.79077 1.41035 1.76636C1.42919 1.74194 1.44859 1.71798 1.46855 1.69448C1.48853 1.67097 1.50903 1.64795 1.53007 1.62541C1.55112 1.60287 1.57268 1.58083 1.59476 1.5593C1.61684 1.53777 1.63942 1.51677 1.66249 1.49631C1.68556 1.47584 1.70909 1.45592 1.73309 1.43656C1.75708 1.41719 1.78152 1.3984 1.8064 1.38019C1.8313 1.36197 1.8566 1.34435 1.88231 1.32732C1.90801 1.31029 1.93411 1.29388 1.9606 1.27808C1.98708 1.26227 2.01392 1.2471 2.04113 1.23256C2.06832 1.21802 2.09584 1.20412 2.12368 1.19087C2.15152 1.17762 2.17966 1.16503 2.2081 1.1531C2.23654 1.14117 2.26525 1.12992 2.29422 1.11934C2.32319 1.10876 2.35239 1.09886 2.38182 1.08965C2.41125 1.08045 2.44088 1.07193 2.47071 1.06411C2.50054 1.0563 2.53053 1.04918 2.5607 1.04277C2.59087 1.03636 2.62117 1.03067 2.65159 1.02568C2.68203 1.02069 2.71257 1.01642 2.7432 1.01287C2.77383 1.00932 2.80453 1.00649 2.83529 1.00438L2.97015 1L20.4826 1ZM18.4056 11.4864C18.4142 11.4746 18.4231 11.463 18.4322 11.4516C18.4414 11.4402 18.4509 11.429 18.4606 11.4181C18.4703 11.4071 18.4803 11.3965 18.4906 11.386C18.5008 11.3756 18.5114 11.3654 18.5221 11.3555C18.5329 11.3456 18.5439 11.336 18.5552 11.3267C18.5664 11.3173 18.5779 11.3083 18.5896 11.2995C18.6014 11.2907 18.6133 11.2823 18.6254 11.2741C18.6375 11.2659 18.6499 11.258 18.6624 11.2505C18.6749 11.2429 18.6876 11.2357 18.7005 11.2288C18.7134 11.2218 18.7265 11.2152 18.7397 11.209C18.7529 11.2027 18.7663 11.1968 18.7798 11.1912C18.7933 11.1856 18.807 11.1804 18.8208 11.1754C18.8346 11.1705 18.8485 11.166 18.8625 11.1618C18.8765 11.1576 18.8906 11.1537 18.9048 11.1502C18.919 11.1467 18.9333 11.1435 18.9477 11.1407C18.962 11.138 18.9764 11.1355 18.9909 11.1334C19.0054 11.1314 19.0199 11.1297 19.0345 11.1283C19.0491 11.127 19.0637 11.126 19.0783 11.1254C19.0929 11.1248 19.1075 11.1246 19.1222 11.1247C19.1368 11.1248 19.1514 11.1253 19.166 11.1262C19.1806 11.1271 19.1952 11.1283 19.2098 11.1298C19.2243 11.1314 19.2388 11.1334 19.2532 11.1357C19.2677 11.138 19.2821 11.1407 19.2964 11.1438C19.3107 11.1468 19.3249 11.1502 19.3391 11.1539C19.3532 11.1577 19.3673 11.1618 19.3812 11.1662C19.3951 11.1707 19.409 11.1755 19.4227 11.1806C19.4363 11.1858 19.4499 11.1913 19.4633 11.1971C19.4767 11.203 19.49 11.2091 19.5031 11.2156C19.5162 11.2221 19.5292 11.2289 19.5419 11.2361C19.5547 11.2432 19.5673 11.2506 19.5797 11.2584C19.5921 11.2662 19.6043 11.2743 19.6163 11.2826C19.6283 11.2911 19.64 11.2997 19.6516 11.3087L22.1147 13.2245C22.1258 13.2332 22.1367 13.2421 22.1474 13.2512C22.158 13.2604 22.1685 13.2698 22.1787 13.2795C22.1889 13.2892 22.1989 13.2991 22.2086 13.3092C22.2183 13.3194 22.2278 13.3298 22.237 13.3404C22.2463 13.351 22.2553 13.3618 22.264 13.3728C22.2727 13.3839 22.2811 13.3951 22.2893 13.4066C22.2975 13.418 22.3053 13.4297 22.313 13.4415C22.3206 13.4533 22.3279 13.4653 22.3349 13.4775C22.3419 13.4897 22.3487 13.502 22.3551 13.5145C22.3616 13.527 22.3677 13.5397 22.3735 13.5524C22.3793 13.5653 22.3849 13.5782 22.3901 13.5913C22.3953 13.6043 22.4001 13.6175 22.4047 13.6308C22.4093 13.6441 22.4135 13.6575 22.4175 13.671C22.4214 13.6845 22.425 13.6981 22.4282 13.7118C22.4315 13.7254 22.4344 13.7392 22.4371 13.753C22.4397 13.7668 22.4419 13.7807 22.4439 13.7946C22.4458 13.8086 22.4474 13.8225 22.4487 13.8365C22.4499 13.8505 22.4509 13.8646 22.4515 13.8786C22.452 13.8927 22.4523 13.9067 22.4522 13.9208C22.4521 13.9348 22.4517 13.9489 22.4509 13.9629C22.4502 13.977 22.4491 13.991 22.4476 14.005C22.4462 14.019 22.4444 14.0329 22.4423 14.0468C22.4402 14.0607 22.4377 14.0746 22.435 14.0883C22.4322 14.1021 22.4291 14.1159 22.4256 14.1295C22.4222 14.1431 22.4184 14.1567 22.4143 14.1701C22.4103 14.1836 22.4058 14.1969 22.4011 14.2102C22.3964 14.2234 22.3913 14.2365 22.3859 14.2495C22.3806 14.2625 22.3749 14.2754 22.3689 14.2881C22.3629 14.3008 22.3566 14.3134 22.35 14.3258C22.3435 14.3382 22.3366 14.3505 22.3294 14.3626C22.3222 14.3747 22.3147 14.3866 22.307 14.3983C22.2992 14.41 22.2912 14.4216 22.2829 14.4329L16.263 22.6419C16.2528 22.6557 16.2423 22.6691 16.2314 22.6823C16.2205 22.6955 16.2092 22.7084 16.1976 22.7209C16.1859 22.7335 16.1739 22.7456 16.1615 22.7574C16.1492 22.7693 16.1365 22.7807 16.1234 22.7918C16.1104 22.8029 16.097 22.8136 16.0833 22.8239C16.0697 22.8341 16.0557 22.844 16.0415 22.8535C16.0272 22.863 16.0127 22.872 15.9979 22.8807C15.9831 22.8893 15.9681 22.8975 15.9529 22.9052C15.9376 22.913 15.9221 22.9203 15.9064 22.9271C15.8907 22.9339 15.8749 22.9403 15.8588 22.9462C15.8427 22.9521 15.8265 22.9575 15.8101 22.9625C15.7938 22.9674 15.7773 22.9719 15.7606 22.9759C15.744 22.9799 15.7272 22.9834 15.7104 22.9864C15.6935 22.9894 15.6766 22.9919 15.6596 22.9939C15.6426 22.9959 15.6256 22.9974 15.6085 22.9985C15.5914 22.9995 15.5743 23 15.5572 23L13.3681 23C13.3538 23 13.3395 22.9997 13.3252 22.9989C13.3109 22.9982 13.2966 22.9972 13.2823 22.9958C13.2681 22.9944 13.2539 22.9926 13.2397 22.9905C13.2255 22.9884 13.2114 22.986 13.1973 22.9832C13.1833 22.9804 13.1693 22.9772 13.1554 22.9737C13.1415 22.9703 13.1277 22.9664 13.114 22.9623C13.1003 22.9581 13.0867 22.9536 13.0732 22.9488C13.0597 22.944 13.0463 22.9388 13.0331 22.9333C13.0198 22.9279 13.0067 22.9221 12.9938 22.9159C12.9808 22.9098 12.968 22.9034 12.9554 22.8966C12.9427 22.8898 12.9303 22.8828 12.918 22.8754C12.9057 22.8681 12.8936 22.8604 12.8817 22.8524C12.8698 22.8445 12.8581 22.8362 12.8465 22.8277C12.835 22.8191 12.8237 22.8103 12.8127 22.8012C12.8016 22.7922 12.7907 22.7828 12.7801 22.7731C12.7695 22.7635 12.7591 22.7537 12.749 22.7435C12.7389 22.7334 12.729 22.723 12.7194 22.7124C12.7097 22.7018 12.7004 22.6909 12.6913 22.6798C12.6822 22.6688 12.6734 22.6575 12.6648 22.646C12.6563 22.6345 12.6481 22.6227 12.6401 22.6108C12.6321 22.5989 12.6245 22.5868 12.6171 22.5745C12.6097 22.5623 12.6027 22.5498 12.5959 22.5371C12.5892 22.5245 12.5827 22.5117 12.5766 22.4987C12.5705 22.4858 12.5647 22.4727 12.5592 22.4594C12.5537 22.4462 12.5485 22.4328 12.5437 22.4193C12.5389 22.4058 12.5344 22.3922 12.5302 22.3785C12.5261 22.3649 12.5222 22.351 12.5188 22.3371C12.5153 22.3232 12.5122 22.3092 12.5094 22.2952C12.5066 22.2811 12.5041 22.267 12.502 22.2528C12.4999 22.2387 12.4982 22.2245 12.4967 22.2102C12.4953 22.1959 12.4943 22.1816 12.4936 22.1673C12.4929 22.153 12.4925 22.1387 12.4925 22.1244L12.4925 19.9353C12.4925 19.9124 12.4934 19.8896 12.4952 19.8667C12.4969 19.8439 12.4996 19.8212 12.5032 19.7986C12.5068 19.776 12.5112 19.7535 12.5165 19.7312C12.5218 19.709 12.528 19.687 12.5351 19.6652C12.5421 19.6434 12.55 19.6219 12.5588 19.6007C12.5675 19.5796 12.5771 19.5588 12.5874 19.5384C12.5978 19.518 12.6089 19.498 12.6208 19.4785C12.6328 19.4589 12.6455 19.4399 12.6589 19.4213L18.4056 11.4864ZM19.2917 13.2473L14.2438 20.2173L14.2438 21.2487L15.1124 21.2487L20.367 14.0835L19.2917 13.2473ZM14.4627 5.92537C14.4765 5.9254 14.4902 5.92573 14.504 5.92637C14.5178 5.92704 14.5315 5.92804 14.5453 5.92935C14.559 5.93068 14.5727 5.93232 14.5863 5.93427C14.6 5.93625 14.6135 5.93853 14.6271 5.94112C14.6406 5.94374 14.6541 5.94664 14.6675 5.94987C14.6809 5.95313 14.6942 5.95669 14.7074 5.96054C14.7206 5.96442 14.7338 5.9686 14.7468 5.97309C14.7598 5.97758 14.7728 5.98237 14.7856 5.98745C14.7984 5.99256 14.8111 5.99794 14.8236 6.00364C14.8362 6.00936 14.8486 6.01536 14.8608 6.02162C14.8731 6.02793 14.8852 6.0345 14.8972 6.04132C14.9091 6.0482 14.9209 6.05533 14.9326 6.06274C14.9442 6.07016 14.9556 6.07783 14.9669 6.08578C14.9782 6.09373 14.9892 6.10197 15.0001 6.11043C15.011 6.1189 15.0216 6.12762 15.0321 6.1366C15.0425 6.1456 15.0528 6.15484 15.0628 6.16428C15.0728 6.17374 15.0826 6.18344 15.0922 6.19337C15.1017 6.2033 15.1111 6.21343 15.1202 6.22379C15.1292 6.23416 15.1381 6.24475 15.1467 6.25553C15.1553 6.2663 15.1636 6.27728 15.1717 6.28846C15.1797 6.29965 15.1875 6.31099 15.1951 6.32253C15.2026 6.3341 15.2099 6.34582 15.2168 6.3577C15.2238 6.3696 15.2305 6.38164 15.2369 6.39382C15.2433 6.40603 15.2494 6.4184 15.2553 6.43086C15.2611 6.44338 15.2666 6.456 15.2719 6.46875C15.2771 6.48153 15.282 6.49438 15.2866 6.50736C15.2912 6.52034 15.2956 6.53345 15.2996 6.54664C15.3036 6.55982 15.3073 6.57311 15.3106 6.58645C15.314 6.59984 15.3171 6.61328 15.3198 6.62678C15.3226 6.64029 15.325 6.65386 15.3271 6.66746C15.3292 6.68111 15.331 6.69476 15.3324 6.70845C15.3339 6.72218 15.335 6.73593 15.3358 6.74968C15.3366 6.76343 15.3371 6.7772 15.3373 6.79098C15.3374 6.80478 15.3373 6.81856 15.3368 6.83233C15.3363 6.84611 15.3355 6.85986 15.3343 6.87361C15.3332 6.88736 15.3317 6.90106 15.3299 6.9147C15.3281 6.92838 15.326 6.942 15.3236 6.95557C15.3211 6.96914 15.3184 6.98263 15.3153 6.99608C15.3123 7.00952 15.3089 7.02288 15.3052 7.03615C15.3015 7.04943 15.2975 7.06262 15.2931 7.0757C15.2888 7.08879 15.2842 7.10177 15.2792 7.11464C15.2743 7.12752 15.2691 7.14024 15.2635 7.15287C15.258 7.16549 15.2521 7.17798 15.246 7.19032C15.2399 7.20268 15.2335 7.21487 15.2268 7.22693C15.2201 7.23898 15.2131 7.25086 15.2058 7.26256C15.1985 7.27428 15.191 7.28583 15.1832 7.29716C15.1754 7.30853 15.1673 7.31969 15.159 7.33067C15.1506 7.34165 15.142 7.35242 15.1332 7.36299C15.1243 7.37356 15.1152 7.38392 15.1059 7.39406C15.0966 7.40421 15.087 7.41412 15.0772 7.42381C15.0674 7.43351 15.0573 7.44295 15.0471 7.45216C15.0368 7.46139 15.0264 7.47035 15.0157 7.47907C15.005 7.48779 14.9942 7.49626 14.9831 7.50447C14.972 7.51267 14.9608 7.52063 14.9493 7.5283C14.9379 7.53597 14.9262 7.54336 14.9144 7.55049C14.9026 7.55762 14.8907 7.56447 14.8785 7.57104C14.8664 7.5776 14.8541 7.58386 14.8417 7.58984C14.8293 7.59584 14.8168 7.60151 14.8041 7.6069C14.7914 7.61229 14.7786 7.61739 14.7656 7.62216C14.7527 7.62696 14.7397 7.63145 14.7265 7.6356C14.7134 7.63976 14.7002 7.64363 14.6869 7.64717C14.6735 7.65071 14.6601 7.65395 14.6467 7.65684C14.6332 7.65977 14.6197 7.66236 14.6061 7.66462C14.5925 7.6669 14.5788 7.66885 14.5651 7.67047L14.4627 7.6766L12.0547 7.6766L12.0547 14.4627C12.0547 14.4765 12.0544 14.4903 12.0537 14.504C12.053 14.5178 12.052 14.5315 12.0507 14.5452C12.0494 14.559 12.0478 14.5727 12.0458 14.5863C12.0438 14.6 12.0416 14.6135 12.039 14.6271C12.0364 14.6406 12.0334 14.6541 12.0302 14.6675C12.027 14.6809 12.0234 14.6942 12.0195 14.7074C12.0157 14.7206 12.0115 14.7338 12.007 14.7468C12.0025 14.7598 11.9977 14.7728 11.9926 14.7856C11.9875 14.7984 11.9821 14.8111 11.9764 14.8236C11.9707 14.8362 11.9647 14.8486 11.9585 14.8608C11.9522 14.8731 11.9456 14.8852 11.9388 14.8972C11.9319 14.9091 11.9248 14.9209 11.9173 14.9326C11.9099 14.9442 11.9023 14.9556 11.8943 14.9669C11.8864 14.9782 11.8781 14.9892 11.8697 15.0001C11.8612 15.011 11.8525 15.0216 11.8435 15.0321C11.8345 15.0425 11.8253 15.0528 11.8158 15.0628C11.8063 15.0728 11.7967 15.0826 11.7867 15.0922C11.7768 15.1018 11.7667 15.1111 11.7563 15.1202C11.7459 15.1292 11.7354 15.1381 11.7246 15.1467C11.7138 15.1553 11.7028 15.1636 11.6916 15.1717C11.6805 15.1797 11.6691 15.1875 11.6576 15.1951C11.646 15.2026 11.6343 15.2099 11.6224 15.2168C11.6105 15.2238 11.5984 15.2305 11.5863 15.2369C11.5741 15.2433 11.5617 15.2495 11.5492 15.2553C11.5367 15.2611 11.5241 15.2666 11.5113 15.2719C11.4986 15.2771 11.4857 15.282 11.4727 15.2866C11.4597 15.2912 11.4467 15.2956 11.4334 15.2996C11.4203 15.3036 11.407 15.3073 11.3936 15.3106C11.3803 15.314 11.3668 15.3171 11.3533 15.3198C11.3398 15.3226 11.3262 15.325 11.3126 15.3271C11.299 15.3292 11.2853 15.331 11.2716 15.3324C11.2579 15.3339 11.2442 15.335 11.2304 15.3358C11.2167 15.3367 11.2029 15.3371 11.1891 15.3373C11.1753 15.3374 11.1615 15.3373 11.1478 15.3368C11.134 15.3363 11.1202 15.3355 11.1065 15.3343C11.0928 15.3332 11.0791 15.3317 11.0654 15.3299C11.0517 15.3281 11.0381 15.326 11.0245 15.3236C11.0109 15.3212 10.9975 15.3184 10.984 15.3153C10.9706 15.3123 10.9572 15.3089 10.9439 15.3052C10.9307 15.3015 10.9175 15.2975 10.9044 15.2931C10.8913 15.2888 10.8783 15.2842 10.8654 15.2792C10.8526 15.2743 10.8398 15.2691 10.8272 15.2635C10.8146 15.258 10.8021 15.2522 10.7897 15.246C10.7774 15.2399 10.7652 15.2335 10.7532 15.2268C10.7411 15.2201 10.7292 15.2131 10.7175 15.2058C10.7058 15.1985 10.6943 15.191 10.6829 15.1832C10.6716 15.1754 10.6604 15.1673 10.6494 15.159C10.6384 15.1506 10.6277 15.142 10.6171 15.1332C10.6065 15.1243 10.5962 15.1152 10.586 15.1059C10.5759 15.0966 10.566 15.087 10.5563 15.0772C10.5466 15.0674 10.5371 15.0574 10.5279 15.0471C10.5187 15.0368 10.5097 15.0264 10.501 15.0157C10.4923 15.005 10.4838 14.9942 10.4756 14.9831C10.4674 14.972 10.4595 14.9608 10.4518 14.9493C10.4441 14.9379 10.4367 14.9262 10.4296 14.9144C10.4225 14.9026 10.4156 14.8907 10.409 14.8785C10.4025 14.8664 10.3962 14.8541 10.3902 14.8417C10.3843 14.8293 10.3786 14.8168 10.3732 14.8041C10.3678 14.7914 10.3627 14.7786 10.3579 14.7656C10.3531 14.7527 10.3487 14.7397 10.3445 14.7265C10.3403 14.7134 10.3365 14.7002 10.3329 14.6868C10.3294 14.6735 10.3261 14.6601 10.3232 14.6467C10.3203 14.6332 10.3178 14.6197 10.3155 14.6061C10.3132 14.5925 10.3112 14.5788 10.3096 14.5651L10.3035 14.4627L10.3035 7.6766L7.89552 7.6766C7.88174 7.6766 7.86797 7.67624 7.85419 7.67557C7.84042 7.67493 7.82667 7.67396 7.81294 7.67262C7.79922 7.67131 7.78555 7.66967 7.7719 7.6677C7.75825 7.66575 7.74465 7.66346 7.73114 7.66085C7.71759 7.65826 7.70412 7.65533 7.69073 7.6521C7.67732 7.64887 7.664 7.6453 7.65079 7.64143C7.63755 7.63758 7.62442 7.6334 7.61139 7.62888C7.59836 7.62442 7.58543 7.61962 7.57263 7.61452C7.55982 7.60944 7.54713 7.60403 7.53458 7.5983C7.52204 7.59261 7.50962 7.58663 7.49736 7.58035C7.48507 7.57406 7.47296 7.5675 7.46101 7.56065C7.44903 7.5538 7.43726 7.54667 7.42563 7.53923C7.41401 7.53184 7.40257 7.52414 7.39131 7.51619C7.38005 7.50824 7.36899 7.50003 7.35812 7.49154C7.34724 7.48307 7.33657 7.47435 7.32613 7.46535C7.31566 7.45637 7.30542 7.44716 7.29539 7.43769C7.28536 7.42825 7.27559 7.41855 7.26602 7.4086C7.25645 7.3987 7.24712 7.38854 7.23803 7.37818C7.22895 7.36781 7.2201 7.35724 7.21151 7.34644C7.20292 7.33567 7.1946 7.32469 7.18652 7.31351C7.17847 7.30235 7.17067 7.29098 7.16313 7.27944C7.15561 7.26789 7.14835 7.25617 7.14137 7.24427C7.1344 7.23239 7.1277 7.22036 7.12129 7.20815C7.11487 7.19594 7.10874 7.1836 7.10292 7.17108C7.0971 7.15861 7.09158 7.14599 7.08635 7.13322C7.08111 7.12047 7.07619 7.10759 7.07157 7.09461C7.06693 7.08163 7.06262 7.06854 7.05862 7.05533C7.05462 7.04215 7.05092 7.02889 7.04756 7.01552C7.04417 7.00216 7.04112 6.98871 7.03838 6.97519C7.03563 6.9617 7.0332 6.94813 7.03112 6.93451C7.02901 6.92089 7.02724 6.90721 7.02578 6.89351C7.02432 6.87982 7.02316 6.86607 7.02237 6.85229C7.02157 6.83854 7.02109 6.82479 7.02093 6.81099C7.02075 6.79721 7.02093 6.78344 7.02142 6.76964C7.02191 6.75589 7.02273 6.74211 7.02388 6.72836C7.02504 6.71464 7.0265 6.70094 7.0283 6.68726C7.03007 6.67362 7.03219 6.66 7.03463 6.6464C7.03707 6.63285 7.03981 6.61934 7.04287 6.60589C7.04594 6.59245 7.04933 6.57911 7.05302 6.56582C7.05674 6.55256 7.06075 6.53938 7.06508 6.52627C7.06942 6.51318 7.07403 6.5002 7.07896 6.48733C7.08391 6.47447 7.08914 6.46172 7.09469 6.4491C7.10023 6.43648 7.10605 6.42401 7.11218 6.41165C7.11831 6.39931 7.12475 6.3871 7.13145 6.37504C7.13814 6.36301 7.14514 6.35113 7.1524 6.33941C7.15966 6.32771 7.16721 6.31617 7.17503 6.3048C7.18283 6.29347 7.19091 6.28228 7.19925 6.2713C7.20758 6.26032 7.21618 6.24955 7.22503 6.23898C7.23388 6.22841 7.24296 6.21807 7.2523 6.20791C7.26163 6.19778 7.2712 6.18785 7.281 6.17816C7.29083 6.16848 7.30086 6.15904 7.31109 6.14981C7.32135 6.1406 7.33182 6.13162 7.34249 6.1229C7.35316 6.11418 7.36404 6.10571 7.37512 6.0975C7.38618 6.08929 7.39744 6.08137 7.40891 6.07367C7.42035 6.06603 7.43197 6.05861 7.44377 6.05148C7.45557 6.04435 7.46753 6.0375 7.47966 6.03093C7.49179 6.02439 7.50406 6.01813 7.51647 6.01213C7.52889 6.00615 7.54143 6.00046 7.55413 5.99507C7.56683 5.98968 7.57963 5.9846 7.59256 5.97981C7.60549 5.97504 7.61852 5.97055 7.63165 5.96636C7.64479 5.96221 7.65802 5.95836 7.67134 5.9548C7.68465 5.95126 7.69807 5.94805 7.71154 5.94512C7.725 5.94223 7.73855 5.93963 7.75215 5.93735C7.76574 5.93509 7.77939 5.93314 7.79306 5.9315L7.89552 5.92537L14.4627 5.92537Z"   fill="#000000" ></path></svg>