<svg xmlns="http://www.w3.org/2000/svg" xmlns:xlink="http://www.w3.org/1999/xlink" width="24" height="24" viewBox="0 0 24 24" fill="none"><path d="M21.1719 13.4182C21.1719 12.9128 21.5817 12.5054 22.0872 12.5054C22.5903 12.5054 23 12.9128 23 13.4182L23 18.7231C23 21.0861 21.0861 23 18.7231 23L5.27682 23C2.91389 23 1 21.0861 1 18.7231L1 5.27682C1 2.91635 2.9188 0.997549 5.27682 1L10.4909 1C10.9964 1 11.4062 1.40977 11.4062 1.91524C11.4062 2.4207 10.9964 2.83047 10.4909 2.83047L5.27927 2.83047C3.92728 2.83047 2.83292 3.92482 2.83292 5.27682L2.83292 13.2146C3.0832 13.1974 3.33348 13.1876 3.58376 13.1876C4.9333 13.1876 6.24358 13.4526 7.47779 13.9728C8.6703 14.4782 9.74011 15.1996 10.6578 16.1173C11.5779 17.035 12.2993 18.1048 12.8023 19.2973C13.0575 19.9058 13.2514 20.5291 13.3839 21.1695L18.7256 21.1695C20.0776 21.1695 21.1719 20.0751 21.1719 18.7231L21.1719 13.4182ZM17.2656 2.7937C17.695 3.24764 18.5023 3.64514 18.993 3.85861C19.1427 3.92241 19.2089 4.06718 19.2089 4.19722C19.2089 4.32482 19.1427 4.46713 18.993 4.53338C18.5023 4.74685 17.695 5.14435 17.2656 5.59829C16.8926 5.99088 16.5614 6.68774 16.3725 7.13431C16.3087 7.28644 16.1639 7.35269 16.0363 7.35269C15.9087 7.35269 15.7615 7.28644 15.6977 7.13431C15.5063 6.68774 15.1726 5.99088 14.8045 5.59338C14.3948 5.15417 13.6292 4.73704 13.1875 4.52111C12.9201 4.39107 12.9201 4.00093 13.1875 3.87088C13.6317 3.65495 14.3972 3.24028 14.8045 2.79861C15.175 2.39865 15.5087 1.70425 15.6977 1.25768C15.7639 1.10555 15.9087 1.0393 16.0363 1.0393C16.1639 1.0393 16.3087 1.10555 16.3725 1.25768C16.5614 1.70425 16.8926 2.40111 17.2656 2.7937ZM17.9845 3.80708C17.9428 3.78255 17.9036 3.76046 17.8619 3.73593C17.9011 3.76046 17.9428 3.78255 17.9845 3.80708ZM22.1926 7.6864C22.4232 7.8189 22.6515 7.9195 22.7962 7.97839C22.9754 8.04955 22.9754 8.30719 22.7962 8.38571C22.6564 8.44705 22.4232 8.54765 22.1926 8.6777C21.957 8.80774 21.7289 8.96233 21.5768 9.12182C21.3043 9.4089 21.0664 9.94136 20.9536 10.2186C20.8823 10.3977 20.6247 10.3977 20.5511 10.2186C20.4382 9.94136 20.1978 9.4089 19.9279 9.11691C19.7807 8.96233 19.5696 8.80774 19.3488 8.6777C19.1304 8.54274 18.9194 8.43723 18.7918 8.37834C18.6274 8.29983 18.6274 8.06427 18.7918 7.98575C18.9194 7.92195 19.1329 7.81644 19.3488 7.6864C19.5696 7.5539 19.7856 7.39931 19.9279 7.24718C20.2002 6.95519 20.4382 6.41783 20.5511 6.14547C20.6247 5.96635 20.8823 5.96635 20.9536 6.14547C21.0664 6.42028 21.3043 6.95519 21.5768 7.24228C21.7289 7.40177 21.957 7.55635 22.1926 7.6864ZM2.83292 18.7256C2.83292 20.0751 3.92973 21.1719 5.27927 21.1719L5.27927 21.1695L11.6221 21.1695C11.2639 19.7292 10.5204 18.4091 9.44322 17.3319C7.87775 15.7664 5.797 14.9052 3.58376 14.9052C3.33102 14.9052 3.08075 14.9174 2.83292 14.9395L2.83292 18.7256Z" fill-rule="evenodd"  fill="#000000" ></path></svg>