<svg xmlns="http://www.w3.org/2000/svg" xmlns:xlink="http://www.w3.org/1999/xlink" width="24" height="24" viewBox="0 0 24 24" fill="none"><path d="M14.1875 22.2C14.2029 22.2 14.2182 22.2004 14.2335 22.2011C14.2488 22.2018 14.2641 22.2029 14.2794 22.2043C14.2947 22.2058 14.3099 22.2076 14.325 22.2097C14.3402 22.2119 14.3553 22.2144 14.3704 22.2173C14.3854 22.2202 14.4004 22.2234 14.4153 22.227C14.4302 22.2306 14.445 22.2345 14.4596 22.2387C14.4743 22.243 14.4889 22.2476 14.5033 22.2526C14.5178 22.2576 14.5321 22.2629 14.5463 22.2685C14.5604 22.2742 14.5745 22.2801 14.5883 22.2864C14.6022 22.2927 14.6159 22.2993 14.6294 22.3063C14.643 22.3132 14.6563 22.3205 14.6695 22.328C14.6826 22.3356 14.6956 22.3435 14.7083 22.3517C14.7211 22.3598 14.7336 22.3683 14.746 22.3771C14.7583 22.3859 14.7704 22.3949 14.7823 22.4043C14.7941 22.4136 14.8057 22.4232 14.8171 22.4331C14.8284 22.443 14.8396 22.4532 14.8504 22.4636C14.8613 22.474 14.8718 22.4847 14.8822 22.4956C14.8925 22.5065 14.9025 22.5176 14.9122 22.529C14.9219 22.5404 14.9314 22.552 14.9405 22.5639C14.9497 22.5757 14.9585 22.5877 14.967 22.6C14.9755 22.6122 14.9837 22.6247 14.9916 22.6373C14.9995 22.6499 15.0071 22.6628 15.0143 22.6757C15.0215 22.6887 15.0284 22.7019 15.035 22.7152C15.0416 22.7285 15.0478 22.742 15.0536 22.7556C15.0595 22.7692 15.065 22.7829 15.0702 22.7968C15.0754 22.8107 15.0802 22.8247 15.0846 22.8387C15.0891 22.8528 15.0932 22.867 15.0969 22.8813C15.1006 22.8956 15.104 22.91 15.107 22.9244C15.11 22.9389 15.1126 22.9534 15.1148 22.9679C15.1171 22.9825 15.119 22.9971 15.1205 23.0118C15.122 23.0264 15.1231 23.0411 15.1239 23.0558C15.1246 23.0705 15.125 23.0853 15.125 23.1C15.125 23.1147 15.1246 23.1295 15.1239 23.1442C15.1231 23.1589 15.122 23.1736 15.1205 23.1882C15.119 23.2029 15.1171 23.2175 15.1148 23.232C15.1126 23.2466 15.11 23.2611 15.107 23.2756C15.104 23.29 15.1006 23.3044 15.0969 23.3187C15.0932 23.333 15.0891 23.3472 15.0846 23.3613C15.0802 23.3753 15.0754 23.3893 15.0702 23.4032C15.065 23.4171 15.0595 23.4308 15.0536 23.4443C15.0478 23.4581 15.0416 23.4715 15.035 23.4848C15.0284 23.4982 15.0215 23.5113 15.0143 23.5242C15.0071 23.5371 14.9995 23.55 14.9916 23.5627C14.9837 23.5753 14.9755 23.5877 14.967 23.5999C14.9585 23.6123 14.9497 23.6243 14.9405 23.636C14.9314 23.648 14.9219 23.6595 14.9122 23.6709C14.9025 23.6824 14.8925 23.6934 14.8822 23.7045C14.8718 23.7155 14.8613 23.726 14.8504 23.7363C14.8396 23.7469 14.8284 23.757 14.8171 23.7668C14.8057 23.7769 14.7941 23.7865 14.7823 23.7956C14.7704 23.805 14.7583 23.8141 14.746 23.8228C14.7336 23.8315 14.7211 23.8402 14.7083 23.8484C14.6956 23.8566 14.6826 23.8643 14.6695 23.872C14.6563 23.8795 14.643 23.8868 14.6294 23.8938C14.6159 23.9006 14.6022 23.9072 14.5883 23.9135C14.5745 23.9198 14.5604 23.9259 14.5463 23.9316C14.5321 23.9372 14.5178 23.9426 14.5033 23.9475C14.4889 23.9524 14.4743 23.9569 14.4596 23.9613C14.445 23.9655 14.4302 23.9695 14.4153 23.973C14.4004 23.9766 14.3854 23.9798 14.3704 23.9827C14.3553 23.9857 14.3402 23.988 14.325 23.9902C14.3099 23.9923 14.2947 23.9941 14.2794 23.9958C14.2641 23.9972 14.2488 23.9981 14.2335 23.9988C14.2182 23.9995 14.2029 24 14.1875 24L9.8125 24C9.79714 24 9.78181 23.9995 9.7665 23.9988C9.75117 23.9981 9.73586 23.9972 9.72061 23.9958C9.70535 23.9941 9.69011 23.9923 9.67495 23.9902C9.65977 23.988 9.64465 23.9857 9.62959 23.9827C9.61455 23.9798 9.59958 23.9766 9.58472 23.973C9.56982 23.9695 9.55503 23.9655 9.54036 23.9613C9.52568 23.9569 9.51111 23.9524 9.49666 23.9475C9.48223 23.9426 9.46792 23.9372 9.45374 23.9316C9.43955 23.9259 9.42554 23.9198 9.41167 23.9135C9.3978 23.9072 9.38411 23.9006 9.37056 23.8938C9.35703 23.8868 9.34368 23.8795 9.33052 23.872C9.31736 23.8643 9.30442 23.8566 9.29165 23.8484C9.27888 23.8402 9.26636 23.8315 9.25403 23.8228C9.2417 23.8141 9.22961 23.805 9.21775 23.7956C9.20591 23.7865 9.19429 23.7769 9.18291 23.7668C9.17156 23.757 9.16045 23.7469 9.14958 23.7363C9.13872 23.726 9.12815 23.7155 9.11785 23.7045C9.10754 23.6934 9.09753 23.6824 9.08779 23.6709C9.07805 23.6595 9.06863 23.648 9.0595 23.636C9.05034 23.6243 9.0415 23.6123 9.03298 23.5999C9.02446 23.5877 9.01626 23.5753 9.00837 23.5627C9.00049 23.55 8.99294 23.5371 8.98569 23.5242C8.97847 23.5113 8.97158 23.4982 8.96501 23.4848C8.95845 23.4715 8.95225 23.4581 8.94636 23.4443C8.94048 23.4308 8.93496 23.4171 8.92981 23.4032C8.92463 23.3893 8.91982 23.3753 8.91536 23.3613C8.91091 23.3472 8.90684 23.333 8.9031 23.3187C8.89937 23.3044 8.89602 23.29 8.89302 23.2756C8.89001 23.2611 8.8874 23.2466 8.88516 23.232C8.88289 23.2175 8.88101 23.2029 8.87952 23.1882C8.878 23.1736 8.87688 23.1589 8.87612 23.1442C8.87537 23.1295 8.875 23.1147 8.875 23.1C8.875 23.0853 8.87537 23.0705 8.87612 23.0558C8.87688 23.0411 8.878 23.0264 8.87952 23.0118C8.88101 22.9971 8.88289 22.9825 8.88516 22.968C8.8874 22.9534 8.89001 22.9389 8.89302 22.9244C8.89602 22.91 8.89937 22.8956 8.9031 22.8813C8.90684 22.867 8.91091 22.8528 8.91536 22.8387C8.91982 22.8247 8.92463 22.8107 8.92981 22.7968C8.93496 22.7829 8.94048 22.7692 8.94636 22.7556C8.95225 22.742 8.95845 22.7285 8.96501 22.7152C8.97158 22.7019 8.97847 22.6887 8.98569 22.6757C8.99294 22.6628 9.00049 22.6499 9.00837 22.6373C9.01626 22.6247 9.02446 22.6122 9.03298 22.6C9.0415 22.5877 9.05034 22.5757 9.0595 22.5639C9.06863 22.552 9.07805 22.5404 9.08779 22.529C9.09753 22.5176 9.10754 22.5065 9.11785 22.4956C9.12815 22.4847 9.13872 22.474 9.14958 22.4636C9.16045 22.4532 9.17156 22.443 9.18291 22.4331C9.19429 22.4232 9.20591 22.4136 9.21775 22.4043C9.22961 22.3949 9.2417 22.3859 9.25403 22.3771C9.26636 22.3683 9.27888 22.3598 9.29165 22.3517C9.30442 22.3435 9.31736 22.3356 9.33052 22.328C9.34368 22.3205 9.35703 22.3132 9.37056 22.3063C9.38411 22.2993 9.3978 22.2927 9.41167 22.2864C9.42554 22.2801 9.43955 22.2742 9.45374 22.2685C9.46792 22.2629 9.48223 22.2576 9.49666 22.2526C9.51111 22.2476 9.52568 22.243 9.54036 22.2388C9.55503 22.2345 9.56982 22.2306 9.58472 22.227C9.59958 22.2234 9.61455 22.2202 9.62959 22.2173C9.64465 22.2144 9.65977 22.2119 9.67495 22.2097C9.69011 22.2076 9.70535 22.2058 9.72061 22.2043C9.73586 22.2029 9.75117 22.2018 9.7665 22.2011C9.78181 22.2004 9.79714 22.2 9.8125 22.2L14.1875 22.2ZM16.0625 19.8C16.0778 19.8 16.0931 19.8004 16.1084 19.8011C16.1238 19.8019 16.139 19.803 16.1543 19.8045C16.1696 19.8059 16.1848 19.8077 16.1999 19.8099C16.2151 19.8121 16.2302 19.8146 16.2452 19.8175C16.2602 19.8204 16.2752 19.8236 16.2901 19.8272C16.3049 19.8308 16.3197 19.8348 16.3344 19.839C16.349 19.8433 16.3636 19.848 16.378 19.8529C16.3924 19.8579 16.4067 19.8632 16.4209 19.8689C16.435 19.8745 16.449 19.8805 16.4629 19.8868C16.4767 19.8931 16.4904 19.8997 16.5039 19.9067C16.5174 19.9136 16.5308 19.9209 16.5439 19.9285C16.5571 19.936 16.57 19.9439 16.5827 19.9521C16.5955 19.9603 16.608 19.9688 16.6203 19.9775C16.6326 19.9863 16.6447 19.9954 16.6565 20.0047C16.6684 20.0141 16.68 20.0237 16.6913 20.0336C16.7027 20.0435 16.7137 20.0536 16.7246 20.064C16.7354 20.0745 16.746 20.0851 16.7563 20.096C16.7665 20.1069 16.7765 20.1181 16.7863 20.1295C16.796 20.1409 16.8054 20.1525 16.8145 20.1643C16.8236 20.1761 16.8324 20.1881 16.841 20.2004C16.8495 20.2126 16.8577 20.225 16.8656 20.2377C16.8734 20.2503 16.881 20.2631 16.8882 20.2761C16.8954 20.2891 16.9023 20.3022 16.9088 20.3155C16.9154 20.3288 16.9216 20.3423 16.9275 20.3559C16.9333 20.3695 16.9388 20.3832 16.944 20.397C16.9491 20.4109 16.954 20.4249 16.9584 20.439C16.9629 20.453 16.9669 20.4672 16.9707 20.4815C16.9744 20.4958 16.9777 20.5101 16.9807 20.5246C16.9837 20.539 16.9863 20.5535 16.9886 20.568C16.9908 20.5826 16.9927 20.5972 16.9942 20.6119C16.9957 20.6265 16.9968 20.6412 16.9976 20.6559C16.9983 20.6706 16.9987 20.6853 16.9987 20.7C16.9987 20.7147 16.9983 20.7294 16.9976 20.7441C16.9968 20.7588 16.9957 20.7735 16.9942 20.7881C16.9927 20.8028 16.9908 20.8174 16.9886 20.8319C16.9863 20.8465 16.9837 20.861 16.9807 20.8754C16.9777 20.8899 16.9744 20.9042 16.9707 20.9185C16.9669 20.9328 16.9629 20.9469 16.9584 20.961C16.954 20.9751 16.9491 20.9891 16.944 21.003C16.9388 21.0168 16.9333 21.0305 16.9275 21.0441C16.9216 21.0577 16.9154 21.0712 16.9088 21.0845C16.9023 21.0978 16.8954 21.1109 16.8882 21.1239C16.881 21.1369 16.8734 21.1497 16.8656 21.1623C16.8577 21.175 16.8495 21.1874 16.841 21.1996C16.8324 21.2119 16.8236 21.2239 16.8145 21.2357C16.8054 21.2475 16.796 21.2591 16.7863 21.2705C16.7765 21.2819 16.7665 21.2931 16.7563 21.304C16.746 21.3149 16.7354 21.3255 16.7246 21.336C16.7137 21.3464 16.7027 21.3565 16.6913 21.3664C16.68 21.3763 16.6684 21.3859 16.6565 21.3953C16.6447 21.4046 16.6326 21.4137 16.6203 21.4224C16.608 21.4312 16.5955 21.4397 16.5827 21.4479C16.57 21.4561 16.5571 21.464 16.5439 21.4715C16.5308 21.4791 16.5174 21.4864 16.5039 21.4933C16.4904 21.5003 16.4767 21.5069 16.4629 21.5132C16.449 21.5195 16.435 21.5255 16.4209 21.5311C16.4067 21.5368 16.3924 21.5421 16.378 21.5471C16.3636 21.552 16.349 21.5567 16.3344 21.561C16.3197 21.5652 16.3049 21.5692 16.2901 21.5728C16.2752 21.5764 16.2602 21.5796 16.2452 21.5825C16.2302 21.5854 16.2151 21.5879 16.1999 21.5901C16.1848 21.5923 16.1696 21.5941 16.1543 21.5955C16.139 21.597 16.1238 21.5981 16.1084 21.5989C16.0931 21.5996 16.0778 21.6 16.0625 21.6L7.9375 21.6C7.92217 21.6 7.90684 21.5996 7.89153 21.5989C7.87622 21.5981 7.86096 21.597 7.8457 21.5955C7.83044 21.5941 7.81523 21.5923 7.80007 21.5901C7.78491 21.5879 7.76982 21.5854 7.75479 21.5825C7.73975 21.5796 7.7248 21.5764 7.70994 21.5728C7.69507 21.5692 7.68032 21.5652 7.66565 21.561C7.65098 21.5567 7.63643 21.552 7.622 21.5471C7.60757 21.5421 7.59329 21.5368 7.57913 21.5311C7.56497 21.5255 7.55095 21.5195 7.53711 21.5132C7.52327 21.5069 7.50957 21.5003 7.49607 21.4933C7.48257 21.4864 7.46924 21.4791 7.4561 21.4715C7.44294 21.464 7.43001 21.4561 7.41728 21.4479C7.40454 21.4397 7.39202 21.4312 7.37971 21.4224C7.36741 21.4137 7.35532 21.4046 7.34348 21.3953C7.33164 21.3859 7.32004 21.3763 7.30869 21.3664C7.29734 21.3565 7.28625 21.3464 7.27541 21.336C7.2646 21.3255 7.25403 21.3149 7.24375 21.304C7.23347 21.2931 7.22346 21.2819 7.21375 21.2705C7.20403 21.2591 7.1946 21.2475 7.18547 21.2357C7.17634 21.2239 7.16753 21.2119 7.15901 21.1996C7.15051 21.1874 7.14233 21.175 7.13445 21.1623C7.12656 21.1497 7.11902 21.1369 7.11179 21.1239C7.10459 21.1109 7.0977 21.0978 7.09114 21.0845C7.08459 21.0712 7.07839 21.0577 7.07253 21.0441C7.06667 21.0305 7.06116 21.0168 7.05601 21.003C7.05085 20.9891 7.04604 20.9751 7.0416 20.961C7.03713 20.9469 7.03306 20.9328 7.02935 20.9185C7.02561 20.9042 7.02227 20.8899 7.01929 20.8754C7.01628 20.861 7.01367 20.8465 7.01143 20.8319C7.00918 20.8174 7.0073 20.8028 7.00581 20.7881C7.0043 20.7735 7.00317 20.7588 7.00242 20.7441C7.00166 20.7294 7.00129 20.7147 7.00129 20.7C7.00129 20.6853 7.00166 20.6706 7.00242 20.6559C7.00317 20.6412 7.0043 20.6265 7.00581 20.6119C7.0073 20.5972 7.00918 20.5826 7.01143 20.568C7.01367 20.5535 7.01628 20.539 7.01929 20.5246C7.02227 20.5101 7.02561 20.4958 7.02935 20.4815C7.03306 20.4672 7.03713 20.4531 7.0416 20.439C7.04604 20.4249 7.05085 20.4109 7.05601 20.397C7.06116 20.3832 7.06667 20.3695 7.07253 20.3559C7.07839 20.3423 7.08459 20.3288 7.09114 20.3155C7.0977 20.3022 7.10459 20.2891 7.11179 20.2761C7.11902 20.2631 7.12656 20.2503 7.13445 20.2377C7.14233 20.225 7.15051 20.2126 7.15903 20.2004C7.16753 20.1881 7.17634 20.1761 7.18547 20.1643C7.1946 20.1525 7.20403 20.1409 7.21375 20.1295C7.22346 20.1181 7.23347 20.1069 7.24375 20.096C7.25403 20.0851 7.2646 20.0745 7.27541 20.064C7.28625 20.0536 7.29734 20.0435 7.30869 20.0336C7.32004 20.0237 7.33164 20.0141 7.34348 20.0047C7.35532 19.9954 7.36741 19.9863 7.37971 19.9776C7.39202 19.9688 7.40454 19.9603 7.41728 19.9521C7.43001 19.9439 7.44294 19.936 7.4561 19.9285C7.46924 19.9209 7.48257 19.9136 7.49607 19.9067C7.50957 19.8997 7.52327 19.8931 7.53711 19.8868C7.55095 19.8805 7.56497 19.8745 7.57913 19.8689C7.59329 19.8632 7.60757 19.8579 7.622 19.8529C7.63643 19.848 7.65098 19.8433 7.66565 19.839C7.68032 19.8348 7.69507 19.8308 7.70994 19.8272C7.7248 19.8236 7.73975 19.8204 7.75479 19.8175C7.76982 19.8146 7.78491 19.8121 7.80007 19.8099C7.81523 19.8077 7.83044 19.8059 7.8457 19.8045C7.86096 19.803 7.87622 19.8019 7.89153 19.8011C7.90684 19.8004 7.92217 19.8 7.9375 19.8L16.0625 19.8ZM12 7.15256e-07C17.5231 7.15256e-07 22 4.2978 22 9.6C22 13.8738 19.0906 17.4954 15.07 18.7392C14.9462 18.7774 14.8217 18.8133 14.6965 18.8469C14.5713 18.8804 14.4454 18.9116 14.3189 18.9404C14.1924 18.9693 14.0654 18.9957 13.9378 19.0198C13.8103 19.0439 13.6822 19.0656 13.5538 19.0849C13.4253 19.1041 13.2965 19.121 13.1674 19.1355C13.0382 19.1499 12.9088 19.1619 12.7792 19.1715C12.6496 19.1812 12.5198 19.1883 12.3899 19.1931C12.26 19.1978 12.13 19.2001 12 19.2C11.9164 19.2001 11.8328 19.1992 11.7492 19.1973C11.6656 19.1954 11.5821 19.1924 11.4986 19.1885C11.4151 19.1846 11.3317 19.1796 11.2483 19.1737C11.1649 19.1677 11.0816 19.1607 10.9984 19.1528C10.9153 19.1448 10.8322 19.1359 10.7492 19.1259C10.6663 19.1159 10.5834 19.105 10.5008 19.093C10.4181 19.081 10.3356 19.068 10.2533 19.0541C10.171 19.0401 10.0888 19.0252 10.0069 19.0092C9.92495 18.9933 9.84324 18.9764 9.76174 18.9584C9.68025 18.9405 9.599 18.9216 9.51802 18.9017C9.43701 18.8818 9.3563 18.861 9.27585 18.8392C9.19541 18.8173 9.11523 18.7945 9.03538 18.7708C8.95552 18.747 8.876 18.7223 8.7968 18.6966C8.7176 18.6709 8.63875 18.6443 8.56023 18.6167C8.48174 18.5891 8.40359 18.5605 8.32583 18.531C8.24807 18.5016 8.17073 18.4711 8.09375 18.4398C4.5125 16.98 2 13.572 2 9.6C2 4.2978 6.47688 7.15256e-07 12 7.15256e-07ZM12 1.8C7.5125 1.8 3.875 5.292 3.875 9.6C3.875 12.7596 5.84937 15.5694 8.82688 16.7832C8.8894 16.8086 8.95225 16.8334 9.01541 16.8573C9.07856 16.8812 9.14204 16.9044 9.20581 16.9268C9.26958 16.9492 9.33364 16.9708 9.39797 16.9917C9.46233 17.0126 9.52693 17.0326 9.5918 17.0519C9.65666 17.0712 9.72178 17.0897 9.78713 17.1075C9.85249 17.1252 9.91807 17.1421 9.98386 17.1582C10.0497 17.1744 10.1156 17.1897 10.1818 17.2043C10.248 17.2188 10.3144 17.2325 10.381 17.2455C10.4475 17.2584 10.5143 17.2706 10.5811 17.2819C10.648 17.2932 10.715 17.3037 10.7822 17.3134C10.8493 17.3231 10.9166 17.332 10.984 17.3401C11.0514 17.3482 11.1188 17.3554 11.1864 17.3619C11.254 17.3683 11.3217 17.374 11.3894 17.3788C11.4571 17.3836 11.5249 17.3876 11.5927 17.3908C11.6605 17.394 11.7284 17.3963 11.7963 17.3978C11.8642 17.3994 11.9321 17.4001 12 17.4C12.8587 17.4 13.6969 17.2728 14.495 17.0262C14.5964 16.9948 14.6971 16.9614 14.7972 16.9261C14.8972 16.8909 14.9965 16.8538 15.095 16.8148C15.1935 16.7758 15.2912 16.7349 15.3881 16.6922C15.4849 16.6496 15.5809 16.605 15.6759 16.5587C15.7709 16.5124 15.8649 16.4644 15.958 16.4145C16.0511 16.3646 16.143 16.313 16.234 16.2597C16.3249 16.2064 16.4147 16.1513 16.5034 16.0946C16.5921 16.0379 16.6796 15.9795 16.7659 15.9195C16.8522 15.8595 16.9372 15.7978 17.021 15.7346C17.1048 15.6713 17.1872 15.6065 17.2683 15.5402C17.3494 15.4738 17.4291 15.406 17.5075 15.3366C17.5858 15.2673 17.6627 15.1964 17.7381 15.1242C17.8136 15.0519 17.8875 14.9782 17.9599 14.9032C18.0323 14.8281 18.1032 14.7517 18.1725 14.674C18.2417 14.5963 18.3094 14.5173 18.3755 14.437C18.4415 14.3567 18.5059 14.2752 18.5686 14.1925C18.6313 14.1098 18.6923 14.0259 18.7516 13.9409C18.8109 13.8559 18.8684 13.7697 18.9241 13.6826C18.9799 13.5954 19.0338 13.5071 19.0859 13.4179C19.1381 13.3287 19.1884 13.2385 19.2368 13.1474C19.2852 13.0563 19.3318 12.9643 19.3764 12.8714C19.4211 12.7785 19.4639 12.6848 19.5047 12.5903C19.5455 12.4958 19.5844 12.4006 19.6213 12.3046C19.6583 12.2086 19.6932 12.112 19.7262 12.0147C19.7592 11.9175 19.7901 11.8196 19.8191 11.7211C19.848 11.6227 19.875 11.5237 19.8999 11.4242C19.9248 11.3248 19.9476 11.2249 19.9685 11.1245C19.9893 11.0242 20.008 10.9235 20.0247 10.8225C20.0414 10.7214 20.056 10.6201 20.0686 10.5185C20.0811 10.4169 20.0915 10.3151 20.0999 10.2131C20.1083 10.1111 20.1146 10.009 20.1187 9.9068C20.1229 9.80459 20.125 9.7023 20.125 9.6C20.125 5.292 16.4875 1.8 12 1.8ZM17.7719 6.9522C17.7763 6.96654 17.7803 6.98098 17.7839 6.99553C17.7876 7.01009 17.7908 7.02469 17.7937 7.03938C17.7966 7.05408 17.7991 7.06884 17.8012 7.08366C17.8033 7.09847 17.8051 7.11333 17.8064 7.12823C17.8077 7.14312 17.8087 7.15805 17.8093 7.173C17.8098 7.18793 17.81 7.20288 17.8098 7.21784C17.8096 7.23281 17.809 7.24774 17.808 7.26267C17.8071 7.2776 17.8057 7.29248 17.8039 7.30734C17.8022 7.3222 17.8 7.33702 17.7975 7.35176C17.795 7.36652 17.7921 7.38122 17.7888 7.39584C17.7855 7.41045 17.7818 7.42498 17.7778 7.43941C17.7738 7.45388 17.7693 7.46822 17.7646 7.48245C17.7598 7.49667 17.7546 7.51076 17.7491 7.52475C17.7436 7.53874 17.7377 7.55259 17.7315 7.5663C17.7252 7.58002 17.7187 7.59354 17.7117 7.60692C17.7048 7.6203 17.6975 7.63352 17.6898 7.64658C17.6822 7.65961 17.6743 7.67245 17.666 7.68513C17.6577 7.69779 17.649 7.71023 17.6401 7.72249C17.6312 7.73473 17.6219 7.74675 17.6124 7.75856C17.6028 7.77035 17.5929 7.78193 17.5828 7.79325C17.5726 7.80459 17.5621 7.81568 17.5514 7.82651C17.5406 7.83734 17.5296 7.84791 17.5183 7.8582C17.5071 7.86851 17.4955 7.87854 17.4837 7.88829C17.4719 7.89804 17.4598 7.90751 17.4475 7.91667C17.4352 7.92584 17.4227 7.93472 17.4099 7.9433C17.3971 7.95188 17.3842 7.96015 17.371 7.96809C17.3578 7.97604 17.3444 7.98368 17.3308 7.99099C17.3172 7.9983 17.3034 8.00529 17.2895 8.01195C17.2756 8.0186 17.2614 8.02491 17.2472 8.03088C17.2329 8.03686 17.2185 8.04251 17.2039 8.04778C17.1893 8.05308 17.1746 8.05802 17.1598 8.06259C17.145 8.06716 17.13 8.07141 17.115 8.07527C17.0999 8.07914 17.0848 8.08266 17.0696 8.0858C17.0543 8.08894 17.039 8.09173 17.0237 8.09414C17.0083 8.09655 16.9928 8.09859 16.9774 8.10026C16.9619 8.10194 16.9464 8.10326 16.9308 8.10417C16.9153 8.10511 16.8997 8.10567 16.8841 8.10586C16.8686 8.10605 16.853 8.10586 16.8374 8.1053C16.8218 8.10473 16.8063 8.1038 16.7908 8.10251C16.7753 8.10122 16.7598 8.09953 16.7444 8.09749C16.7289 8.09545 16.7136 8.09304 16.6983 8.09027C16.683 8.08748 16.6677 8.08434 16.6526 8.08083C16.6374 8.07734 16.6224 8.07347 16.6074 8.06923C16.5925 8.06501 16.5777 8.06044 16.563 8.05549C16.5483 8.05055 16.5337 8.04527 16.5193 8.03965C16.5048 8.034 16.4906 8.02802 16.4764 8.02172C16.4623 8.01541 16.4484 8.00876 16.4346 8.00177C16.4208 7.99479 16.4073 7.98748 16.3938 7.97984C16.3804 7.97222 16.3673 7.96427 16.3543 7.956C16.3413 7.94773 16.3285 7.93917 16.316 7.93029C16.3035 7.92141 16.2912 7.91224 16.2791 7.90277C16.267 7.8933 16.2552 7.88355 16.2437 7.87352C16.2321 7.86349 16.2208 7.8532 16.2098 7.84263C16.1988 7.83206 16.1881 7.82123 16.1776 7.81015C16.1671 7.79906 16.157 7.78774 16.1471 7.77616C16.1372 7.76461 16.1277 7.7528 16.1184 7.74077C16.1092 7.72875 16.1002 7.71649 16.0916 7.70405C16.083 7.6916 16.0747 7.67895 16.0667 7.66608C16.0587 7.65323 16.0511 7.6402 16.0438 7.62698C16.0365 7.61377 16.0296 7.60038 16.023 7.58684C16.0164 7.57329 16.0102 7.55958 16.0043 7.54573C15.9984 7.53188 15.9929 7.51791 15.9877 7.5038C15.9826 7.48969 15.9778 7.47546 15.9734 7.46112C15.9689 7.44677 15.9649 7.43234 15.9613 7.4178C15.9467 7.36563 15.9308 7.31384 15.9136 7.26244C15.8964 7.21102 15.8779 7.16004 15.8581 7.10948C15.8382 7.05893 15.8171 7.00889 15.7948 6.95934C15.7724 6.9098 15.7488 6.86081 15.7239 6.81237C15.699 6.76392 15.6729 6.71611 15.6456 6.66891C15.6182 6.6217 15.5897 6.57518 15.56 6.52931C15.5303 6.48345 15.4994 6.4383 15.4674 6.39389C15.4354 6.34948 15.4023 6.30586 15.368 6.26302C15.3338 6.22017 15.2985 6.17817 15.2621 6.13699C15.2257 6.09581 15.1882 6.0555 15.1498 6.01608C15.1113 5.97668 15.0719 5.9382 15.0315 5.90063C14.991 5.86305 14.9497 5.82647 14.9074 5.79087C14.8651 5.75527 14.8219 5.7207 14.7778 5.68711C14.7338 5.65352 14.6889 5.62102 14.6431 5.58956C14.5974 5.55811 14.5509 5.52776 14.5036 5.49848C14.4563 5.46921 14.4083 5.44109 14.3596 5.41409C14.3109 5.38706 14.2615 5.36123 14.2115 5.33655C14.1615 5.31187 14.1108 5.28841 14.0596 5.26613C14.0083 5.24384 13.9565 5.22277 13.9042 5.20291C13.8519 5.18306 13.7991 5.16445 13.7458 5.14709C13.6926 5.12972 13.6389 5.11364 13.5848 5.0988C13.5307 5.08397 13.4763 5.07042 13.4215 5.05816C13.3667 5.04591 13.3116 5.03496 13.2563 5.02528C13.2009 5.0156 13.1454 5.00726 13.0896 5.0002C13.0338 4.99315 12.9779 4.98743 12.9218 4.983C12.8658 4.97859 12.8096 4.9755 12.7534 4.97374C12.6972 4.97198 12.6409 4.97154 12.5847 4.97241C12.5284 4.9733 12.4722 4.9755 12.4161 4.97904C12.36 4.98258 12.304 4.98743 12.2481 4.99359C12.1922 4.99976 12.1365 5.00726 12.081 5.01605C12.0255 5.02484 11.9702 5.03494 11.9152 5.04633C11.8603 5.05774 11.8056 5.07042 11.7512 5.08439C11.7364 5.08821 11.7215 5.09166 11.7065 5.09477C11.6915 5.09789 11.6765 5.10063 11.6613 5.10302C11.6462 5.10544 11.631 5.10748 11.6158 5.10914C11.6005 5.11083 11.5853 5.11214 11.5699 5.1131C11.5546 5.11406 11.5393 5.11467 11.524 5.11491C11.5086 5.11514 11.4933 5.11502 11.478 5.11453C11.4626 5.11404 11.4473 5.1132 11.432 5.112C11.4167 5.1108 11.4015 5.10923 11.3863 5.10731C11.3711 5.10539 11.3559 5.10312 11.3408 5.10047C11.3257 5.09782 11.3107 5.09484 11.2958 5.09149C11.2808 5.08814 11.266 5.08446 11.2512 5.08041C11.2365 5.07635 11.2219 5.07197 11.2073 5.06723C11.1928 5.0625 11.1784 5.05744 11.1641 5.05202C11.1499 5.04661 11.1357 5.04084 11.1218 5.03477C11.1078 5.0287 11.094 5.0223 11.0803 5.01558C11.0667 5.00885 11.0532 5.0018 11.0399 4.99444C11.0266 4.98705 11.0135 4.97939 11.0007 4.9714C10.9878 4.96343 10.9751 4.95516 10.9626 4.94658C10.9501 4.938 10.9379 4.92914 10.9259 4.91998C10.9139 4.91081 10.9021 4.90139 10.8906 4.89166C10.879 4.88196 10.8677 4.87198 10.8567 4.86173C10.8457 4.85149 10.8349 4.84102 10.8245 4.83026C10.814 4.8195 10.8038 4.80851 10.7938 4.79728C10.7839 4.78605 10.7743 4.77462 10.7649 4.76292C10.7556 4.75123 10.7466 4.73934 10.7378 4.72723C10.7291 4.71511 10.7207 4.7028 10.7126 4.69031C10.7045 4.6778 10.6967 4.66509 10.6892 4.65223C10.6818 4.63936 10.6747 4.62633 10.6679 4.61311C10.6611 4.59991 10.6546 4.58655 10.6485 4.57303C10.6424 4.55951 10.6367 4.54587 10.6313 4.53209C10.6259 4.5183 10.6208 4.50441 10.6161 4.49039C10.6114 4.47638 10.6071 4.46224 10.6031 4.44802C10.5991 4.43379 10.5956 4.41949 10.5923 4.40508C10.5891 4.39069 10.5862 4.37623 10.5837 4.3617C10.5812 4.34716 10.5791 4.33259 10.5773 4.31796C10.5755 4.30334 10.5742 4.28866 10.5732 4.27397C10.5722 4.25927 10.5715 4.24455 10.5713 4.22984C10.571 4.21512 10.5711 4.2004 10.5716 4.18566C10.5721 4.17094 10.573 4.15624 10.5743 4.14157C10.5755 4.1269 10.5771 4.11225 10.5791 4.09765C10.5811 4.08305 10.5835 4.06849 10.5863 4.05401C10.589 4.03952 10.5921 4.02511 10.5956 4.01077C10.5991 3.99642 10.6029 3.98217 10.6071 3.96799C10.6113 3.95384 10.6159 3.93977 10.6208 3.92583C10.6257 3.91188 10.631 3.89808 10.6366 3.88437C10.6423 3.87066 10.6483 3.85711 10.6546 3.84368C10.6609 3.83027 10.6676 3.81701 10.6746 3.80391C10.6816 3.7908 10.6889 3.77789 10.6966 3.76512C10.7043 3.75237 10.7123 3.7398 10.7206 3.72741C10.7289 3.71503 10.7375 3.70287 10.7464 3.69089C10.7553 3.67891 10.7646 3.66715 10.7741 3.65562C10.7837 3.64406 10.7935 3.63277 10.8036 3.62168C10.8137 3.61062 10.8241 3.59979 10.8347 3.5892C10.8454 3.5786 10.8563 3.56827 10.8675 3.55821C10.8787 3.54813 10.8902 3.53834 10.9019 3.5288C10.9136 3.51926 10.9255 3.51002 10.9377 3.50105C10.9498 3.49207 10.9622 3.4834 10.9748 3.47501C10.9875 3.46662 11.0003 3.45853 11.0133 3.45075C11.0263 3.44297 11.0395 3.43549 11.0529 3.42834C11.0663 3.4212 11.0799 3.41435 11.0937 3.40781C11.1074 3.4013 11.1213 3.39511 11.1354 3.38925C11.1495 3.38337 11.1637 3.37784 11.1781 3.37266C11.1924 3.36748 11.2069 3.36262 11.2215 3.3581C11.2361 3.35358 11.2508 3.34943 11.2656 3.34561C11.3496 3.324 11.4341 3.30438 11.5191 3.28678C11.6041 3.26916 11.6894 3.25355 11.7752 3.23995C11.861 3.22636 11.947 3.2148 12.0334 3.20527C12.1198 3.19573 12.2063 3.18823 12.2931 3.18277C12.3798 3.1773 12.4667 3.17391 12.5536 3.17255C12.6406 3.17116 12.7275 3.17184 12.8144 3.17459C12.9012 3.17733 12.988 3.18209 13.0747 3.18891C13.1613 3.19573 13.2477 3.20459 13.3339 3.21548C13.4201 3.22638 13.506 3.2393 13.5915 3.25425C13.677 3.26918 13.7621 3.28612 13.8468 3.30509C13.9315 3.32405 14.0156 3.34498 14.0992 3.36788C14.1828 3.3908 14.2658 3.41566 14.3481 3.4425C14.4304 3.46934 14.512 3.49807 14.5929 3.52875C14.6737 3.55943 14.7537 3.59198 14.8329 3.62644C14.9121 3.66087 14.9904 3.69715 15.0677 3.73528C15.145 3.77341 15.2214 3.81335 15.2967 3.85509C15.3719 3.89681 15.4461 3.94029 15.5192 3.98552C15.5923 4.03073 15.6641 4.07766 15.7348 4.12627C15.8055 4.1749 15.8749 4.22515 15.9429 4.27702C16.011 4.32891 16.0778 4.38237 16.1431 4.43738C16.2085 4.49241 16.2724 4.54894 16.3349 4.60699C16.3974 4.66502 16.4583 4.72451 16.5178 4.78542C16.5772 4.84634 16.635 4.90861 16.6913 4.97224C16.7475 5.03587 16.8021 5.10082 16.8551 5.16703C16.908 5.23324 16.9592 5.30065 17.0087 5.36927C17.0582 5.4379 17.1058 5.50765 17.1517 5.57852C17.1977 5.6494 17.2417 5.7213 17.284 5.79427C17.3262 5.86723 17.3666 5.94112 17.405 6.01596C17.4435 6.09082 17.48 6.16655 17.5146 6.24312C17.5491 6.31969 17.5817 6.39701 17.6124 6.47512C17.643 6.55324 17.6716 6.63202 17.6982 6.71149C17.7248 6.79095 17.7494 6.87098 17.7719 6.95161L17.7719 6.9522Z"   fill="#000000" ></path></svg>