<svg xmlns="http://www.w3.org/2000/svg" xmlns:xlink="http://www.w3.org/1999/xlink" width="24.001708984375" height="24" viewBox="0 0 24.001708984375 24" fill="none"><path d="M20.79 5.79C18.7368 2.82432 15.3581 1 11.66 1C5.53655 1 0.577993 5.95453 0.59 12.09L0.59 12.38C0.602007 12.8723 0.657959 13.3597 0.73 13.84L0.75 13.98L0.73 14.03C0.0456154 15.0386 -0.188196 16.0295 0.16 16.93L0.21 17.04L0.23 17.1L0.2 17.04C0.596222 17.9285 1.4913 18.4959 2.74 18.76L2.83 18.77L2.85 18.79C4.95119 21.5516 8.22205 23.16 11.68 23.16C17.8035 23.16 22.76 18.2035 22.76 12.08L22.76 11.82L22.75 11.55L22.73 11.45L22.81 11.36C23.8426 10.1233 24.2602 8.92262 23.84 7.83L23.79 7.72C23.3578 6.74745 22.3468 6.19014 20.93 5.95L20.88 5.93L20.79 5.79ZM2.44 12.08C2.44 6.98912 6.56913 2.86 11.66 2.86C14.8778 2.86 17.8631 4.53847 19.52 7.24C19.6641 7.49214 19.9218 7.65398 20.21 7.69C21.3266 7.79806 21.9379 8.1118 22.07 8.46C22.2021 8.83221 21.9225 9.52949 21.07 10.43C21.022 10.478 20.976 10.52 20.94 10.58L20.86 10.67C20.836 10.706 20.796 10.724 20.76 10.76L20.56 10.95L20.33 11.15C20.1379 11.3181 19.9361 11.4719 19.72 11.64L19.46 11.84L19.18 12.05C19.132 12.074 19.088 12.104 19.04 12.14L18.74 12.35L18.1 12.75L17.76 12.96L17.43 13.16L17.08 13.37L16.72 13.57L16.35 13.76L15.96 13.96L15.58 14.15C15.4479 14.21 15.3121 14.28 15.18 14.34L14.77 14.53L14.57 14.63L14.15 14.81L13.72 14.99L13.28 15.16L12.85 15.32C12.778 15.356 12.712 15.386 12.64 15.41L12.2 15.56L11.77 15.71L11.34 15.85L10.92 15.98L10.5 16.1L10.09 16.22L9.68 16.33L9.48 16.38L9.08 16.48L8.69 16.57L8.49 16.62L8.11 16.7L7.92 16.74L7.55 16.81L7.19 16.87L7.01 16.9L6.66 16.95L6.31 16.99L5.97 17.03L5.65 17.05L5.34 17.08L5.04 17.09L4.75 17.1L4.34 17.1L4.08 17.09C4.03768 17.0794 3.9892 17.0797 3.95364 17.0799L3.94 17.08L3.7 17.05C3.62796 17.026 3.56204 17.002 3.49 16.99C2.52946 16.8459 2.01007 16.5622 1.89 16.25C1.78194 15.9618 1.94171 15.4544 2.47 14.77C2.63809 14.5539 2.71003 14.2762 2.65 14C2.51793 13.3756 2.44 12.7284 2.44 12.08ZM12.7326 9.08052C11.7361 9.08052 10.9316 8.27607 10.9316 7.27951C10.9316 6.28295 11.7361 5.4785 12.7326 5.4785C13.7292 5.4785 14.5336 6.28295 14.5336 7.27951C14.5336 8.27607 13.7292 9.08052 12.7326 9.08052ZM20.6 13.37L20.81 13.21C20.2577 17.7726 16.3746 21.302 11.68 21.29C9.39871 21.302 7.19296 20.4549 5.5 18.93L5.85 18.9L6.21 18.88L6.39 18.87L6.76 18.83C6.88007 18.818 7.00793 18.792 7.14 18.78L7.52 18.72L7.91 18.66L8.3 18.59L8.7 18.51C8.83207 18.486 8.95793 18.444 9.09 18.42L9.5 18.33C9.63207 18.306 9.77793 18.266 9.91 18.23L10.33 18.12L10.54 18.06L10.96 17.94L11.38 17.81L11.59 17.74L12.02 17.61L12.24 17.53L12.67 17.39L13.1 17.23L13.55 17.07L13.99 16.9L14.43 16.73L14.86 16.55C15.0761 16.4539 15.2859 16.3661 15.49 16.27L15.9 16.09L16.11 16L16.5 15.8L16.9 15.61L17.28 15.42C17.352 15.396 17.42 15.356 17.48 15.32L17.85 15.12L18.21 14.92L18.57 14.71L18.92 14.51C19.2082 14.3299 19.4759 14.1601 19.74 13.98L20.06 13.76L20.36 13.55C20.432 13.49 20.516 13.43 20.6 13.37Z" fill-rule="evenodd"  fill="#000000" ></path></svg>