<svg xmlns="http://www.w3.org/2000/svg" xmlns:xlink="http://www.w3.org/1999/xlink" width="18.213134765625" height="20" viewBox="0 0 18.213134765625 20" fill="none"><path d="M15.141 6.69025L15.3554 6.19836C15.7376 5.32128 16.4259 4.62297 17.2849 4.24094L17.9454 3.94715C18.3026 3.78829 18.3026 3.26853 17.9454 3.10967L17.3218 2.8323C16.4408 2.44044 15.7401 1.71629 15.3644 0.809416L15.1443 0.277856C14.9909 -0.0926183 14.4792 -0.0926183 14.3257 0.277856L14.1056 0.809416C13.73 1.71629 13.0293 2.44044 12.1483 2.8323L11.5246 3.10967C11.1675 3.26853 11.1675 3.78829 11.5246 3.94715L12.1852 4.24094C13.0442 4.62297 13.7325 5.32128 14.1147 6.19836L14.329 6.69025C14.486 7.05037 14.9841 7.05037 15.141 6.69025ZM0 9.56522L1.75301 9.56522C2.17495 12.515 4.71183 14.7826 7.77836 14.7826C10.8448 14.7826 13.3817 12.515 13.8037 9.56522L15.5566 9.56522C15.1557 13.1927 12.2754 16.073 8.64792 16.474L8.64792 20L6.90879 20L6.90879 16.474C3.28126 16.073 0.401 13.1927 0 9.56522ZM7.77853 0.869565C5.3773 0.869565 3.4307 2.81616 3.4307 5.21739L3.4307 8.69565C3.4307 11.0969 5.3773 13.0435 7.77853 13.0435C10.1797 13.0435 12.1263 11.0969 12.1263 8.69565L12.1263 6.08696L10.3872 6.08696L10.3872 8.69565C10.3872 10.1364 9.2193 11.3043 7.77853 11.3043C6.33775 11.3043 5.16983 10.1364 5.16983 8.69565L5.16983 5.21739C5.16983 3.77665 6.33775 2.6087 7.77853 2.6087C8.29783 2.6087 8.7793 2.75956 9.18461 3.01955L10.1237 1.55574C9.44652 1.12137 8.64062 0.869565 7.77853 0.869565Z"   fill="#7B7B7B" ></path></svg>