<svg xmlns="http://www.w3.org/2000/svg" xmlns:xlink="http://www.w3.org/1999/xlink" width="24" height="24" viewBox="0 0 24 24" fill="none"><path     fill="#000000"  d="M6.1546 1L8.17329 1C8.48937 1 8.71273 1.16554 8.85182 1.43997C8.98668 1.70136 8.97825 1.97149 8.83077 2.22416C8.67483 2.49423 8.43881 2.62929 8.12693 2.62929C7.09861 2.62492 6.0661 2.62492 5.03775 2.62929C4.59947 2.62929 4.18223 2.72077 3.80293 2.95168C3.01905 3.43524 2.60605 4.15402 2.59339 5.09504C2.58074 5.94457 2.58916 6.79404 2.58916 7.64355C2.58916 7.82217 2.56811 7.99207 2.47116 8.15327C2.28993 8.46258 1.92749 8.61503 1.58193 8.51918C1.24476 8.42333 1.00455 8.10534 1.00455 7.74377C1.00455 6.62851 0.991898 5.50891 1.00878 4.39365C1.02141 3.26096 1.4892 2.35485 2.35738 1.67089C2.84626 1.28749 3.40255 1.07406 4.00943 1.00868C4.0558 1 4.11059 1 4.16538 1L6.1546 1ZM17.8454 1L15.8267 1C15.5106 1 15.2873 1.16554 15.1482 1.43997C15.0133 1.70136 15.0217 1.97149 15.1693 2.22416C15.3252 2.49423 15.5612 2.62929 15.8731 2.62929C16.9014 2.62492 17.9339 2.62492 18.9622 2.62929C19.4006 2.62929 19.8178 2.72077 20.1971 2.95168C20.981 3.43524 21.394 4.15402 21.4066 5.09504C21.4193 5.94457 21.4109 6.79404 21.4109 7.64355C21.4109 7.82217 21.4319 7.99207 21.5288 8.15327C21.7101 8.46258 22.0725 8.61503 22.4181 8.51918C22.7552 8.42333 22.9955 8.10534 22.9955 7.74377C22.9955 6.62851 23.0081 5.50891 22.9912 4.39365C22.9786 3.26096 22.5108 2.35485 21.6426 1.67089C21.1538 1.28749 20.5974 1.07406 19.9906 1.00868C19.9358 1.00434 19.881 1 19.8304 1L17.8454 1ZM6.1546 23L8.17329 23C8.48937 23 8.71273 22.8345 8.85182 22.56C8.98668 22.2986 8.97825 22.0285 8.83077 21.7758C8.67483 21.5057 8.43881 21.3707 8.12693 21.3707C7.09861 21.375 6.0661 21.375 5.03775 21.3707C4.59947 21.3707 4.18223 21.2792 3.80293 21.0483C3.01905 20.5648 2.60605 19.8459 2.59339 18.905C2.58074 18.0554 2.58916 17.2059 2.58916 16.3564C2.58916 16.1778 2.56811 16.0079 2.47116 15.8467C2.28993 15.5374 1.92749 15.385 1.58193 15.4808C1.24476 15.5766 1.00455 15.8947 1.00455 16.2562C1.00455 17.3715 0.991898 18.4911 1.00878 19.6063C1.02141 20.739 1.4892 21.6451 2.35738 22.3291C2.84626 22.7125 3.40255 22.9259 4.00943 22.9913C4.06423 22.9957 4.11902 23 4.16958 23L6.15457 23L6.1546 23ZM17.8454 23L15.8267 23C15.5106 23 15.2873 22.8345 15.1482 22.56C15.0133 22.2986 15.0217 22.0285 15.1693 21.7758C15.3252 21.5057 15.5612 21.3707 15.8731 21.3707C16.9014 21.375 17.9339 21.375 18.9622 21.3707C19.4006 21.3707 19.8178 21.2792 20.1971 21.0483C20.981 20.5648 21.394 19.8459 21.4066 18.905C21.4193 18.0554 21.4109 17.2059 21.4109 16.3564C21.4109 16.1778 21.4319 16.0079 21.5288 15.8467C21.7101 15.5374 22.0725 15.385 22.4181 15.4808C22.7552 15.5766 22.9955 15.8947 22.9955 16.2562C22.9955 17.3715 23.0081 18.4911 22.9912 19.6063C22.9786 20.739 22.5108 21.6451 21.6426 22.3291C21.1538 22.7125 20.5974 22.9259 19.9906 22.9913C19.9358 22.9957 19.881 23 19.8304 23L17.8454 23ZM5.49292 16.3303C5.61936 16.657 5.87645 16.8487 6.17988 16.8487L17.7485 16.8487C17.955 16.8487 18.1362 16.7616 18.2837 16.5873C18.4312 16.4131 18.5829 16.1996 18.5829 15.9513L18.5829 8.32752C18.5829 7.66531 18.3175 7.33424 18.014 7.20354C17.7106 7.06851 17.3903 7.1687 17.1795 7.45622L13.1463 12.9932C12.9988 13.198 12.805 13.3026 12.5774 13.3026C12.3498 13.3026 12.156 13.198 12.0084 12.9932L10.2131 10.5275C10.0614 10.3228 9.86751 10.2182 9.63993 10.2182C9.41234 10.2182 9.21849 10.3271 9.06675 10.5319L5.6067 15.3719C5.40443 15.6463 5.36649 16.0036 5.49292 16.3303Z"></path><path fill-rule="evenodd"  fill="rgba(0, 0, 0, 0.7)"  d="M4.00943 1.00868C3.40255 1.07406 2.84626 1.28749 2.35738 1.67089C1.4892 2.35485 1.02141 3.26096 1.00878 4.39365C0.99696 5.17457 0.99962 5.95762 1.00228 6.73982C1.00342 7.0747 1.00455 7.40943 1.00455 7.74377C1.00455 8.10534 1.24476 8.42333 1.58193 8.51918C1.92749 8.61503 2.28993 8.46258 2.47116 8.15327C2.56811 7.99207 2.58916 7.82217 2.58916 7.64355C2.58916 7.40096 2.58848 7.15837 2.58779 6.91578C2.58607 6.30887 2.58435 5.70197 2.59339 5.09504C2.60605 4.15402 3.01905 3.43524 3.80293 2.95168C4.18223 2.72077 4.59947 2.62929 5.03775 2.62929C6.0661 2.62492 7.09861 2.62492 8.12693 2.62929C8.43881 2.62929 8.67483 2.49423 8.83077 2.22416C8.97825 1.97149 8.98668 1.70136 8.85182 1.43997C8.71273 1.16554 8.48937 1 8.17329 1L4.16538 1C4.11059 1 4.0558 1 4.00943 1.00868ZM15.8267 1L19.8304 1C19.881 1 19.9358 1.00434 19.9906 1.00868C20.5974 1.07406 21.1538 1.28749 21.6426 1.67089C22.5108 2.35485 22.9786 3.26096 22.9912 4.39365C23.003 5.17465 23.0004 5.95778 22.9977 6.74005C22.9966 7.07486 22.9955 7.40951 22.9955 7.74377C22.9955 8.10534 22.7552 8.42333 22.4181 8.51918C22.0725 8.61503 21.7101 8.46258 21.5288 8.15327C21.4319 7.99207 21.4109 7.82217 21.4109 7.64355C21.4109 7.40108 21.4115 7.15862 21.4122 6.91616C21.4139 6.30913 21.4157 5.7021 21.4066 5.09504C21.394 4.15402 20.981 3.43524 20.1971 2.95168C19.8178 2.72077 19.4006 2.62929 18.9622 2.62929C17.9339 2.62492 16.9014 2.62492 15.8731 2.62929C15.5612 2.62929 15.3252 2.49423 15.1693 2.22416C15.0217 1.97149 15.0133 1.70136 15.1482 1.43997C15.2873 1.16554 15.5106 1 15.8267 1ZM19.9813 1.10826Q19.8767 1.1 19.8304 1.1L15.8267 1.1Q15.4326 1.1 15.2374 1.48518Q15.0573 1.83412 15.2556 2.17374Q15.4609 2.52929 15.8731 2.52929L17.4141 2.52601L18.9625 2.52929Q19.6955 2.52929 20.2491 2.86627Q21.4869 3.62985 21.5066 5.09369Q21.5157 5.70168 21.5122 6.91644Q21.5109 7.4009 21.5109 7.64355Q21.5109 7.92932 21.6145 8.10174Q21.7345 8.30649 21.9501 8.39577Q22.1662 8.48527 22.3914 8.42282Q22.6119 8.36013 22.7531 8.17124Q22.8955 7.98087 22.8955 7.74377Q22.8955 7.40825 22.8977 6.73971Q22.903 5.17594 22.8912 4.39516Q22.8731 2.76762 21.5808 1.74944Q20.8882 1.20632 19.9813 1.10826ZM4.16538 1.1L8.17329 1.1Q8.56741 1.1 8.76262 1.48518Q8.94265 1.83411 8.7444 2.17375Q8.53911 2.52929 8.12693 2.52929L6.58016 2.52601L5.03754 2.52929Q4.30445 2.52929 3.75093 2.86627Q2.51309 3.62987 2.4934 5.09369Q2.48435 5.70134 2.48779 6.91606Q2.48916 7.40116 2.48916 7.64355Q2.48916 7.92931 2.38546 8.10173Q2.26549 8.30649 2.04991 8.39577Q1.8338 8.48527 1.60866 8.42282Q1.38813 8.36013 1.24689 8.17124Q1.10455 7.98088 1.10455 7.74377Q1.10455 7.40926 1.10228 6.73948Q1.09696 5.17516 1.10877 4.39516Q1.12691 2.76758 2.41926 1.74944Q3.11234 1.2059 4.02014 1.1081L4.02401 1.10769L4.02783 1.10697Q4.06508 1.1 4.16538 1.1ZM6.17988 16.8487C5.87645 16.8487 5.61936 16.657 5.49292 16.3303C5.36649 16.0036 5.40443 15.6463 5.6067 15.3719L9.06675 10.5319C9.21849 10.3271 9.41234 10.2182 9.63993 10.2182C9.86751 10.2182 10.0614 10.3228 10.2131 10.5275L12.0084 12.9932C12.156 13.198 12.3498 13.3026 12.5774 13.3026C12.805 13.3026 12.9988 13.198 13.1463 12.9932L17.1795 7.45622C17.3903 7.1687 17.7106 7.06851 18.014 7.20354C18.3175 7.33424 18.5829 7.66531 18.5829 8.32752L18.5829 15.9513C18.5829 16.1996 18.4312 16.4131 18.2837 16.5873C18.1362 16.7616 17.955 16.8487 17.7485 16.8487L6.17988 16.8487ZM5.83014 16.6321Q5.67047 16.512 5.58619 16.2942Q5.49964 16.0706 5.52589 15.8429Q5.55225 15.6143 5.68805 15.43L9.14709 10.5914Q9.34956 10.3182 9.63993 10.3182Q9.93353 10.3182 10.1323 10.5864L11.9273 13.0517Q12.1801 13.4026 12.5774 13.4026Q12.9747 13.4026 13.2272 13.0521L17.2602 7.51534Q17.3991 7.32576 17.5912 7.26706Q17.7807 7.20917 17.9744 7.29539Q18.1965 7.39104 18.3255 7.61596Q18.4829 7.89047 18.4829 8.32752L18.4829 15.9513Q18.4829 16.1972 18.2074 16.5227Q18.0161 16.7487 17.7485 16.7487L6.17988 16.7487Q5.98516 16.7487 5.83014 16.6321ZM8.17329 23L4.16958 23C4.11902 23 4.06423 22.9957 4.00943 22.9913C3.40255 22.9259 2.84626 22.7125 2.35738 22.3291C1.4892 21.6451 1.02141 20.739 1.00878 19.6063C0.99696 18.8254 0.999621 18.0423 1.00228 17.2602C1.00342 16.9253 1.00455 16.5906 1.00455 16.2562C1.00455 15.8947 1.24476 15.5766 1.58193 15.4808C1.92749 15.385 2.28993 15.5374 2.47116 15.8467C2.56811 16.0079 2.58916 16.1778 2.58916 16.3564C2.58916 16.599 2.58848 16.8416 2.58779 17.0842C2.58607 17.6911 2.58435 18.298 2.59339 18.905C2.60605 19.8459 3.01905 20.5648 3.80293 21.0483C4.18223 21.2792 4.59947 21.3707 5.03775 21.3707C6.0661 21.375 7.09861 21.375 8.12693 21.3707C8.43881 21.3707 8.67483 21.5057 8.83077 21.7758C8.97825 22.0285 8.98668 22.2986 8.85182 22.56C8.71273 22.8345 8.48937 23 8.17329 23ZM4.01872 22.8917Q3.11187 22.7937 2.41926 22.2506Q1.12691 21.2324 1.10877 19.6048Q1.09696 18.8248 1.10228 17.2605Q1.10455 16.5907 1.10455 16.2562Q1.10455 16.0191 1.24689 15.8287Q1.38813 15.6399 1.60866 15.5772Q1.8338 15.5147 2.04991 15.6042Q2.26549 15.6935 2.38546 15.8983Q2.48916 16.0707 2.48916 16.3564Q2.48916 16.5989 2.48779 17.0839Q2.48435 18.2987 2.4934 18.9063Q2.51309 20.3701 3.75093 21.1337Q4.30448 21.4707 5.03754 21.4707L6.58016 21.474L8.12693 21.4707Q8.53911 21.4707 8.7444 21.8263Q8.94264 22.1659 8.76262 22.5148Q8.56742 22.9 8.17329 22.9L4.16958 22.9Q4.12288 22.9 4.01872 22.8917ZM15.8267 23L19.8304 23C19.881 23 19.9358 22.9957 19.9906 22.9913C20.5974 22.9259 21.1538 22.7125 21.6426 22.3291C22.5108 21.6451 22.9786 20.739 22.9912 19.6063C23.003 18.8253 23.0004 18.0422 22.9977 17.2599C22.9966 16.9251 22.9955 16.5905 22.9955 16.2562C22.9955 15.8947 22.7552 15.5766 22.4181 15.4808C22.0725 15.385 21.7101 15.5374 21.5288 15.8467C21.4319 16.0079 21.4109 16.1778 21.4109 16.3564C21.4109 16.5989 21.4115 16.8413 21.4122 17.0838C21.4139 17.6909 21.4157 18.2979 21.4066 18.905C21.394 19.8459 20.981 20.5648 20.1971 21.0483C19.8178 21.2792 19.4006 21.3707 18.9622 21.3707C17.9339 21.375 16.9014 21.375 15.8731 21.3707C15.5612 21.3707 15.3252 21.5057 15.1693 21.7758C15.0217 22.0285 15.0133 22.2986 15.1482 22.56C15.2873 22.8345 15.5106 23 15.8267 23ZM19.9813 22.8917Q19.8771 22.9 19.8304 22.9L15.8267 22.9Q15.4326 22.9 15.2374 22.5148Q15.0574 22.1659 15.2556 21.8263Q15.4609 21.4707 15.8731 21.4707L17.4141 21.474L18.9625 21.4707Q19.6955 21.4707 20.2491 21.1337Q21.4869 20.3701 21.5066 18.9063Q21.5157 18.2983 21.5122 17.0835Q21.5109 16.5991 21.5109 16.3564Q21.5109 16.0707 21.6145 15.8983Q21.7345 15.6935 21.9501 15.6042Q22.1662 15.5147 22.3914 15.5772Q22.6119 15.6399 22.7531 15.8287Q22.8955 16.0191 22.8955 16.2562Q22.8955 16.5917 22.8977 17.2603Q22.903 18.824 22.8912 19.6048Q22.8731 21.2324 21.5808 22.2506Q20.8882 22.7937 19.9813 22.8917Z"></path></svg>