<svg xmlns="http://www.w3.org/2000/svg" xmlns:xlink="http://www.w3.org/1999/xlink" width="17.7685546875" height="20" viewBox="0 0 17.7685546875 20" fill="none"><path d="M14.8069 13.3263C14.7948 13.3262 14.7827 13.3259 14.7707 13.3253C14.7586 13.3247 14.7465 13.3238 14.7344 13.3226C14.7224 13.3214 14.7104 13.3199 14.6984 13.3181C14.6864 13.3164 14.6745 13.3143 14.6626 13.3119C14.6507 13.3095 14.6389 13.3069 14.6272 13.3039C14.6155 13.301 14.6038 13.2977 14.5922 13.2942C14.5806 13.2907 14.5691 13.2869 14.5577 13.2828C14.5463 13.2787 14.535 13.2743 14.5239 13.2697C14.5127 13.2651 14.5016 13.2601 14.4907 13.255C14.4797 13.2498 14.4689 13.2443 14.4582 13.2386C14.4476 13.2329 14.437 13.2269 14.4266 13.2207C14.4163 13.2145 14.406 13.208 14.396 13.2012C14.3859 13.1945 14.376 13.1875 14.3663 13.1803C14.3566 13.1731 14.3471 13.1656 14.3377 13.1579C14.3283 13.1503 14.3192 13.1424 14.3102 13.1342C14.3012 13.1261 14.2925 13.1177 14.2839 13.1092C14.2754 13.1006 14.267 13.0918 14.2589 13.0829C14.2508 13.0739 14.2429 13.0647 14.2352 13.0553C14.2275 13.046 14.2201 13.0364 14.2128 13.0267C14.2056 13.017 14.1987 13.0071 14.192 12.997C14.1852 12.9869 14.1787 12.9767 14.1725 12.9663C14.1663 12.9559 14.1603 12.9454 14.1546 12.9347C14.1489 12.924 14.1435 12.9132 14.1383 12.9023C14.1331 12.8913 14.1282 12.8802 14.1236 12.8691C14.119 12.8579 14.1146 12.8466 14.1105 12.8352C14.1065 12.8238 14.1027 12.8123 14.0992 12.8007C14.0957 12.7891 14.0924 12.7774 14.0895 12.7657C14.0865 12.7539 14.0839 12.7421 14.0815 12.7302C14.0792 12.7184 14.0771 12.7064 14.0753 12.6945C14.0736 12.6825 14.0721 12.6705 14.0709 12.6584C14.0697 12.6464 14.0688 12.6343 14.0682 12.6222C14.0676 12.6101 14.0673 12.598 14.0673 12.5859C14.0673 12.5738 14.0676 12.5617 14.0682 12.5496C14.0688 12.5375 14.0697 12.5254 14.0709 12.5134C14.0721 12.5013 14.0736 12.4893 14.0753 12.4774C14.0771 12.4654 14.0792 12.4534 14.0815 12.4416C14.0839 12.4297 14.0865 12.4179 14.0895 12.4061C14.0924 12.3944 14.0957 12.3827 14.0992 12.3711C14.1027 12.3595 14.1065 12.348 14.1105 12.3366C14.1146 12.3252 14.119 12.314 14.1236 12.3028C14.1282 12.2916 14.1331 12.2805 14.1383 12.2696C14.1435 12.2586 14.1489 12.2478 14.1546 12.2371C14.1603 12.2264 14.1663 12.2159 14.1725 12.2055C14.1787 12.1951 14.1852 12.1849 14.192 12.1748C14.1987 12.1648 14.2056 12.1548 14.2128 12.1451C14.2201 12.1354 14.2275 12.1258 14.2352 12.1165C14.2429 12.1071 14.2508 12.098 14.2589 12.089C14.267 12.08 14.2754 12.0712 14.2839 12.0627C14.2925 12.0541 14.3012 12.0457 14.3102 12.0376C14.3192 12.0295 14.3283 12.0215 14.3377 12.0139C14.3471 12.0062 14.3566 11.9987 14.3663 11.9915C14.376 11.9843 14.3859 11.9773 14.396 11.9706C14.406 11.9638 14.4163 11.9574 14.4267 11.9511C14.437 11.9449 14.4476 11.9389 14.4582 11.9332C14.4689 11.9275 14.4797 11.9221 14.4907 11.9169C14.5016 11.9117 14.5127 11.9068 14.5239 11.9021C14.535 11.8975 14.5463 11.8931 14.5577 11.889C14.5691 11.8849 14.5806 11.8811 14.5922 11.8776C14.6038 11.8741 14.6155 11.8708 14.6272 11.8679C14.6389 11.8649 14.6507 11.8623 14.6626 11.8599C14.6745 11.8575 14.6864 11.8554 14.6984 11.8537C14.7104 11.8519 14.7224 11.8504 14.7344 11.8492C14.7465 11.848 14.7586 11.8471 14.7707 11.8465C14.7827 11.8459 14.7948 11.8456 14.8069 11.8456C14.8312 11.8456 14.8554 11.845 14.8796 11.8438C14.9038 11.8426 14.928 11.8408 14.9521 11.8384C14.9762 11.8361 15.0002 11.8331 15.0242 11.8295C15.0482 11.826 15.072 11.8218 15.0958 11.8171C15.1196 11.8124 15.1432 11.8071 15.1667 11.8012C15.1902 11.7953 15.2136 11.7888 15.2368 11.7818C15.26 11.7748 15.283 11.7672 15.3058 11.759C15.3286 11.7508 15.3512 11.7421 15.3736 11.7328C15.396 11.7236 15.4181 11.7138 15.44 11.7034C15.4619 11.693 15.4836 11.6821 15.5049 11.6707C15.5263 11.6593 15.5474 11.6474 15.5682 11.6349C15.589 11.6224 15.6094 11.6095 15.6296 11.596C15.6497 11.5826 15.6695 11.5686 15.689 11.5542C15.7085 11.5397 15.7276 11.5248 15.7463 11.5095C15.765 11.4941 15.7834 11.4783 15.8013 11.462C15.8193 11.4457 15.8368 11.429 15.854 11.4119C15.8711 11.3947 15.8878 11.3772 15.9041 11.3592C15.9203 11.3413 15.9362 11.3229 15.9516 11.3042C15.9669 11.2855 15.9818 11.2664 15.9963 11.2469C16.0107 11.2274 16.0246 11.2076 16.0381 11.1875C16.0516 11.1674 16.0645 11.1469 16.077 11.1261C16.0894 11.1053 16.1014 11.0842 16.1128 11.0629C16.1242 11.0415 16.1351 11.0198 16.1455 10.998C16.1559 10.976 16.1657 10.9539 16.1749 10.9315C16.1842 10.9091 16.1929 10.8865 16.2011 10.8637C16.2092 10.8409 16.2168 10.8179 16.2239 10.7947C16.2309 10.7715 16.2374 10.7481 16.2433 10.7246C16.2492 10.7011 16.2545 10.6775 16.2592 10.6537C16.2639 10.63 16.2681 10.6061 16.2716 10.5821C16.2752 10.5582 16.2781 10.5341 16.2805 10.51C16.2829 10.4859 16.2847 10.4617 16.2859 10.4375C16.287 10.4133 16.2876 10.3891 16.2876 10.3649L16.2876 2.9614C16.2876 2.93716 16.287 2.91294 16.2859 2.88874C16.2847 2.86454 16.2829 2.84038 16.2805 2.81626C16.2781 2.79214 16.2752 2.76809 16.2716 2.74413C16.2681 2.72016 16.2639 2.69629 16.2592 2.67252C16.2545 2.64875 16.2492 2.62512 16.2433 2.60161C16.2374 2.57811 16.2309 2.55475 16.2239 2.53156C16.2168 2.50838 16.2092 2.48537 16.2011 2.46256C16.1929 2.43975 16.1842 2.41715 16.1749 2.39475C16.1657 2.37236 16.1559 2.35021 16.1455 2.32832C16.1351 2.30641 16.1242 2.28476 16.1128 2.2634C16.1014 2.24203 16.0894 2.22095 16.077 2.20015C16.0645 2.17937 16.0516 2.1589 16.0381 2.13877C16.0246 2.11861 16.0107 2.0988 15.9963 2.07935C15.9818 2.05988 15.9669 2.04078 15.9516 2.02204C15.9362 2.00331 15.9203 1.98497 15.9041 1.96702C15.8878 1.94906 15.8711 1.93152 15.854 1.91438C15.8368 1.89725 15.8193 1.88054 15.8013 1.86427C15.7834 1.84799 15.765 1.83217 15.7463 1.8168C15.7276 1.80142 15.7085 1.78652 15.689 1.77209C15.6695 1.75765 15.6497 1.7437 15.6296 1.73024C15.6094 1.71677 15.589 1.70381 15.5682 1.69136C15.5474 1.6789 15.5263 1.66696 15.5049 1.65553C15.4836 1.64411 15.4619 1.63322 15.44 1.62286C15.4181 1.6125 15.396 1.60268 15.3736 1.59341C15.3512 1.58413 15.3286 1.57541 15.3058 1.56725C15.283 1.55909 15.26 1.55149 15.2368 1.54445C15.2136 1.53742 15.1902 1.53096 15.1667 1.52507C15.1432 1.51918 15.1196 1.51387 15.0958 1.50915C15.072 1.50442 15.0482 1.50028 15.0242 1.49672C15.0002 1.49317 14.9762 1.4902 14.9521 1.48783C14.928 1.48545 14.9038 1.48367 14.8796 1.48248C14.8554 1.48129 14.8312 1.4807 14.8069 1.4807L2.9614 1.4807C2.93716 1.4807 2.91294 1.48129 2.88874 1.48248C2.86454 1.48367 2.84038 1.48545 2.81626 1.48783C2.79214 1.4902 2.76809 1.49317 2.74413 1.49672C2.72016 1.50028 2.69629 1.50442 2.67252 1.50915C2.64875 1.51387 2.6251 1.51918 2.60161 1.52507C2.57811 1.53096 2.55475 1.53742 2.53156 1.54445C2.50838 1.55149 2.48537 1.55909 2.46256 1.56725C2.43975 1.57541 2.41715 1.58413 2.39475 1.59341C2.37236 1.60268 2.35021 1.6125 2.3283 1.62286C2.30641 1.63322 2.28476 1.64411 2.2634 1.65553C2.24203 1.66696 2.22095 1.6789 2.20015 1.69136C2.17937 1.70381 2.1589 1.71677 2.13877 1.73024C2.11861 1.7437 2.0988 1.75765 2.07933 1.77209C2.05988 1.78652 2.04078 1.80142 2.02204 1.8168C2.00331 1.83217 1.98495 1.84799 1.967 1.86427C1.94906 1.88054 1.93152 1.89725 1.91439 1.91438C1.89725 1.93152 1.88055 1.94907 1.86427 1.96702C1.848 1.98497 1.83217 2.00331 1.81679 2.02204C1.80142 2.04078 1.78652 2.05988 1.77208 2.07935C1.75765 2.0988 1.74371 2.11861 1.73025 2.13877C1.71678 2.1589 1.70382 2.17937 1.69136 2.20015C1.6789 2.22095 1.66696 2.24203 1.65554 2.2634C1.64412 2.28476 1.63323 2.30641 1.62286 2.32832C1.6125 2.35021 1.60268 2.37236 1.59341 2.39475C1.58414 2.41715 1.57542 2.43975 1.56725 2.46256C1.55909 2.48537 1.55149 2.50838 1.54446 2.53156C1.53742 2.55475 1.53095 2.57811 1.52507 2.60161C1.51918 2.62512 1.51387 2.64875 1.50915 2.67252C1.50442 2.69629 1.50028 2.72016 1.49673 2.74413C1.49317 2.76809 1.4902 2.79214 1.48782 2.81626C1.48545 2.84038 1.48367 2.86454 1.48249 2.88874C1.48129 2.91294 1.48069 2.93716 1.48069 2.9614L1.48069 10.3649C1.48069 10.3891 1.48129 10.4133 1.48249 10.4375C1.48367 10.4617 1.48545 10.4859 1.48782 10.51C1.4902 10.5341 1.49317 10.5582 1.49673 10.5821C1.50028 10.6061 1.50442 10.63 1.50915 10.6537C1.51387 10.6775 1.51918 10.7012 1.52507 10.7246C1.53095 10.7481 1.53742 10.7715 1.54446 10.7947C1.55149 10.8179 1.55909 10.8409 1.56725 10.8637C1.57542 10.8865 1.58414 10.9091 1.59341 10.9315C1.60268 10.9539 1.6125 10.976 1.62286 10.998C1.63323 11.0198 1.64412 11.0415 1.65554 11.0629C1.66696 11.0842 1.6789 11.1053 1.69136 11.1261C1.70382 11.1469 1.71678 11.1674 1.73025 11.1875C1.74371 11.2076 1.75765 11.2274 1.77208 11.2469C1.78652 11.2664 1.80142 11.2855 1.81679 11.3042C1.83217 11.3229 1.848 11.3413 1.86427 11.3592C1.88055 11.3772 1.89725 11.3948 1.91439 11.4119C1.93152 11.429 1.94906 11.4457 1.967 11.462C1.98495 11.4783 2.00331 11.4941 2.02204 11.5095C2.04078 11.5248 2.05988 11.5397 2.07933 11.5542C2.0988 11.5686 2.11861 11.5826 2.13877 11.596C2.1589 11.6095 2.17937 11.6224 2.20015 11.6349C2.22095 11.6474 2.24203 11.6593 2.2634 11.6707C2.28476 11.6821 2.30641 11.693 2.3283 11.7034C2.35021 11.7138 2.37236 11.7236 2.39475 11.7328C2.41715 11.7421 2.43975 11.7508 2.46256 11.759C2.48537 11.7672 2.50838 11.7748 2.53156 11.7818C2.55475 11.7888 2.57811 11.7953 2.60161 11.8012C2.6251 11.8071 2.64875 11.8124 2.67252 11.8171C2.69629 11.8218 2.72016 11.826 2.74413 11.8295C2.76809 11.8331 2.79214 11.8361 2.81626 11.8384C2.84038 11.8408 2.86454 11.8426 2.88874 11.8438C2.91294 11.845 2.93716 11.8456 2.9614 11.8456C2.97351 11.8456 2.98562 11.8459 2.99772 11.8465C3.00981 11.847 3.0219 11.8479 3.03396 11.8491C3.04601 11.8503 3.05804 11.8518 3.07001 11.8536C3.082 11.8554 3.09394 11.8574 3.10583 11.8598C3.11771 11.8621 3.12952 11.8648 3.14128 11.8678C3.15302 11.8707 3.1647 11.8739 3.1763 11.8774C3.18788 11.881 3.19939 11.8848 3.21079 11.8888C3.22222 11.8929 3.23351 11.8973 3.2447 11.9019C3.25589 11.9065 3.26697 11.9115 3.27792 11.9166C3.28888 11.9218 3.2997 11.9273 3.31039 11.933C3.32107 11.9387 3.33162 11.9447 3.34201 11.9509C3.3524 11.9571 3.36263 11.9636 3.37271 11.9703C3.38277 11.9771 3.39267 11.984 3.40242 11.9913C3.41215 11.9985 3.4217 12.0059 3.43105 12.0136C3.44043 12.0213 3.44961 12.0292 3.45857 12.0373C3.46756 12.0455 3.47633 12.0538 3.4849 12.0624C3.49348 12.071 3.50182 12.0797 3.50994 12.0887C3.51809 12.0977 3.526 12.1069 3.53369 12.1162C3.54137 12.1256 3.54883 12.1352 3.55603 12.1449C3.56326 12.1546 3.57023 12.1645 3.57697 12.1746C3.58371 12.1847 3.59018 12.1949 3.59641 12.2053C3.60264 12.2157 3.60859 12.2262 3.61432 12.2369C3.62004 12.2476 3.62547 12.2584 3.63065 12.2694C3.63582 12.2803 3.64074 12.2914 3.64537 12.3026C3.65002 12.3138 3.65438 12.3251 3.65846 12.3365C3.66254 12.3479 3.66633 12.3594 3.66986 12.371C3.67338 12.3826 3.6766 12.3943 3.67955 12.406C3.6825 12.4178 3.68514 12.4296 3.6875 12.4415C3.68987 12.4534 3.69196 12.4653 3.69373 12.4773C3.69551 12.4893 3.69697 12.5013 3.69817 12.5133C3.69936 12.5254 3.70024 12.5375 3.70084 12.5496C3.70145 12.5617 3.70174 12.5738 3.70174 12.5859C3.70174 12.598 3.70145 12.6101 3.70084 12.6222C3.70024 12.6343 3.69936 12.6464 3.69817 12.6585C3.69697 12.6705 3.69551 12.6826 3.69373 12.6945C3.69196 12.7065 3.68987 12.7185 3.6875 12.7303C3.68514 12.7422 3.6825 12.754 3.67955 12.7658C3.6766 12.7776 3.67338 12.7892 3.66986 12.8008C3.66633 12.8124 3.66254 12.8239 3.65846 12.8353C3.65438 12.8467 3.65 12.858 3.64537 12.8692C3.64074 12.8804 3.63582 12.8915 3.63065 12.9024C3.62547 12.9134 3.62004 12.9242 3.61432 12.9349C3.60859 12.9456 3.60264 12.9561 3.59641 12.9665C3.59018 12.9769 3.58371 12.9871 3.57697 12.9972C3.57023 13.0073 3.56326 13.0172 3.55603 13.0269C3.54883 13.0367 3.54137 13.0462 3.53369 13.0556C3.526 13.0649 3.51809 13.0741 3.50994 13.0831C3.50182 13.0921 3.49348 13.1008 3.4849 13.1094C3.47633 13.118 3.46756 13.1263 3.45857 13.1345C3.44961 13.1426 3.44043 13.1505 3.43105 13.1582C3.4217 13.1659 3.41215 13.1733 3.40242 13.1806C3.39267 13.1878 3.38277 13.1947 3.37271 13.2015C3.36263 13.2082 3.3524 13.2147 3.34201 13.2209C3.33162 13.2271 3.32107 13.2331 3.31039 13.2388C3.2997 13.2446 3.28888 13.25 3.27792 13.2552C3.26697 13.2604 3.25589 13.2653 3.2447 13.2699C3.23351 13.2745 3.22222 13.2789 3.21079 13.283C3.19939 13.2871 3.18788 13.2909 3.1763 13.2944C3.1647 13.2979 3.15302 13.3011 3.14128 13.3041C3.12952 13.307 3.11771 13.3097 3.10583 13.312C3.09394 13.3144 3.082 13.3165 3.07001 13.3182C3.05804 13.32 3.04601 13.3215 3.03396 13.3227C3.0219 13.3239 3.00981 13.3248 2.99772 13.3254C2.98562 13.326 2.97351 13.3263 2.9614 13.3263C2.91294 13.3263 2.8645 13.3251 2.81608 13.3227C2.76766 13.3203 2.71934 13.3167 2.67112 13.312C2.62289 13.3072 2.57481 13.3013 2.52686 13.2942C2.47891 13.2871 2.43117 13.2788 2.38365 13.2694C2.33611 13.2599 2.28885 13.2493 2.24183 13.2375C2.19482 13.2257 2.14812 13.2128 2.10173 13.1988C2.05537 13.1847 2.00937 13.1695 1.96372 13.1531C1.9181 13.1368 1.8729 13.1194 1.82812 13.1008C1.78334 13.0823 1.73904 13.0627 1.69523 13.0419C1.65142 13.0212 1.60815 12.9994 1.5654 12.9766C1.52266 12.9537 1.48051 12.9298 1.43893 12.9049C1.39735 12.88 1.35642 12.8541 1.31614 12.8272C1.27584 12.8002 1.23622 12.7724 1.19729 12.7435C1.15837 12.7146 1.12017 12.6848 1.0827 12.6541C1.04523 12.6233 1.00855 12.5917 0.972635 12.5591C0.936722 12.5266 0.901638 12.4932 0.867379 12.4589C0.833103 12.4246 0.799691 12.3895 0.767145 12.3536C0.734598 12.3177 0.702951 12.281 0.672204 12.2436C0.641458 12.2061 0.611649 12.1679 0.582779 12.129C0.553909 12.09 0.526011 12.0504 0.499084 12.0101C0.472158 11.9698 0.446238 11.9289 0.421321 11.8873C0.396405 11.8458 0.372524 11.8036 0.349678 11.7609C0.326832 11.7181 0.305046 11.6748 0.284325 11.631C0.263604 11.5872 0.243969 11.5429 0.225422 11.4981C0.206874 11.4534 0.189437 11.4082 0.17311 11.3625C0.156783 11.3169 0.141585 11.2709 0.127516 11.2245C0.113448 11.1781 0.100526 11.1314 0.0887495 11.0844C0.0769733 11.0374 0.0663571 10.9901 0.0569013 10.9426C0.0474467 10.8951 0.0391633 10.8473 0.0320513 10.7994C0.0249404 10.7514 0.0190101 10.7034 0.01426 10.6551C0.00950992 10.6069 0.00594537 10.5586 0.00356643 10.5102C0.00118883 10.4618 0 10.4133 0 10.3649L0 2.9614C0 2.91294 0.00118883 2.8645 0.00356643 2.81608C0.00594537 2.76766 0.00950992 2.71934 0.01426 2.67112C0.0190101 2.62289 0.0249404 2.57481 0.0320513 2.52686C0.0391633 2.47893 0.0474467 2.43119 0.0569013 2.38365C0.0663571 2.33611 0.0769733 2.28885 0.0887495 2.24183C0.100526 2.19482 0.113448 2.14812 0.127516 2.10175C0.141585 2.05537 0.156783 2.00937 0.17311 1.96372C0.189437 1.91809 0.206874 1.87289 0.225422 1.82812C0.243969 1.78334 0.263604 1.73904 0.284325 1.69523C0.305046 1.65142 0.326832 1.60814 0.349678 1.5654C0.372524 1.52266 0.396405 1.4805 0.421321 1.43893C0.446238 1.39736 0.472158 1.35643 0.499084 1.31613C0.526011 1.27583 0.553909 1.23622 0.582779 1.19729C0.611649 1.15836 0.641458 1.12017 0.672204 1.08271C0.702951 1.04524 0.734598 1.00855 0.767145 0.972643C0.799691 0.936732 0.833103 0.901642 0.867379 0.867372C0.901638 0.833102 0.936722 0.799693 0.972635 0.767145C1.00855 0.734598 1.04523 0.702951 1.0827 0.672204C1.12017 0.64146 1.15837 0.611651 1.19729 0.582779C1.23622 0.553909 1.27584 0.526011 1.31614 0.499084C1.35642 0.472158 1.39735 0.446238 1.43893 0.421321C1.48051 0.396405 1.52266 0.372524 1.5654 0.349678C1.60815 0.326832 1.65142 0.305046 1.69523 0.284325C1.73904 0.263604 1.78334 0.243969 1.82812 0.225422C1.8729 0.206876 1.9181 0.189439 1.96372 0.173111C2.00937 0.156783 2.05537 0.141585 2.10173 0.127517C2.14812 0.113448 2.19482 0.100525 2.24183 0.0887491C2.28885 0.0769729 2.33611 0.0663573 2.38365 0.0569023C2.43117 0.0474473 2.47891 0.0391639 2.52686 0.0320527C2.57481 0.0249412 2.62289 0.0190103 2.67112 0.0142599C2.71934 0.00950947 2.76766 0.00594521 2.81608 0.00356713C2.8645 0.00118904 2.91294 0 2.9614 0L14.8069 0C14.8554 0 14.9038 0.00118904 14.9523 0.00356713C15.0007 0.00594521 15.049 0.00950947 15.0972 0.0142599C15.1454 0.0190103 15.1935 0.0249412 15.2415 0.0320527C15.2894 0.0391639 15.3372 0.0474473 15.3847 0.0569023C15.4322 0.0663573 15.4795 0.0769729 15.5265 0.0887491C15.5735 0.100525 15.6202 0.113448 15.6666 0.127517C15.713 0.141585 15.759 0.156783 15.8046 0.173111C15.8502 0.189439 15.8954 0.206876 15.9402 0.225422C15.985 0.243969 16.0293 0.263604 16.0731 0.284325C16.1169 0.305046 16.1602 0.326832 16.2029 0.349678C16.2457 0.372524 16.2878 0.396405 16.3294 0.421321C16.371 0.446238 16.4119 0.472158 16.4522 0.499084C16.4925 0.526011 16.5321 0.553909 16.5711 0.582779C16.61 0.611651 16.6482 0.64146 16.6856 0.672204C16.7231 0.702951 16.7598 0.734598 16.7957 0.767145C16.8316 0.799693 16.8667 0.833102 16.901 0.867372C16.9352 0.901642 16.9686 0.936732 17.0012 0.972643C17.0338 1.00855 17.0654 1.04524 17.0961 1.08271C17.1269 1.12017 17.1567 1.15836 17.1856 1.19729C17.2144 1.23622 17.2423 1.27583 17.2692 1.31613C17.2962 1.35643 17.3221 1.39736 17.347 1.43893C17.3719 1.4805 17.3958 1.52266 17.4187 1.5654C17.4415 1.60814 17.4633 1.65142 17.484 1.69523C17.5047 1.73904 17.5244 1.78334 17.5429 1.82812C17.5615 1.87289 17.5789 1.91809 17.5952 1.96372C17.6116 2.00937 17.6268 2.05537 17.6408 2.10175C17.6549 2.14812 17.6678 2.19482 17.6796 2.24183C17.6914 2.28885 17.702 2.33611 17.7114 2.38365C17.7209 2.43119 17.7292 2.47893 17.7363 2.52686C17.7434 2.57481 17.7493 2.62289 17.7541 2.67112C17.7588 2.71934 17.7624 2.76766 17.7648 2.81608C17.7671 2.8645 17.7683 2.91294 17.7683 2.9614L17.7683 10.3649C17.7683 10.4133 17.7671 10.4618 17.7648 10.5102C17.7624 10.5586 17.7588 10.6069 17.7541 10.6551C17.7493 10.7034 17.7434 10.7514 17.7363 10.7994C17.7292 10.8473 17.7209 10.8951 17.7114 10.9426C17.702 10.9901 17.6914 11.0374 17.6796 11.0844C17.6678 11.1314 17.6549 11.1781 17.6408 11.2245C17.6268 11.2709 17.6116 11.3169 17.5952 11.3625C17.5789 11.4082 17.5615 11.4534 17.5429 11.4981C17.5244 11.5429 17.5047 11.5872 17.484 11.631C17.4633 11.6748 17.4415 11.7181 17.4187 11.7609C17.3958 11.8036 17.3719 11.8458 17.347 11.8873C17.3221 11.9289 17.2962 11.9698 17.2692 12.0101C17.2423 12.0504 17.2144 12.09 17.1856 12.129C17.1567 12.1679 17.1269 12.2061 17.0961 12.2436C17.0654 12.281 17.0338 12.3177 17.0012 12.3536C16.9686 12.3895 16.9352 12.4246 16.901 12.4589C16.8667 12.4932 16.8316 12.5266 16.7957 12.5591C16.7598 12.5917 16.7231 12.6233 16.6856 12.6541C16.6482 12.6848 16.61 12.7146 16.5711 12.7435C16.5321 12.7724 16.4925 12.8002 16.4522 12.8272C16.4119 12.8541 16.371 12.88 16.3294 12.9049C16.2878 12.9298 16.2457 12.9537 16.2029 12.9766C16.1602 12.9994 16.1169 13.0212 16.0731 13.0419C16.0293 13.0627 15.985 13.0823 15.9402 13.1008C15.8954 13.1194 15.8502 13.1368 15.8046 13.1531C15.759 13.1695 15.713 13.1847 15.6666 13.1988C15.6202 13.2128 15.5735 13.2257 15.5265 13.2375C15.4795 13.2493 15.4322 13.2599 15.3847 13.2694C15.3372 13.2788 15.2894 13.2871 15.2415 13.2942C15.1935 13.3013 15.1454 13.3072 15.0972 13.312C15.049 13.3167 15.0007 13.3203 14.9523 13.3227C14.9038 13.3251 14.8554 13.3263 14.8069 13.3263ZM5.55261 13.3263C5.63423 13.3273 5.7157 13.3314 5.79701 13.3385C5.87832 13.3457 5.95926 13.3559 6.03981 13.3692C6.12035 13.3824 6.2003 13.3987 6.27961 13.418C6.35893 13.4373 6.43741 13.4595 6.51505 13.4847L8.02537 10.7343L6.01902 7.08217C6.01301 7.07111 6.00725 7.05992 6.00176 7.04861C5.99627 7.0373 5.99106 7.02586 5.98609 7.01429C5.98115 7.00273 5.97647 6.99105 5.97207 6.97927C5.96766 6.9675 5.96354 6.9556 5.95969 6.94363C5.95584 6.93166 5.95227 6.91959 5.94898 6.90744C5.9457 6.89531 5.94271 6.88308 5.94 6.8708C5.93728 6.85851 5.93488 6.84619 5.93275 6.83378C5.93062 6.82138 5.92879 6.80894 5.92725 6.79646C5.9257 6.78398 5.92445 6.77146 5.9235 6.7589C5.92254 6.74636 5.92187 6.7338 5.9215 6.72122C5.92113 6.70866 5.92107 6.69609 5.92129 6.68351C5.9215 6.67093 5.92203 6.65837 5.92283 6.64581C5.92365 6.63325 5.92477 6.62071 5.92615 6.60821C5.92756 6.59571 5.92926 6.58325 5.93123 6.57083C5.93322 6.55841 5.93551 6.54604 5.93807 6.53372C5.94062 6.52142 5.94348 6.50917 5.94662 6.49698C5.94977 6.48479 5.95318 6.47268 5.95689 6.46067C5.96061 6.44866 5.96459 6.43673 5.96887 6.42489C5.97314 6.41307 5.97768 6.40134 5.9825 6.38971C5.98732 6.37809 5.9924 6.36661 5.99775 6.35522C6.00313 6.34383 6.00875 6.33258 6.01463 6.32147C6.02051 6.31036 6.02666 6.29938 6.03307 6.28854C6.03947 6.27772 6.04613 6.26706 6.05303 6.25653C6.05992 6.246 6.06707 6.23565 6.07445 6.22547C6.08186 6.2153 6.08947 6.2053 6.09733 6.19547C6.1052 6.18565 6.11328 6.17602 6.12158 6.16657C6.12989 6.15713 6.13842 6.14787 6.14717 6.13883C6.1559 6.12979 6.16487 6.12096 6.17403 6.11235C6.18319 6.10371 6.19254 6.09531 6.20209 6.08713C6.21164 6.07895 6.22139 6.07098 6.23131 6.06326C6.24124 6.05553 6.25133 6.04803 6.26163 6.04078C6.2719 6.03354 6.28235 6.02652 6.29295 6.01977C6.3034 6.01342 6.31403 6.00736 6.32479 6.00156C6.33557 5.99576 6.34649 5.99025 6.35753 5.98502C6.36858 5.97979 6.37977 5.97484 6.39108 5.9702C6.40239 5.96553 6.4138 5.96117 6.42534 5.95709C6.43686 5.95301 6.44848 5.94924 6.46022 5.94576C6.47194 5.94229 6.48374 5.9391 6.49563 5.93623C6.50753 5.93336 6.51948 5.9308 6.53149 5.92853C6.54353 5.92629 6.5556 5.92434 6.56771 5.92269C6.57983 5.92105 6.59198 5.91973 6.60417 5.91871C6.61636 5.91769 6.62857 5.91699 6.64079 5.9166C6.65302 5.91621 6.66525 5.91613 6.67747 5.91637C6.6897 5.9166 6.70191 5.91715 6.71411 5.91803C6.72632 5.91889 6.73849 5.92006 6.75062 5.92154C6.76275 5.92305 6.77484 5.92484 6.78689 5.92695C6.79894 5.92906 6.81093 5.93148 6.82285 5.9342C6.83478 5.93691 6.84662 5.93994 6.85839 5.94328C6.87015 5.94662 6.88183 5.95023 6.89341 5.95416C6.905 5.95809 6.91646 5.96232 6.92783 5.96684C6.9392 5.97135 6.95045 5.97617 6.96156 5.98127C6.97267 5.98637 6.98365 5.99174 6.99449 5.9974C7.00533 6.00305 7.01603 6.00899 7.02656 6.0152C7.03711 6.02141 7.04748 6.02787 7.05767 6.03461C7.06789 6.04135 7.07791 6.04836 7.08775 6.05561C7.09762 6.06285 7.10726 6.07035 7.11672 6.07811C7.12619 6.08586 7.13545 6.09385 7.14449 6.10207C7.15354 6.1103 7.16238 6.11873 7.171 6.12742C7.17961 6.1361 7.18801 6.14498 7.19617 6.1541C7.20434 6.16321 7.21227 6.17252 7.21994 6.18203C7.22762 6.19155 7.23506 6.20123 7.24225 6.21114C7.24943 6.22104 7.25637 6.23112 7.26303 6.24137C7.26971 6.25163 7.27612 6.26204 7.28225 6.2726C7.28838 6.28319 7.29424 6.29391 7.29983 6.30479L8.88417 9.18031L10.4611 6.30553C10.4668 6.29465 10.4728 6.28393 10.4791 6.27334C10.4853 6.26278 10.4918 6.25237 10.4986 6.24211C10.5054 6.23186 10.5124 6.2218 10.5197 6.21192C10.527 6.20204 10.5346 6.19235 10.5424 6.18284C10.5502 6.17332 10.5582 6.16403 10.5664 6.15492C10.5747 6.14584 10.5832 6.13696 10.5919 6.12828C10.6006 6.11963 10.6095 6.11119 10.6187 6.10297C10.6278 6.09477 10.6372 6.0868 10.6467 6.07906C10.6563 6.07133 10.666 6.06385 10.676 6.0566C10.6859 6.04936 10.696 6.04238 10.7063 6.03565C10.7166 6.02893 10.727 6.02246 10.7376 6.01627C10.7482 6.01008 10.759 6.00416 10.7699 5.99852C10.7808 5.99287 10.7919 5.9875 10.8031 5.98242C10.8143 5.97734 10.8256 5.97254 10.837 5.96803C10.8484 5.96352 10.86 5.95932 10.8716 5.95539C10.8833 5.95146 10.895 5.94785 10.9068 5.94451C10.9187 5.94119 10.9306 5.93816 10.9426 5.93545C10.9546 5.93273 10.9666 5.93031 10.9787 5.92822C10.9908 5.92611 11.003 5.92432 11.0152 5.92283C11.0274 5.92133 11.0396 5.92016 11.0518 5.9193C11.0641 5.91842 11.0764 5.91787 11.0887 5.91764C11.1009 5.91738 11.1132 5.91746 11.1255 5.91783C11.1378 5.91822 11.1501 5.91893 11.1623 5.91992C11.1746 5.92094 11.1868 5.92227 11.199 5.92389C11.2111 5.92551 11.2233 5.92744 11.2353 5.92969C11.2474 5.93193 11.2594 5.93447 11.2714 5.93734C11.2833 5.9402 11.2952 5.94336 11.307 5.94682C11.3188 5.95027 11.3305 5.95404 11.3421 5.95809C11.3537 5.96213 11.3652 5.96648 11.3766 5.97113C11.388 5.97576 11.3992 5.98068 11.4103 5.9859C11.4215 5.99111 11.4325 5.99662 11.4433 6.00238C11.4541 6.00815 11.4648 6.0142 11.4754 6.02051C11.486 6.02725 11.4965 6.03422 11.5068 6.04147C11.5171 6.04869 11.5272 6.05615 11.5372 6.06387C11.5471 6.07158 11.5569 6.07953 11.5665 6.08772C11.576 6.0959 11.5854 6.1043 11.5946 6.11291C11.6038 6.12155 11.6127 6.13039 11.6215 6.13944C11.6302 6.14848 11.6388 6.15774 11.6471 6.16719C11.6554 6.17664 11.6635 6.18629 11.6714 6.19614C11.6792 6.20598 11.6868 6.216 11.6942 6.2262C11.7016 6.23641 11.7087 6.24678 11.7156 6.25731C11.7225 6.26786 11.7291 6.27856 11.7355 6.28942C11.7419 6.30028 11.748 6.31128 11.7538 6.32243C11.7597 6.33358 11.7653 6.34485 11.7706 6.35628C11.7759 6.36768 11.781 6.37921 11.7857 6.39087C11.7905 6.40253 11.795 6.41428 11.7992 6.42614C11.8034 6.43802 11.8073 6.44997 11.811 6.46202C11.8146 6.47407 11.818 6.48622 11.821 6.49843C11.8241 6.51063 11.8269 6.52292 11.8293 6.53526C11.8318 6.54761 11.834 6.56001 11.8359 6.57245C11.8378 6.58489 11.8394 6.59739 11.8407 6.60991C11.842 6.62243 11.843 6.63499 11.8437 6.64755C11.8444 6.66013 11.8448 6.67271 11.8449 6.6853C11.845 6.6979 11.8448 6.71048 11.8443 6.72306C11.8438 6.73564 11.843 6.7482 11.8419 6.76076C11.8408 6.77329 11.8394 6.78579 11.8377 6.79828C11.836 6.81076 11.8341 6.8232 11.8318 6.83558C11.8295 6.84796 11.8269 6.86029 11.8241 6.87253C11.8212 6.8848 11.818 6.89699 11.8146 6.9091C11.8111 6.92121 11.8074 6.93322 11.8034 6.94515C11.7994 6.95709 11.7951 6.96892 11.7905 6.98066C11.7859 6.9924 11.7811 7.004 11.7759 7.01551C11.7708 7.02701 11.7654 7.03838 11.7597 7.04961C11.754 7.06084 11.7481 7.07195 11.7419 7.08291L9.73557 10.735L11.2459 13.4862C11.3104 13.4667 11.3755 13.4492 11.441 13.4337C11.5066 13.4182 11.5726 13.4047 11.639 13.3932C11.7054 13.3817 11.7721 13.3722 11.8391 13.3647C11.9061 13.3573 11.9733 13.3519 12.0406 13.3485C12.1079 13.3451 12.1752 13.3438 12.2426 13.3445C12.31 13.3452 12.3774 13.348 12.4446 13.3528C12.5118 13.3576 12.5788 13.3645 12.6456 13.3733C12.7124 13.3822 12.7789 13.3931 12.8451 13.406C12.9112 13.419 12.9769 13.4339 13.0421 13.4508C13.1074 13.4677 13.1721 13.4866 13.2362 13.5074C13.3002 13.5282 13.3636 13.551 13.4264 13.5757C13.4891 13.6004 13.551 13.627 13.6121 13.6554C13.6732 13.6839 13.7333 13.7142 13.7926 13.7463C13.8518 13.7784 13.9101 13.8123 13.9673 13.8479C14.0245 13.8836 14.0805 13.9209 14.1355 13.96C14.1904 13.999 14.2441 14.0397 14.2966 14.082C14.349 14.1243 14.4001 14.1682 14.4499 14.2136C14.4997 14.259 14.5481 14.3059 14.595 14.3543C14.642 14.4027 14.6874 14.4524 14.7313 14.5035C14.7753 14.5547 14.8176 14.6071 14.8583 14.6607C14.8991 14.7144 14.9381 14.7693 14.9755 14.8254C15.0129 14.8815 15.0486 14.9386 15.0825 14.9968C15.1165 15.0551 15.1486 15.1143 15.1789 15.1745C15.2093 15.2347 15.2377 15.2957 15.2644 15.3576C15.291 15.4195 15.3157 15.4822 15.3385 15.5456C15.3613 15.609 15.3822 15.6731 15.4011 15.7378C15.42 15.8025 15.437 15.8677 15.452 15.9334C15.4669 15.9991 15.4799 16.0652 15.4908 16.1317C15.5018 16.1982 15.5107 16.265 15.5176 16.332C15.5245 16.3991 15.5293 16.4663 15.5321 16.5336C15.5349 16.601 15.5357 16.6683 15.5344 16.7357C15.5331 16.8031 15.5298 16.8704 15.5244 16.9376C15.519 17.0047 15.5116 17.0717 15.5022 17.1384C15.4927 17.2052 15.4813 17.2716 15.4678 17.3376C15.4543 17.4036 15.4388 17.4692 15.4214 17.5343C15.4039 17.5994 15.3845 17.6639 15.3631 17.7278C15.3417 17.7917 15.3185 17.8549 15.2932 17.9174C15.268 17.9799 15.2409 18.0416 15.2119 18.1025C15.183 18.1633 15.1522 18.2232 15.1196 18.2822C15.087 18.3412 15.0526 18.3991 15.0165 18.456C14.9804 18.5129 14.9425 18.5687 14.903 18.6233C14.8635 18.6779 14.8224 18.7312 14.7796 18.7833C14.7369 18.8354 14.6926 18.8862 14.6467 18.9356C14.6009 18.985 14.5536 19.033 14.5048 19.0795C14.4561 19.1261 14.406 19.1711 14.3545 19.2146C14.303 19.258 14.2502 19.2999 14.1962 19.3402C14.1421 19.3805 14.0869 19.4191 14.0306 19.456C13.9742 19.493 13.9167 19.5282 13.8582 19.5616C13.7997 19.595 13.7402 19.6265 13.6798 19.6564C13.6193 19.6863 13.558 19.7144 13.4959 19.7404C13.4338 19.7663 13.3709 19.7906 13.3073 19.813C13.2437 19.8353 13.1795 19.8556 13.1146 19.874C13.0498 19.8923 12.9844 19.9087 12.9186 19.9232C12.8527 19.9374 12.7865 19.9499 12.7199 19.9603C12.6534 19.9706 12.5865 19.979 12.5194 19.9853C12.4523 19.9917 12.3851 19.996 12.3177 19.9982C12.2503 20.0003 12.183 20.0005 12.1156 19.9988C12.0482 19.997 11.981 19.9931 11.9138 19.987C11.8467 19.9812 11.7798 19.9732 11.7132 19.9632C11.6465 19.9533 11.5802 19.9411 11.5143 19.9271C11.4484 19.913 11.3829 19.897 11.318 19.879C11.2531 19.8611 11.1887 19.8411 11.125 19.8193C11.0613 19.7972 10.9982 19.7734 10.9359 19.7478C10.8737 19.722 10.8122 19.6943 10.7516 19.6648C10.691 19.6353 10.6313 19.604 10.5726 19.571C10.5139 19.5378 10.4563 19.503 10.3997 19.4664C10.3431 19.4298 10.2877 19.3915 10.2334 19.3516C10.1791 19.3116 10.1261 19.27 10.0744 19.2268C10.0227 19.1836 9.97227 19.1389 9.92327 19.0926C9.87424 19.0464 9.82666 18.9987 9.78055 18.9495C9.73444 18.9004 9.68985 18.8499 9.64678 18.798C9.60373 18.7462 9.56229 18.6931 9.52246 18.6387C9.48264 18.5843 9.44449 18.5288 9.40804 18.4721C9.37158 18.4154 9.33689 18.3577 9.30394 18.2989C9.27099 18.2401 9.23986 18.1804 9.21054 18.1197C9.18122 18.059 9.15378 17.9975 9.12822 17.9351C9.10263 17.8727 9.07896 17.8097 9.05722 17.7459C9.03548 17.6821 9.01569 17.6177 8.99786 17.5527C8.98003 17.4877 8.96417 17.4222 8.95032 17.3563C8.93647 17.2903 8.92464 17.224 8.91481 17.1573C8.90499 17.0906 8.8972 17.0237 8.89143 16.9566C8.88567 16.8894 8.88196 16.8222 8.88028 16.7548C8.87862 16.6874 8.87899 16.62 8.88142 16.5527C8.88384 16.4853 8.88829 16.4181 8.89479 16.351C8.9013 16.2839 8.90983 16.2171 8.9204 16.1506C8.93097 16.084 8.94355 16.0178 8.95813 15.952C8.97272 15.8862 8.98929 15.8209 9.00784 15.7561C9.02638 15.6913 9.04689 15.6271 9.06935 15.5636C9.09179 15.5001 9.11615 15.4372 9.14242 15.3752C9.16868 15.3131 9.19683 15.2519 9.22681 15.1915C9.25679 15.1312 9.28859 15.0718 9.32218 15.0134C9.35578 14.9549 9.39111 14.8976 9.42818 14.8413C9.46527 14.785 9.50402 14.7299 9.54445 14.676C9.58488 14.6221 9.62692 14.5694 9.67053 14.518C9.71416 14.4667 9.75932 14.4167 9.80598 14.368C9.85264 14.3194 9.90075 14.2722 9.95026 14.2265L8.88417 12.2898L7.81808 14.228C7.86458 14.2717 7.90978 14.3167 7.95367 14.3631C7.99757 14.4094 8.04011 14.4569 8.08127 14.5057C8.12242 14.5545 8.16215 14.6044 8.20043 14.6555C8.23873 14.7065 8.27551 14.7587 8.31078 14.8118C8.34607 14.865 8.37979 14.9192 8.41193 14.9743C8.4441 15.0294 8.47465 15.0854 8.50358 15.1423C8.5325 15.1992 8.55977 15.2569 8.58537 15.3153C8.61098 15.3738 8.63489 15.433 8.65709 15.4928C8.67928 15.5526 8.69973 15.6131 8.71846 15.6741C8.73717 15.7351 8.75411 15.7966 8.76928 15.8586C8.78446 15.9206 8.79782 15.983 8.8094 16.0457C8.82098 16.1085 8.83073 16.1715 8.83868 16.2349C8.84661 16.2982 8.85272 16.3617 8.857 16.4254C8.86128 16.4891 8.86374 16.5528 8.86434 16.6166C8.86495 16.6804 8.8637 16.7442 8.86063 16.808C8.85757 16.8717 8.85266 16.9353 8.84593 16.9988C8.83919 17.0623 8.83063 17.1255 8.82026 17.1884C8.80989 17.2514 8.7977 17.314 8.7837 17.3763C8.76971 17.4386 8.75395 17.5004 8.73639 17.5618C8.71883 17.6231 8.69954 17.6839 8.67848 17.7442C8.65743 17.8044 8.63465 17.864 8.61016 17.923C8.58567 17.9819 8.5595 18.0401 8.53166 18.0975C8.50381 18.1549 8.47434 18.2115 8.44322 18.2672C8.41211 18.323 8.37943 18.3777 8.34518 18.4316C8.31092 18.4854 8.27514 18.5383 8.23781 18.59C8.20051 18.6418 8.16174 18.6925 8.12152 18.742C8.08128 18.7916 8.03966 18.8399 7.99665 18.8871C7.95363 18.9342 7.90929 18.9801 7.86364 19.0247C7.81798 19.0693 7.77108 19.1125 7.72294 19.1544C7.67479 19.1963 7.62548 19.2368 7.57499 19.2758C7.5245 19.3149 7.47293 19.3524 7.42028 19.3885C7.36764 19.4246 7.31399 19.4591 7.25936 19.4921C7.20473 19.525 7.14918 19.5564 7.09273 19.5863C7.03629 19.6161 6.97902 19.6443 6.92095 19.6706C6.86289 19.697 6.8041 19.7218 6.7446 19.7451C6.68511 19.7681 6.62499 19.7894 6.56427 19.8091C6.50354 19.8288 6.44229 19.8466 6.38053 19.8626C6.31878 19.8788 6.25661 19.8931 6.19403 19.9056C6.13145 19.9181 6.06856 19.9288 6.00535 19.9376C5.94215 19.9466 5.87875 19.9536 5.81513 19.9589C5.75152 19.9642 5.68783 19.9675 5.62404 19.9691C5.56023 19.9706 5.49644 19.9704 5.43265 19.9683C5.36886 19.9661 5.30518 19.9622 5.24163 19.9564C5.17805 19.9507 5.11471 19.9431 5.05161 19.9337C4.98848 19.9242 4.92569 19.913 4.8632 19.8999C4.80072 19.8868 4.73869 19.872 4.67707 19.8554C4.61545 19.8388 4.55437 19.8204 4.4938 19.8003C4.43324 19.7802 4.37331 19.7583 4.31402 19.7347C4.25474 19.7111 4.19616 19.6857 4.13831 19.6587C4.08048 19.6318 4.02346 19.6031 3.96727 19.5728C3.91108 19.5425 3.85582 19.5107 3.80147 19.4773C3.74711 19.4438 3.69375 19.4089 3.64143 19.3723C3.58908 19.3358 3.53783 19.2978 3.48769 19.2583C3.43756 19.2188 3.38859 19.178 3.3408 19.1357C3.293 19.0934 3.24646 19.0497 3.20119 19.0047C3.15591 18.9598 3.11196 18.9135 3.06937 18.866C3.02677 18.8185 2.98556 18.7698 2.94575 18.7199C2.90595 18.67 2.86761 18.619 2.83075 18.5669C2.79389 18.5148 2.75856 18.4617 2.72475 18.4075C2.69094 18.3534 2.65874 18.2983 2.62811 18.2423C2.59748 18.1864 2.5685 18.1295 2.54114 18.0719C2.51379 18.0142 2.48813 17.9558 2.46414 17.8967C2.44016 17.8375 2.41789 17.7777 2.39734 17.7173C2.37682 17.6569 2.35803 17.5959 2.341 17.5344C2.32396 17.4729 2.30873 17.4109 2.29527 17.3485C2.28181 17.2862 2.27017 17.2234 2.26033 17.1604C2.25049 17.0973 2.24248 17.034 2.23629 16.9705C2.2301 16.907 2.22572 16.8433 2.2232 16.7796C2.22068 16.7158 2.22 16.652 2.22115 16.5882C2.2223 16.5244 2.22529 16.4607 2.23011 16.397C2.23494 16.3334 2.2416 16.2699 2.25008 16.2067C2.25855 16.1434 2.26885 16.0805 2.28097 16.0178C2.29308 15.9551 2.30699 15.8929 2.32267 15.831C2.33838 15.7692 2.35584 15.7078 2.37508 15.6469C2.39432 15.5861 2.41529 15.5258 2.43801 15.4662C2.46072 15.4065 2.48512 15.3476 2.51123 15.2894C2.53735 15.2311 2.5651 15.1737 2.59452 15.117C2.62393 15.0604 2.65495 15.0047 2.68758 14.9498C2.72022 14.895 2.7544 14.8411 2.79012 14.7882C2.82585 14.7353 2.86307 14.6835 2.90181 14.6328C2.94054 14.5821 2.98067 14.5325 3.02226 14.4841C3.06384 14.4356 3.10677 14.3885 3.15107 14.3425C3.19536 14.2966 3.24095 14.2519 3.28781 14.2086C3.33468 14.1653 3.38277 14.1234 3.43205 14.0828C3.48133 14.0423 3.53174 14.0032 3.58328 13.9655C3.63483 13.9279 3.68742 13.8918 3.74104 13.8572C3.79465 13.8226 3.84922 13.7895 3.90475 13.758C3.96028 13.7266 4.01667 13.6967 4.07391 13.6685C4.13116 13.6403 4.18917 13.6138 4.24794 13.5889C4.30671 13.564 4.36617 13.5408 4.42628 13.5194C4.48638 13.498 4.54707 13.4783 4.60832 13.4603C4.66955 13.4424 4.73127 13.4262 4.79346 13.4118C4.85563 13.3974 4.91817 13.3848 4.98108 13.374C5.04399 13.3632 5.10713 13.3543 5.17055 13.3471C5.23397 13.34 5.29755 13.3347 5.36128 13.3312C5.42501 13.3277 5.48878 13.3261 5.55261 13.3263ZM12.2157 18.5087C12.246 18.5087 12.2763 18.5079 12.3065 18.5065C12.3368 18.505 12.367 18.5027 12.3972 18.4998C12.4273 18.4968 12.4574 18.4931 12.4873 18.4887C12.5173 18.4842 12.5471 18.479 12.5768 18.4731C12.6065 18.4672 12.6361 18.4606 12.6655 18.4532C12.6948 18.4458 12.724 18.4378 12.753 18.429C12.782 18.4202 12.8108 18.4107 12.8393 18.4005C12.8678 18.3903 12.8961 18.3794 12.924 18.3678C12.952 18.3562 12.9797 18.3439 13.0071 18.331C13.0345 18.318 13.0615 18.3044 13.0882 18.2901C13.1149 18.2759 13.1413 18.2609 13.1673 18.2454C13.1932 18.2298 13.2188 18.2136 13.244 18.1968C13.2692 18.1799 13.294 18.1625 13.3183 18.1445C13.3426 18.1264 13.3665 18.1078 13.3899 18.0886C13.4133 18.0693 13.4363 18.0496 13.4587 18.0292C13.4811 18.0089 13.5031 17.988 13.5245 17.9666C13.5459 17.9452 13.5668 17.9232 13.5871 17.9008C13.6075 17.8783 13.6273 17.8554 13.6465 17.832C13.6657 17.8086 13.6843 17.7847 13.7024 17.7604C13.7204 17.7361 13.7378 17.7113 13.7547 17.6861C13.7715 17.6609 13.7877 17.6353 13.8033 17.6094C13.8188 17.5834 13.8338 17.557 13.8481 17.5303C13.8623 17.5036 13.8759 17.4766 13.8889 17.4492C13.9018 17.4218 13.9141 17.3941 13.9257 17.3661C13.9373 17.3381 13.9482 17.3099 13.9584 17.2814C13.9686 17.2528 13.9781 17.2241 13.9869 17.1951C13.9957 17.1661 14.0038 17.1369 14.0111 17.1075C14.0185 17.0782 14.0251 17.0486 14.031 17.0189C14.0369 16.9892 14.0421 16.9594 14.0466 16.9294C14.051 16.8994 14.0547 16.8694 14.0577 16.8392C14.0607 16.8091 14.0629 16.7789 14.0644 16.7486C14.0659 16.7184 14.0666 16.6881 14.0666 16.6578C14.0666 16.6275 14.0659 16.5973 14.0644 16.567C14.0629 16.5368 14.0607 16.5065 14.0577 16.4764C14.0547 16.4463 14.051 16.4162 14.0466 16.3862C14.0421 16.3563 14.0369 16.3264 14.031 16.2967C14.0251 16.267 14.0185 16.2375 14.0111 16.2081C14.0038 16.1787 13.9957 16.1495 13.9869 16.1205C13.9781 16.0916 13.9686 16.0628 13.9584 16.0343C13.9482 16.0058 13.9373 15.9775 13.9257 15.9495C13.9141 15.9215 13.9018 15.8939 13.8889 15.8665C13.8759 15.8391 13.8623 15.812 13.8481 15.7853C13.8338 15.7586 13.8188 15.7323 13.8033 15.7063C13.7877 15.6803 13.7715 15.6547 13.7547 15.6295C13.7378 15.6044 13.7204 15.5796 13.7024 15.5553C13.6843 15.5309 13.6657 15.5071 13.6465 15.4836C13.6273 15.4602 13.6075 15.4373 13.5871 15.4149C13.5668 15.3924 13.5459 15.3705 13.5245 15.3491C13.5031 15.3276 13.4811 15.3068 13.4587 15.2864C13.4363 15.2661 13.4133 15.2463 13.3899 15.2271C13.3665 15.2079 13.3426 15.1892 13.3183 15.1712C13.294 15.1531 13.2692 15.1357 13.244 15.1189C13.2188 15.102 13.1932 15.0859 13.1673 15.0703C13.1413 15.0547 13.1149 15.0398 13.0882 15.0255C13.0615 15.0112 13.0345 14.9976 13.0071 14.9847C12.9797 14.9717 12.952 14.9594 12.924 14.9478C12.8961 14.9363 12.8678 14.9254 12.8393 14.9151C12.8108 14.9049 12.782 14.8954 12.753 14.8867C12.724 14.8779 12.6948 14.8698 12.6655 14.8624C12.6361 14.855 12.6065 14.8484 12.5768 14.8425C12.5471 14.8366 12.5173 14.8314 12.4873 14.827C12.4574 14.8225 12.4273 14.8188 12.3972 14.8159C12.367 14.8129 12.3368 14.8107 12.3065 14.8092C12.2763 14.8077 12.246 14.807 12.2157 14.807C12.1854 14.807 12.1552 14.8077 12.1249 14.8092C12.0947 14.8107 12.0645 14.8129 12.0343 14.8159C12.0042 14.8188 11.9741 14.8225 11.9442 14.827C11.9142 14.8314 11.8844 14.8366 11.8546 14.8425C11.8249 14.8484 11.7954 14.855 11.766 14.8624C11.7366 14.8698 11.7074 14.8779 11.6785 14.8867C11.6495 14.8954 11.6207 14.9049 11.5922 14.9151C11.5637 14.9254 11.5354 14.9363 11.5074 14.9478C11.4794 14.9594 11.4518 14.9717 11.4244 14.9847C11.397 14.9976 11.37 15.0112 11.3432 15.0255C11.3165 15.0398 11.2902 15.0547 11.2642 15.0703C11.2382 15.0859 11.2126 15.102 11.1874 15.1189C11.1623 15.1357 11.1375 15.1531 11.1132 15.1712C11.0888 15.1892 11.065 15.2079 11.0415 15.2271C11.0181 15.2463 10.9952 15.2661 10.9728 15.2864C10.9503 15.3068 10.9284 15.3276 10.907 15.3491C10.8855 15.3705 10.8647 15.3924 10.8443 15.4148C10.824 15.4373 10.8042 15.4602 10.785 15.4836C10.7658 15.5071 10.7471 15.5309 10.7291 15.5553C10.7111 15.5796 10.6936 15.6044 10.6768 15.6295C10.66 15.6547 10.6437 15.6803 10.6282 15.7063C10.6126 15.7323 10.5977 15.7586 10.5834 15.7853C10.5691 15.812 10.5555 15.8391 10.5426 15.8665C10.5296 15.8939 10.5173 15.9215 10.5058 15.9495C10.4942 15.9775 10.4833 16.0058 10.4731 16.0343C10.4628 16.0628 10.4534 16.0916 10.4446 16.1205C10.4358 16.1495 10.4277 16.1787 10.4203 16.2081C10.413 16.2375 10.4063 16.267 10.4004 16.2967C10.3945 16.3264 10.3893 16.3563 10.3849 16.3862C10.3805 16.4162 10.3768 16.4463 10.3738 16.4764C10.3708 16.5065 10.3686 16.5368 10.3671 16.567C10.3656 16.5973 10.3649 16.6275 10.3649 16.6578C10.3649 16.6881 10.3656 16.7184 10.3671 16.7486C10.3686 16.7789 10.3708 16.8091 10.3738 16.8392C10.3768 16.8694 10.3805 16.8994 10.3849 16.9294C10.3893 16.9594 10.3945 16.9892 10.4004 17.0189C10.4063 17.0486 10.413 17.0782 10.4203 17.1075C10.4277 17.1369 10.4358 17.1661 10.4446 17.1951C10.4534 17.2241 10.4628 17.2528 10.4731 17.2814C10.4833 17.3099 10.4942 17.3381 10.5058 17.3661C10.5173 17.3941 10.5296 17.4218 10.5426 17.4492C10.5555 17.4766 10.5691 17.5036 10.5834 17.5303C10.5977 17.557 10.6126 17.5834 10.6282 17.6094C10.6437 17.6353 10.66 17.6609 10.6768 17.6861C10.6936 17.7113 10.7111 17.7361 10.7291 17.7604C10.7471 17.7847 10.7658 17.8086 10.785 17.832C10.8042 17.8554 10.824 17.8783 10.8443 17.9008C10.8647 17.9232 10.8855 17.9452 10.907 17.9666C10.9284 17.988 10.9503 18.0089 10.9728 18.0292C10.9952 18.0496 11.0181 18.0693 11.0415 18.0886C11.065 18.1078 11.0888 18.1264 11.1132 18.1445C11.1375 18.1625 11.1623 18.1799 11.1874 18.1968C11.2126 18.2136 11.2382 18.2298 11.2642 18.2454C11.2902 18.2609 11.3165 18.2759 11.3432 18.2901C11.37 18.3044 11.397 18.318 11.4244 18.331C11.4518 18.3439 11.4794 18.3562 11.5074 18.3678C11.5354 18.3794 11.5637 18.3903 11.5922 18.4005C11.6207 18.4107 11.6495 18.4202 11.6785 18.429C11.7074 18.4378 11.7366 18.4458 11.766 18.4532C11.7954 18.4606 11.8249 18.4672 11.8546 18.4731C11.8844 18.479 11.9142 18.4842 11.9442 18.4887C11.9741 18.4931 12.0042 18.4968 12.0343 18.4998C12.0645 18.5027 12.0947 18.505 12.1249 18.5065C12.1552 18.5079 12.1854 18.5087 12.2157 18.5087ZM5.55261 18.5087C5.5829 18.5087 5.61316 18.5079 5.64341 18.5065C5.67367 18.505 5.70388 18.5027 5.73402 18.4998C5.76416 18.4968 5.79422 18.4931 5.82418 18.4887C5.85414 18.4842 5.88398 18.479 5.91369 18.4731C5.9434 18.4672 5.97295 18.4606 6.00233 18.4532C6.03172 18.4458 6.0609 18.4378 6.08988 18.429C6.11887 18.4202 6.14762 18.4107 6.17614 18.4005C6.20467 18.3903 6.23291 18.3794 6.2609 18.3678C6.28889 18.3562 6.31657 18.3439 6.34395 18.331C6.37134 18.318 6.39839 18.3044 6.42511 18.2901C6.45181 18.2759 6.47815 18.2609 6.50415 18.2454C6.53013 18.2298 6.55571 18.2136 6.58089 18.1968C6.60607 18.1799 6.63083 18.1625 6.65517 18.1445C6.67948 18.1264 6.70337 18.1078 6.72679 18.0886C6.75021 18.0693 6.77314 18.0496 6.79558 18.0292C6.81802 18.0089 6.83994 17.988 6.86136 17.9666C6.88279 17.9452 6.90367 17.9232 6.924 17.9008C6.94435 17.8783 6.96414 17.8554 6.98334 17.832C7.00256 17.8086 7.02119 17.7847 7.03924 17.7604C7.05728 17.7361 7.07473 17.7113 7.09154 17.6861C7.10838 17.6609 7.12459 17.6353 7.14016 17.6094C7.15572 17.5834 7.17064 17.557 7.18492 17.5303C7.1992 17.5036 7.21281 17.4766 7.22576 17.4492C7.23871 17.4218 7.251 17.3941 7.26258 17.3661C7.27416 17.3381 7.28506 17.3099 7.29528 17.2814C7.30549 17.2528 7.31498 17.2241 7.32377 17.1951C7.33256 17.1661 7.34065 17.1369 7.34801 17.1075C7.35537 17.0782 7.362 17.0486 7.36791 17.0189C7.37383 16.9892 7.37901 16.9594 7.38344 16.9294C7.38788 16.8994 7.39159 16.8694 7.39455 16.8392C7.39752 16.8091 7.39975 16.7789 7.40125 16.7486C7.40274 16.7184 7.40348 16.6881 7.40348 16.6578C7.40348 16.6275 7.40274 16.5973 7.40123 16.567C7.39975 16.5368 7.39752 16.5065 7.39455 16.4764C7.39159 16.4463 7.38788 16.4162 7.38344 16.3862C7.37901 16.3563 7.37383 16.3264 7.36791 16.2967C7.362 16.267 7.35537 16.2375 7.34801 16.2081C7.34065 16.1787 7.33256 16.1495 7.32377 16.1205C7.31498 16.0916 7.30549 16.0628 7.29528 16.0343C7.28506 16.0058 7.27416 15.9775 7.26258 15.9495C7.251 15.9215 7.23871 15.8939 7.22576 15.8665C7.21281 15.8391 7.1992 15.812 7.18492 15.7853C7.17064 15.7586 7.15572 15.7323 7.14016 15.7063C7.12459 15.6803 7.10838 15.6547 7.09154 15.6295C7.07473 15.6044 7.05728 15.5796 7.03924 15.5553C7.02119 15.5309 7.00256 15.5071 6.98334 15.4836C6.96414 15.4602 6.94435 15.4373 6.924 15.4149C6.90367 15.3924 6.88279 15.3705 6.86136 15.3491C6.83994 15.3276 6.81802 15.3068 6.79558 15.2864C6.77314 15.2661 6.75021 15.2463 6.72679 15.2271C6.70337 15.2079 6.67948 15.1892 6.65517 15.1712C6.63083 15.1531 6.60607 15.1357 6.58089 15.1189C6.55571 15.102 6.53013 15.0859 6.50415 15.0703C6.47815 15.0547 6.45181 15.0398 6.42511 15.0255C6.39839 15.0112 6.37134 14.9976 6.34395 14.9847C6.31657 14.9717 6.28889 14.9594 6.2609 14.9478C6.23291 14.9363 6.20467 14.9254 6.17614 14.9151C6.14762 14.9049 6.11887 14.8954 6.08988 14.8867C6.0609 14.8779 6.03172 14.8698 6.00233 14.8624C5.97295 14.855 5.9434 14.8484 5.91369 14.8425C5.88398 14.8366 5.85414 14.8314 5.82418 14.827C5.79422 14.8225 5.76416 14.8188 5.73402 14.8159C5.70388 14.8129 5.67367 14.8107 5.64341 14.8092C5.61316 14.8077 5.5829 14.807 5.55261 14.807C5.52232 14.807 5.49204 14.8077 5.46179 14.8092C5.43153 14.8107 5.40132 14.8129 5.37118 14.8159C5.34104 14.8188 5.31099 14.8225 5.28102 14.827C5.25106 14.8314 5.22122 14.8366 5.19151 14.8425C5.1618 14.8484 5.13227 14.855 5.10288 14.8624C5.0735 14.8698 5.04432 14.8779 5.01532 14.8867C4.98633 14.8954 4.95758 14.9049 4.92907 14.9151C4.90055 14.9254 4.87229 14.9363 4.8443 14.9478C4.81631 14.9594 4.78863 14.9717 4.76125 14.9847C4.73387 14.9976 4.70682 15.0112 4.68012 15.0255C4.6534 15.0398 4.62705 15.0547 4.60107 15.0703C4.57508 15.0859 4.54949 15.102 4.52431 15.1189C4.49914 15.1357 4.47437 15.1531 4.45003 15.1712C4.42572 15.1892 4.40185 15.2079 4.37843 15.2271C4.35501 15.2463 4.33208 15.2661 4.30964 15.2864C4.2872 15.3068 4.26526 15.3276 4.24384 15.3491C4.22241 15.3705 4.20153 15.3924 4.1812 15.4148C4.16087 15.4373 4.14108 15.4602 4.12186 15.4836C4.10265 15.5071 4.08401 15.5309 4.06597 15.5553C4.04794 15.5796 4.0305 15.6044 4.01366 15.6295C3.99684 15.6547 3.98063 15.6803 3.96507 15.7063C3.9495 15.7323 3.93456 15.7586 3.92028 15.7853C3.906 15.812 3.89239 15.8391 3.87944 15.8665C3.86649 15.8939 3.8542 15.9215 3.84262 15.9495C3.83104 15.9775 3.82014 16.0058 3.80993 16.0343C3.79973 16.0628 3.79024 16.0916 3.78143 16.1205C3.77264 16.1495 3.76457 16.1787 3.75721 16.2081C3.74985 16.2375 3.74321 16.267 3.73731 16.2967C3.73139 16.3264 3.72621 16.3563 3.72176 16.3862C3.71733 16.4162 3.71362 16.4463 3.71065 16.4764C3.70768 16.5065 3.70545 16.5368 3.70397 16.567C3.70248 16.5973 3.70174 16.6275 3.70174 16.6578C3.70174 16.6881 3.70248 16.7184 3.70397 16.7486C3.70545 16.7789 3.70768 16.8091 3.71065 16.8392C3.71362 16.8694 3.71733 16.8994 3.72176 16.9294C3.72621 16.9594 3.73139 16.9892 3.73731 17.0189C3.74321 17.0486 3.74985 17.0782 3.75721 17.1075C3.76457 17.1369 3.77264 17.1661 3.78143 17.1951C3.79024 17.2241 3.79973 17.2528 3.80993 17.2814C3.82014 17.3099 3.83104 17.3381 3.84262 17.3661C3.8542 17.3941 3.86649 17.4218 3.87944 17.4492C3.89239 17.4766 3.906 17.5036 3.92028 17.5303C3.93456 17.557 3.9495 17.5834 3.96507 17.6094C3.98063 17.6353 3.99684 17.6609 4.01366 17.6861C4.0305 17.7113 4.04794 17.7361 4.06597 17.7604C4.08401 17.7847 4.10265 17.8086 4.12186 17.832C4.14108 17.8554 4.16087 17.8783 4.1812 17.9008C4.20153 17.9232 4.22241 17.9452 4.24384 17.9666C4.26526 17.988 4.2872 18.0089 4.30964 18.0292C4.33208 18.0496 4.35501 18.0693 4.37843 18.0886C4.40185 18.1078 4.42572 18.1264 4.45003 18.1445C4.47437 18.1625 4.49914 18.1799 4.52431 18.1968C4.54949 18.2136 4.57508 18.2298 4.60107 18.2454C4.62705 18.2609 4.6534 18.2759 4.68012 18.2901C4.70682 18.3044 4.73387 18.318 4.76125 18.331C4.78863 18.3439 4.81631 18.3562 4.8443 18.3678C4.87229 18.3794 4.90055 18.3903 4.92907 18.4005C4.95758 18.4107 4.98633 18.4202 5.01532 18.429C5.04432 18.4378 5.0735 18.4458 5.10288 18.4532C5.13227 18.4606 5.1618 18.4672 5.19151 18.4731C5.22122 18.479 5.25106 18.4842 5.28102 18.4887C5.31099 18.4931 5.34104 18.4968 5.37118 18.4998C5.40132 18.5027 5.43153 18.505 5.46179 18.5065C5.49204 18.5079 5.52232 18.5087 5.55261 18.5087Z"   fill="#000000" ></path></svg>