<svg xmlns="http://www.w3.org/2000/svg" xmlns:xlink="http://www.w3.org/1999/xlink" width="24" height="24" viewBox="0 0 24 24" fill="none"><path d="M11.6312 2.19257C11.6324 2.18909 11.6336 2.18564 11.6349 2.18221C11.6362 2.17879 11.6375 2.17538 11.6389 2.17201C11.6403 2.16863 11.6418 2.16529 11.6434 2.16197C11.6449 2.15866 11.6465 2.15537 11.6482 2.15212C11.6499 2.14886 11.6517 2.14565 11.6535 2.14246C11.6553 2.13927 11.6571 2.13613 11.6591 2.13301C11.661 2.1299 11.663 2.12683 11.665 2.12379C11.6671 2.12076 11.6692 2.11776 11.6713 2.11481C11.6735 2.11186 11.6757 2.10895 11.678 2.10609C11.6803 2.10322 11.6826 2.1004 11.685 2.09763C11.6874 2.09485 11.6898 2.09213 11.6923 2.08945C11.6948 2.08677 11.6974 2.08414 11.7 2.08156C11.7026 2.07898 11.7052 2.07645 11.7079 2.07398C11.7106 2.0715 11.7134 2.06908 11.7162 2.06671C11.7189 2.06434 11.7218 2.06203 11.7247 2.05977C11.7276 2.05752 11.7305 2.05532 11.7334 2.05317C11.7364 2.05103 11.7394 2.04894 11.7425 2.04692C11.7455 2.04489 11.7486 2.04293 11.7517 2.04102C11.7549 2.03912 11.758 2.03728 11.7612 2.0355C11.7644 2.03371 11.7677 2.032 11.7709 2.03034C11.7742 2.02869 11.7775 2.0271 11.7808 2.02557C11.7841 2.02404 11.7875 2.02258 11.7909 2.02119C11.7943 2.01979 11.7977 2.01847 11.8011 2.0172C11.8046 2.01594 11.808 2.01475 11.8115 2.01362C11.815 2.0125 11.8185 2.01144 11.822 2.01045C11.8255 2.00946 11.8291 2.00854 11.8326 2.00769C11.8362 2.00684 11.8398 2.00606 11.8434 2.00535C11.8469 2.00464 11.8505 2.004 11.8542 2.00343C11.8578 2.00286 11.8614 2.00236 11.8651 2.00193C11.8687 2.0015 11.8723 2.00114 11.876 2.00086C11.8796 2.00057 11.8833 2.00036 11.8869 2.00021C11.8906 2.00007 11.8943 2 11.8979 2C11.9016 2 11.9053 2.00007 11.9089 2.00021C11.9126 2.00036 11.9162 2.00057 11.9199 2.00086C11.9235 2.00114 11.9272 2.0015 11.9308 2.00193C11.9344 2.00236 11.9381 2.00286 11.9417 2.00343C11.9453 2.004 11.9489 2.00464 11.9525 2.00535C11.9561 2.00606 11.9597 2.00684 11.9632 2.00769C11.9668 2.00854 11.9703 2.00946 11.9739 2.01045C11.9774 2.01144 11.9809 2.0125 11.9844 2.01362C11.9878 2.01475 11.9913 2.01594 11.9947 2.0172C11.9982 2.01847 12.0016 2.01979 12.005 2.02119C12.0084 2.02258 12.0117 2.02404 12.015 2.02557C12.0184 2.0271 12.0217 2.02869 12.0249 2.03034C12.0282 2.032 12.0314 2.03371 12.0346 2.0355C12.0378 2.03728 12.041 2.03912 12.0441 2.04102C12.0473 2.04293 12.0504 2.04489 12.0534 2.04692C12.0564 2.04894 12.0594 2.05103 12.0624 2.05317C12.0654 2.05532 12.0683 2.05752 12.0712 2.05977C12.0741 2.06203 12.0769 2.06434 12.0797 2.06671C12.0825 2.06908 12.0852 2.0715 12.0879 2.07398C12.0906 2.07645 12.0933 2.07898 12.0959 2.08156C12.0985 2.08414 12.101 2.08677 12.1035 2.08945C12.106 2.09213 12.1084 2.09485 12.1108 2.09763C12.1132 2.1004 12.1156 2.10322 12.1179 2.10609C12.1201 2.10895 12.1224 2.11186 12.1245 2.11481C12.1267 2.11776 12.1288 2.12076 12.1308 2.12379C12.1329 2.12683 12.1349 2.1299 12.1368 2.13301C12.1387 2.13613 12.1406 2.13927 12.1424 2.14246C12.1442 2.14565 12.146 2.14886 12.1476 2.15212C12.1493 2.15537 12.1509 2.15866 12.1525 2.16197C12.154 2.16529 12.1555 2.16863 12.1569 2.17201C12.1584 2.17538 12.1597 2.17879 12.161 2.18221C12.1623 2.18564 12.1635 2.18909 12.1647 2.19257L12.8055 4.13333C12.8087 4.14291 12.8124 4.1523 12.8166 4.16148C12.8208 4.1707 12.8255 4.17964 12.8307 4.18831C12.8358 4.19702 12.8414 4.20543 12.8475 4.21353C12.8535 4.22163 12.86 4.22938 12.8669 4.2368C12.8737 4.2442 12.881 4.25124 12.8886 4.25789C12.8962 4.26453 12.9042 4.27074 12.9125 4.27654C12.9207 4.28235 12.9293 4.28769 12.9382 4.29259C12.947 4.29748 12.9561 4.30189 12.9654 4.30581L14.7839 5.05971C14.7903 5.06239 14.7965 5.06527 14.8027 5.06838C14.8088 5.07148 14.8148 5.07481 14.8207 5.07835C14.8266 5.08193 14.8324 5.08568 14.838 5.08964C14.8436 5.09365 14.8491 5.09782 14.8544 5.10219C14.8597 5.10658 14.8648 5.11113 14.8698 5.1159C14.8748 5.12065 14.8796 5.12559 14.8842 5.1307C14.8888 5.1358 14.8932 5.14106 14.8975 5.14651C14.9017 5.15193 14.9057 5.15751 14.9095 5.16323C14.9133 5.16897 14.9169 5.17485 14.9203 5.18084C14.9237 5.18682 14.9269 5.19292 14.9298 5.19913C14.9328 5.20539 14.9354 5.2117 14.9379 5.21813C14.9404 5.22455 14.9426 5.23105 14.9446 5.23767C14.9466 5.24424 14.9483 5.25089 14.9499 5.25759C14.9514 5.26431 14.9526 5.27107 14.9536 5.27787C14.9546 5.2847 14.9554 5.29154 14.9559 5.29839C14.9564 5.30528 14.9566 5.31215 14.9566 5.31903C14.9566 5.3259 14.9564 5.33279 14.9559 5.33964C14.9554 5.34652 14.9546 5.35335 14.9536 5.36015C14.9526 5.36696 14.9514 5.37372 14.9499 5.38044C14.9483 5.38715 14.9466 5.39381 14.9446 5.40038C14.9426 5.40699 14.9404 5.4135 14.9379 5.4199C14.9354 5.42634 14.9328 5.43266 14.9298 5.43889C14.9269 5.4451 14.9237 5.45123 14.9203 5.4572C14.9169 5.4632 14.9133 5.46907 14.9095 5.4748C14.9057 5.48052 14.9017 5.48611 14.8975 5.49156C14.8932 5.49699 14.8888 5.50224 14.8842 5.50737C14.8796 5.51246 14.8748 5.5174 14.8698 5.52217C14.8648 5.52691 14.8597 5.53147 14.8544 5.53586C14.8491 5.54022 14.8436 5.54442 14.838 5.54838C14.8324 5.55237 14.8266 5.55612 14.8207 5.55966C14.8148 5.56324 14.8088 5.56657 14.8027 5.56966C14.7965 5.57278 14.7903 5.57566 14.7839 5.57831L12.9654 6.33223C12.9561 6.33607 12.947 6.34039 12.9381 6.34521C12.9293 6.35002 12.9207 6.35529 12.9124 6.36102C12.9041 6.36674 12.8961 6.37291 12.8885 6.3795C12.8809 6.38609 12.8736 6.39309 12.8667 6.40044C12.8598 6.40782 12.8534 6.41553 12.8473 6.42358C12.8413 6.43166 12.8357 6.44003 12.8305 6.44872C12.8254 6.45737 12.8207 6.46629 12.8165 6.47547C12.8124 6.48465 12.8087 6.49402 12.8055 6.50357L12.1647 8.44547C12.1635 8.44897 12.1623 8.4524 12.161 8.45584C12.1597 8.45925 12.1584 8.46266 12.1569 8.46605C12.1555 8.46942 12.154 8.47275 12.1525 8.47606C12.1509 8.47938 12.1493 8.48267 12.1476 8.48591C12.146 8.48919 12.1442 8.4924 12.1424 8.4956C12.1406 8.49878 12.1387 8.50191 12.1368 8.50503C12.1349 8.50814 12.1329 8.51122 12.1308 8.51425C12.1288 8.51728 12.1267 8.52027 12.1245 8.52321C12.1224 8.52618 12.1201 8.52908 12.1179 8.53195C12.1156 8.53483 12.1132 8.53765 12.1108 8.54042C12.1084 8.5432 12.106 8.54593 12.1035 8.54858C12.101 8.55128 12.0985 8.5539 12.0959 8.55647C12.0933 8.55907 12.0906 8.5616 12.0879 8.56408C12.0852 8.56654 12.0825 8.56895 12.0797 8.57133C12.0769 8.5737 12.0741 8.57601 12.0712 8.57828C12.0683 8.58052 12.0654 8.58273 12.0624 8.58487C12.0594 8.58701 12.0564 8.58911 12.0534 8.59114C12.0504 8.59316 12.0473 8.59511 12.0441 8.59701C12.041 8.59892 12.0378 8.60077 12.0346 8.60257C12.0314 8.60433 12.0282 8.60604 12.0249 8.6077C12.0217 8.60935 12.0184 8.61096 12.015 8.61246C12.0117 8.61399 12.0084 8.61545 12.005 8.61685C12.0016 8.61825 11.9982 8.61957 11.9947 8.62084C11.9913 8.62211 11.9878 8.6233 11.9844 8.62442C11.9809 8.62554 11.9774 8.6266 11.9739 8.6276C11.9703 8.62857 11.9668 8.62951 11.9632 8.63035C11.9597 8.6312 11.9561 8.63199 11.9525 8.63271C11.9489 8.63341 11.9453 8.63404 11.9417 8.63463C11.9381 8.63519 11.9344 8.63567 11.9308 8.6361C11.9272 8.63654 11.9235 8.6369 11.9199 8.6372C11.9162 8.63748 11.9126 8.63769 11.9089 8.63784C11.9053 8.63796 11.9016 8.63803 11.8979 8.63803C11.8943 8.63803 11.8906 8.63796 11.8869 8.63784C11.8833 8.63769 11.8796 8.63748 11.876 8.6372C11.8723 8.6369 11.8687 8.63654 11.8651 8.6361C11.8614 8.63567 11.8578 8.63519 11.8542 8.63463C11.8505 8.63404 11.8469 8.63341 11.8434 8.63271C11.8398 8.63199 11.8362 8.6312 11.8326 8.63035C11.8291 8.62951 11.8255 8.62857 11.822 8.6276C11.8185 8.6266 11.815 8.62554 11.8115 8.62442C11.808 8.6233 11.8046 8.62211 11.8011 8.62084C11.7977 8.61957 11.7943 8.61825 11.7909 8.61685C11.7875 8.61545 11.7841 8.61399 11.7808 8.61246C11.7775 8.61096 11.7742 8.60935 11.7709 8.6077C11.7677 8.60604 11.7644 8.60433 11.7612 8.60257C11.758 8.60077 11.7549 8.59892 11.7517 8.59701C11.7486 8.59511 11.7455 8.59316 11.7425 8.59114C11.7394 8.58911 11.7364 8.58701 11.7334 8.58487C11.7305 8.58273 11.7276 8.58052 11.7247 8.57828C11.7218 8.57601 11.7189 8.5737 11.7162 8.57133C11.7134 8.56895 11.7106 8.56654 11.7079 8.56408C11.7052 8.5616 11.7026 8.55907 11.7 8.55647C11.6974 8.5539 11.6948 8.55128 11.6923 8.54858C11.6898 8.54593 11.6874 8.5432 11.685 8.54042C11.6826 8.53765 11.6803 8.53483 11.678 8.53195C11.6757 8.52908 11.6735 8.52618 11.6713 8.52321C11.6692 8.52027 11.6671 8.51728 11.665 8.51425C11.663 8.51122 11.661 8.50814 11.6591 8.50503C11.6571 8.50191 11.6553 8.49878 11.6535 8.4956C11.6517 8.4924 11.6499 8.48919 11.6482 8.48591C11.6465 8.48267 11.6449 8.47938 11.6434 8.47606C11.6418 8.47275 11.6403 8.46942 11.6389 8.46605C11.6375 8.46266 11.6362 8.45925 11.6349 8.45584C11.6336 8.4524 11.6324 8.44897 11.6312 8.44547L10.9904 6.50357C10.9873 6.49393 10.9836 6.48446 10.9795 6.47519C10.9753 6.46589 10.9707 6.45688 10.9656 6.44813C10.9604 6.43935 10.9549 6.43088 10.9488 6.42272C10.9428 6.41453 10.9363 6.40671 10.9294 6.39925C10.9226 6.39177 10.9153 6.38469 10.9077 6.37799C10.9 6.37132 10.892 6.36507 10.8837 6.35924C10.8754 6.35341 10.8668 6.34805 10.8579 6.34315C10.849 6.33825 10.8398 6.33387 10.8305 6.32995L9.01192 5.57602C9.00562 5.57337 8.99941 5.57047 8.99333 5.56735C8.98722 5.5642 8.98125 5.56085 8.9754 5.55729C8.96955 5.55373 8.96383 5.54997 8.95825 5.54597C8.95268 5.54198 8.94725 5.53781 8.94197 5.53344C8.9367 5.52905 8.93161 5.5245 8.92667 5.51975C8.92173 5.515 8.91698 5.51006 8.91241 5.50496C8.90783 5.49987 8.90344 5.49461 8.89924 5.48919C8.89507 5.48376 8.89108 5.47819 8.88729 5.47246C8.8835 5.46676 8.87994 5.46091 8.87659 5.45494C8.87322 5.44898 8.87008 5.44288 8.86718 5.43667C8.86427 5.43048 8.86158 5.42418 8.85914 5.41778C8.85671 5.41136 8.85448 5.40489 8.85251 5.39832C8.85054 5.39178 8.8488 5.38514 8.8473 5.37846C8.84581 5.37177 8.84456 5.36503 8.84357 5.35827C8.84257 5.35146 8.84181 5.34466 8.84132 5.33786C8.84083 5.33101 8.84058 5.32416 8.84058 5.3173C8.84058 5.31045 8.84083 5.3036 8.84132 5.29678C8.84181 5.28996 8.84257 5.28313 8.84357 5.27637C8.84456 5.26957 8.84581 5.26285 8.8473 5.25617C8.8488 5.24947 8.85054 5.24284 8.85251 5.23627C8.85448 5.22972 8.85671 5.22325 8.85914 5.21685C8.86158 5.21045 8.86427 5.20414 8.86718 5.19795C8.87008 5.19174 8.87322 5.18565 8.87659 5.17968C8.87994 5.1737 8.8835 5.16787 8.88729 5.16213C8.89108 5.15643 8.89507 5.15085 8.89924 5.14545C8.90344 5.14002 8.90783 5.13477 8.91241 5.12966C8.91698 5.12457 8.92173 5.11963 8.92667 5.11489C8.93161 5.11014 8.9367 5.10556 8.94197 5.10119C8.94725 5.09681 8.95268 5.09261 8.95825 5.08862C8.96383 5.08466 8.96955 5.08087 8.9754 5.07731C8.98125 5.07375 8.98722 5.07042 8.99333 5.0673C8.99941 5.06414 9.00562 5.06126 9.01192 5.05857L10.8316 4.30467C10.8409 4.30081 10.8499 4.29647 10.8587 4.29161C10.8675 4.2868 10.876 4.2815 10.8843 4.27574C10.8925 4.26999 10.9004 4.26383 10.908 4.25721C10.9156 4.25062 10.9228 4.24365 10.9296 4.23627C10.9365 4.2289 10.9429 4.2212 10.9489 4.21315C10.9549 4.20507 10.9604 4.19672 10.9656 4.18808C10.9707 4.17941 10.9753 4.17053 10.9794 4.16137C10.9836 4.15221 10.9872 4.14287 10.9904 4.13333L11.6301 2.19143L11.6312 2.19257ZM12.6912 14.2392L20.1984 4.89066L22.186 6.49558L15.0455 15.5482L12.119 17.4959L12.6901 14.2392L12.6912 14.2392ZM20.7102 3.28688C20.6979 3.27694 20.6853 3.2673 20.6725 3.25797C20.6598 3.24864 20.6468 3.23963 20.6336 3.23094C20.6204 3.22225 20.6069 3.21389 20.5933 3.20586C20.5797 3.19784 20.5659 3.19015 20.5519 3.1828C20.5378 3.17545 20.5237 3.16845 20.5093 3.1618C20.495 3.15514 20.4805 3.14885 20.4658 3.14291C20.4511 3.13698 20.4363 3.1314 20.4214 3.12619C20.4065 3.12098 20.3914 3.11615 20.3763 3.11168C20.3611 3.10721 20.3458 3.10312 20.3304 3.0994C20.3151 3.09568 20.2996 3.09235 20.2841 3.08939C20.2685 3.08643 20.2529 3.08386 20.2373 3.08167C20.2216 3.07949 20.2059 3.07768 20.1901 3.07627C20.1744 3.07485 20.1586 3.07383 20.1428 3.07319C20.127 3.07255 20.1112 3.0723 20.0954 3.07244C20.0795 3.07258 20.0638 3.07311 20.048 3.07403C20.0322 3.07495 20.0164 3.07625 20.0007 3.07794C19.985 3.07964 19.9693 3.08171 19.9537 3.08418C19.938 3.08664 19.9225 3.08949 19.907 3.09272C19.8915 3.09595 19.8761 3.09956 19.8608 3.10355C19.8455 3.10753 19.8303 3.11189 19.8152 3.11663C19.8001 3.12137 19.7852 3.12647 19.7703 3.13194C19.7555 3.13741 19.7408 3.14325 19.7262 3.14944C19.7117 3.15564 19.6973 3.16219 19.6831 3.16909C19.6689 3.17599 19.6548 3.18324 19.6409 3.19084C19.627 3.19843 19.6134 3.20637 19.5999 3.21463C19.5864 3.2229 19.5731 3.2315 19.5601 3.24042C19.547 3.24934 19.5342 3.25858 19.5216 3.26813C19.509 3.27768 19.4966 3.28754 19.4845 3.2977C19.4724 3.30786 19.4605 3.31832 19.4489 3.32906C19.4373 3.33981 19.426 3.35083 19.4149 3.36214C19.4038 3.37344 19.393 3.38501 19.3826 3.39684C19.3721 3.40868 19.3619 3.42076 19.352 3.4331L11.3696 13.3767C11.357 13.3925 11.3448 13.4087 11.3332 13.4252C11.3216 13.4418 11.3105 13.4587 11.2999 13.4759C11.2893 13.4931 11.2793 13.5107 11.2698 13.5286C11.2604 13.5464 11.2515 13.5646 11.2431 13.583C11.2348 13.6014 11.2271 13.6201 11.2199 13.639C11.2128 13.6579 11.2062 13.6771 11.2003 13.6964C11.1943 13.7157 11.189 13.7352 11.1843 13.7549C11.1796 13.7745 11.1755 13.7943 11.172 13.8142L10.329 18.6187C10.3269 18.6303 10.3251 18.6419 10.3235 18.6535C10.3218 18.6651 10.3204 18.6767 10.3193 18.6884C10.3181 18.7001 10.3171 18.7117 10.3163 18.7234C10.3155 18.7351 10.315 18.7469 10.3146 18.7586C10.3143 18.7703 10.3142 18.782 10.3142 18.7937C10.3143 18.8055 10.3146 18.8172 10.3151 18.8289C10.3156 18.8407 10.3163 18.8524 10.3173 18.864C10.3182 18.8757 10.3194 18.8874 10.3207 18.899C10.3221 18.9107 10.3237 18.9223 10.3255 18.9339C10.3273 18.9455 10.3292 18.9571 10.3315 18.9686C10.3337 18.9801 10.3361 18.9916 10.3387 19.003C10.3413 19.0144 10.3442 19.0258 10.3472 19.0371C10.3503 19.0484 10.3535 19.0597 10.357 19.0709C10.3604 19.0821 10.3641 19.0933 10.3679 19.1043C10.3718 19.1154 10.3759 19.1264 10.3801 19.1373C10.3844 19.1483 10.3888 19.1591 10.3935 19.1699C10.3982 19.1806 10.403 19.1913 10.4081 19.2019C10.4131 19.2125 10.4183 19.223 10.4238 19.2333C10.4292 19.2438 10.4348 19.2541 10.4406 19.2642C10.4464 19.2744 10.4524 19.2845 10.4586 19.2945C10.4648 19.3045 10.4711 19.3143 10.4777 19.324C10.4842 19.3338 10.4909 19.3434 10.4978 19.3529C10.5047 19.3624 10.5117 19.3718 10.519 19.381C10.5262 19.3902 10.5336 19.3993 10.5411 19.4083C10.5487 19.4173 10.5564 19.4261 10.5643 19.4348C10.5722 19.4435 10.5802 19.452 10.5884 19.4604C10.5966 19.4688 10.6049 19.477 10.6134 19.4851C10.6219 19.4932 10.6305 19.5011 10.6393 19.5089C10.6481 19.5167 10.657 19.5243 10.6661 19.5317C10.6752 19.5392 10.6844 19.5465 10.6937 19.5536C10.703 19.5607 10.7124 19.5676 10.722 19.5744C10.7316 19.5812 10.7413 19.5877 10.7511 19.5942C10.7609 19.6006 10.7709 19.6068 10.7809 19.6128C10.791 19.6189 10.8011 19.6248 10.8114 19.6305C10.8216 19.6361 10.832 19.6416 10.8425 19.6469C10.8529 19.6522 10.8635 19.6573 10.8741 19.6622C10.8848 19.6672 10.8955 19.6719 10.9063 19.6764C10.9172 19.6809 10.9281 19.6853 10.939 19.6894C10.95 19.6935 10.961 19.6974 10.9722 19.7012C10.9833 19.7049 10.9945 19.7084 11.0057 19.7117C11.017 19.715 11.0283 19.7182 11.0397 19.721C11.051 19.7239 11.0624 19.7266 11.0739 19.7291C11.0853 19.7316 11.0968 19.7339 11.1084 19.736C11.1199 19.738 11.1315 19.7399 11.1431 19.7415C11.1547 19.7432 11.1664 19.7446 11.178 19.7458C11.1897 19.747 11.2014 19.748 11.2131 19.7489C11.2248 19.7497 11.2365 19.7502 11.2482 19.7506C11.26 19.7509 11.2717 19.7511 11.2834 19.751C11.2951 19.751 11.3068 19.7507 11.3186 19.7502C11.3303 19.7497 11.342 19.749 11.3537 19.7481C11.3654 19.7472 11.377 19.7461 11.3887 19.7447C11.4003 19.7434 11.412 19.7418 11.4236 19.74C11.4351 19.7383 11.4467 19.7363 11.4582 19.7341C11.4697 19.7319 11.4812 19.7295 11.4927 19.7269C11.5041 19.7243 11.5155 19.7215 11.5268 19.7185C11.5382 19.7154 11.5494 19.7122 11.5606 19.7088C11.5718 19.7053 11.583 19.7017 11.5941 19.6979C11.6052 19.694 11.6162 19.69 11.6271 19.6857C11.638 19.6815 11.6489 19.6771 11.6596 19.6724C11.6704 19.6678 11.6811 19.6629 11.6917 19.6579C11.7023 19.6529 11.7128 19.6477 11.7232 19.6423C11.7336 19.6369 11.7439 19.6313 11.7541 19.6255C11.7643 19.6197 11.7744 19.6137 11.7844 19.6075C11.7944 19.6014 11.8042 19.5951 11.814 19.5885L15.9971 16.8013C16.0393 16.7735 16.079 16.7425 16.1164 16.7084C16.1537 16.6743 16.1882 16.6375 16.2198 16.598L23.7932 6.99589C23.8029 6.9836 23.8125 6.97105 23.8214 6.95829C23.8305 6.94551 23.8392 6.93252 23.8476 6.91933C23.8561 6.90613 23.8644 6.89271 23.872 6.87911C23.8799 6.86552 23.8873 6.85174 23.8945 6.8378C23.9017 6.82383 23.9085 6.80969 23.9148 6.79541C23.9214 6.78112 23.9275 6.76667 23.9331 6.75206C23.939 6.7375 23.9443 6.72277 23.9492 6.70793C23.9542 6.69306 23.9589 6.67809 23.9631 6.66302C23.9674 6.64793 23.9714 6.63276 23.975 6.6175C23.9786 6.60224 23.9818 6.58689 23.9846 6.57146C23.9873 6.55601 23.9896 6.54054 23.9918 6.525C23.9939 6.50944 23.9954 6.49387 23.9966 6.47827C23.9979 6.46263 23.999 6.44698 23.9994 6.4313C24 6.41564 24.0002 6.39997 23.9998 6.38431C23.9996 6.36863 23.999 6.35296 23.9979 6.3373C23.9971 6.32168 23.9956 6.30606 23.9939 6.29048C23.9922 6.2749 23.9899 6.25937 23.9873 6.24389C23.9848 6.22844 23.982 6.21303 23.9786 6.19771C23.9754 6.18237 23.9718 6.16713 23.9676 6.15199C23.9638 6.13682 23.9593 6.12177 23.9545 6.10685C23.9498 6.09191 23.9447 6.07709 23.9392 6.0624C23.9337 6.04771 23.928 6.03317 23.9216 6.01874C23.9157 6.00435 23.9091 5.99011 23.9021 5.97603C23.8953 5.96194 23.8881 5.94803 23.8805 5.93428C23.8729 5.92057 23.865 5.90702 23.8568 5.89367C23.8487 5.88034 23.84 5.86718 23.8311 5.85425C23.8222 5.84132 23.8131 5.8286 23.8036 5.81612C23.7942 5.80363 23.7845 5.7914 23.7743 5.77939C23.7641 5.76739 23.7537 5.75563 23.7431 5.74412C23.7325 5.73263 23.7217 5.7214 23.7103 5.71042C23.6993 5.69944 23.6878 5.68876 23.676 5.67835C23.6643 5.66794 23.6524 5.65783 23.6401 5.64802L20.7125 3.28803L20.7102 3.28803L20.7102 3.28688ZM1.22263 15.0822C2.40149 14.2894 3.87046 14.1615 4.67464 14.4996C5.04131 14.6527 5.19209 14.864 5.23208 15.0959C5.2789 15.3701 5.20239 15.8864 4.63695 16.694C4.00869 17.5884 3.81222 18.5936 4.244 19.536C4.65179 20.4235 5.53935 21.0758 6.65994 21.5236C8.90912 22.4214 12.5622 22.6842 17.3164 21.9634C17.3291 21.9614 17.3417 21.9592 17.3543 21.9567C17.3669 21.9541 17.3795 21.9513 17.3919 21.9481C17.4044 21.9449 17.4167 21.9415 17.429 21.9377C17.4413 21.9339 17.4535 21.9298 17.4656 21.9255C17.4776 21.9211 17.4896 21.9165 17.5015 21.9115C17.5133 21.9066 17.5251 21.9013 17.5366 21.8958C17.5482 21.8903 17.5597 21.8844 17.571 21.8783C17.5823 21.8723 17.5935 21.8659 17.6045 21.8592C17.6155 21.8526 17.6263 21.8457 17.637 21.8385C17.6476 21.8314 17.6581 21.8239 17.6684 21.8162C17.6787 21.8086 17.6888 21.8006 17.6987 21.7924C17.7086 21.7843 17.7183 21.7758 17.7278 21.7672C17.7373 21.7585 17.7466 21.7496 17.7556 21.7405C17.7647 21.7314 17.7735 21.7221 17.7821 21.7125C17.7907 21.703 17.7991 21.6932 17.8072 21.6833C17.8153 21.6733 17.8232 21.6632 17.8308 21.6528C17.8384 21.6425 17.8458 21.632 17.8529 21.6213C17.86 21.6105 17.8668 21.5997 17.8734 21.5886C17.8799 21.5776 17.8862 21.5664 17.8923 21.555C17.8983 21.5437 17.904 21.5322 17.9095 21.5206C17.9149 21.5089 17.9201 21.4972 17.925 21.4853C17.9299 21.4734 17.9344 21.4614 17.9387 21.4493C17.943 21.4372 17.947 21.425 17.9507 21.4127C17.9544 21.4004 17.9578 21.388 17.9609 21.3755C17.9639 21.363 17.9667 21.3505 17.9692 21.3379C17.9717 21.3253 17.9738 21.3126 17.9757 21.2999C17.9775 21.2872 17.979 21.2744 17.9803 21.2616C17.9815 21.2489 17.9824 21.2361 17.983 21.2232C17.9835 21.2104 17.9838 21.1975 17.9838 21.1847C17.9838 21.1718 17.9834 21.159 17.9827 21.1462C17.9821 21.1333 17.9811 21.1205 17.9798 21.1077C17.9785 21.095 17.9769 21.0822 17.9749 21.0695C17.973 21.0568 17.9708 21.0442 17.9682 21.0316C17.9657 21.019 17.9628 21.0065 17.9597 20.994C17.9565 20.9815 17.953 20.9692 17.9493 20.9569C17.9455 20.9446 17.9414 20.9324 17.9371 20.9204C17.9327 20.9083 17.928 20.8963 17.9231 20.8844C17.9181 20.8726 17.9129 20.8609 17.9073 20.8493C17.9018 20.8377 17.896 20.8262 17.8899 20.8149C17.8838 20.8036 17.8775 20.7924 17.8708 20.7814C17.8642 20.7704 17.8573 20.7596 17.8501 20.749C17.8429 20.7383 17.8355 20.7278 17.8278 20.7175C17.8201 20.7072 17.8122 20.6971 17.804 20.6872C17.7958 20.6773 17.7874 20.6676 17.7788 20.6581C17.7701 20.6486 17.7612 20.6394 17.7521 20.6303C17.743 20.6212 17.7337 20.6124 17.7241 20.6038C17.7145 20.5952 17.7048 20.5869 17.6948 20.5787C17.6849 20.5706 17.6747 20.5628 17.6644 20.5551C17.654 20.5475 17.6435 20.5402 17.6328 20.533C17.6221 20.5259 17.6112 20.5191 17.6002 20.5125C17.5891 20.506 17.578 20.4997 17.5666 20.4936C17.5553 20.4876 17.5438 20.4819 17.5321 20.4764C17.5205 20.471 17.5088 20.4658 17.4969 20.4609C17.485 20.456 17.473 20.4515 17.4609 20.4472C17.4488 20.4429 17.4366 20.4389 17.4243 20.4352C17.4119 20.4315 17.3996 20.4281 17.3871 20.425C17.3746 20.422 17.3621 20.4192 17.3495 20.4167C17.3368 20.4143 17.3242 20.4121 17.3115 20.4103C17.2988 20.4084 17.286 20.4069 17.2732 20.4057C17.2604 20.4045 17.2476 20.4035 17.2348 20.4029C17.2219 20.4024 17.2091 20.4021 17.1962 20.4021C17.1834 20.4022 17.1705 20.4025 17.1577 20.4032C17.1449 20.4039 17.1321 20.4049 17.1193 20.4061C17.1065 20.4075 17.0938 20.4091 17.0811 20.411C12.4457 21.1135 9.11588 20.8131 7.24253 20.066C6.30012 19.6891 5.83978 19.2459 5.67186 18.8803C5.53021 18.5685 5.5268 18.1572 5.92316 17.5929C6.6017 16.6243 6.92382 15.6887 6.78217 14.8366C6.63368 13.9422 6.01227 13.3573 5.28234 13.0512C3.89217 12.4675 1.86689 12.7576 0.347636 13.7765C0.336961 13.7837 0.326469 13.7912 0.31616 13.7988C0.305849 13.8065 0.295734 13.8145 0.285815 13.8226C0.275894 13.8308 0.26618 13.8392 0.256672 13.8479C0.247166 13.8565 0.237877 13.8654 0.228807 13.8745C0.219736 13.8837 0.210894 13.893 0.202282 13.9025C0.193668 13.9121 0.185295 13.9218 0.177162 13.9318C0.169027 13.9417 0.161143 13.9519 0.153508 13.9622C0.145873 13.9726 0.138495 13.9831 0.131377 13.9938C0.124259 14.0045 0.117408 14.0154 0.110824 14.0265C0.104239 14.0375 0.0979297 14.0487 0.0918949 14.0601C0.0858601 14.0714 0.0801078 14.0829 0.074638 14.0946C0.0691682 14.1062 0.0639867 14.118 0.0590937 14.1299C0.0542019 14.1417 0.0496041 14.1537 0.0453 14.1659C0.0409975 14.178 0.0369944 14.1902 0.033291 14.2025C0.0295876 14.2148 0.0261886 14.2272 0.0230942 14.2397C0.0199997 14.2522 0.0172132 14.2647 0.0147349 14.2773C0.0122565 14.29 0.0100889 14.3026 0.00823228 14.3154C0.00637559 14.3281 0.00483193 14.3408 0.0036012 14.3537C0.00237188 14.3665 0.00145695 14.3793 0.000856466 14.3921C0.000255937 14.405 -2.87833e-05 14.4178 2.30429e-06 14.4307C3.33919e-05 14.4435 0.00037956 14.4564 0.00104085 14.4692C0.00170214 14.482 0.0026785 14.4949 0.00396995 14.5077C0.00526004 14.5205 0.00686377 14.5332 0.00878123 14.5459C0.0106972 14.5586 0.0129248 14.5713 0.015464 14.5839C0.0180031 14.5965 0.0208496 14.609 0.0240034 14.6215C0.0271572 14.634 0.0306156 14.6464 0.0343783 14.6587C0.0381396 14.671 0.0422007 14.6832 0.0465611 14.6952C0.0509216 14.7074 0.0555768 14.7193 0.0605264 14.7312C0.0654746 14.7431 0.0707121 14.7548 0.0762382 14.7664C0.0817631 14.778 0.0875696 14.7895 0.0936583 14.8008C0.0997467 14.8122 0.106109 14.8233 0.112746 14.8343C0.119383 14.8454 0.126286 14.8562 0.133456 14.8669C0.140625 14.8775 0.148053 14.888 0.155738 14.8983C0.163422 14.9087 0.171355 14.9188 0.179536 14.9287C0.187717 14.9386 0.196136 14.9483 0.204794 14.9578C0.213452 14.9673 0.222339 14.9766 0.231452 14.9857C0.240566 14.9948 0.249898 15.0036 0.259447 15.0122C0.268995 15.0208 0.278747 15.0292 0.288706 15.0373C0.298666 15.0455 0.30882 15.0534 0.319165 15.061C0.329511 15.0686 0.340038 15.076 0.350748 15.0831C0.361458 15.0902 0.372333 15.0971 0.383377 15.1037C0.394422 15.1103 0.405623 15.1166 0.416978 15.1226C0.428332 15.1286 0.439828 15.1344 0.451466 15.1399C0.463104 15.1453 0.474867 15.1505 0.486757 15.1554C0.49865 15.1603 0.510655 15.1649 0.522772 15.1692C0.534889 15.1735 0.547104 15.1775 0.559418 15.1812C0.571732 15.1849 0.584129 15.1883 0.596611 15.1914C0.609092 15.1945 0.62164 15.1973 0.634257 15.1998C0.646874 15.2023 0.659547 15.2044 0.67227 15.2063C0.684993 15.2081 0.697755 15.2097 0.710554 15.2109C0.723354 15.2121 0.736177 15.2131 0.749021 15.2137C0.761867 15.2142 0.774718 15.2145 0.787576 15.2145C0.800435 15.2145 0.813286 15.2141 0.826128 15.2135C0.83897 15.2128 0.851786 15.2118 0.86458 15.2105C0.877373 15.2092 0.890128 15.2076 0.902843 15.2057C0.915558 15.2038 0.928219 15.2016 0.940824 15.199C0.953429 15.1965 0.965965 15.1937 0.97843 15.1905C0.990897 15.1874 1.00328 15.1839 1.01557 15.1801C1.02787 15.1764 1.04007 15.1723 1.05216 15.1679C1.06426 15.1636 1.07624 15.1589 1.08811 15.154C1.09998 15.149 1.11172 15.1438 1.12333 15.1383C1.13494 15.1328 1.14641 15.1269 1.15773 15.1208C1.16906 15.1148 1.18023 15.1084 1.19124 15.1017C1.20226 15.0951 1.2131 15.0882 1.22378 15.081L1.22263 15.0822ZM8.42136 8.59971C8.41999 8.59557 8.41846 8.5915 8.41676 8.5875C8.41507 8.58351 8.41323 8.57957 8.41123 8.57571C8.40924 8.57188 8.4071 8.56812 8.40481 8.56442C8.4025 8.56073 8.40006 8.55715 8.3975 8.55363C8.39493 8.55015 8.39222 8.54676 8.38938 8.54348C8.38656 8.54019 8.38359 8.53701 8.3805 8.53396C8.37743 8.53089 8.37423 8.52796 8.37092 8.52518C8.36759 8.52237 8.36418 8.5197 8.36066 8.51715C8.35714 8.51461 8.35352 8.51221 8.34981 8.50994C8.3461 8.50772 8.34231 8.5056 8.33843 8.50363C8.33455 8.50168 8.33061 8.49988 8.3266 8.49822C8.3226 8.49657 8.31851 8.49507 8.31437 8.49375C8.31024 8.49242 8.30606 8.49123 8.30185 8.49021C8.29763 8.48922 8.29337 8.48837 8.28909 8.48771C8.28478 8.48701 8.28048 8.48652 8.27616 8.48619C8.27183 8.48585 8.26749 8.4857 8.26314 8.4857C8.2588 8.4857 8.25448 8.48585 8.25015 8.48619C8.24583 8.48652 8.24152 8.48701 8.23722 8.48771C8.23294 8.48837 8.22868 8.48922 8.22446 8.49021C8.22025 8.49123 8.21605 8.49242 8.21192 8.49375C8.20778 8.49507 8.20371 8.49657 8.19971 8.49822C8.1957 8.49988 8.19176 8.50168 8.18788 8.50363C8.184 8.5056 8.18021 8.50772 8.1765 8.50994C8.17279 8.51221 8.16917 8.51461 8.16565 8.51715C8.16213 8.5197 8.15872 8.52237 8.15539 8.52518C8.15208 8.52796 8.14888 8.53089 8.14581 8.53396C8.14271 8.53701 8.13975 8.54019 8.13691 8.54348C8.13409 8.54676 8.13138 8.55015 8.12881 8.55363C8.12625 8.55715 8.12381 8.56073 8.1215 8.56442C8.11921 8.56812 8.11707 8.57188 8.11508 8.57571C8.11308 8.57957 8.11124 8.58351 8.10954 8.5875C8.10785 8.5915 8.10632 8.59557 8.10495 8.59971L7.72456 9.73056C7.72272 9.73628 7.72055 9.7419 7.7181 9.74739C7.71566 9.7529 7.7129 9.75824 7.70987 9.76343C7.70684 9.76863 7.70354 9.77365 7.69995 9.7785C7.69637 9.78333 7.69254 9.78795 7.68844 9.79238C7.68438 9.79679 7.68007 9.80099 7.67554 9.80493C7.671 9.80892 7.66627 9.8126 7.66134 9.81606C7.6564 9.81949 7.65129 9.82267 7.64601 9.82557C7.64073 9.82846 7.63531 9.83106 7.62976 9.83335L6.55715 10.2697C6.55335 10.2713 6.54962 10.273 6.54596 10.2748C6.54229 10.2766 6.53869 10.2786 6.53517 10.2807C6.53165 10.2828 6.52822 10.2851 6.52485 10.2874C6.52148 10.2898 6.51821 10.2922 6.51505 10.2949C6.51187 10.2974 6.5088 10.3001 6.50581 10.303C6.50285 10.3058 6.49998 10.3087 6.49723 10.3118C6.49445 10.3148 6.4918 10.318 6.48928 10.3212C6.48676 10.3244 6.48436 10.3277 6.48207 10.3311C6.47978 10.3345 6.47762 10.338 6.47561 10.3416C6.4736 10.3451 6.47169 10.3488 6.46993 10.3525C6.46817 10.3562 6.46656 10.36 6.4651 10.3638C6.46361 10.3676 6.46228 10.3715 6.46107 10.3754C6.45988 10.3794 6.45884 10.3833 6.45793 10.3873C6.45704 10.3913 6.4563 10.3954 6.45569 10.3994C6.45507 10.4035 6.45463 10.4075 6.45433 10.4116C6.45401 10.4157 6.45386 10.4198 6.45386 10.4239C6.45386 10.428 6.45401 10.4321 6.45433 10.4362C6.45463 10.4403 6.45507 10.4444 6.45569 10.4485C6.4563 10.4525 6.45704 10.4565 6.45793 10.4605C6.45884 10.4645 6.45988 10.4685 6.46107 10.4724C6.46228 10.4763 6.46361 10.4802 6.4651 10.4841C6.46656 10.4879 6.46817 10.4916 6.46993 10.4953C6.47169 10.4991 6.4736 10.5027 6.47561 10.5063C6.47762 10.5098 6.47978 10.5133 6.48207 10.5167C6.48436 10.5201 6.48676 10.5235 6.48928 10.5267C6.4918 10.5299 6.49445 10.533 6.49723 10.5361C6.49998 10.5391 6.50285 10.542 6.50581 10.5449C6.5088 10.5477 6.51187 10.5504 6.51505 10.553C6.51821 10.5556 6.52148 10.5581 6.52485 10.5604C6.52822 10.5628 6.53165 10.565 6.53517 10.5671C6.53869 10.5692 6.54229 10.5712 6.54596 10.5731C6.54962 10.5749 6.55335 10.5766 6.55715 10.5781L7.62861 11.0156C7.67431 11.0351 7.70858 11.0705 7.72227 11.1162L8.10495 12.2482C8.10632 12.2523 8.10785 12.2564 8.10954 12.2603C8.11124 12.2643 8.11308 12.2683 8.11508 12.2721C8.11707 12.276 8.11921 12.2797 8.1215 12.2834C8.12381 12.2871 8.12625 12.2907 8.12881 12.2942C8.13138 12.2977 8.13409 12.3011 8.13691 12.3044C8.13975 12.3077 8.14271 12.3109 8.14581 12.3139C8.14888 12.317 8.15208 12.3199 8.15539 12.3227C8.15872 12.3255 8.16213 12.3282 8.16565 12.3307C8.16917 12.3332 8.17279 12.3356 8.1765 12.3379C8.18021 12.3402 8.184 12.3423 8.18788 12.3442C8.19176 12.3462 8.1957 12.348 8.19971 12.3497C8.20371 12.3513 8.20778 12.3528 8.21192 12.3541C8.21605 12.3554 8.22025 12.3566 8.22446 12.3576C8.22868 12.3586 8.23294 12.3595 8.23722 12.3602C8.24152 12.3608 8.24583 12.3614 8.25015 12.3617C8.25448 12.362 8.2588 12.3622 8.26314 12.3622C8.26749 12.3622 8.27183 12.362 8.27616 12.3617C8.28048 12.3614 8.28478 12.3608 8.28909 12.3602C8.29337 12.3595 8.29763 12.3586 8.30185 12.3576C8.30606 12.3566 8.31024 12.3554 8.31437 12.3541C8.31851 12.3528 8.3226 12.3513 8.3266 12.3497C8.33061 12.348 8.33455 12.3462 8.33843 12.3442C8.34231 12.3423 8.3461 12.3402 8.34981 12.3379C8.35352 12.3356 8.35714 12.3332 8.36066 12.3307C8.36418 12.3282 8.36759 12.3255 8.37092 12.3227C8.37423 12.3199 8.37743 12.317 8.3805 12.3139C8.38359 12.3109 8.38656 12.3077 8.38938 12.3044C8.39222 12.3011 8.39493 12.2977 8.3975 12.2942C8.40006 12.2907 8.4025 12.2871 8.40481 12.2834C8.4071 12.2797 8.40924 12.276 8.41123 12.2721C8.41323 12.2683 8.41507 12.2643 8.41676 12.2603C8.41846 12.2564 8.41999 12.2523 8.42136 12.2482L8.80175 11.1173C8.80366 11.1116 8.80588 11.106 8.8084 11.1006C8.81093 11.0951 8.81372 11.0898 8.81682 11.0846C8.81991 11.0794 8.82328 11.0745 8.82691 11.0697C8.83053 11.0649 8.83443 11.0603 8.83856 11.0559C8.8427 11.0516 8.84704 11.0474 8.85162 11.0435C8.8562 11.0396 8.86097 11.036 8.86595 11.0326C8.87093 11.0292 8.87606 11.0261 8.88136 11.0233C8.88668 11.0204 8.89212 11.0179 8.8977 11.0156L9.97145 10.5793C9.97529 10.5777 9.97906 10.5761 9.98277 10.5742C9.98648 10.5724 9.99012 10.5705 9.99368 10.5684C9.99727 10.5663 10.0007 10.5641 10.0041 10.5617C10.0075 10.5594 10.0109 10.5569 10.0141 10.5543C10.0173 10.5517 10.0204 10.549 10.0234 10.5462C10.0264 10.5433 10.0293 10.5404 10.0321 10.5373C10.0349 10.5343 10.0376 10.5312 10.0402 10.5279C10.0428 10.5247 10.0452 10.5214 10.0475 10.5179C10.0498 10.5145 10.052 10.511 10.054 10.5074C10.0561 10.5038 10.058 10.5002 10.0598 10.4964C10.0616 10.4927 10.0632 10.4889 10.0647 10.4851C10.0662 10.4812 10.0676 10.4773 10.0688 10.4734C10.07 10.4694 10.0711 10.4654 10.072 10.4614C10.0729 10.4574 10.0737 10.4533 10.0743 10.4492C10.0749 10.4451 10.0753 10.441 10.0757 10.4369C10.076 10.4328 10.0761 10.4286 10.0761 10.4245C10.0761 10.4204 10.076 10.4162 10.0757 10.4121C10.0753 10.408 10.0749 10.4039 10.0743 10.3998C10.0737 10.3957 10.0729 10.3916 10.072 10.3876C10.0711 10.3836 10.07 10.3796 10.0688 10.3756C10.0676 10.3717 10.0662 10.3678 10.0647 10.3639C10.0632 10.3601 10.0616 10.3563 10.0598 10.3525C10.058 10.3488 10.0561 10.3452 10.054 10.3416C10.052 10.338 10.0498 10.3345 10.0475 10.3311C10.0452 10.3277 10.0428 10.3243 10.0402 10.3211C10.0376 10.3178 10.0349 10.3147 10.0321 10.3117C10.0293 10.3086 10.0264 10.3057 10.0234 10.3028C10.0204 10.3 10.0173 10.2973 10.0141 10.2947C10.0109 10.2921 10.0075 10.2896 10.0041 10.2873C10.0007 10.2849 9.99727 10.2827 9.99368 10.2806C9.99012 10.2785 9.98648 10.2766 9.98277 10.2748C9.97906 10.2729 9.97529 10.2713 9.97145 10.2697L8.89655 9.83335C8.89106 9.83113 8.8857 9.82858 8.88047 9.82577C8.87523 9.82295 8.87017 9.81985 8.86527 9.8165C8.86037 9.81313 8.85565 9.80951 8.85113 9.80565C8.84662 9.80182 8.84234 9.7977 8.83825 9.7934C8.83418 9.78906 8.83034 9.78454 8.82674 9.77979C8.82316 9.77507 8.81983 9.77015 8.81675 9.76509C8.81368 9.75998 8.8109 9.75474 8.80838 9.74936C8.80588 9.74397 8.80368 9.73846 8.80175 9.73285L8.42022 8.59971L8.42136 8.59971Z"   fill="#000000" ></path></svg>