<svg xmlns="http://www.w3.org/2000/svg" xmlns:xlink="http://www.w3.org/1999/xlink" width="24" height="24" viewBox="0 0 24 24" fill="none"><path d="M12 6.04C12.0113 6.04 12.0187 6.04 12.03 6.04C12.0412 6.04 12.0588 6.04 12.07 6.04C12.0812 6.04 12.0889 6.05 12.1 6.05C12.1111 6.05 12.119 6.05 12.13 6.05C12.141 6.05 12.1591 6.06 12.17 6.06C12.1809 6.06 12.1892 6.07 12.2 6.07C12.2108 6.07 12.2194 6.08 12.23 6.08C12.2406 6.08 12.2496 6.09 12.26 6.09C12.2704 6.09 12.2798 6.11 12.29 6.11C12.3002 6.11 12.32 6.12 12.32 6.12L12.35 6.14L12.38 6.16L12.41 6.18L12.44 6.2L12.46 6.22L12.49 6.24L12.51 6.27L12.53 6.29L12.55 6.32L12.57 6.35L12.59 6.38L12.61 6.41C12.61 6.41 12.62 6.42982 12.62 6.44C12.62 6.45018 12.64 6.4596 12.64 6.47C12.64 6.4804 12.65 6.4894 12.65 6.5C12.65 6.5106 12.66 6.51925 12.66 6.53C12.66 6.54075 12.67 6.54907 12.67 6.56C12.67 6.5709 12.67 6.58897 12.67 6.6C12.67 6.61105 12.68 6.61887 12.68 6.63C12.68 6.64113 12.68 6.6488 12.68 6.66C12.68 6.6712 12.69 6.68877 12.69 6.7C12.69 6.71125 12.69 6.71875 12.69 6.73L12.69 17.27C12.69 17.2813 12.69 17.2887 12.69 17.3C12.69 17.3112 12.68 17.3288 12.68 17.34C12.68 17.3512 12.68 17.3589 12.68 17.37C12.68 17.3811 12.67 17.3889 12.67 17.4C12.67 17.411 12.67 17.4291 12.67 17.44C12.67 17.4509 12.66 17.4592 12.66 17.47C12.66 17.4808 12.65 17.4894 12.65 17.5C12.65 17.5106 12.64 17.5196 12.64 17.53C12.64 17.5404 12.62 17.5498 12.62 17.56C12.62 17.5702 12.61 17.59 12.61 17.59L12.59 17.62L12.57 17.65L12.55 17.68L12.53 17.71L12.51 17.73L12.49 17.76L12.46 17.78L12.44 17.8L12.41 17.82L12.38 17.84L12.35 17.86L12.32 17.88C12.32 17.88 12.3002 17.89 12.29 17.89C12.2798 17.89 12.2704 17.91 12.26 17.91C12.2496 17.91 12.2406 17.92 12.23 17.92C12.2194 17.92 12.2108 17.93 12.2 17.93C12.1892 17.93 12.1809 17.94 12.17 17.94C12.1591 17.94 12.141 17.95 12.13 17.95C12.119 17.95 12.1111 17.95 12.1 17.95C12.0889 17.95 12.0812 17.96 12.07 17.96C12.0588 17.96 12.0412 17.96 12.03 17.96C12.0187 17.96 12.0113 17.96 12 17.96C11.9887 17.96 11.9813 17.96 11.97 17.96C11.9588 17.96 11.9412 17.96 11.93 17.96C11.9188 17.96 11.9111 17.95 11.9 17.95C11.8889 17.95 11.881 17.95 11.87 17.95C11.859 17.95 11.8409 17.94 11.83 17.94C11.8191 17.94 11.8108 17.93 11.8 17.93C11.7892 17.93 11.7806 17.92 11.77 17.92C11.7594 17.92 11.7504 17.91 11.74 17.91C11.7296 17.91 11.7202 17.89 11.71 17.89C11.6998 17.89 11.68 17.88 11.68 17.88L11.65 17.86L11.62 17.84L11.59 17.82L11.56 17.8L11.54 17.78L11.51 17.76L11.49 17.73L11.47 17.71L11.45 17.68L11.43 17.65L11.41 17.62L11.39 17.59C11.39 17.59 11.38 17.5702 11.38 17.56C11.38 17.5498 11.36 17.5404 11.36 17.53C11.36 17.5196 11.35 17.5106 11.35 17.5C11.35 17.4894 11.34 17.4808 11.34 17.47C11.34 17.4592 11.33 17.4509 11.33 17.44C11.33 17.4291 11.33 17.411 11.33 17.4C11.33 17.3889 11.32 17.3811 11.32 17.37C11.32 17.3589 11.32 17.3512 11.32 17.34C11.32 17.3288 11.31 17.3112 11.31 17.3C11.31 17.2887 11.31 17.2813 11.31 17.27L11.31 6.73C11.31 6.71875 11.31 6.71125 11.31 6.7C11.31 6.68877 11.32 6.6712 11.32 6.66C11.32 6.6488 11.32 6.64113 11.32 6.63C11.32 6.61887 11.33 6.61105 11.33 6.6C11.33 6.58897 11.33 6.5709 11.33 6.56C11.33 6.5491 11.34 6.54078 11.34 6.53C11.34 6.51925 11.35 6.5106 11.35 6.5C11.35 6.4894 11.36 6.4804 11.36 6.47C11.36 6.4596 11.38 6.45018 11.38 6.44C11.38 6.42982 11.39 6.41 11.39 6.41L11.41 6.38L11.43 6.35L11.45 6.32L11.47 6.29L11.49 6.27L11.51 6.24L11.54 6.22L11.56 6.2L11.59 6.18L11.62 6.16L11.65 6.14L11.68 6.12C11.68 6.12 11.6998 6.11 11.71 6.11C11.7202 6.11 11.7296 6.09 11.74 6.09C11.7504 6.09 11.7594 6.08 11.77 6.08C11.7806 6.08 11.7892 6.07 11.8 6.07C11.8108 6.07 11.8191 6.06 11.83 6.06C11.8409 6.06 11.859 6.05 11.87 6.05C11.881 6.05 11.8889 6.05 11.9 6.05C11.9111 6.05 11.9188 6.04 11.93 6.04C11.9412 6.04 11.9588 6.04 11.97 6.04C11.9813 6.04 11.9887 6.04 12 6.04ZM6.5 10.17C6.51125 10.17 6.51877 10.17 6.53 10.17C6.54125 10.17 6.5588 10.17 6.57 10.17C6.5812 10.17 6.58887 10.17 6.6 10.17C6.61113 10.17 6.61897 10.18 6.63 10.18C6.64105 10.18 6.6591 10.19 6.67 10.19C6.6809 10.19 6.68922 10.2 6.7 10.2C6.71075 10.2 6.7194 10.21 6.73 10.21C6.7406 10.21 6.7496 10.22 6.76 10.22C6.7704 10.22 6.77982 10.23 6.79 10.23C6.80015 10.23 6.82 10.25 6.82 10.25L6.85 10.26L6.88 10.28L6.91 10.3L6.94 10.32L6.96 10.34L6.99 10.37L7.01 10.39L7.03 10.42L7.05 10.44L7.07 10.47L7.09 10.5L7.11 10.53C7.11 10.53 7.12 10.5498 7.12 10.56C7.12 10.5702 7.14 10.5796 7.14 10.59C7.14 10.6004 7.15 10.6094 7.15 10.62C7.15 10.6306 7.16 10.6392 7.16 10.65C7.16 10.6608 7.17 10.6791 7.17 10.69C7.17 10.7009 7.17 10.7089 7.17 10.72C7.17 10.731 7.18 10.7389 7.18 10.75C7.18 10.7611 7.18 10.7788 7.18 10.79C7.18 10.8012 7.19 10.8087 7.19 10.82C7.19 10.8312 7.19 10.8387 7.19 10.85L7.19 13.15C7.19 13.1613 7.19 13.1688 7.19 13.18C7.19 13.1913 7.18 13.1988 7.18 13.21C7.18 13.2212 7.18 13.2389 7.18 13.25C7.18 13.2611 7.17 13.269 7.17 13.28C7.17 13.2911 7.17 13.2991 7.17 13.31C7.17 13.3209 7.16 13.3392 7.16 13.35C7.16 13.3608 7.15 13.3694 7.15 13.38C7.15 13.3906 7.14 13.3996 7.14 13.41C7.14 13.4204 7.12 13.4298 7.12 13.44C7.12 13.4502 7.11 13.47 7.11 13.47L7.09 13.5L7.07 13.53L7.05 13.56L7.03 13.58L7.01 13.61L6.99 13.63L6.96 13.66L6.94 13.68L6.91 13.7L6.88 13.72L6.85 13.74L6.82 13.75C6.82 13.75 6.80015 13.77 6.79 13.77C6.77982 13.77 6.7704 13.78 6.76 13.78C6.7496 13.78 6.7406 13.79 6.73 13.79C6.7194 13.79 6.71078 13.8 6.7 13.8C6.68925 13.8 6.6809 13.81 6.67 13.81C6.6591 13.81 6.64105 13.82 6.63 13.82C6.61897 13.82 6.61113 13.83 6.6 13.83C6.58887 13.83 6.5812 13.83 6.57 13.83C6.5588 13.83 6.54125 13.83 6.53 13.83C6.51877 13.83 6.51125 13.83 6.5 13.83C6.48875 13.83 6.48123 13.83 6.47 13.83C6.45875 13.83 6.4412 13.83 6.43 13.83C6.4188 13.83 6.41113 13.83 6.4 13.83C6.38887 13.83 6.38105 13.82 6.37 13.82C6.35897 13.82 6.3409 13.81 6.33 13.81C6.3191 13.81 6.31078 13.8 6.3 13.8C6.28925 13.8 6.2806 13.79 6.27 13.79C6.2594 13.79 6.2504 13.78 6.24 13.78C6.2296 13.78 6.22018 13.77 6.21 13.77C6.19982 13.77 6.18 13.75 6.18 13.75L6.15 13.74L6.12 13.72L6.09 13.7L6.06 13.68L6.04 13.66L6.01 13.63L5.99 13.61L5.97 13.58L5.95 13.56L5.93 13.53L5.91 13.5L5.89 13.47C5.89 13.47 5.88 13.4502 5.88 13.44C5.88 13.4298 5.86 13.4204 5.86 13.41C5.86 13.3996 5.85 13.3906 5.85 13.38C5.85 13.3694 5.84 13.3608 5.84 13.35C5.84 13.3392 5.83 13.3209 5.83 13.31C5.83 13.2991 5.83 13.2911 5.83 13.28C5.83 13.269 5.82 13.2611 5.82 13.25C5.82 13.2389 5.82 13.2212 5.82 13.21C5.82 13.1988 5.81 13.1913 5.81 13.18C5.81 13.1688 5.81 13.1613 5.81 13.15L5.81 10.85C5.81 10.8387 5.81 10.8312 5.81 10.82C5.81 10.8087 5.82 10.8012 5.82 10.79C5.82 10.7788 5.82 10.7611 5.82 10.75C5.82 10.7389 5.83 10.731 5.83 10.72C5.83 10.7089 5.83 10.7009 5.83 10.69C5.83 10.6791 5.84 10.6608 5.84 10.65C5.84 10.6392 5.85 10.6306 5.85 10.62C5.85 10.6094 5.86 10.6004 5.86 10.59C5.86 10.5796 5.88 10.5702 5.88 10.56C5.88 10.5498 5.89 10.53 5.89 10.53L5.91 10.5L5.93 10.47L5.95 10.44L5.97 10.42L5.99 10.39L6.01 10.37L6.04 10.34L6.06 10.32L6.09 10.3L6.12 10.28L6.15 10.26L6.18 10.25C6.18 10.25 6.19985 10.23 6.21 10.23C6.22018 10.23 6.2296 10.22 6.24 10.22C6.2504 10.22 6.2594 10.21 6.27 10.21C6.2806 10.21 6.28925 10.2 6.3 10.2C6.31078 10.2 6.3191 10.19 6.33 10.19C6.3409 10.19 6.35897 10.18 6.37 10.18C6.38105 10.18 6.38887 10.17 6.4 10.17C6.41113 10.17 6.4188 10.17 6.43 10.17C6.4412 10.17 6.45875 10.17 6.47 10.17C6.48123 10.17 6.48875 10.17 6.5 10.17ZM17.5 10.17C17.5113 10.17 17.5188 10.17 17.53 10.17C17.5413 10.17 17.5588 10.17 17.57 10.17C17.5812 10.17 17.5889 10.17 17.6 10.17C17.6111 10.17 17.6189 10.18 17.63 10.18C17.641 10.18 17.6591 10.19 17.67 10.19C17.6809 10.19 17.6892 10.2 17.7 10.2C17.7108 10.2 17.7194 10.21 17.73 10.21C17.7406 10.21 17.7496 10.22 17.76 10.22C17.7704 10.22 17.7798 10.23 17.79 10.23C17.8002 10.23 17.82 10.25 17.82 10.25L17.85 10.26L17.88 10.28L17.91 10.3L17.94 10.32L17.96 10.34L17.99 10.37L18.01 10.39L18.03 10.42L18.05 10.44L18.07 10.47L18.09 10.5L18.11 10.53C18.11 10.53 18.12 10.5498 18.12 10.56C18.12 10.5702 18.14 10.5796 18.14 10.59C18.14 10.6004 18.15 10.6094 18.15 10.62C18.15 10.6306 18.16 10.6392 18.16 10.65C18.16 10.6608 18.17 10.6791 18.17 10.69C18.17 10.7009 18.17 10.7089 18.17 10.72C18.17 10.731 18.18 10.7389 18.18 10.75C18.18 10.7611 18.18 10.7788 18.18 10.79C18.18 10.8012 18.19 10.8087 18.19 10.82C18.19 10.8312 18.19 10.8387 18.19 10.85L18.19 13.15C18.19 13.1613 18.19 13.1688 18.19 13.18C18.19 13.1913 18.18 13.1988 18.18 13.21C18.18 13.2212 18.18 13.2389 18.18 13.25C18.18 13.2611 18.17 13.269 18.17 13.28C18.17 13.2911 18.17 13.2991 18.17 13.31C18.17 13.3209 18.16 13.3392 18.16 13.35C18.16 13.3608 18.15 13.3694 18.15 13.38C18.15 13.3906 18.14 13.3996 18.14 13.41C18.14 13.4204 18.12 13.4298 18.12 13.44C18.12 13.4502 18.11 13.47 18.11 13.47L18.09 13.5L18.07 13.53L18.05 13.56L18.03 13.58L18.01 13.61L17.99 13.63L17.96 13.66L17.94 13.68L17.91 13.7L17.88 13.72L17.85 13.74L17.82 13.75C17.82 13.75 17.8002 13.77 17.79 13.77C17.7798 13.77 17.7704 13.78 17.76 13.78C17.7496 13.78 17.7406 13.79 17.73 13.79C17.7194 13.79 17.7108 13.8 17.7 13.8C17.6892 13.8 17.6809 13.81 17.67 13.81C17.6591 13.81 17.641 13.82 17.63 13.82C17.6189 13.82 17.6111 13.83 17.6 13.83C17.5889 13.83 17.5812 13.83 17.57 13.83C17.5588 13.83 17.5413 13.83 17.53 13.83C17.5188 13.83 17.5113 13.83 17.5 13.83C17.4887 13.83 17.4812 13.83 17.47 13.83C17.4587 13.83 17.4412 13.83 17.43 13.83C17.4188 13.83 17.4111 13.83 17.4 13.83C17.3889 13.83 17.381 13.82 17.37 13.82C17.3589 13.82 17.3409 13.81 17.33 13.81C17.3191 13.81 17.3108 13.8 17.3 13.8C17.2892 13.8 17.2806 13.79 17.27 13.79C17.2594 13.79 17.2504 13.78 17.24 13.78C17.2296 13.78 17.2202 13.77 17.21 13.77C17.1998 13.77 17.18 13.75 17.18 13.75L17.15 13.74L17.12 13.72L17.09 13.7L17.06 13.68L17.04 13.66L17.01 13.63L16.99 13.61L16.97 13.58L16.95 13.56L16.93 13.53L16.91 13.5L16.89 13.47C16.89 13.47 16.88 13.4502 16.88 13.44C16.88 13.4298 16.86 13.4204 16.86 13.41C16.86 13.3996 16.85 13.3906 16.85 13.38C16.85 13.3694 16.84 13.3608 16.84 13.35C16.84 13.3392 16.83 13.3209 16.83 13.31C16.83 13.2991 16.83 13.2911 16.83 13.28C16.83 13.269 16.82 13.2611 16.82 13.25C16.82 13.2389 16.82 13.2212 16.82 13.21C16.82 13.1988 16.81 13.1913 16.81 13.18C16.81 13.1688 16.81 13.1613 16.81 13.15L16.81 10.85C16.81 10.8387 16.81 10.8312 16.81 10.82C16.81 10.8087 16.82 10.8012 16.82 10.79C16.82 10.7788 16.82 10.7611 16.82 10.75C16.82 10.7389 16.83 10.731 16.83 10.72C16.83 10.7089 16.83 10.7009 16.83 10.69C16.83 10.6791 16.84 10.6608 16.84 10.65C16.84 10.6392 16.85 10.6306 16.85 10.62C16.85 10.6094 16.86 10.6004 16.86 10.59C16.86 10.5796 16.88 10.5702 16.88 10.56C16.88 10.5498 16.89 10.53 16.89 10.53L16.91 10.5L16.93 10.47L16.95 10.44L16.97 10.42L16.99 10.39L17.01 10.37L17.04 10.34L17.06 10.32L17.09 10.3L17.12 10.28L17.15 10.26L17.18 10.25C17.18 10.25 17.1998 10.23 17.21 10.23C17.2202 10.23 17.2296 10.22 17.24 10.22C17.2504 10.22 17.2594 10.21 17.27 10.21C17.2806 10.21 17.2892 10.2 17.3 10.2C17.3108 10.2 17.3191 10.19 17.33 10.19C17.3409 10.19 17.3589 10.18 17.37 10.18C17.381 10.18 17.3889 10.17 17.4 10.17C17.4111 10.17 17.4188 10.17 17.43 10.17C17.4412 10.17 17.4587 10.17 17.47 10.17C17.4812 10.17 17.4887 10.17 17.5 10.17ZM9.25 8.33C9.26125 8.33 9.26875 8.33 9.28 8.33C9.29123 8.33 9.3088 8.34 9.32 8.34C9.3312 8.34 9.33887 8.34 9.35 8.34C9.36113 8.34 9.36895 8.35 9.38 8.35C9.39103 8.35 9.4091 8.35 9.42 8.35C9.4309 8.35 9.43922 8.36 9.45 8.36C9.46075 8.36 9.4694 8.37 9.48 8.37C9.4906 8.37 9.4996 8.39 9.51 8.39C9.5204 8.39 9.52982 8.4 9.54 8.4C9.55018 8.4 9.57 8.41 9.57 8.41L9.6 8.43L9.63 8.45L9.66 8.47L9.69 8.49L9.71 8.51L9.74 8.53L9.76 8.56L9.78 8.58L9.8 8.61L9.82 8.64L9.84 8.67L9.86 8.7C9.86 8.7 9.87 8.71982 9.87 8.73C9.87 8.74015 9.89 8.7496 9.89 8.76C9.89 8.7704 9.9 8.7794 9.9 8.79C9.9 8.8006 9.91 8.80922 9.91 8.82C9.91 8.83075 9.92 8.8391 9.92 8.85C9.92 8.8609 9.92 8.87895 9.92 8.89C9.92 8.90103 9.93 8.90887 9.93 8.92C9.93 8.93113 9.93 8.9388 9.93 8.95C9.93 8.9612 9.94 8.97875 9.94 8.99C9.94 9.00123 9.94 9.00875 9.94 9.02L9.94 14.98C9.94 14.9913 9.94 14.9987 9.94 15.01C9.94 15.0212 9.93 15.0388 9.93 15.05C9.93 15.0612 9.93 15.0689 9.93 15.08C9.93 15.0911 9.92 15.099 9.92 15.11C9.92 15.1211 9.92 15.1391 9.92 15.15C9.92 15.1609 9.91 15.1692 9.91 15.18C9.91 15.1908 9.9 15.1994 9.9 15.21C9.9 15.2206 9.89 15.2296 9.89 15.24C9.89 15.2504 9.87 15.2598 9.87 15.27C9.87 15.2802 9.86 15.3 9.86 15.3L9.84 15.33L9.82 15.36L9.8 15.39L9.78 15.42L9.76 15.44L9.74 15.47L9.71 15.49L9.69 15.51L9.66 15.53L9.63 15.55L9.6 15.57L9.57 15.59C9.57 15.59 9.55018 15.6 9.54 15.6C9.52982 15.6 9.5204 15.61 9.51 15.61C9.4996 15.61 9.4906 15.63 9.48 15.63C9.4694 15.63 9.46075 15.64 9.45 15.64C9.43922 15.64 9.4309 15.65 9.42 15.65C9.4091 15.65 9.39103 15.65 9.38 15.65C9.36895 15.65 9.36113 15.66 9.35 15.66C9.33887 15.66 9.3312 15.66 9.32 15.66C9.3088 15.66 9.29123 15.67 9.28 15.67C9.26875 15.67 9.26125 15.67 9.25 15.67C9.23875 15.67 9.23123 15.67 9.22 15.67C9.20875 15.67 9.1912 15.66 9.18 15.66C9.1688 15.66 9.16113 15.66 9.15 15.66C9.13887 15.66 9.13103 15.65 9.12 15.65C9.10895 15.65 9.0909 15.65 9.08 15.65C9.0691 15.65 9.06075 15.64 9.05 15.64C9.03922 15.64 9.0306 15.63 9.02 15.63C9.0094 15.63 9.0004 15.61 8.99 15.61C8.9796 15.61 8.97018 15.6 8.96 15.6C8.94985 15.6 8.93 15.59 8.93 15.59L8.9 15.57L8.87 15.55L8.84 15.53L8.81 15.51L8.79 15.49L8.76 15.47L8.74 15.44L8.72 15.42L8.7 15.39L8.68 15.36L8.66 15.33L8.64 15.3C8.64 15.3 8.63 15.2802 8.63 15.27C8.63 15.2598 8.61 15.2504 8.61 15.24C8.61 15.2296 8.6 15.2206 8.6 15.21C8.6 15.1994 8.59 15.1908 8.59 15.18C8.59 15.1692 8.58 15.1609 8.58 15.15C8.58 15.1391 8.58 15.1211 8.58 15.11C8.58 15.099 8.57 15.0911 8.57 15.08C8.57 15.0689 8.57 15.0612 8.57 15.05C8.57 15.0388 8.56 15.0212 8.56 15.01C8.56 14.9987 8.56 14.9913 8.56 14.98L8.56 9.02C8.56 9.00875 8.56 9.00123 8.56 8.99C8.56 8.97875 8.57 8.9612 8.57 8.95C8.57 8.9388 8.57 8.93113 8.57 8.92C8.57 8.90887 8.58 8.90103 8.58 8.89C8.58 8.87895 8.58 8.8609 8.58 8.85C8.58 8.8391 8.59 8.83075 8.59 8.82C8.59 8.80922 8.6 8.8006 8.6 8.79C8.6 8.7794 8.61 8.7704 8.61 8.76C8.61 8.7496 8.63 8.74015 8.63 8.73C8.63 8.71982 8.64 8.7 8.64 8.7L8.66 8.67L8.68 8.64L8.7 8.61L8.72 8.58L8.74 8.56L8.76 8.53L8.79 8.51L8.81 8.49L8.84 8.47L8.87 8.45L8.9 8.43L8.93 8.41C8.93 8.41 8.94985 8.4 8.96 8.4C8.97018 8.4 8.9796 8.39 8.99 8.39C9.0004 8.39 9.0094 8.37 9.02 8.37C9.0306 8.37 9.03922 8.36 9.05 8.36C9.06075 8.36 9.0691 8.35 9.08 8.35C9.0909 8.35 9.10895 8.35 9.12 8.35C9.13103 8.35 9.13887 8.34 9.15 8.34C9.16113 8.34 9.1688 8.34 9.18 8.34C9.1912 8.34 9.20875 8.33 9.22 8.33C9.23123 8.33 9.23875 8.33 9.25 8.33ZM14.75 8.33C14.7613 8.33 14.7688 8.33 14.78 8.33C14.7913 8.33 14.8088 8.34 14.82 8.34C14.8312 8.34 14.8389 8.34 14.85 8.34C14.8611 8.34 14.869 8.35 14.88 8.35C14.8911 8.35 14.9091 8.35 14.92 8.35C14.9309 8.35 14.9392 8.36 14.95 8.36C14.9608 8.36 14.9694 8.37 14.98 8.37C14.9906 8.37 14.9996 8.39 15.01 8.39C15.0204 8.39 15.0298 8.4 15.04 8.4C15.0502 8.4 15.07 8.41 15.07 8.41L15.1 8.43L15.13 8.45L15.16 8.47L15.19 8.49L15.21 8.51L15.24 8.53L15.26 8.56L15.28 8.58L15.3 8.61L15.32 8.64L15.34 8.67L15.36 8.7C15.36 8.7 15.37 8.71982 15.37 8.73C15.37 8.74015 15.39 8.7496 15.39 8.76C15.39 8.7704 15.4 8.7794 15.4 8.79C15.4 8.8006 15.41 8.80922 15.41 8.82C15.41 8.83075 15.42 8.8391 15.42 8.85C15.42 8.8609 15.42 8.87895 15.42 8.89C15.42 8.90103 15.43 8.90887 15.43 8.92C15.43 8.93113 15.43 8.9388 15.43 8.95C15.43 8.9612 15.44 8.97875 15.44 8.99C15.44 9.00123 15.44 9.00875 15.44 9.02L15.44 14.98C15.44 14.9913 15.44 14.9988 15.44 15.01C15.44 15.0212 15.43 15.0388 15.43 15.05C15.43 15.0612 15.43 15.0689 15.43 15.08C15.43 15.0911 15.42 15.099 15.42 15.11C15.42 15.121 15.42 15.1391 15.42 15.15C15.42 15.1609 15.41 15.1692 15.41 15.18C15.41 15.1908 15.4 15.1994 15.4 15.21C15.4 15.2206 15.38 15.2296 15.38 15.24C15.38 15.2504 15.37 15.2598 15.37 15.27C15.37 15.2802 15.36 15.3 15.36 15.3L15.34 15.33L15.32 15.36L15.3 15.39L15.28 15.41L15.26 15.44L15.24 15.46L15.21 15.49L15.19 15.51L15.16 15.53L15.13 15.55L15.1 15.57L15.07 15.58C15.07 15.58 15.0502 15.6 15.04 15.6C15.0298 15.6 15.0204 15.61 15.01 15.61C14.9996 15.61 14.9906 15.63 14.98 15.63C14.9694 15.63 14.9608 15.64 14.95 15.64C14.9392 15.64 14.9309 15.65 14.92 15.65C14.9091 15.65 14.891 15.65 14.88 15.65C14.869 15.65 14.8611 15.66 14.85 15.66C14.8389 15.66 14.8312 15.66 14.82 15.66C14.8088 15.66 14.7912 15.66 14.78 15.66C14.7688 15.66 14.7613 15.67 14.75 15.67C14.7388 15.67 14.7312 15.66 14.72 15.66C14.7088 15.66 14.6912 15.66 14.68 15.66C14.6688 15.66 14.6611 15.66 14.65 15.66C14.6389 15.66 14.631 15.65 14.62 15.65C14.609 15.65 14.5909 15.65 14.58 15.65C14.5691 15.65 14.5608 15.64 14.55 15.64C14.5392 15.64 14.5306 15.63 14.52 15.63C14.5094 15.63 14.5004 15.61 14.49 15.61C14.4796 15.61 14.4702 15.6 14.46 15.6C14.4498 15.6 14.43 15.58 14.43 15.58L14.4 15.57L14.37 15.55L14.34 15.53L14.31 15.51L14.29 15.49L14.26 15.46L14.24 15.44L14.22 15.41L14.2 15.39L14.18 15.36L14.16 15.33L14.14 15.3C14.14 15.3 14.13 15.2802 14.13 15.27C14.13 15.2598 14.12 15.2504 14.12 15.24C14.12 15.2296 14.1 15.2206 14.1 15.21C14.1 15.1994 14.09 15.1908 14.09 15.18C14.09 15.1692 14.08 15.1609 14.08 15.15C14.08 15.1391 14.08 15.121 14.08 15.11C14.08 15.099 14.07 15.0911 14.07 15.08C14.07 15.0689 14.07 15.0612 14.07 15.05C14.07 15.0388 14.06 15.0212 14.06 15.01C14.06 14.9988 14.06 14.9913 14.06 14.98L14.06 9.02C14.06 9.00875 14.06 9.00123 14.06 8.99C14.06 8.97875 14.07 8.9612 14.07 8.95C14.07 8.9388 14.07 8.93113 14.07 8.92C14.07 8.90887 14.08 8.90103 14.08 8.89C14.08 8.87895 14.08 8.8609 14.08 8.85C14.08 8.8391 14.09 8.83075 14.09 8.82C14.09 8.80922 14.1 8.8006 14.1 8.79C14.1 8.7794 14.11 8.7704 14.11 8.76C14.11 8.7496 14.13 8.74015 14.13 8.73C14.13 8.71982 14.14 8.7 14.14 8.7L14.16 8.67L14.18 8.64L14.2 8.61L14.22 8.58L14.24 8.56L14.26 8.53L14.29 8.51L14.31 8.49L14.34 8.47L14.37 8.45L14.4 8.43L14.43 8.41C14.43 8.41 14.4498 8.4 14.46 8.4C14.4702 8.4 14.4796 8.39 14.49 8.39C14.5004 8.39 14.5094 8.37 14.52 8.37C14.5306 8.37 14.5392 8.36 14.55 8.36C14.5608 8.36 14.5691 8.35 14.58 8.35C14.5909 8.35 14.609 8.35 14.62 8.35C14.6311 8.35 14.6389 8.34 14.65 8.34C14.6611 8.34 14.6688 8.34 14.68 8.34C14.6912 8.34 14.7088 8.33 14.72 8.33C14.7313 8.33 14.7387 8.33 14.75 8.33ZM12 21.62C13.6248 21.62 15.1874 21.2188 16.55 20.48C17.4002 19.9882 18.5757 20.1035 20.41 20.61L20.42 20.61L20.43 20.61L20.45 20.61L20.46 20.61L20.47 20.61L20.48 20.61L20.5 20.61L20.51 20.61L20.52 20.6L20.53 20.6L20.54 20.59L20.55 20.59L20.56 20.58L20.57 20.57L20.58 20.56L20.59 20.56L20.6 20.55L20.61 20.54L20.62 20.53L20.62 20.52L20.63 20.5L20.63 20.49L20.64 20.48L20.64 20.47L20.64 20.46L20.64 20.44L20.64 20.43L20.64 20.42L20.64 20.41L20.64 20.4L20.64 20.38L20.63 20.37C20.053 18.6434 19.8984 17.5868 20.37 16.76C20.4214 16.6699 20.4716 16.5817 20.52 16.49C20.5684 16.3983 20.6146 16.3032 20.66 16.21C20.7054 16.1168 20.7477 16.0247 20.79 15.93C20.8323 15.8354 20.8708 15.736 20.91 15.64C20.9492 15.544 20.9939 15.4472 21.03 15.35C21.0661 15.2528 21.0971 15.1583 21.13 15.06C21.1629 14.9617 21.1903 14.8593 21.22 14.76C21.2497 14.6607 21.2836 14.5603 21.31 14.46C21.3365 14.3597 21.3568 14.2611 21.38 14.16C21.4032 14.0589 21.4301 13.9518 21.45 13.85C21.4699 13.7482 21.4834 13.6523 21.5 13.55C21.5166 13.4476 21.5367 13.3428 21.55 13.24C21.5633 13.1372 21.58 13.0332 21.58 12.93C21.58 12.8268 21.61 12.7235 21.61 12.62C21.61 12.5165 21.62 12.4136 21.62 12.31C21.62 12.2064 21.62 12.1037 21.62 12C21.62 6.68425 17.3158 2.37 12 2.37C6.68425 2.37 2.37 6.68425 2.37 12C2.37 17.3158 6.68425 21.62 12 21.62ZM12 23C5.9248 23 1 18.0752 1 12C1 5.9248 5.9248 1 12 1C18.0752 1 23 5.9248 23 12C23 12.0593 23 12.1207 23 12.18C23 12.2393 22.99 12.3008 22.99 12.36C22.99 12.4192 22.99 12.4708 22.99 12.53C22.99 12.5892 22.98 12.6509 22.98 12.71C22.98 12.7691 22.97 12.8309 22.97 12.89C22.97 12.9491 22.95 13.011 22.95 13.07C22.95 13.129 22.93 13.1811 22.93 13.24C22.93 13.2989 22.91 13.3612 22.91 13.42C22.91 13.4788 22.89 13.5313 22.89 13.59C22.89 13.6486 22.86 13.7115 22.86 13.77C22.86 13.8285 22.8405 13.8917 22.83 13.95C22.8196 14.0083 22.8114 14.0618 22.8 14.12C22.7886 14.1782 22.7723 14.232 22.76 14.29C22.7477 14.348 22.7333 14.4122 22.72 14.47C22.7067 14.5278 22.6942 14.5825 22.68 14.64C22.6658 14.6975 22.6551 14.7527 22.64 14.81C22.6249 14.8673 22.6061 14.923 22.59 14.98C22.5739 15.037 22.557 15.1032 22.54 15.16C22.523 15.2168 22.5079 15.2735 22.49 15.33C22.4721 15.3865 22.4488 15.4338 22.43 15.49C22.4112 15.5462 22.3997 15.6041 22.38 15.66C22.3603 15.7159 22.3306 15.7744 22.31 15.83C22.2894 15.8855 22.2715 15.9448 22.25 16C22.2285 16.0552 22.2124 16.1051 22.19 16.16C22.1676 16.2148 22.1433 16.2655 22.12 16.32C22.0967 16.3745 22.0742 16.4359 22.05 16.49C22.0258 16.5441 21.9951 16.5963 21.97 16.65C21.9449 16.7037 21.9259 16.7567 21.9 16.81C21.8741 16.8633 21.8468 16.9171 21.82 16.97C21.7932 17.0229 21.7576 17.0776 21.73 17.13C21.7024 17.1824 21.6785 17.228 21.65 17.28C21.6215 17.332 21.5894 17.3885 21.56 17.44C21.3666 17.7796 21.4977 18.615 21.94 19.94C21.94 19.9567 21.95 19.9732 21.95 19.99C21.95 20.0068 21.97 20.023 21.97 20.04C21.97 20.057 21.98 20.0729 21.98 20.09C21.98 20.1071 21.99 20.1227 21.99 20.14C21.99 20.1572 22 20.1727 22 20.19C22 20.2073 22.01 20.2226 22.01 20.24C22.01 20.2574 22.01 20.2825 22.01 20.3C22.01 20.3175 22.02 20.3325 22.02 20.35C22.02 20.3675 22.02 20.3824 22.02 20.4C22.02 20.4175 22.02 20.4324 22.02 20.45C22.02 20.4675 22.02 20.4925 22.02 20.51C22.02 20.5275 22.01 20.5425 22.01 20.56C22.01 20.5775 22.01 20.5926 22.01 20.61C22.01 20.6274 22 20.6426 22 20.66C22 20.6774 21.99 20.7027 21.99 20.72C21.99 20.7372 21.98 20.7529 21.98 20.77C21.98 20.7871 21.97 20.803 21.97 20.82C21.97 20.837 21.95 20.8532 21.95 20.87C21.95 20.8868 21.94 20.9033 21.94 20.92C21.94 20.9367 21.92 20.9535 21.92 20.97C21.92 20.9865 21.9 21.0037 21.9 21.02C21.9 21.0363 21.88 21.054 21.88 21.07C21.88 21.086 21.86 21.0942 21.86 21.11C21.86 21.1258 21.84 21.1445 21.84 21.16C21.84 21.1755 21.81 21.1948 21.81 21.21C21.81 21.2252 21.78 21.2351 21.78 21.25C21.78 21.2649 21.75 21.2854 21.75 21.3C21.75 21.3146 21.7303 21.3257 21.72 21.34C21.7097 21.3543 21.7007 21.3661 21.69 21.38C21.6793 21.3939 21.6712 21.4065 21.66 21.42C21.6488 21.4335 21.6417 21.4469 21.63 21.46C21.6183 21.4731 21.6021 21.4872 21.59 21.5C21.5779 21.5127 21.5625 21.5277 21.55 21.54C21.5375 21.5523 21.5229 21.5681 21.51 21.58C21.4971 21.5919 21.4933 21.5985 21.48 21.61C21.4667 21.6215 21.4537 21.629 21.44 21.64C21.4263 21.651 21.4041 21.6695 21.39 21.68C21.3759 21.6905 21.3644 21.6999 21.35 21.71C21.3356 21.7201 21.3247 21.74 21.31 21.74C21.2953 21.74 21.2751 21.77 21.26 21.77C21.245 21.77 21.2353 21.79 21.22 21.79C21.2047 21.79 21.1856 21.82 21.17 21.82C21.1544 21.82 21.1359 21.84 21.12 21.84C21.1041 21.84 21.0961 21.86 21.08 21.86C21.0639 21.86 21.0463 21.88 21.03 21.88C21.0136 21.88 20.9966 21.9 20.98 21.9C20.9634 21.9 20.9467 21.92 20.93 21.92C20.9133 21.92 20.8969 21.93 20.88 21.93C20.8631 21.93 20.8471 21.94 20.83 21.94C20.8129 21.94 20.7872 21.96 20.77 21.96C20.7528 21.96 20.7373 21.97 20.72 21.97C20.7027 21.97 20.6874 21.97 20.67 21.97C20.6526 21.97 20.6375 21.98 20.62 21.98C20.6025 21.98 20.5875 21.98 20.57 21.98C20.5525 21.98 20.5275 21.99 20.51 21.99C20.4925 21.99 20.4776 21.99 20.46 21.99C20.4424 21.99 20.4275 21.99 20.41 21.99C20.3925 21.99 20.3775 21.98 20.36 21.98C20.3425 21.98 20.3175 21.98 20.3 21.98C20.2825 21.98 20.2674 21.97 20.25 21.97C20.2326 21.97 20.2173 21.97 20.2 21.97C20.1827 21.97 20.1672 21.96 20.15 21.96C20.1328 21.96 20.1171 21.95 20.1 21.95C20.0829 21.95 20.0569 21.93 20.04 21.93C18.5733 21.5248 17.6433 21.4372 17.24 21.67C17.14 21.7243 17.0416 21.7789 16.94 21.83C16.8384 21.8811 16.7332 21.9321 16.63 21.98C16.5268 22.0279 16.4246 22.0753 16.32 22.12C16.2154 22.1647 16.1059 22.2086 16 22.25C15.894 22.2914 15.7872 22.3319 15.68 22.37C15.5728 22.4081 15.4684 22.4453 15.36 22.48C15.2516 22.5147 15.1394 22.5487 15.03 22.58C14.9206 22.6113 14.8103 22.6421 14.7 22.67C14.5897 22.6979 14.4811 22.7155 14.37 22.74C14.2589 22.7644 14.1518 22.789 14.04 22.81C13.9282 22.831 13.8124 22.8525 13.7 22.87C13.5876 22.8875 13.4729 22.906 13.36 22.92C13.2471 22.934 13.1333 22.9395 13.02 22.95C12.9067 22.9605 12.7936 22.98 12.68 22.98C12.5664 22.98 12.4537 23 12.34 23C12.2263 23 12.1138 23 12 23Z" stroke="rgba(0, 0, 0, 0.7)" stroke-width="0.2"      fill="#000000" ></path></svg>