<svg xmlns="http://www.w3.org/2000/svg" xmlns:xlink="http://www.w3.org/1999/xlink" width="14" height="14" viewBox="0 0 14 14" fill="none"><g opacity="0.7"><path d="M3.25 12.9955C3.21318 12.9955 3.17638 12.9946 3.13959 12.9927C3.10281 12.991 3.0661 12.9883 3.02946 12.9846C2.99281 12.981 2.95628 12.9766 2.91985 12.9712C2.88343 12.9657 2.84715 12.9593 2.81104 12.9522C2.77494 12.945 2.73901 12.937 2.70329 12.928C2.66757 12.919 2.63209 12.9092 2.59686 12.8985C2.56162 12.8879 2.52667 12.8763 2.49199 12.8639C2.45732 12.8515 2.42298 12.8383 2.38896 12.8241C2.35493 12.81 2.32128 12.7952 2.28799 12.7793C2.25471 12.7636 2.22183 12.7471 2.18935 12.7296C2.15688 12.7123 2.12485 12.6942 2.09327 12.6752C2.06168 12.6563 2.03058 12.6366 1.99996 12.6161C1.96935 12.5956 1.93925 12.5744 1.90967 12.5525C1.8801 12.5305 1.85108 12.5079 1.82261 12.4845C1.79415 12.4611 1.76627 12.4371 1.73899 12.4123C1.71171 12.3876 1.68505 12.3622 1.65901 12.3361C1.63297 12.3101 1.60759 12.2834 1.58286 12.2561C1.55813 12.2288 1.53409 12.2009 1.51073 12.1724C1.48736 12.144 1.46472 12.1149 1.44278 12.0853C1.42085 12.0557 1.39965 12.0256 1.37919 11.995C1.35874 11.9644 1.33904 11.9332 1.32011 11.9016C1.30118 11.87 1.28303 11.838 1.26568 11.8055C1.24832 11.773 1.23177 11.7401 1.21602 11.7068C1.20028 11.6735 1.18536 11.6398 1.17127 11.6058C1.15718 11.5717 1.14393 11.5374 1.13153 11.5027C1.11912 11.468 1.10757 11.433 1.09688 11.3978C1.08619 11.3625 1.07638 11.327 1.06743 11.2913C1.05848 11.2555 1.05042 11.2196 1.04323 11.1835C1.03605 11.1473 1.02976 11.111 1.02435 11.0746C1.01895 11.0382 1.01444 11.0016 1.01083 10.9649C1.00723 10.9283 1.00452 10.8915 1.00271 10.8547C1.0009 10.8179 1 10.7811 1 10.7443L1 6.24857C1 6.23629 1.0003 6.22401 1.0009 6.21175C1.00151 6.19948 1.00241 6.18723 1.00361 6.17502C1.00481 6.16279 1.00632 6.15061 1.00812 6.13847C1.00992 6.12632 1.01202 6.11423 1.01441 6.10218C1.01681 6.09013 1.01949 6.07814 1.02248 6.06624C1.02546 6.05432 1.02873 6.04248 1.03229 6.03074C1.03586 6.01899 1.03971 6.00733 1.04384 5.99577C1.04798 5.98421 1.05239 5.97275 1.05709 5.9614C1.06179 5.95006 1.06676 5.93883 1.07201 5.92773C1.07726 5.91663 1.08277 5.90567 1.08856 5.89484C1.09434 5.884 1.10039 5.87331 1.1067 5.86279C1.11301 5.85225 1.11958 5.84188 1.1264 5.83166C1.13322 5.82145 1.14028 5.81141 1.14759 5.80156C1.15491 5.79169 1.16245 5.78201 1.17024 5.77252C1.17803 5.76303 1.18604 5.75372 1.19429 5.74463C1.20253 5.73552 1.21099 5.72663 1.21967 5.71796C1.22835 5.70926 1.23724 5.7008 1.24633 5.69256C1.25543 5.68431 1.26472 5.67629 1.2742 5.6685C1.28369 5.66071 1.29337 5.65315 1.30322 5.64584C1.31308 5.63853 1.32312 5.63145 1.33332 5.62463C1.34353 5.61781 1.35389 5.61123 1.36442 5.60493C1.37495 5.59861 1.38563 5.59257 1.39645 5.58678C1.40728 5.58099 1.41824 5.57547 1.42933 5.57022C1.44043 5.56496 1.45165 5.55998 1.46299 5.55529C1.47433 5.55058 1.48578 5.54616 1.49733 5.54204C1.50889 5.53789 1.52054 5.53404 1.53229 5.53048C1.54403 5.52692 1.55586 5.52364 1.56776 5.52066C1.57967 5.51767 1.59164 5.51498 1.60368 5.51259C1.61572 5.51018 1.62781 5.50809 1.63995 5.50629C1.65209 5.50449 1.66427 5.50298 1.67649 5.50178C1.6887 5.50057 1.70094 5.49967 1.7132 5.49907C1.72546 5.49847 1.73772 5.49817 1.75 5.49817C1.76227 5.49817 1.77454 5.49847 1.7868 5.49907C1.79906 5.49967 1.8113 5.50057 1.82351 5.50178C1.83573 5.50298 1.8479 5.50449 1.86005 5.50629C1.87219 5.50809 1.88428 5.51018 1.89632 5.51259C1.90835 5.51498 1.92033 5.51767 1.93223 5.52066C1.94414 5.52364 1.95597 5.52692 1.96771 5.53048C1.97946 5.53404 1.99111 5.53789 2.00267 5.54204C2.01422 5.54616 2.02567 5.55058 2.03701 5.55529C2.04835 5.55998 2.05957 5.56496 2.07066 5.57022C2.08176 5.57547 2.09272 5.58099 2.10355 5.58678C2.11437 5.59257 2.12505 5.59861 2.13558 5.60493C2.1461 5.61123 2.15647 5.61781 2.16667 5.62463C2.17688 5.63145 2.18692 5.63853 2.19677 5.64584C2.20663 5.65315 2.2163 5.66071 2.22579 5.6685C2.23528 5.67629 2.24457 5.68431 2.25367 5.69256C2.26277 5.7008 2.27164 5.70926 2.28032 5.71796C2.289 5.72663 2.29747 5.73552 2.30572 5.74463C2.31395 5.75372 2.32196 5.76303 2.32975 5.77252C2.33754 5.78201 2.34509 5.79169 2.3524 5.80156C2.35972 5.81141 2.36678 5.82145 2.3736 5.83166C2.38042 5.84188 2.38698 5.85225 2.39329 5.86279C2.3996 5.87331 2.40566 5.884 2.41144 5.89484C2.41723 5.90567 2.42275 5.91663 2.42799 5.92773C2.43324 5.93883 2.43821 5.95006 2.4429 5.9614C2.4476 5.97275 2.45201 5.98421 2.45615 5.99577C2.46028 6.00733 2.46414 6.01899 2.4677 6.03074C2.47127 6.04248 2.47454 6.05432 2.47752 6.06624C2.48051 6.07814 2.48319 6.09013 2.48558 6.10218C2.48798 6.11423 2.49008 6.12632 2.49188 6.13847C2.49368 6.15061 2.49517 6.16279 2.49638 6.17502C2.49759 6.18723 2.49849 6.19948 2.4991 6.21175C2.4997 6.22401 2.5 6.23629 2.5 6.24857L2.5 10.7488C2.5 10.7611 2.5003 10.7733 2.5009 10.7856C2.5015 10.7979 2.5024 10.8101 2.50361 10.8223C2.50481 10.8345 2.50631 10.8467 2.50812 10.8589C2.50991 10.871 2.51201 10.8831 2.51441 10.8952C2.51681 10.9072 2.51949 10.9192 2.52248 10.9311C2.52546 10.943 2.52873 10.9548 2.53229 10.9666C2.53585 10.9784 2.5397 10.99 2.54384 11.0016C2.54797 11.0131 2.55239 11.0246 2.55709 11.0359C2.56178 11.0473 2.56676 11.0585 2.57201 11.0696C2.57725 11.0807 2.58277 11.0917 2.58856 11.1025C2.59434 11.1133 2.60039 11.124 2.6067 11.1346C2.61301 11.1451 2.61957 11.1555 2.6264 11.1657C2.63322 11.1759 2.64028 11.1859 2.64759 11.1958C2.65491 11.2057 2.66245 11.2153 2.67024 11.2248C2.67803 11.2343 2.68604 11.2436 2.69428 11.2527C2.70253 11.2618 2.71099 11.2707 2.71967 11.2794C2.72834 11.2881 2.73723 11.2965 2.74632 11.3048C2.75542 11.313 2.76471 11.3211 2.7742 11.3288C2.78368 11.3366 2.79336 11.3442 2.80322 11.3515C2.81308 11.3588 2.82312 11.3659 2.83332 11.3727C2.84352 11.3795 2.85389 11.3861 2.86442 11.3924C2.87495 11.3987 2.88562 11.4048 2.89645 11.4106C2.90727 11.4164 2.91824 11.4219 2.92933 11.4271C2.94042 11.4324 2.95164 11.4374 2.96299 11.4421C2.97433 11.4467 2.98577 11.4512 2.99733 11.4553C3.00889 11.4595 3.02053 11.4633 3.03228 11.4669C3.04403 11.4704 3.05586 11.4737 3.06776 11.4767C3.07967 11.4797 3.09164 11.4824 3.10368 11.4848C3.11572 11.4872 3.1278 11.4893 3.13995 11.4911C3.1521 11.4929 3.16427 11.4944 3.17648 11.4956C3.1887 11.4968 3.20094 11.4977 3.2132 11.4983C3.22546 11.4989 3.23773 11.4992 3.25 11.4992L10.75 11.4992C10.7623 11.4992 10.7745 11.4989 10.7868 11.4983C10.799 11.4977 10.8113 11.4968 10.8235 11.4956C10.8357 11.4944 10.8479 11.4929 10.86 11.4911C10.8722 11.4893 10.8843 11.4872 10.8963 11.4848C10.9083 11.4824 10.9203 11.4797 10.9322 11.4767C10.9441 11.4737 10.9559 11.4704 10.9677 11.4669C10.9794 11.4633 10.9911 11.4595 11.0026 11.4553C11.0142 11.4512 11.0257 11.4467 11.037 11.4421C11.0483 11.4374 11.0595 11.4324 11.0706 11.4271C11.0817 11.4219 11.0927 11.4164 11.1035 11.4106C11.1143 11.4048 11.125 11.3987 11.1356 11.3924C11.1461 11.3861 11.1565 11.3795 11.1667 11.3727C11.1769 11.3659 11.1869 11.3588 11.1968 11.3515C11.2066 11.3442 11.2163 11.3366 11.2258 11.3288C11.2353 11.3211 11.2445 11.313 11.2536 11.3048C11.2627 11.2965 11.2716 11.2881 11.2803 11.2794C11.289 11.2707 11.2974 11.2618 11.3057 11.2527C11.3139 11.2436 11.3219 11.2343 11.3297 11.2248C11.3375 11.2153 11.3451 11.2056 11.3524 11.1958C11.3597 11.1859 11.3668 11.1759 11.3736 11.1657C11.3804 11.1555 11.387 11.1451 11.3933 11.1346C11.3996 11.124 11.4056 11.1133 11.4114 11.1025C11.4172 11.0917 11.4227 11.0807 11.428 11.0696C11.4332 11.0585 11.4382 11.0473 11.4429 11.0359C11.4476 11.0246 11.452 11.0131 11.4561 11.0016C11.4603 10.99 11.4641 10.9784 11.4677 10.9666C11.4712 10.9548 11.4745 10.943 11.4775 10.9311C11.4805 10.9192 11.4832 10.9072 11.4856 10.8952C11.488 10.8831 11.4901 10.871 11.4919 10.8589C11.4937 10.8467 11.4952 10.8345 11.4964 10.8223C11.4976 10.8101 11.4985 10.7979 11.4991 10.7856C11.4997 10.7733 11.5 10.7611 11.5 10.7488L11.5 6.25308C11.5 6.2408 11.5003 6.22852 11.5009 6.21626C11.5015 6.20398 11.5024 6.19173 11.5036 6.17952C11.5048 6.1673 11.5063 6.15511 11.5081 6.14297C11.5099 6.13082 11.512 6.11873 11.5144 6.10668C11.5168 6.09463 11.5195 6.08264 11.5225 6.07074C11.5254 6.05882 11.5287 6.04698 11.5323 6.03524C11.5358 6.02349 11.5397 6.01183 11.5438 6.00027C11.548 5.98871 11.5524 5.97725 11.5571 5.9659C11.5618 5.95456 11.5667 5.94333 11.572 5.93223C11.5772 5.92112 11.5827 5.91017 11.5885 5.89934C11.5943 5.8885 11.6004 5.87781 11.6067 5.86729C11.613 5.85675 11.6195 5.84638 11.6264 5.83618C11.6332 5.82596 11.6403 5.81593 11.6476 5.80606C11.6549 5.79619 11.6624 5.78651 11.6702 5.77702C11.678 5.76753 11.686 5.75822 11.6943 5.74913C11.7025 5.74004 11.711 5.73114 11.7196 5.72246C11.7283 5.71377 11.7372 5.70531 11.7463 5.69706C11.7554 5.68881 11.7647 5.68079 11.7742 5.673C11.7837 5.66521 11.7933 5.65765 11.8032 5.65034C11.8131 5.64303 11.8231 5.63595 11.8333 5.62913C11.8435 5.62231 11.8539 5.61573 11.8644 5.60943C11.8749 5.60311 11.8856 5.59707 11.8964 5.59128C11.9073 5.58549 11.9182 5.57997 11.9293 5.57472C11.9404 5.56947 11.9516 5.56449 11.963 5.55979C11.9743 5.55508 11.9857 5.55066 11.9973 5.54654C12.0089 5.54239 12.0205 5.53854 12.0323 5.53498C12.044 5.53142 12.0558 5.52814 12.0677 5.52516C12.0796 5.52217 12.0916 5.51948 12.1037 5.51709C12.1157 5.51468 12.1278 5.51259 12.1399 5.51079C12.1521 5.50899 12.1642 5.50748 12.1765 5.50628C12.1887 5.50507 12.2009 5.50417 12.2132 5.50357C12.2254 5.50296 12.2377 5.50267 12.25 5.50267C12.2623 5.50267 12.2745 5.50296 12.2868 5.50357C12.299 5.50417 12.3113 5.50507 12.3235 5.50628C12.3357 5.50748 12.3479 5.50899 12.36 5.51079C12.3722 5.51259 12.3843 5.51468 12.3963 5.51709C12.4083 5.51948 12.4203 5.52217 12.4322 5.52516C12.4441 5.52814 12.4559 5.53142 12.4677 5.53498C12.4794 5.53854 12.4911 5.54239 12.5026 5.54654C12.5142 5.55066 12.5257 5.55508 12.537 5.55979C12.5483 5.56449 12.5595 5.56947 12.5706 5.57472C12.5817 5.57997 12.5927 5.58549 12.6035 5.59128C12.6143 5.59707 12.625 5.60311 12.6355 5.60943C12.6461 5.61573 12.6565 5.62231 12.6667 5.62914C12.6769 5.63596 12.6869 5.64303 12.6967 5.65034C12.7066 5.65765 12.7163 5.66521 12.7258 5.673C12.7353 5.68079 12.7446 5.68881 12.7537 5.69706C12.7627 5.70531 12.7716 5.71377 12.7803 5.72246C12.7889 5.73114 12.7974 5.74004 12.8057 5.74913C12.814 5.75822 12.822 5.76753 12.8297 5.77702C12.8376 5.78651 12.845 5.79619 12.8524 5.80606C12.8597 5.81593 12.8667 5.82596 12.8736 5.83618C12.8804 5.84638 12.887 5.85675 12.8933 5.86729C12.8996 5.87781 12.9057 5.8885 12.9115 5.89934C12.9172 5.91017 12.9227 5.92112 12.928 5.93223C12.9332 5.94333 12.9382 5.95456 12.9428 5.9659C12.9475 5.97725 12.952 5.98871 12.9561 6.00027C12.9602 6.01183 12.964 6.02349 12.9677 6.03524C12.9713 6.04698 12.9746 6.05882 12.9775 6.07074C12.9804 6.08264 12.9831 6.09463 12.9856 6.10668C12.9879 6.11873 12.99 6.13082 12.9918 6.14297C12.9937 6.15511 12.9952 6.1673 12.9964 6.17952C12.9975 6.19173 12.9985 6.20398 12.9991 6.21626C12.9996 6.22852 13 6.2408 13 6.25308L13 10.7488C13 10.7856 12.9991 10.8224 12.9973 10.8592C12.9954 10.896 12.9927 10.9328 12.9891 10.9694C12.9855 11.0061 12.981 11.0427 12.9756 11.0791C12.9703 11.1155 12.9639 11.1518 12.9568 11.188C12.9496 11.2241 12.9416 11.26 12.9325 11.2958C12.9235 11.3315 12.9138 11.367 12.9031 11.4023C12.8925 11.4375 12.8809 11.4725 12.8685 11.5072C12.8561 11.5419 12.8428 11.5762 12.8286 11.6103C12.8146 11.6443 12.7997 11.678 12.7839 11.7113C12.7682 11.7446 12.7517 11.7775 12.7342 11.81C12.7169 11.8425 12.6988 11.8745 12.6799 11.9061C12.6609 11.9377 12.6412 11.9689 12.6208 11.9995C12.6003 12.0301 12.5791 12.0602 12.5572 12.0898C12.5353 12.1194 12.5126 12.1485 12.4892 12.1769C12.4659 12.2054 12.4418 12.2333 12.4171 12.2606C12.3924 12.2879 12.367 12.3146 12.341 12.3406C12.3149 12.3667 12.2883 12.3921 12.261 12.4168C12.2337 12.4416 12.2058 12.4656 12.1774 12.489C12.1489 12.5124 12.1199 12.535 12.0903 12.557C12.0607 12.5789 12.0306 12.6001 12 12.6206C11.9694 12.6411 11.9383 12.6608 11.9067 12.6797C11.8751 12.6987 11.8431 12.7168 11.8106 12.7342C11.7781 12.7516 11.7453 12.7681 11.712 12.7839C11.6787 12.7996 11.645 12.8145 11.611 12.8287C11.577 12.8427 11.5426 12.856 11.508 12.8684C11.4733 12.8808 11.4384 12.8924 11.4031 12.9031C11.3679 12.9137 11.3324 12.9236 11.2967 12.9325C11.261 12.9415 11.225 12.9496 11.1889 12.9568C11.1528 12.9639 11.1165 12.9702 11.0801 12.9756C11.0437 12.981 11.0072 12.9855 10.9705 12.9891C10.9339 12.9927 10.8972 12.9955 10.8604 12.9973C10.8236 12.9991 10.7868 13 10.75 13L3.25 12.9955ZM6.24999 8.49755L6.24999 3.56137L5.28024 4.53089C5.27146 4.53899 5.26249 4.54688 5.25331 4.55455C5.24414 4.56223 5.23481 4.56968 5.22529 4.57691C5.21576 4.58413 5.20608 4.59113 5.19623 4.5979C5.18638 4.60465 5.17636 4.61118 5.1662 4.61747C5.15603 4.62375 5.14572 4.62979 5.13527 4.63559C5.12481 4.64138 5.11422 4.64691 5.1035 4.65221C5.09279 4.65749 5.08194 4.66252 5.07099 4.66729C5.06003 4.67205 5.04896 4.67656 5.03778 4.6808C5.02661 4.68503 5.01534 4.689 5.00397 4.69271C4.99261 4.6964 4.98117 4.69982 4.96964 4.70297C4.95811 4.70613 4.94651 4.709 4.93484 4.7116C4.92318 4.7142 4.91145 4.71651 4.89968 4.71855C4.88791 4.72059 4.87609 4.72234 4.86423 4.72382C4.85237 4.72529 4.84048 4.72647 4.82857 4.72737C4.81666 4.72827 4.80472 4.72889 4.79277 4.72923C4.78083 4.72956 4.76888 4.7296 4.75693 4.72936C4.74499 4.72913 4.73305 4.7286 4.72113 4.72779C4.70921 4.72697 4.69731 4.72588 4.68544 4.72451C4.67358 4.72313 4.66174 4.72147 4.64994 4.71952C4.63815 4.71757 4.62641 4.71536 4.61473 4.71285C4.60305 4.71034 4.59143 4.70755 4.57988 4.7045C4.56832 4.70143 4.55685 4.6981 4.54546 4.69449C4.53406 4.69088 4.52277 4.68699 4.51156 4.68284C4.50035 4.67869 4.48926 4.67427 4.47826 4.6696C4.46726 4.66491 4.45638 4.65996 4.44562 4.65476C4.43486 4.64956 4.42423 4.64411 4.41373 4.6384C4.40323 4.63268 4.39288 4.62673 4.38267 4.62052C4.37244 4.61431 4.36238 4.60786 4.35248 4.60118C4.34257 4.59449 4.33283 4.58757 4.32326 4.58042C4.31368 4.57327 4.30428 4.56589 4.29506 4.55828C4.28584 4.55068 4.2768 4.54286 4.26794 4.53483C4.2591 4.52679 4.25045 4.51854 4.24199 4.51011C4.23353 4.50164 4.22529 4.493 4.21724 4.48416C4.20919 4.47532 4.20137 4.46629 4.19376 4.45708C4.18614 4.44786 4.17875 4.43846 4.1716 4.42889C4.16443 4.41932 4.1575 4.40958 4.15081 4.39968C4.14411 4.38978 4.13766 4.37972 4.13144 4.3695C4.12522 4.35929 4.11924 4.34894 4.11352 4.33845C4.1078 4.32795 4.10233 4.31732 4.09712 4.30656C4.09191 4.2958 4.08695 4.28493 4.08226 4.27394C4.07756 4.26293 4.07312 4.25184 4.06896 4.24063C4.06479 4.22942 4.06089 4.21812 4.05727 4.20673C4.05365 4.19533 4.0503 4.18386 4.04722 4.1723C4.04414 4.16075 4.04134 4.14912 4.03883 4.13744C4.03631 4.12574 4.03406 4.11401 4.0321 4.10222C4.03015 4.09042 4.02846 4.07859 4.02707 4.06671C4.02567 4.05483 4.02457 4.04294 4.02374 4.03101C4.02291 4.01908 4.02237 4.00714 4.02211 3.99518C4.02186 3.98323 4.02189 3.97128 4.02221 3.95932C4.02252 3.94737 4.02312 3.93543 4.024 3.92351C4.02489 3.91158 4.02606 3.89968 4.02751 3.88782C4.02896 3.87595 4.0307 3.86412 4.03272 3.85234C4.03474 3.84055 4.03703 3.82882 4.03962 3.81715C4.0422 3.80547 4.04506 3.79386 4.04818 3.78232C4.05132 3.77078 4.05473 3.75932 4.05841 3.74795C4.0621 3.73657 4.06605 3.72529 4.07026 3.71411C4.07449 3.70292 4.07898 3.69184 4.08372 3.68088C4.08846 3.66991 4.09348 3.65905 4.09875 3.64832C4.10401 3.63759 4.10953 3.62698 4.11531 3.61652C4.12108 3.60604 4.1271 3.59571 4.13337 3.58554C4.13963 3.57536 4.14615 3.56534 4.15289 3.55547C4.15964 3.54559 4.16662 3.53589 4.17382 3.52636C4.18104 3.51682 4.18848 3.50746 4.19612 3.49829C4.20378 3.4891 4.21165 3.48011 4.21975 3.47131L6.46974 1.22009C6.47841 1.21139 6.4873 1.20291 6.4964 1.19466C6.5055 1.1864 6.51479 1.17837 6.52428 1.17057C6.53378 1.16277 6.54345 1.1552 6.55331 1.14788C6.56318 1.14055 6.57321 1.13347 6.58343 1.12664C6.59363 1.11981 6.60401 1.11323 6.61453 1.10691C6.62506 1.10059 6.63575 1.09453 6.64658 1.08873C6.65741 1.08293 6.66838 1.07741 6.67948 1.07215C6.69058 1.06689 6.7018 1.06191 6.71315 1.0572C6.7245 1.0525 6.73596 1.04807 6.74752 1.04393C6.75908 1.03978 6.77074 1.03593 6.7825 1.03236C6.79425 1.02879 6.80609 1.02551 6.818 1.02252C6.82991 1.01953 6.8419 1.01684 6.85395 1.01444C6.86599 1.01204 6.87809 1.00994 6.89023 1.00813C6.90238 1.00633 6.91457 1.00482 6.9268 1.00362C6.93901 1.00241 6.95126 1.00151 6.96354 1.00091C6.9758 1.0003 6.98808 1 7.00036 1C7.01265 1 7.02492 1.0003 7.03719 1.00091C7.04945 1.00151 7.0617 1.00241 7.07393 1.00362C7.08614 1.00482 7.09834 1.00633 7.11048 1.00813C7.12263 1.00994 7.13473 1.01204 7.14678 1.01444C7.15883 1.01684 7.17081 1.01953 7.18272 1.02252C7.19464 1.02551 7.20648 1.02879 7.21822 1.03236C7.22997 1.03593 7.24164 1.03978 7.2532 1.04393C7.26476 1.04807 7.27621 1.0525 7.28756 1.0572C7.29891 1.06191 7.31013 1.06689 7.32123 1.07215C7.33234 1.07741 7.3433 1.08293 7.35413 1.08873C7.36497 1.09453 7.37565 1.10059 7.38618 1.10691C7.39671 1.11323 7.40709 1.11981 7.4173 1.12664C7.4275 1.13347 7.43754 1.14055 7.44741 1.14788C7.45727 1.1552 7.46695 1.16277 7.47643 1.17057C7.48593 1.17837 7.49522 1.1864 7.50432 1.19466C7.51342 1.20291 7.52231 1.21139 7.53099 1.22009L9.60623 3.29421C9.6156 3.30272 9.62475 3.31148 9.63369 3.32045C9.64261 3.32943 9.6513 3.33863 9.65977 3.34805C9.66824 3.35747 9.67646 3.36709 9.68443 3.37694C9.69241 3.38676 9.70013 3.39679 9.7076 3.40703C9.71506 3.41725 9.72227 3.42766 9.72921 3.43825C9.73616 3.44884 9.74282 3.4596 9.74923 3.47054C9.75562 3.48146 9.76174 3.49254 9.76758 3.50379C9.77341 3.51502 9.77896 3.5264 9.78422 3.53793C9.78948 3.54945 9.79445 3.5611 9.79912 3.57286C9.80379 3.58463 9.80816 3.59651 9.81223 3.60851C9.81629 3.62051 9.82006 3.63259 9.82352 3.64478C9.82697 3.65697 9.83012 3.66923 9.83297 3.68158C9.8358 3.69392 9.83832 3.70633 9.84054 3.7188C9.84275 3.73127 9.84464 3.74378 9.84622 3.75636C9.84779 3.76892 9.84904 3.78153 9.84999 3.79416C9.85093 3.80678 9.85155 3.81943 9.85184 3.83209C9.85213 3.84475 9.85211 3.85742 9.85177 3.87009C9.85143 3.88274 9.85076 3.89539 9.84979 3.90802C9.84881 3.92064 9.84751 3.93324 9.84588 3.9458C9.84426 3.95836 9.84233 3.97087 9.84007 3.98334C9.83782 3.9958 9.83525 4.0082 9.83237 4.02053C9.82949 4.03286 9.82629 4.04512 9.82279 4.05729C9.81929 4.06946 9.81548 4.08154 9.81137 4.09352C9.80726 4.10549 9.80286 4.11736 9.79814 4.12912C9.79343 4.14087 9.78843 4.1525 9.78312 4.164C9.77782 4.17551 9.77223 4.18687 9.76635 4.19809C9.76048 4.20931 9.75432 4.22037 9.74788 4.23128C9.74145 4.24218 9.73474 4.25291 9.72776 4.26348C9.72078 4.27405 9.71354 4.28444 9.70603 4.29464C9.69852 4.30484 9.69077 4.31484 9.68276 4.32466C9.67475 4.33445 9.66649 4.34405 9.658 4.35345C9.64951 4.36282 9.64077 4.372 9.63181 4.38095C9.62285 4.38989 9.61368 4.3986 9.60427 4.40709C9.59487 4.41557 9.58525 4.42381 9.57544 4.4318C9.56561 4.43979 9.5556 4.44754 9.5454 4.45503C9.53518 4.4625 9.52479 4.46973 9.51422 4.4767C9.50364 4.48366 9.49289 4.49035 9.48197 4.49677C9.47106 4.50318 9.45999 4.50931 9.44877 4.51517C9.43754 4.52103 9.42618 4.52659 9.41468 4.53188C9.40316 4.53715 9.39153 4.54214 9.37977 4.54683C9.36801 4.55152 9.35614 4.5559 9.34416 4.56C9.33217 4.56408 9.3201 4.56787 9.30793 4.57135C9.29576 4.57482 9.28351 4.57799 9.27118 4.58085C9.25884 4.5837 9.24644 4.58624 9.23398 4.58847C9.22152 4.5907 9.20901 4.59262 9.19645 4.59421C9.18388 4.5958 9.17129 4.59707 9.15868 4.59803C9.14605 4.59899 9.13342 4.59963 9.12075 4.59994C9.1081 4.60025 9.09546 4.60025 9.08279 4.59993C9.07013 4.5996 9.0575 4.59896 9.04488 4.598C9.03226 4.59702 9.01966 4.59573 9.00711 4.59414C8.99455 4.59254 8.98205 4.59061 8.96958 4.58838C8.95712 4.58614 8.94473 4.58358 8.9324 4.58072C8.92006 4.57785 8.90781 4.57468 8.89564 4.5712C8.88347 4.5677 8.8714 4.56392 8.85942 4.55983C8.84743 4.55573 8.83557 4.55132 8.82382 4.54663C8.81206 4.54192 8.80043 4.53693 8.78893 4.53164C8.77743 4.52636 8.76607 4.52078 8.75485 4.51492C8.74363 4.50905 8.73256 4.50291 8.72164 4.49649C8.71074 4.49007 8.7 4.48336 8.68942 4.4764C8.67886 4.46943 8.66847 4.4622 8.65827 4.45471C8.64807 4.44721 8.63805 4.43945 8.62824 4.43146C8.61842 4.42346 8.60882 4.41521 8.59943 4.40672C8.59002 4.39824 8.58085 4.38952 8.5719 4.38057C8.56294 4.37161 8.55423 4.36244 8.54574 4.35304L7.74999 3.56287L7.74999 8.49755C7.74999 8.50983 7.74968 8.5221 7.74909 8.53437C7.74848 8.54663 7.74758 8.55888 7.74637 8.5711C7.74516 8.58332 7.74366 8.59551 7.74187 8.60766C7.74007 8.61981 7.73797 8.6319 7.73557 8.64394C7.73318 8.65599 7.7305 8.66796 7.72751 8.67988C7.72453 8.69179 7.72126 8.70362 7.71769 8.71538C7.71413 8.72712 7.71027 8.73878 7.70614 8.75035C7.702 8.76191 7.69759 8.77337 7.69289 8.78472C7.68819 8.79606 7.68323 8.80728 7.67798 8.81839C7.67273 8.82948 7.66722 8.84045 7.66143 8.85129C7.65565 8.86212 7.64959 8.8728 7.64328 8.88333C7.63696 8.89387 7.63041 8.90424 7.62359 8.91446C7.61677 8.92466 7.60971 8.9347 7.60239 8.94456C7.59508 8.95443 7.58754 8.96411 7.57975 8.9736C7.57196 8.98309 7.56394 8.99239 7.5557 9.00149C7.54746 9.01059 7.53899 9.01948 7.53031 9.02816C7.52163 9.03685 7.51275 9.04532 7.50365 9.05356C7.49455 9.06181 7.48527 9.06982 7.47578 9.07762C7.46629 9.08541 7.45662 9.09297 7.44676 9.10028C7.43691 9.10759 7.42687 9.11466 7.41667 9.12149C7.40647 9.12831 7.39609 9.13488 7.38556 9.14119C7.37503 9.1475 7.36436 9.15355 7.35354 9.15936C7.3427 9.16513 7.33174 9.17065 7.32065 9.17591C7.30956 9.18116 7.29834 9.18613 7.287 9.19083C7.27566 9.19553 7.26422 9.19995 7.25266 9.20409C7.2411 9.20822 7.22944 9.21208 7.2177 9.21564C7.20595 9.2192 7.19413 9.22248 7.18222 9.22547C7.17031 9.22845 7.15834 9.23114 7.1463 9.23353C7.13427 9.23593 7.12218 9.23804 7.11004 9.23984C7.09789 9.24163 7.08571 9.24313 7.07349 9.24434C7.06128 9.24555 7.04905 9.24645 7.03679 9.24706C7.02453 9.24766 7.01226 9.24796 6.99999 9.24796C6.98771 9.24796 6.97545 9.24766 6.96319 9.24706C6.95093 9.24645 6.93869 9.24555 6.92647 9.24434C6.91425 9.24313 6.90208 9.24163 6.88994 9.23984C6.87779 9.23804 6.86571 9.23593 6.85367 9.23353C6.84164 9.23114 6.82967 9.22845 6.81776 9.22547C6.80584 9.22248 6.79403 9.2192 6.78228 9.21564C6.77053 9.21208 6.75888 9.20822 6.74732 9.20409C6.73576 9.19995 6.72431 9.19553 6.71298 9.19083C6.70163 9.18613 6.69041 9.18116 6.67932 9.17591C6.66822 9.17065 6.65726 9.16513 6.64644 9.15936C6.63562 9.15355 6.62494 9.1475 6.61441 9.14119C6.60388 9.13488 6.59351 9.12831 6.58331 9.12149C6.57311 9.11466 6.56307 9.10759 6.55321 9.10028C6.54336 9.09297 6.53368 9.08541 6.5242 9.07762C6.5147 9.06982 6.50541 9.06181 6.49632 9.05356C6.48722 9.04532 6.47833 9.03685 6.46965 9.02816C6.46097 9.01948 6.45252 9.01059 6.44427 9.00149C6.43603 8.99239 6.42802 8.98309 6.42023 8.9736C6.41244 8.96411 6.4049 8.95443 6.39759 8.94456C6.39027 8.9347 6.3832 8.92466 6.37639 8.91446C6.36956 8.90424 6.363 8.89387 6.35669 8.88333C6.35037 8.8728 6.34433 8.86212 6.33855 8.85129C6.33276 8.84045 6.32724 8.82948 6.322 8.81839C6.31675 8.80728 6.31177 8.79606 6.30707 8.78472C6.30238 8.77337 6.29796 8.76191 6.29383 8.75035C6.28969 8.73878 6.28585 8.72712 6.28228 8.71538C6.27872 8.70362 6.27545 8.69179 6.27246 8.67988C6.26948 8.66796 6.2668 8.65599 6.26439 8.64394C6.26201 8.6319 6.25991 8.61981 6.2581 8.60766C6.2563 8.59551 6.2548 8.58332 6.2536 8.5711C6.25239 8.55888 6.25149 8.54663 6.25089 8.53437C6.25029 8.5221 6.24999 8.50983 6.24999 8.49755Z"   fill="#000000" ></path></g></svg>