<svg xmlns="http://www.w3.org/2000/svg" xmlns:xlink="http://www.w3.org/1999/xlink" width="14" height="14" viewBox="0 0 14 14" fill="none"><g opacity="0.7"><path d="M7.33221 1.07428C7.43403 1.02328 7.53963 1 7.6426 1C8.00726 1 8.33765 1.29284 8.33765 1.69571L8.33765 11.9537C8.33765 12.3564 8.00726 12.6494 7.6426 12.6494C7.53979 12.6494 7.43387 12.626 7.33221 12.5752L2.9258 10.3719C2.82939 10.3236 2.72298 10.2985 2.61509 10.2985L0.694722 10.2985C0.311043 10.2985 0 9.98745 0 9.60377L0 4.04533C0 3.66165 0.311043 3.35061 0.694722 3.35061L2.61525 3.35061C2.64212 3.35061 2.6689 3.34905 2.69559 3.34595C2.72229 3.34286 2.74872 3.33822 2.77487 3.33205C2.80102 3.32589 2.82673 3.31823 2.852 3.30906C2.87727 3.29991 2.90193 3.28934 2.92597 3.27732L7.33221 1.07428ZM10.9008 1.70653C11.1721 1.43516 11.6119 1.43516 11.8832 1.70653C14.7056 4.52854 14.7056 9.12073 11.8832 11.9427C11.7475 12.0783 11.5697 12.1462 11.392 12.1462C11.2143 12.1462 11.0365 12.0785 10.9008 11.9427C10.6294 11.6714 10.6294 11.2316 10.9008 10.9603C13.1809 8.67966 13.1809 4.96944 10.9008 2.68901C10.6294 2.41765 10.6294 1.97789 10.9008 1.70653ZM3.54739 9.12925L6.94804 10.8296L6.94804 2.81985L3.54739 4.52018C3.25947 4.66414 2.93728 4.74022 2.61525 4.74022L1.38961 4.74022L1.38961 8.90921L2.61525 8.90921C2.93711 8.90921 3.25947 8.98529 3.54739 9.12925ZM8.98282 3.80972C9.25419 3.53836 9.69394 3.53836 9.96531 3.80972C10.7707 4.61479 11.2144 5.68581 11.2144 6.82471C11.2144 7.96363 10.7707 9.03464 9.96531 9.83971C9.82954 9.97532 9.6518 10.0432 9.47406 10.0432C9.29632 10.0432 9.11859 9.97547 8.98282 9.83971C8.71146 9.56834 8.71146 9.12826 8.98282 8.85724C9.52555 8.31434 9.82479 7.5924 9.82479 6.82471C9.82479 6.05702 9.52571 5.33508 8.98282 4.7922C8.71146 4.52117 8.71146 4.08109 8.98282 3.80972Z" fill-rule="evenodd"  fill="#000000" ></path></g></svg>