<svg xmlns="http://www.w3.org/2000/svg" xmlns:xlink="http://www.w3.org/1999/xlink" width="12" height="12" viewBox="0 0 12 12" fill="none"><g opacity="0.7"><path d="M8.90853 4.60414C8.87501 4.61936 8.84121 4.63407 8.80711 4.64825C8.77301 4.66242 8.73866 4.67605 8.70405 4.68916C8.66943 4.70227 8.63457 4.71483 8.59947 4.72683C8.56436 4.73885 8.52903 4.75031 8.49349 4.76122C8.45795 4.77213 8.4222 4.78249 8.38626 4.79229C8.35032 4.80208 8.31419 4.81131 8.27789 4.81997C8.24158 4.82863 8.20512 4.83673 8.16851 4.84425C8.1319 4.85179 8.09515 4.85873 8.05826 4.86511C8.02138 4.8715 7.98439 4.8773 7.94727 4.88253C7.91016 4.88775 7.87297 4.89239 7.83568 4.89645C7.7984 4.90051 7.76104 4.90399 7.72362 4.90688C7.68619 4.90978 7.64873 4.9121 7.61122 4.91382C7.5737 4.91553 7.53617 4.91668 7.49861 4.91723C7.46107 4.91778 7.42351 4.91774 7.38595 4.91713C7.34841 4.91651 7.31088 4.91531 7.27336 4.91352C7.23585 4.91172 7.19839 4.90935 7.16098 4.90638C7.15412 4.9055 7.14731 4.90448 7.14052 4.90331C7.13371 4.90214 7.12695 4.90081 7.12023 4.89935C7.1135 4.89788 7.10683 4.89627 7.10019 4.89451C7.09355 4.89274 7.08697 4.89084 7.08044 4.8888C7.0739 4.88674 7.06743 4.88456 7.06102 4.88223C7.0546 4.87988 7.04825 4.87742 7.04198 4.87481C7.0357 4.8722 7.0295 4.86945 7.02336 4.86657C7.01723 4.86368 7.01119 4.86067 7.00521 4.85752C6.99924 4.85437 6.99336 4.85109 6.98757 4.84769C6.98178 4.84429 6.97609 4.84076 6.97049 4.83711C6.96489 4.83345 6.95939 4.82968 6.95399 4.82577C6.94861 4.82188 6.94332 4.81787 6.93814 4.81375C6.93297 4.80962 6.9279 4.80538 6.92296 4.80103C6.918 4.79668 6.91318 4.79223 6.90847 4.78767C6.90377 4.78312 6.89918 4.77845 6.89473 4.7737C6.89028 4.76893 6.88595 4.76407 6.88177 4.75913C6.87758 4.75418 6.87352 4.74915 6.8696 4.74402C6.86569 4.73889 6.86192 4.73367 6.85828 4.72838C6.85465 4.72308 6.85116 4.71771 6.8478 4.71227C6.84446 4.70683 6.84127 4.70131 6.83823 4.69572C6.83519 4.69014 6.83228 4.68449 6.82955 4.67878C6.82681 4.67307 6.82423 4.66731 6.82181 4.66148C6.81937 4.65565 6.8171 4.64978 6.815 4.64385C6.81289 4.63793 6.81094 4.63196 6.80916 4.62595C6.80738 4.61994 6.80575 4.6139 6.8043 4.60782C6.80284 4.60174 6.80156 4.59562 6.80042 4.58948C6.7993 4.58334 6.79834 4.57719 6.79755 4.57101C6.79676 4.56483 6.79613 4.55865 6.79568 4.55243C6.79522 4.54622 6.79493 4.54001 6.79481 4.5338C6.79469 4.52757 6.79474 4.52135 6.79497 4.51514C6.79518 4.50892 6.79557 4.50271 6.79612 4.49651C6.79666 4.49031 6.79739 4.48412 6.79828 4.47796C6.79918 4.47179 6.80023 4.46564 6.80145 4.45951C6.80267 4.4534 6.80406 4.4473 6.80561 4.44124C6.80717 4.43518 6.80888 4.42916 6.81075 4.42316C6.81264 4.41718 6.81467 4.41124 6.81687 4.40534C6.81908 4.39945 6.82143 4.39361 6.82396 4.3878C6.82647 4.38201 6.82914 4.37628 6.83198 4.37061C6.8348 4.36492 6.83778 4.35931 6.84092 4.35377C6.84405 4.34822 6.84732 4.34274 6.85076 4.33735C6.85419 4.33194 6.85776 4.32662 6.86148 4.32138C6.86521 4.31613 6.86905 4.31097 6.87305 4.30589C6.87705 4.30081 6.88119 4.29582 6.88545 4.29093C6.88972 4.28604 6.89412 4.28123 6.89865 4.27653C6.90318 4.27182 6.90783 4.26722 6.9126 4.26273C6.91737 4.25822 6.92228 4.25383 6.92729 4.24954C6.9323 4.24525 6.93743 4.24109 6.94267 4.23702C6.94793 4.23297 6.95327 4.22903 6.95873 4.2252C6.96418 4.22137 6.96974 4.21767 6.97539 4.21409C6.98105 4.2105 6.98679 4.20704 6.99264 4.20372C6.99848 4.20039 7.00441 4.19718 7.01043 4.19411C7.01644 4.19104 7.02253 4.18809 7.02872 4.1853C7.0349 4.1825 7.04114 4.17983 7.04746 4.17729C7.05378 4.17476 7.06016 4.17237 7.06662 4.17012C7.07307 4.16787 7.07958 4.16576 7.08614 4.1638C7.09271 4.16184 7.09932 4.16001 7.10598 4.15833C7.11265 4.15666 7.11934 4.15513 7.12609 4.15375C7.13284 4.15237 7.13962 4.15113 7.14644 4.15005C7.15324 4.14896 7.16008 4.14802 7.16695 4.14724C7.17381 4.14646 7.18069 4.14582 7.18759 4.14533C7.19449 4.14485 7.2014 4.14451 7.20831 4.14433C7.21523 4.14415 7.22215 4.14412 7.22906 4.14425C7.23598 4.14437 7.24289 4.14464 7.2498 4.14507C7.25671 4.14549 7.26359 4.14605 7.27046 4.14678L7.29724 4.14892C7.44541 4.15802 7.63937 4.15106 7.8625 4.11362C7.90472 4.10669 7.94673 4.09882 7.98853 4.08998C8.03032 4.08115 8.07184 4.07139 8.11308 4.0607C8.15433 4.04999 8.19526 4.03837 8.23585 4.02582C8.27644 4.01327 8.31666 3.99982 8.3565 3.98546C8.39635 3.9711 8.43578 3.95584 8.47477 3.93969C8.51375 3.92355 8.55227 3.90653 8.59031 3.88865C8.62835 3.87078 8.66587 3.85204 8.70287 3.83247C8.73987 3.81289 8.77629 3.79249 8.81215 3.77127C9.04719 3.63218 9.26317 3.45513 9.45715 3.2342C9.65349 3.01061 9.79808 2.74743 9.89627 2.45215C10.0462 1.99906 10.0766 1.51068 10.0307 1.05279L9.91173 1.08381C9.82738 1.10622 9.7433 1.12944 9.65949 1.15347C9.57569 1.17751 9.49218 1.20235 9.40898 1.228C9.32577 1.25366 9.24288 1.2801 9.1603 1.30736C9.07774 1.33462 8.9955 1.36267 8.9136 1.39152C8.8317 1.42037 8.75016 1.45001 8.66896 1.48044C8.58776 1.51087 8.50695 1.54208 8.42652 1.57407C8.34607 1.60606 8.26602 1.63883 8.18636 1.67238C8.10671 1.70592 8.02746 1.74024 7.94862 1.77531C7.86979 1.81038 7.79138 1.84623 7.7134 1.88282C7.63543 1.91942 7.55789 1.95676 7.48081 1.99487C7.40373 2.03297 7.32712 2.07181 7.25097 2.11139C7.17481 2.15097 7.09915 2.19128 7.02397 2.23233C6.94878 2.27337 6.87409 2.31514 6.79991 2.35764C6.72572 2.40014 6.65206 2.44334 6.57891 2.48726C6.50576 2.53118 6.43315 2.57581 6.36107 2.62114C6.28899 2.66647 6.21745 2.71249 6.14648 2.7592C3.91815 4.22756 2.25806 6.35548 1.37327 9.26545C1.52322 9.25849 1.68386 9.24887 1.85345 9.23656C2.52582 9.18895 3.19819 9.11193 3.82235 8.99852C4.30967 8.90973 4.747 8.80274 5.12009 8.67649C6.46184 8.22289 7.421 7.51465 8.06362 6.61865C8.11089 6.55238 8.15644 6.48517 8.2003 6.41702C8.24414 6.34887 8.28623 6.27985 8.32657 6.20997C8.3669 6.1401 8.40544 6.06942 8.44218 5.99796C8.47891 5.92649 8.51381 5.85431 8.54688 5.78141C8.57994 5.70851 8.61114 5.63497 8.64046 5.56078C8.66978 5.4866 8.6972 5.41184 8.72272 5.33654C8.74823 5.26124 8.77182 5.18544 8.79348 5.10915C8.81514 5.03287 8.83484 4.95618 8.85261 4.87909C8.87522 4.78172 8.89427 4.68972 8.90914 4.60413L8.90853 4.60414ZM9.81415 4.02268L9.81415 4.04622C9.81713 4.27089 9.78441 4.6143 9.68564 5.0369C9.67544 5.08115 9.66467 5.12529 9.65333 5.1693C9.64201 5.21333 9.63011 5.25723 9.61767 5.30102C9.60523 5.34479 9.59222 5.38845 9.57866 5.43196C9.56509 5.47547 9.55099 5.51885 9.53633 5.56207C9.52166 5.60529 9.50644 5.64836 9.49068 5.69127C9.47492 5.73417 9.45862 5.77692 9.44178 5.81949C9.42492 5.86206 9.40753 5.90447 9.38961 5.94668C9.37169 5.98889 9.35321 6.03092 9.33421 6.07276C9.31521 6.11459 9.29569 6.15623 9.27562 6.19766C9.25556 6.2391 9.23498 6.28032 9.21387 6.32133C9.19277 6.36234 9.17114 6.40313 9.149 6.4437C9.12685 6.48426 9.10418 6.5246 9.081 6.5647C9.05784 6.6048 9.03416 6.64464 9.00996 6.68426C8.98577 6.72388 8.96108 6.76323 8.93589 6.80234C8.9107 6.84144 8.88502 6.88028 8.85884 6.91886C8.83265 6.95743 8.80599 6.99573 8.77883 7.03376C8.03862 8.06616 6.93487 8.88085 5.41938 9.39331C4.99929 9.53559 4.51912 9.65328 3.99015 9.74903C3.64813 9.80941 3.30441 9.86057 2.959 9.90252C2.61358 9.94445 2.26708 9.9771 1.9195 10.0004C1.66651 10.0184 1.41323 10.032 1.15965 10.0411C1.03233 10.56 0.927607 11.1008 0.847277 11.6657C0.846252 11.6718 0.845063 11.6779 0.843709 11.6839C0.842355 11.69 0.840839 11.696 0.839164 11.702C0.83748 11.708 0.83564 11.7139 0.833644 11.7198C0.831649 11.7258 0.829491 11.7316 0.827175 11.7374C0.824867 11.7433 0.8224 11.749 0.81977 11.7547C0.817151 11.7604 0.814375 11.7661 0.811444 11.7717C0.808512 11.7773 0.805433 11.7828 0.802208 11.7883C0.798983 11.7937 0.795614 11.7991 0.792103 11.8044C0.788584 11.8097 0.784926 11.8149 0.78113 11.8201C0.777334 11.8252 0.7734 11.8303 0.769328 11.8353C0.765264 11.8403 0.761063 11.8452 0.756724 11.85C0.752393 11.8547 0.747933 11.8594 0.743344 11.864C0.738761 11.8687 0.734056 11.8731 0.729229 11.8775C0.724399 11.8819 0.719457 11.8862 0.714398 11.8904C0.709339 11.8946 0.704169 11.8987 0.698891 11.9026C0.693612 11.9066 0.688231 11.9104 0.682746 11.9141C0.677262 11.9179 0.67168 11.9215 0.666001 11.925C0.660322 11.9284 0.654553 11.9318 0.648694 11.935C0.642834 11.9382 0.636892 11.9413 0.630865 11.9443C0.624838 11.9473 0.618735 11.9501 0.612556 11.9528C0.606377 11.9555 0.600129 11.9581 0.593812 11.9605C0.587494 11.963 0.581114 11.9653 0.574673 11.9674C0.568232 11.9696 0.561738 11.9716 0.555189 11.9735C0.548638 11.9753 0.542042 11.9771 0.5354 11.9787C0.528758 11.9802 0.522076 11.9817 0.515356 11.983C0.508635 11.9843 0.501884 11.9854 0.495102 11.9864C0.48832 11.9874 0.481516 11.9883 0.474687 11.989C0.467858 11.9897 0.461016 11.9903 0.454158 11.9907C0.4473 11.9911 0.440436 11.9913 0.433564 11.9914C0.426693 11.9916 0.419821 11.9915 0.412951 11.9913C0.406081 11.9911 0.399221 11.9908 0.392369 11.9903C0.385518 11.9898 0.378684 11.9892 0.371866 11.9884C0.365049 11.9876 0.358257 11.9867 0.35149 11.9856C0.344722 11.9845 0.337989 11.9833 0.331288 11.9819C0.324588 11.9805 0.317928 11.979 0.311308 11.9773C0.304689 11.9757 0.298118 11.9739 0.291597 11.9719C0.285076 11.97 0.278609 11.9679 0.2722 11.9657C0.265792 11.9634 0.259445 11.9611 0.253163 11.9586C0.246881 11.956 0.24067 11.9534 0.234531 11.9506C0.228392 11.9478 0.222331 11.9449 0.216348 11.9419C0.210364 11.9389 0.204467 11.9357 0.198655 11.9324C0.192842 11.9291 0.187123 11.9257 0.181494 11.9221C0.175866 11.9186 0.170338 11.9149 0.164907 11.9111C0.159477 11.9073 0.15415 11.9034 0.148929 11.8994C0.143709 11.8954 0.138599 11.8913 0.133601 11.887C0.128604 11.8828 0.123722 11.8784 0.118958 11.874C0.114194 11.8695 0.109553 11.865 0.105033 11.8603C0.100515 11.8557 0.0961235 11.8509 0.0918598 11.8461C0.0875969 11.8412 0.0834669 11.8363 0.0794696 11.8313C0.0754723 11.8262 0.0716122 11.8211 0.0678894 11.8159C0.0641674 11.8107 0.0605872 11.8055 0.0571486 11.8001C0.0537099 11.7948 0.0504175 11.7893 0.0472712 11.7838C0.0441239 11.7784 0.0411269 11.7728 0.0382799 11.7672C0.0354321 11.7615 0.0327375 11.7559 0.0301962 11.7501C0.027655 11.7444 0.0252696 11.7386 0.0230401 11.7327C0.0208107 11.7269 0.0187394 11.721 0.0168263 11.7151C0.0149141 11.7091 0.0131623 11.7032 0.0115709 11.6972C0.00998031 11.6911 0.00855193 11.6851 0.00728571 11.679C0.00602043 11.673 0.00491906 11.6669 0.00398166 11.6607C0.00304427 11.6546 0.00227218 11.6485 0.00166538 11.6423C0.00105767 11.6362 0.000616583 11.63 0.000342172 11.6238C6.67927e-05 11.6177 -4.23191e-05 11.6115 1.46842e-05 11.6053C7.26053e-05 11.5991 0.000296284 11.5929 0.00068567 11.5868C0.00107506 11.5806 0.00163061 11.5745 0.00235238 11.5683C0.627114 7.18675 2.65433 4.11093 5.64311 2.14135C5.71901 2.09139 5.79549 2.04216 5.87257 1.99368C5.94964 1.94519 6.02728 1.89746 6.10551 1.85049C6.18373 1.80351 6.26251 1.7573 6.34184 1.71184C6.42116 1.66638 6.50102 1.62171 6.58142 1.5778C6.66182 1.5339 6.74273 1.49077 6.82417 1.44844C6.90561 1.40611 6.98754 1.36455 7.06997 1.32381C7.1524 1.28306 7.23529 1.24311 7.31868 1.20396C7.40207 1.16482 7.48592 1.12649 7.57023 1.08897C7.65453 1.05145 7.73928 1.01475 7.82446 0.978869C7.90964 0.94299 7.99525 0.907942 8.08127 0.873722C8.1673 0.839502 8.25372 0.806119 8.34055 0.773573C8.42737 0.741028 8.51458 0.709327 8.60217 0.678471C8.68976 0.647615 8.77769 0.617611 8.866 0.588459C8.95431 0.559306 9.04295 0.531013 9.13193 0.503579C9.2209 0.476144 9.31021 0.449574 9.39983 0.423869C9.48945 0.398165 9.57938 0.37333 9.66958 0.349368C10.1515 0.220976 10.599 0.128969 11.0024 0.0663895C11.2481 0.0289475 11.4272 0.00915711 11.5284 0.00219982C11.5354 0.00151664 11.5425 0.000992448 11.5496 0.000627265C11.5567 0.000262075 11.5638 5.63426e-05 11.5709 1.00681e-05C11.578 -3.62065e-05 11.5851 7.70335e-05 11.5922 0.000349788C11.5993 0.000622545 11.6064 0.00105447 11.6134 0.00164557C11.6205 0.00223668 11.6275 0.00298621 11.6346 0.00389418C11.6416 0.00480216 11.6486 0.00586743 11.6556 0.00709C11.6625 0.00831259 11.6695 0.00969094 11.6764 0.011225C11.6832 0.0127592 11.6901 0.0144471 11.6969 0.0162889C11.7037 0.0181308 11.7104 0.0201242 11.7171 0.0222691C11.7238 0.0244141 11.7304 0.0267079 11.737 0.0291506C11.7436 0.0315933 11.75 0.0341818 11.7565 0.0369162C11.7629 0.0396505 11.7692 0.0425273 11.7755 0.0455464C11.7817 0.0485657 11.7879 0.0517235 11.794 0.0550199C11.8001 0.0583164 11.806 0.0617474 11.8119 0.0653128C11.8178 0.0688783 11.8236 0.0725739 11.8293 0.0763994C11.835 0.0802251 11.8406 0.0841761 11.846 0.0882522C11.8515 0.0923284 11.8568 0.0965247 11.8621 0.100841C11.8673 0.105158 11.8724 0.109589 11.8774 0.114135C11.8824 0.118681 11.8872 0.123336 11.8919 0.128102C11.8967 0.132865 11.9013 0.137733 11.9057 0.142705C11.9102 0.147675 11.9145 0.152743 11.9187 0.157908C11.9228 0.163072 11.9269 0.168327 11.9307 0.173673C11.9346 0.179019 11.9384 0.184449 11.9419 0.189962C11.9455 0.195475 11.9489 0.201066 11.9522 0.206732C11.9555 0.212399 11.9586 0.218137 11.9615 0.223944C11.9645 0.22975 11.9673 0.23562 11.9699 0.241552C11.9725 0.247484 11.975 0.253471 11.9772 0.259515C11.9795 0.265557 11.9817 0.271648 11.9836 0.277786C11.9856 0.283923 11.9873 0.290101 11.9889 0.296319C11.9906 0.302536 11.992 0.308787 11.9932 0.315069C11.9945 0.321351 11.9956 0.327657 11.9965 0.333988C11.9974 0.34032 11.9981 0.346668 11.9987 0.353031C11.9992 0.359395 11.9996 0.365767 11.9998 0.372148C12 0.378528 12 0.38491 11.9999 0.391293C11.9998 0.397674 11.9994 0.404049 11.9989 0.410416C11.9984 0.416782 11.9977 0.423134 11.9969 0.429471C11.996 0.435807 11.995 0.442121 11.9937 0.44841C11.9925 0.454699 11.9911 0.460958 11.9896 0.467185C11.988 0.473412 11.9863 0.479601 11.9844 0.485751C11.9825 0.491899 11.9804 0.498002 11.9782 0.504058C11.9759 0.510115 11.9735 0.516117 11.9709 0.522065C11.9683 0.528012 11.9656 0.533898 11.9627 0.539723C11.9598 0.545547 11.9567 0.551303 11.9535 0.55699C11.9503 0.562676 11.9469 0.568288 11.9433 0.573822C11.9398 0.579357 11.9361 0.584809 11.9323 0.590177C11.9284 0.595546 11.9245 0.600826 11.9203 0.606016C11.9162 0.611204 11.9119 0.616298 11.9075 0.621297C11.9031 0.626293 11.8985 0.631188 11.8938 0.635981C11.8891 0.640773 11.8843 0.645458 11.8794 0.650034C11.8744 0.65461 11.8693 0.659073 11.8641 0.66342C11.8589 0.667767 11.8536 0.671996 11.8482 0.676105C11.8428 0.680215 11.8372 0.684199 11.8316 0.688059C11.8259 0.691918 11.8202 0.695648 11.8143 0.699249C11.8084 0.702849 11.8025 0.706316 11.7964 0.709649C11.7904 0.712983 11.7842 0.716178 11.778 0.719235C11.7717 0.722291 11.7654 0.725205 11.759 0.727979C11.7526 0.730751 11.7462 0.733379 11.7396 0.735861C11.7331 0.738342 11.7265 0.740676 11.7198 0.742862C11.7131 0.745046 11.7064 0.747081 11.6996 0.748963C11.6928 0.750845 11.686 0.752574 11.6791 0.754151C11.6722 0.755725 11.6653 0.757145 11.6584 0.75841C11.6514 0.759674 11.6444 0.760781 11.6374 0.761732C11.6304 0.762682 11.6233 0.763474 11.6163 0.764107C11.6092 0.76474 11.6021 0.765215 11.595 0.765531C11.5189 0.770878 11.3659 0.78746 11.147 0.821165C11.0559 0.835609 10.9625 0.851121 10.8667 0.868773C10.9387 1.44756 10.9108 2.07182 10.7126 2.67094C10.7024 2.70283 10.6917 2.73456 10.6803 2.76613C10.669 2.79771 10.6571 2.82912 10.6447 2.86035C10.6322 2.89158 10.6192 2.92261 10.6056 2.95346C10.592 2.98432 10.5779 3.01496 10.5632 3.04539C10.5485 3.07583 10.5333 3.10605 10.5175 3.13605C10.5017 3.16606 10.4854 3.19581 10.4686 3.22533C10.4518 3.25486 10.4344 3.28412 10.4165 3.31313C10.3986 3.34215 10.3802 3.37091 10.3612 3.39939C10.3423 3.42786 10.3229 3.45607 10.3029 3.48398C10.283 3.51189 10.2625 3.53952 10.2416 3.56683C10.2207 3.59415 10.1992 3.62117 10.1773 3.64787C10.1554 3.67455 10.133 3.70093 10.1102 3.72698C10.0873 3.75302 10.064 3.77873 10.0402 3.8041C10.0164 3.82946 9.99216 3.85447 9.96747 3.87914C9.94278 3.9038 9.91767 3.92809 9.8921 3.95203C9.86653 3.97595 9.84055 3.9995 9.81414 4.02268L9.81415 4.02268ZM2.32529 12C2.31833 12 2.31135 11.9998 2.30439 11.9995C2.29742 11.9992 2.29047 11.9988 2.28354 11.9981C2.2766 11.9975 2.26968 11.9968 2.26278 11.9958C2.25588 11.9949 2.24901 11.9938 2.24218 11.9926C2.23534 11.9914 2.22854 11.99 2.22177 11.9885C2.21501 11.987 2.20829 11.9853 2.20162 11.9835C2.19495 11.9817 2.18833 11.9797 2.18177 11.9776C2.17521 11.9755 2.1687 11.9732 2.16225 11.9708C2.15581 11.9684 2.14944 11.9659 2.14314 11.9632C2.13685 11.9605 2.13062 11.9577 2.12446 11.9548C2.11831 11.9518 2.11224 11.9487 2.10626 11.9455C2.10029 11.9423 2.0944 11.9389 2.08859 11.9354C2.08281 11.932 2.0771 11.9283 2.0715 11.9246C2.0659 11.9209 2.06041 11.917 2.05502 11.9131C2.04963 11.9091 2.04435 11.905 2.03918 11.9008C2.03402 11.8966 2.02897 11.8922 2.02404 11.8878C2.01911 11.8834 2.01431 11.8788 2.00963 11.8742C2.00494 11.8695 2.00039 11.8648 1.99597 11.86C1.99155 11.8551 1.98725 11.8502 1.9831 11.8451C1.97894 11.8401 1.97493 11.835 1.97106 11.8298C1.96719 11.8246 1.96346 11.8193 1.95987 11.8139C1.95629 11.8085 1.95285 11.8031 1.94956 11.7975C1.94627 11.792 1.94315 11.7864 1.94017 11.7807C1.93719 11.7751 1.93435 11.7693 1.93169 11.7635C1.92902 11.7578 1.92651 11.7519 1.92417 11.746C1.92182 11.7401 1.91962 11.7342 1.91761 11.7282C1.91559 11.7222 1.91373 11.7161 1.91203 11.71C1.91033 11.704 1.90881 11.6978 1.90745 11.6917C1.90608 11.6856 1.90489 11.6794 1.90386 11.6732C1.90285 11.667 1.90199 11.6608 1.90131 11.6545C1.90063 11.6483 1.90011 11.642 1.89977 11.6358C1.89943 11.6295 1.89925 11.6232 1.89925 11.617C1.89925 11.6107 1.89943 11.6044 1.89977 11.5982C1.90011 11.5919 1.90063 11.5857 1.90131 11.5794C1.90199 11.5732 1.90285 11.567 1.90386 11.5608C1.90489 11.5546 1.90608 11.5484 1.90745 11.5423C1.90881 11.5361 1.91033 11.53 1.91203 11.5239C1.91373 11.5178 1.91559 11.5118 1.91761 11.5058C1.91962 11.4998 1.92182 11.4938 1.92417 11.4879C1.92651 11.482 1.92902 11.4762 1.93169 11.4704C1.93435 11.4646 1.93719 11.4589 1.94017 11.4532C1.94315 11.4476 1.94627 11.442 1.94956 11.4364C1.95285 11.4309 1.95629 11.4255 1.95987 11.4201C1.96346 11.4147 1.96719 11.4094 1.97106 11.4042C1.97493 11.399 1.97894 11.3939 1.9831 11.3888C1.98725 11.3838 1.99155 11.3788 1.99597 11.374C2.00039 11.3692 2.00494 11.3644 2.00963 11.3598C2.01431 11.3551 2.01911 11.3506 2.02404 11.3462C2.02897 11.3417 2.03402 11.3374 2.03918 11.3332C2.04435 11.329 2.04963 11.3249 2.05502 11.3209C2.06041 11.3169 2.0659 11.3131 2.0715 11.3094C2.0771 11.3056 2.08281 11.302 2.08859 11.2985C2.0944 11.295 2.10029 11.2917 2.10626 11.2885C2.11224 11.2852 2.11831 11.2821 2.12446 11.2792C2.13062 11.2762 2.13685 11.2734 2.14314 11.2707C2.14944 11.2681 2.15581 11.2655 2.16225 11.2631C2.1687 11.2607 2.17521 11.2585 2.18177 11.2564C2.18833 11.2543 2.19495 11.2523 2.20162 11.2505C2.20829 11.2486 2.21501 11.247 2.22177 11.2455C2.22854 11.2439 2.23534 11.2426 2.24218 11.2413C2.24901 11.2401 2.25588 11.239 2.26278 11.2381C2.26968 11.2372 2.2766 11.2364 2.28354 11.2358C2.29047 11.2352 2.29742 11.2347 2.30439 11.2344C2.31135 11.2341 2.31833 11.234 2.32529 11.234L2.86855 11.234C2.87551 11.234 2.88249 11.2341 2.88945 11.2344C2.89642 11.2347 2.90337 11.2352 2.9103 11.2358C2.91724 11.2364 2.92416 11.2372 2.93106 11.2381C2.93796 11.239 2.94483 11.2401 2.95166 11.2413C2.9585 11.2426 2.9653 11.2439 2.97207 11.2455C2.97883 11.247 2.98555 11.2486 2.99222 11.2505C2.99889 11.2523 3.00551 11.2543 3.01207 11.2564C3.01863 11.2585 3.02514 11.2607 3.03159 11.2631C3.03803 11.2655 3.0444 11.2681 3.0507 11.2707C3.05701 11.2734 3.06324 11.2762 3.06938 11.2792C3.07553 11.2822 3.0816 11.2852 3.08758 11.2885C3.09355 11.2917 3.09944 11.295 3.10525 11.2985C3.11103 11.302 3.11674 11.3056 3.12234 11.3094C3.12794 11.3131 3.13343 11.3169 3.13882 11.3209C3.14421 11.3249 3.14949 11.329 3.15466 11.3332C3.15983 11.3374 3.16487 11.3417 3.1698 11.3462C3.17473 11.3506 3.17953 11.3551 3.18422 11.3598C3.1889 11.3644 3.19346 11.3692 3.19788 11.374C3.20231 11.3789 3.20659 11.3838 3.21074 11.3888C3.2149 11.3939 3.21891 11.399 3.22278 11.4042C3.22666 11.4094 3.23039 11.4147 3.23397 11.4201C3.23755 11.4255 3.24099 11.4309 3.24428 11.4364C3.24757 11.442 3.25071 11.4476 3.25369 11.4532C3.25667 11.4589 3.25949 11.4646 3.26216 11.4704C3.26482 11.4762 3.26733 11.4821 3.26969 11.488C3.27202 11.4939 3.27422 11.4998 3.27623 11.5058C3.27827 11.5118 3.28012 11.5178 3.28182 11.5239C3.28352 11.53 3.28504 11.5361 3.28641 11.5423C3.28776 11.5484 3.28895 11.5546 3.28998 11.5608C3.291 11.567 3.29186 11.5732 3.29254 11.5794C3.29322 11.5857 3.29373 11.5919 3.29408 11.5982C3.29441 11.6045 3.29459 11.6107 3.29459 11.617C3.29459 11.6233 3.29441 11.6295 3.29408 11.6358C3.29373 11.642 3.29322 11.6483 3.29254 11.6545C3.29186 11.6608 3.291 11.667 3.28998 11.6732C3.28895 11.6794 3.28776 11.6856 3.28641 11.6917C3.28504 11.6979 3.28352 11.704 3.28182 11.7101C3.28012 11.7161 3.27827 11.7222 3.27623 11.7282C3.27422 11.7342 3.27202 11.7401 3.26969 11.746C3.26733 11.7519 3.26482 11.7578 3.26216 11.7636C3.25949 11.7694 3.25667 11.7751 3.25369 11.7807C3.25071 11.7864 3.24757 11.792 3.24428 11.7975C3.24099 11.8031 3.23755 11.8085 3.23397 11.8139C3.23039 11.8193 3.22666 11.8246 3.22278 11.8298C3.21891 11.835 3.2149 11.8401 3.21074 11.8451C3.20659 11.8502 3.20231 11.8551 3.19788 11.86C3.19346 11.8648 3.1889 11.8696 3.18422 11.8742C3.17953 11.8789 3.17473 11.8834 3.1698 11.8878C3.16487 11.8923 3.15983 11.8966 3.15466 11.9008C3.14949 11.905 3.14421 11.9091 3.13882 11.9131C3.13343 11.917 3.12794 11.9209 3.12234 11.9246C3.11674 11.9284 3.11103 11.932 3.10525 11.9354C3.09944 11.9389 3.09355 11.9423 3.08758 11.9455C3.0816 11.9487 3.07553 11.9518 3.06938 11.9548C3.06324 11.9577 3.05701 11.9606 3.0507 11.9632C3.0444 11.9659 3.03803 11.9684 3.03159 11.9708C3.02514 11.9732 3.01863 11.9755 3.01207 11.9776C3.00551 11.9797 2.99889 11.9817 2.99222 11.9835C2.98555 11.9853 2.97883 11.987 2.97207 11.9885C2.9653 11.99 2.9585 11.9914 2.95166 11.9926C2.94483 11.9939 2.93796 11.9949 2.93106 11.9959C2.92416 11.9968 2.91724 11.9975 2.9103 11.9982C2.90337 11.9988 2.89642 11.9992 2.88945 11.9995C2.88249 11.9998 2.87551 12 2.86855 12L2.32529 12L2.32529 12ZM4.49829 12C4.49133 12 4.48435 11.9998 4.47739 11.9995C4.47042 11.9992 4.46347 11.9988 4.45654 11.9981C4.4496 11.9975 4.44268 11.9968 4.43578 11.9958C4.42888 11.9949 4.42201 11.9938 4.41518 11.9926C4.40834 11.9914 4.40154 11.99 4.39477 11.9885C4.38801 11.987 4.38129 11.9853 4.37462 11.9835C4.36795 11.9817 4.36133 11.9797 4.35477 11.9776C4.34821 11.9755 4.3417 11.9732 4.33526 11.9708C4.32881 11.9684 4.32244 11.9659 4.31614 11.9632C4.30985 11.9605 4.30362 11.9577 4.29746 11.9548C4.29131 11.9518 4.28524 11.9487 4.27927 11.9455C4.27329 11.9423 4.2674 11.9389 4.2616 11.9354C4.25581 11.932 4.2501 11.9283 4.2445 11.9246C4.2389 11.9209 4.23341 11.917 4.22802 11.9131C4.22263 11.9091 4.21735 11.905 4.21218 11.9008C4.20702 11.8966 4.20197 11.8922 4.19704 11.8878C4.19211 11.8834 4.18731 11.8788 4.18263 11.8742C4.17794 11.8695 4.17339 11.8648 4.16897 11.86C4.16455 11.8551 4.16026 11.8502 4.1561 11.8451C4.15194 11.8401 4.14793 11.835 4.14406 11.8298C4.14019 11.8246 4.13646 11.8193 4.13287 11.8139C4.12929 11.8085 4.12585 11.8031 4.12256 11.7975C4.11928 11.792 4.11615 11.7864 4.11317 11.7807C4.11019 11.7751 4.10735 11.7693 4.10469 11.7635C4.10202 11.7578 4.09951 11.7519 4.09717 11.746C4.09482 11.7401 4.09262 11.7342 4.09061 11.7282C4.08859 11.7222 4.08673 11.7161 4.08503 11.71C4.08333 11.704 4.08181 11.6978 4.08045 11.6917C4.07908 11.6856 4.07789 11.6794 4.07687 11.6732C4.07585 11.667 4.07499 11.6608 4.07431 11.6545C4.07363 11.6483 4.07311 11.642 4.07278 11.6358C4.07243 11.6295 4.07225 11.6232 4.07225 11.617C4.07225 11.6107 4.07243 11.6044 4.07278 11.5982C4.07311 11.5919 4.07363 11.5857 4.07431 11.5794C4.07499 11.5732 4.07585 11.567 4.07687 11.5608C4.07789 11.5546 4.07908 11.5484 4.08045 11.5423C4.08181 11.5361 4.08333 11.53 4.08503 11.5239C4.08673 11.5178 4.08859 11.5118 4.09061 11.5058C4.09262 11.4998 4.09482 11.4938 4.09717 11.4879C4.09951 11.482 4.10202 11.4762 4.10469 11.4704C4.10735 11.4646 4.11019 11.4589 4.11317 11.4532C4.11615 11.4476 4.11928 11.442 4.12256 11.4364C4.12585 11.4309 4.12929 11.4255 4.13287 11.4201C4.13646 11.4147 4.14019 11.4094 4.14406 11.4042C4.14793 11.399 4.15194 11.3939 4.1561 11.3888C4.16026 11.3838 4.16455 11.3788 4.16897 11.374C4.17339 11.3692 4.17794 11.3644 4.18263 11.3598C4.18731 11.3551 4.19211 11.3506 4.19704 11.3462C4.20197 11.3417 4.20702 11.3374 4.21218 11.3332C4.21735 11.329 4.22263 11.3249 4.22802 11.3209C4.23341 11.3169 4.2389 11.3131 4.2445 11.3094C4.2501 11.3056 4.25581 11.302 4.2616 11.2985C4.2674 11.295 4.27329 11.2917 4.27927 11.2885C4.28524 11.2852 4.29131 11.2821 4.29746 11.2792C4.30362 11.2762 4.30985 11.2734 4.31614 11.2707C4.32244 11.2681 4.32881 11.2655 4.33526 11.2631C4.3417 11.2607 4.34821 11.2585 4.35477 11.2564C4.36133 11.2543 4.36795 11.2523 4.37462 11.2505C4.38129 11.2486 4.38801 11.247 4.39477 11.2455C4.40154 11.2439 4.40834 11.2426 4.41518 11.2413C4.42201 11.2401 4.42888 11.239 4.43578 11.2381C4.44268 11.2372 4.4496 11.2364 4.45654 11.2358C4.46347 11.2352 4.47042 11.2347 4.47739 11.2344C4.48435 11.2341 4.49133 11.234 4.49829 11.234L9.11621 11.234C9.12317 11.234 9.13015 11.2341 9.13711 11.2344C9.14408 11.2347 9.15103 11.2352 9.15796 11.2358C9.1649 11.2364 9.17182 11.2372 9.17872 11.2381C9.18562 11.239 9.19249 11.2401 9.19932 11.2413C9.20616 11.2426 9.21297 11.2439 9.21973 11.2455C9.22649 11.247 9.23321 11.2486 9.23988 11.2505C9.24655 11.2523 9.25317 11.2543 9.25973 11.2564C9.26629 11.2585 9.2728 11.2607 9.27925 11.2631C9.28569 11.2655 9.29206 11.2681 9.29836 11.2707C9.30467 11.2734 9.3109 11.2762 9.31705 11.2792C9.32319 11.2822 9.32926 11.2852 9.33524 11.2885C9.34121 11.2917 9.34711 11.295 9.35291 11.2985C9.35869 11.302 9.3644 11.3056 9.37 11.3094C9.3756 11.3131 9.38109 11.3169 9.38648 11.3209C9.39187 11.3249 9.39715 11.329 9.40232 11.3332C9.40749 11.3374 9.41253 11.3417 9.41746 11.3462C9.42239 11.3506 9.42719 11.3551 9.43188 11.3598C9.43656 11.3644 9.44112 11.3692 9.44554 11.374C9.44997 11.3789 9.45425 11.3838 9.4584 11.3888C9.46256 11.3939 9.46657 11.399 9.47045 11.4042C9.47432 11.4094 9.47805 11.4147 9.48163 11.4201C9.48521 11.4255 9.48865 11.4309 9.49194 11.4364C9.49523 11.442 9.49837 11.4476 9.50135 11.4532C9.50433 11.4589 9.50715 11.4646 9.50982 11.4704C9.51248 11.4762 9.51499 11.4821 9.51735 11.488C9.51969 11.4939 9.52188 11.4998 9.5239 11.5058C9.52593 11.5118 9.52779 11.5178 9.52948 11.5239C9.53118 11.53 9.5327 11.5361 9.53407 11.5423C9.53542 11.5484 9.53661 11.5546 9.53764 11.5608C9.53866 11.567 9.53952 11.5732 9.5402 11.5794C9.54088 11.5857 9.54139 11.5919 9.54174 11.5982C9.54207 11.6045 9.54225 11.6107 9.54225 11.617C9.54225 11.6233 9.54207 11.6295 9.54174 11.6358C9.54139 11.642 9.54088 11.6483 9.5402 11.6545C9.53952 11.6608 9.53866 11.667 9.53764 11.6732C9.53661 11.6794 9.53542 11.6856 9.53405 11.6917C9.5327 11.6979 9.53118 11.704 9.52948 11.7101C9.52779 11.7161 9.52593 11.7222 9.52391 11.7282C9.52188 11.7342 9.51969 11.7401 9.51735 11.746C9.51499 11.7519 9.51248 11.7578 9.50982 11.7636C9.50715 11.7694 9.50433 11.7751 9.50135 11.7807C9.49837 11.7864 9.49523 11.792 9.49194 11.7975C9.48865 11.8031 9.48521 11.8085 9.48163 11.8139C9.47805 11.8193 9.47432 11.8246 9.47045 11.8298C9.46657 11.835 9.46256 11.8401 9.4584 11.8451C9.45425 11.8502 9.44997 11.8551 9.44554 11.86C9.44112 11.8648 9.43656 11.8696 9.43188 11.8742C9.42719 11.8789 9.42239 11.8834 9.41746 11.8878C9.41253 11.8923 9.40749 11.8966 9.40232 11.9008C9.39715 11.905 9.39187 11.9091 9.38648 11.9131C9.38109 11.917 9.3756 11.9209 9.37 11.9246C9.3644 11.9284 9.35869 11.932 9.35291 11.9354C9.34711 11.9389 9.34121 11.9423 9.33524 11.9455C9.32926 11.9487 9.32319 11.9518 9.31705 11.9548C9.3109 11.9577 9.30467 11.9606 9.29836 11.9632C9.29206 11.9659 9.28569 11.9684 9.27925 11.9708C9.2728 11.9732 9.26629 11.9755 9.25973 11.9776C9.25317 11.9797 9.24655 11.9817 9.23988 11.9835C9.23321 11.9853 9.22649 11.987 9.21973 11.9885C9.21297 11.99 9.20616 11.9914 9.19932 11.9926C9.19249 11.9939 9.18562 11.9949 9.17872 11.9959C9.17182 11.9968 9.1649 11.9975 9.15796 11.9982C9.15103 11.9988 9.14408 11.9992 9.13711 11.9995C9.13015 11.9998 9.12317 12 9.11621 12L4.49888 12L4.49829 12Z"   fill="#000000" ></path></g></svg>