<svg xmlns="http://www.w3.org/2000/svg" xmlns:xlink="http://www.w3.org/1999/xlink" width="16" height="13.9130859375" viewBox="0 0 16 13.9130859375" fill="currentColor"><path d="M9 1.01803C9 1.31953 8.87127 1.59042 8.66667 1.77683L8.66667 3.05408L12 3.05408C13.1046 3.05408 14 3.96566 14 5.09014L14 11.877C14 13.0015 13.1046 13.913 12 13.913L4 13.913C2.89543 13.913 2 13.0015 2 11.877L2 5.09014C2 3.96566 2.89543 3.05408 4 3.05408L7.33333 3.05408L7.33333 1.77683C7.12873 1.59042 7 1.31953 7 1.01803C7 0.455785 7.44773 0 8 0C8.55227 0 9 0.455785 9 1.01803ZM4 4.41145C3.63181 4.41145 3.33333 4.71531 3.33333 5.09014L3.33333 11.877C3.33333 12.2518 3.63181 12.5557 4 12.5557L12 12.5557C12.3682 12.5557 12.6667 12.2518 12.6667 11.877L12.6667 5.09014C12.6667 4.71531 12.3682 4.41145 12 4.41145L8.66667 4.41145L7.33333 4.41145L4 4.41145ZM1.33333 6.44751L0 6.44751L0 10.5196L1.33333 10.5196L1.33333 6.44751ZM14.6667 6.44751L16 6.44751L16 10.5196L14.6667 10.5196L14.6667 6.44751ZM6 9.50159C6.55229 9.50159 7 9.04579 7 8.48356C7 7.92134 6.55229 7.46554 6 7.46554C5.44771 7.46554 5 7.92134 5 8.48356C5 9.04579 5.44771 9.50159 6 9.50159ZM10 9.50159C10.5523 9.50159 11 9.04579 11 8.48356C11 7.92134 10.5523 7.46554 10 7.46554C9.44773 7.46554 9 7.92134 9 8.48356C9 9.04579 9.44773 9.50159 10 9.50159Z"   fill="currentColor" ></path></svg>