<svg xmlns="http://www.w3.org/2000/svg" xmlns:xlink="http://www.w3.org/1999/xlink" width="16" height="16" viewBox="0 0 16 16" fill="currentColor"><path d="M12.9085 5.53607L12.7516 5.89605C12.6368 6.15959 12.2723 6.15959 12.1574 5.89605L12.0006 5.53607C11.7209 4.89421 11.2171 4.38317 10.5885 4.1036L10.1051 3.88859C9.84374 3.77234 9.84374 3.39197 10.1051 3.27571L10.5615 3.07273C11.2063 2.78596 11.719 2.25601 11.9939 1.59235L12.155 1.20334C12.2673 0.932221 12.6418 0.932221 12.754 1.20334L12.9151 1.59235C13.1901 2.25601 13.7028 2.78596 14.3476 3.07273L14.8039 3.27571C15.0654 3.39197 15.0654 3.77234 14.8039 3.88859L14.3206 4.1036C13.692 4.38317 13.1882 4.89421 12.9085 5.53607ZM1 2.90909C1 2.55764 1.28491 2.27273 1.63636 2.27273L8.63636 2.27273L8.63636 3.54545L2.27273 3.54545L2.27273 12.4545L12.4545 12.4545L12.4545 7.36364L13.7273 7.36364L13.7273 13.0909C13.7273 13.4424 13.4424 13.7273 13.0909 13.7273L1.63636 13.7273C1.28491 13.7273 1 13.4424 1 13.0909L1 2.90909ZM4.18182 8.63636L5.45455 8.63636L5.45455 11.1818L4.18182 11.1818L4.18182 8.63636ZM6.72727 4.81818L8 4.81818L8 11.1818L6.72727 11.1818L6.72727 4.81818ZM9.27273 6.72727L10.5455 6.72727L10.5455 11.1818L9.27273 11.1818L9.27273 6.72727Z"   fill="currentColor" ></path></svg>