<svg xmlns="http://www.w3.org/2000/svg" xmlns:xlink="http://www.w3.org/1999/xlink" width="16" height="16" viewBox="0 0 16 16" fill="none"><path d="M3.07396 6.64877L2.91314 7.01769C2.79546 7.28776 2.42189 7.28776 2.30421 7.01769L2.14341 6.64877C1.85678 5.99096 1.34051 5.46722 0.696307 5.18071L0.2009 4.96036C-0.0669665 4.84122 -0.0669665 4.4514 0.2009 4.33225L0.668609 4.12422C1.32938 3.83033 1.85489 3.28722 2.1366 2.60706L2.30173 2.20839C2.41681 1.93054 2.80055 1.93054 2.91563 2.20839L3.08075 2.60706C3.36246 3.28722 3.88799 3.83033 4.54878 4.12422L5.01644 4.33225C5.28438 4.4514 5.28438 4.84122 5.01644 4.96036L4.52105 5.18071C3.87685 5.46722 3.36057 5.99096 3.07396 6.64877ZM0.652174 13.087L0.652174 8.52174L1.95652 8.52174L1.95652 12.4348L9.78261 12.4348L9.78261 4.6087L6.52174 4.6087L6.52174 3.30435L10.4348 3.30435C10.795 3.30435 11.087 3.59634 11.087 3.95652L11.087 6.69565L14.4869 4.31568C14.6345 4.2124 14.8378 4.24829 14.941 4.39583C14.9794 4.45063 15 4.51592 15 4.58282L15 12.4607C15 12.6407 14.854 12.7868 14.6739 12.7868C14.607 12.7868 14.5417 12.7662 14.4869 12.7278L11.087 10.3478L11.087 13.087C11.087 13.4472 10.795 13.7391 10.4348 13.7391L1.30435 13.7391C0.944165 13.7391 0.652174 13.4472 0.652174 13.087ZM11.087 8.75567L13.6957 10.5818L13.6957 6.46172L11.087 8.28781L11.087 8.75567Z"   fill="#333333" ></path></svg>