<svg xmlns="http://www.w3.org/2000/svg" xmlns:xlink="http://www.w3.org/1999/xlink" width="16" height="16" viewBox="0 0 16 16" fill="currentColor"><path d="M8.24492 3.46924L3.71762 3.46924C3.36043 3.46924 3.07088 3.75882 3.07086 4.116L3.07086 10.8015C3.36489 10.6618 3.69382 10.5836 4.04099 10.5836L12.1255 10.5836L12.1255 7.34979L13.419 7.34979L13.419 14.4642C13.419 14.8214 13.1294 15.1109 12.7722 15.1109L4.04099 15.1109C2.79081 15.1109 1.77734 14.0975 1.77734 12.8473L1.77734 4.116C1.77736 3.04443 2.64604 2.17572 3.71762 2.17572L8.24492 2.17572L8.24492 3.46924ZM4.04099 11.8771C3.50521 11.8771 3.07088 12.3115 3.07086 12.8473C3.07086 13.383 3.5052 13.8174 4.04099 13.8174L12.1255 13.8174L12.1255 11.8771L4.04099 11.8771ZM11.821 1.09521C11.9352 0.81983 12.3157 0.819822 12.4299 1.09521L12.5935 1.49059C12.8728 2.16503 13.3941 2.70359 14.0493 2.99506L14.5135 3.20159C14.7788 3.31984 14.7788 3.70608 14.5135 3.82435L14.0221 4.04289C13.3833 4.32699 12.8714 4.84648 12.5872 5.49872L12.4274 5.86442C12.3107 6.13226 11.9403 6.13226 11.8236 5.86442L11.6644 5.49872C11.3801 4.84638 10.8676 4.32703 10.2288 4.04289L9.73737 3.82435C9.47207 3.70609 9.47207 3.31983 9.73737 3.20159L10.2016 2.99506C10.8568 2.7036 11.3781 2.16503 11.6575 1.49059L11.821 1.09521Z"   fill="currentColor" ></path></svg>