<svg xmlns="http://www.w3.org/2000/svg" xmlns:xlink="http://www.w3.org/1999/xlink" width="13.9951171875" height="12.7333984375" viewBox="0 0 13.9951171875 12.7333984375" fill="currentColor"><path d="M10.1751 1.27342C12.284 1.27342 13.9951 2.99409 13.9951 5.09342L13.9951 12.7334L5.08512 12.7334C2.97617 12.7334 1.26512 11.0128 1.26512 8.91342L1.26512 6.36342L2.54512 6.36342L2.54512 8.91342C2.54512 10.3124 3.6816 11.4534 5.08512 11.4534L12.7251 11.4534L12.7251 5.09342C12.7251 3.69448 11.5786 2.55342 10.1751 2.55342L6.35512 2.55342L6.35512 1.27342L10.1751 1.27342ZM6.35512 7.64342L5.08512 7.64342L5.08512 6.36342L6.35512 6.36342L6.35512 7.64342ZM10.1751 7.64342L8.90512 7.64342L8.90512 6.36342L10.1751 6.36342L10.1751 7.64342ZM2.24512 0.203418C2.35745 -0.0675393 2.72278 -0.067538 2.83512 0.203418L3.00512 0.593418C3.27997 1.25701 3.79044 1.78663 4.43512 2.07342L4.89512 2.28342C5.1562 2.39976 5.15617 2.77705 4.89512 2.89342L4.40512 3.10342C3.77661 3.38296 3.27481 3.90166 2.99512 4.54342L2.83512 4.90342C2.72029 5.16696 2.35995 5.16696 2.24512 4.90342L2.08512 4.54342C1.80542 3.90167 1.30363 3.38296 0.675117 3.10342L0.195117 2.89342C-0.065881 2.77705 -0.0659115 2.39976 0.195117 2.28342L0.645117 2.07342C1.28979 1.78663 1.80026 1.25703 2.07512 0.593418L2.24512 0.203418Z"   fill="currentColor" ></path></svg>