<svg xmlns="http://www.w3.org/2000/svg" xmlns:xlink="http://www.w3.org/1999/xlink" width="16" height="16" viewBox="0 0 16 16" fill="currentColor"><path d="M8 1C11.866 1 15 4.134 15 8C15 9.89672 14.2472 11.6225 13.0225 12.8825C11.7514 14.19 9.96868 15 8 15C6.03129 15 4.24855 14.19 2.9775 12.8825C1.75277 11.6225 1 9.89672 1 8C1 4.134 4.13401 1 8 1ZM8 10.8C6.60154 10.8 5.34101 11.3904 4.4475 12.3312C5.41464 13.1264 6.65068 13.6 8 13.6C9.34918 13.6 10.5855 13.1262 11.5525 12.3312C10.659 11.3905 9.39825 10.8 8 10.8ZM8 2.4C4.9072 2.4 2.4 4.9072 2.4 8C2.4 9.23907 2.80374 10.3799 3.485 11.3075C4.62905 10.1307 6.22758 9.4 8 9.4C9.77226 9.4 11.371 10.1308 12.515 11.3075C13.1964 10.3799 13.6 9.23921 13.6 8C13.6 4.9072 11.0928 2.4 8 2.4ZM7.6675 3.3275C7.79105 3.02926 8.20902 3.02926 8.3325 3.3275L8.5075 3.7475C8.8099 4.47744 9.37333 5.06832 10.0825 5.38375L10.5813 5.6025C10.8686 5.73043 10.8685 6.1483 10.5813 6.27625L10.0563 6.5125C9.36479 6.82004 8.8064 7.38148 8.49875 8.0875L8.32375 8.48125C8.19747 8.77105 7.8026 8.77105 7.67625 8.48125L7.50125 8.0875C7.1936 7.38148 6.63523 6.82004 5.94375 6.5125L5.41875 6.27625C5.13145 6.1483 5.13144 5.73042 5.41875 5.6025L5.9175 5.38375C6.62668 5.06832 7.19017 4.47745 7.4925 3.7475L7.6675 3.3275Z"   fill="currentColor" ></path></svg>