<svg xmlns="http://www.w3.org/2000/svg" xmlns:xlink="http://www.w3.org/1999/xlink" width="16" height="16" viewBox="0 0 16 16" fill="currentColor"><path d="M4.38182 2.38182L4.38182 13.4364L11.2909 13.4364L11.2909 2.38182L4.38182 2.38182ZM3.69091 1L11.9818 1C12.3634 1 12.6727 1.30933 12.6727 1.69091L12.6727 14.1273C12.6727 14.5089 12.3634 14.8182 11.9818 14.8182L3.69091 14.8182C3.30933 14.8182 3 14.5089 3 14.1273L3 1.69091C3 1.30933 3.30933 1 3.69091 1ZM7.83636 11.3636C8.21795 11.3636 8.52727 11.673 8.52727 12.0545C8.52727 12.4361 8.21795 12.7455 7.83636 12.7455C7.45477 12.7455 7.14545 12.4361 7.14545 12.0545C7.14545 11.673 7.45477 11.3636 7.83636 11.3636Z"   fill="currentColor" ></path></svg>