<svg xmlns="http://www.w3.org/2000/svg" xmlns:xlink="http://www.w3.org/1999/xlink" width="16" height="16" viewBox="0 0 16 16" fill="currentColor"><path d="M8 15C4.13401 15 1 11.866 1 8C1 4.13401 4.13401 1 8 1C11.866 1 15 4.13401 15 8C15 11.866 11.866 15 8 15ZM8 13.6C11.0928 13.6 13.6 11.0928 13.6 8C13.6 4.9072 11.0928 2.4 8 2.4C4.9072 2.4 2.4 4.9072 2.4 8C2.4 11.0928 4.9072 13.6 8 13.6ZM8 5.2C8.38661 5.2 8.7 5.5134 8.7 5.9C8.7 6.2866 8.38661 6.6 8 6.6C7.61339 6.6 7.3 6.2866 7.3 5.9C7.3 5.5134 7.61339 5.2 8 5.2ZM8 8C9.15983 8 10.1 7.05983 10.1 5.9C10.1 4.7402 9.15983 3.8 8 3.8C6.84017 3.8 5.9 4.7402 5.9 5.9C5.9 7.05983 6.84017 8 8 8ZM8 10.1C7.22678 10.1 6.6 10.7268 6.6 11.5L5.2 11.5C5.2 9.95363 6.4536 8.7 8 8.7C9.54637 8.7 10.8 9.95363 10.8 11.5L9.4 11.5C9.4 10.7268 8.77322 10.1 8 10.1Z"   fill="currentColor" ></path></svg>