<svg xmlns="http://www.w3.org/2000/svg" xmlns:xlink="http://www.w3.org/1999/xlink" width="16" height="16" viewBox="0 0 16 16" fill="currentColor"><path d="M5.2 5.2L5.2 10.8L10.8 10.8L10.8 5.2L5.2 5.2ZM3.8 3.8L12.2 3.8L12.2 12.2L3.8 12.2L3.8 3.8ZM3.8 1L5.2 1L5.2 3.1L3.8 3.1L3.8 1ZM3.8 12.9L5.2 12.9L5.2 15L3.8 15L3.8 12.9ZM1 3.8L3.1 3.8L3.1 5.2L1 5.2L1 3.8ZM1 10.8L3.1 10.8L3.1 12.2L1 12.2L1 10.8ZM12.9 3.8L15 3.8L15 5.2L12.9 5.2L12.9 3.8ZM12.9 10.8L15 10.8L15 12.2L12.9 12.2L12.9 10.8ZM10.8 1L12.2 1L12.2 3.1L10.8 3.1L10.8 1ZM10.8 12.9L12.2 12.9L12.2 15L10.8 15L10.8 12.9Z"   fill="currentColor" ></path></svg>