<svg xmlns="http://www.w3.org/2000/svg" xmlns:xlink="http://www.w3.org/1999/xlink" width="16" height="16" viewBox="0 0 16 16" fill="currentColor"><path d="M3.9999 5.53677L3.84296 5.8968C3.72811 6.16038 3.36355 6.16038 3.2487 5.8968L3.09177 5.53677C2.81205 4.89481 2.30822 4.38369 1.67953 4.10408L1.19606 3.88904C0.934647 3.77277 0.934647 3.39234 1.19606 3.27606L1.6525 3.07305C2.29735 2.78624 2.81021 2.2562 3.08513 1.59244L3.24628 1.20337C3.35859 0.93221 3.73308 0.93221 3.84539 1.20337L4.00653 1.59244C4.28145 2.2562 4.79432 2.78624 5.4392 3.07305L5.89559 3.27606C6.15707 3.39234 6.15707 3.77277 5.89559 3.88904L5.41213 4.10408C4.78345 4.38369 4.27961 4.89481 3.9999 5.53677ZM5.03148 11.0659C5.14357 10.6952 5.26888 10.3281 5.41649 9.93128C6.72487 6.41397 8.90467 4.23432 12.4645 3.68255C12.1381 4.41041 11.8295 4.91616 11.5562 5.18943C11.3438 5.40179 11.1315 5.61431 10.9191 5.82697L10.02 6.72738L10.9466 7.65326C10.2272 8.98022 8.80633 10.0364 7.20673 10.2363C6.36884 10.3411 5.642 10.6225 5.03148 11.0659ZM12.4563 7.36244L11.8199 6.72643C12.0319 6.51413 12.2439 6.30198 12.458 6.08782C13.0939 5.4508 13.7298 4.17844 14.3657 2.27075C5.01674 2.27075 3.6022 10.8155 2.94987 14.756C2.93605 14.8394 2.92259 14.9208 2.90939 15L4.18119 15C4.60505 12.8786 5.6662 11.7117 7.36462 11.4995C9.91047 11.1812 11.8199 9.27184 12.4563 7.36244Z"   fill="currentColor" ></path></svg>