<svg xmlns="http://www.w3.org/2000/svg" xmlns:xlink="http://www.w3.org/1999/xlink" width="12" height="12" viewBox="0 0 12 12" fill="none"><g opacity="0.7"><path d="M7.82577 7.42222L7.89787 7.46296L7.95978 7.51185L11.0125 10.3978L11.0125 8.79852C11.0125 8.62296 11.1167 8.46666 11.2758 8.38741L11.3464 8.35778L11.4247 8.33927L11.5062 8.33185C11.5126 8.33187 11.519 8.332 11.5254 8.33225C11.5318 8.33249 11.5381 8.33285 11.5445 8.33333C11.5508 8.33383 11.5572 8.33441 11.5635 8.33513C11.5699 8.33585 11.5762 8.33667 11.5825 8.33761C11.5888 8.33855 11.5951 8.33962 11.6013 8.3408C11.6076 8.34197 11.6138 8.34326 11.62 8.34466C11.6262 8.34606 11.6324 8.34758 11.6385 8.34921C11.6447 8.35084 11.6508 8.35257 11.6569 8.35443C11.6629 8.3563 11.669 8.35825 11.675 8.36032C11.6809 8.36241 11.6869 8.36459 11.6928 8.36688C11.6987 8.36917 11.7046 8.37157 11.7104 8.37407C11.7162 8.37657 11.7219 8.37918 11.7276 8.3819C11.7333 8.38462 11.739 8.38744 11.7445 8.39037C11.7501 8.3933 11.7556 8.39632 11.7611 8.39944C11.7666 8.40257 11.7719 8.40579 11.7773 8.40912C11.7826 8.41244 11.7878 8.41586 11.793 8.41938C11.7982 8.4229 11.8033 8.42651 11.8084 8.43022C11.8134 8.43393 11.8183 8.43771 11.8232 8.4416C11.8281 8.44548 11.8329 8.44946 11.8376 8.45352C11.8423 8.45757 11.847 8.46173 11.8515 8.46595C11.8561 8.47018 11.8605 8.47449 11.8649 8.47888C11.8693 8.48328 11.8735 8.48775 11.8777 8.4923C11.8819 8.49685 11.886 8.50148 11.89 8.50618C11.894 8.51089 11.8979 8.51566 11.9017 8.5205C11.9055 8.52535 11.9092 8.53026 11.9128 8.53524C11.9164 8.54022 11.9199 8.54526 11.9233 8.55037C11.9267 8.55548 11.93 8.56064 11.9332 8.56587C11.9363 8.57111 11.9394 8.57639 11.9424 8.58172C11.9453 8.58705 11.9482 8.59245 11.9509 8.59791C11.9537 8.60335 11.9563 8.60884 11.9588 8.61438C11.9614 8.61993 11.9638 8.62552 11.9661 8.63114C11.9683 8.63677 11.9705 8.64244 11.9726 8.64815L11.9922 8.72223L12 8.79852L12 11.4548C12.0001 11.4773 11.9986 11.4997 11.9956 11.522C11.9926 11.5444 11.988 11.5664 11.982 11.5882C11.9806 11.5963 11.9789 11.6044 11.977 11.6125C11.9752 11.6206 11.9731 11.6286 11.9707 11.6366C11.9684 11.6446 11.9658 11.6525 11.963 11.6603C11.9602 11.6681 11.9572 11.6759 11.954 11.6836C11.9507 11.6913 11.9473 11.6989 11.9436 11.7063C11.9399 11.7139 11.936 11.7213 11.9319 11.7286C11.9278 11.7359 11.9235 11.7431 11.919 11.7501C11.9144 11.7572 11.9097 11.7642 11.9048 11.771C11.8999 11.7779 11.8948 11.7846 11.8895 11.7911C11.8841 11.7977 11.8786 11.8041 11.873 11.8104C11.8673 11.8167 11.8614 11.8228 11.8554 11.8288C11.8493 11.8348 11.8431 11.8406 11.8368 11.8463C11.8304 11.852 11.8239 11.8575 11.8172 11.8628C11.8105 11.8681 11.8037 11.8733 11.7967 11.8783C11.7897 11.8833 11.7825 11.8881 11.7753 11.8927C11.768 11.8973 11.7606 11.9017 11.7531 11.9059L11.7053 11.9296C11.6671 11.9503 11.6269 11.9663 11.5846 11.9778L11.5164 11.9926L11.4224 12L8.65889 12C8.65168 12 8.6445 11.9997 8.63731 11.9994C8.63012 11.999 8.62292 11.9986 8.61577 11.9979C8.60861 11.9972 8.60146 11.9965 8.59433 11.9955C8.58721 11.9946 8.58011 11.9935 8.57302 11.9922C8.56593 11.991 8.55889 11.9896 8.55187 11.9881C8.54486 11.9866 8.53789 11.9849 8.53095 11.9831C8.52402 11.9813 8.51713 11.9793 8.51028 11.9772C8.50342 11.9751 8.49664 11.9728 8.48989 11.9705C8.48313 11.9681 8.47645 11.9656 8.46983 11.9629C8.46321 11.9602 8.45665 11.9574 8.45015 11.9545C8.44365 11.9516 8.43722 11.9485 8.43087 11.9453C8.42452 11.9421 8.41824 11.9388 8.41203 11.9354C8.40583 11.9319 8.39972 11.9283 8.39367 11.9246C8.38764 11.9209 8.3817 11.9171 8.37584 11.9131C8.36998 11.9091 8.36422 11.9051 8.35855 11.9009C8.35287 11.8967 8.34732 11.8924 8.34184 11.888C8.33637 11.8835 8.331 11.879 8.32575 11.8744C8.32048 11.8697 8.31532 11.865 8.31029 11.8601C8.30525 11.8553 8.30032 11.8503 8.2955 11.8452C8.29071 11.8402 8.28601 11.835 8.28143 11.8297C8.27686 11.8245 8.27242 11.8191 8.26809 11.8137C8.26376 11.8083 8.25957 11.8028 8.2555 11.7971C8.25144 11.7915 8.2475 11.7858 8.24369 11.78C8.23989 11.7743 8.23622 11.7684 8.23268 11.7625C8.22915 11.7566 8.22574 11.7506 8.22249 11.7445C8.21923 11.7384 8.21611 11.7323 8.21313 11.7261C8.21017 11.7199 8.20734 11.7137 8.20465 11.7074C8.20197 11.701 8.19942 11.6947 8.19705 11.6883C8.19466 11.6818 8.19242 11.6754 8.19032 11.6689C8.18823 11.6623 8.18629 11.6558 8.18451 11.6492C8.18272 11.6426 8.18109 11.636 8.17961 11.6293C8.17812 11.6227 8.17679 11.616 8.17563 11.6093C8.17445 11.6026 8.17344 11.5958 8.17258 11.5891C8.17173 11.5823 8.17102 11.5755 8.17048 11.5688C8.16992 11.562 8.16954 11.5552 8.1693 11.5484C8.16908 11.5416 8.169 11.5348 8.16908 11.528C8.16917 11.5212 8.1694 11.5144 8.16981 11.5076C8.17019 11.5008 8.17075 11.494 8.17146 11.4872C8.17218 11.4805 8.17304 11.4737 8.17407 11.467C8.17509 11.4602 8.17627 11.4535 8.1776 11.4468C8.17893 11.4402 8.18043 11.4335 8.18207 11.4269C8.1837 11.4203 8.1855 11.4137 8.18745 11.4071C8.18939 11.4006 8.19149 11.3941 8.19375 11.3876C8.19599 11.3811 8.1984 11.3747 8.20094 11.3684C8.20348 11.362 8.20616 11.3557 8.20901 11.3494C8.21185 11.3432 8.21483 11.337 8.21795 11.3309C8.22106 11.3247 8.22433 11.3187 8.22775 11.3127C8.23115 11.3067 8.23468 11.3008 8.23837 11.2949C8.24204 11.2891 8.24585 11.2833 8.24981 11.2776C8.25375 11.2719 8.25782 11.2663 8.26203 11.2608C8.26622 11.2553 8.27055 11.2498 8.27501 11.2445C8.27947 11.2391 8.28405 11.2339 8.28875 11.2287C8.29345 11.2236 8.29827 11.2185 8.3032 11.2136C8.30813 11.2086 8.31317 11.2038 8.31834 11.199C8.32349 11.1943 8.32876 11.1896 8.33413 11.1851C8.3395 11.1806 8.34498 11.1762 8.35055 11.1718C8.35612 11.1676 8.3618 11.1634 8.36757 11.1593C8.37335 11.1552 8.37921 11.1513 8.38515 11.1475C8.3911 11.1436 8.39714 11.1399 8.40327 11.1364C8.4094 11.1328 8.4156 11.1293 8.42188 11.126C8.42816 11.1227 8.43452 11.1195 8.44095 11.1164C8.44739 11.1134 8.45389 11.1105 8.46045 11.1077C8.46702 11.1049 8.47365 11.1022 8.48034 11.0997C8.48702 11.0972 8.49378 11.0948 8.50056 11.0926L8.57738 11.0741L8.65889 11.0667L10.3439 11.0667L7.27088 8.16297C7.26699 8.15929 7.26318 8.15555 7.25943 8.15175C7.25567 8.14795 7.252 8.14409 7.2484 8.14016C7.24479 8.13625 7.24126 8.13227 7.23779 8.12824C7.23432 8.12422 7.23094 8.12013 7.22762 8.11599C7.2243 8.11185 7.22105 8.10767 7.21789 8.10342C7.2147 8.09917 7.21162 8.09487 7.20861 8.09053C7.2056 8.08618 7.20265 8.08181 7.1998 8.07736C7.19696 8.07292 7.19418 8.06844 7.19147 8.0639C7.18877 8.05938 7.18616 8.05481 7.18364 8.0502C7.1811 8.0456 7.17865 8.04095 7.1763 8.03626C7.17392 8.03156 7.17165 8.02684 7.16946 8.02208C7.16725 8.01732 7.16515 8.01251 7.16313 8.00769C7.16111 8.00287 7.15917 7.998 7.15732 7.99311C7.15547 7.98823 7.1537 7.9833 7.15203 7.97835C7.15037 7.9734 7.1488 7.96843 7.1473 7.96343C7.1458 7.95842 7.1444 7.95341 7.14309 7.94836C7.14178 7.94332 7.14055 7.93826 7.13942 7.93318C7.13829 7.92809 7.13725 7.92298 7.13631 7.91787C7.13535 7.91276 7.13449 7.90762 7.13373 7.90248C7.13297 7.89734 7.1323 7.89219 7.13173 7.88701C7.13114 7.88186 7.13065 7.87669 7.13026 7.8715C7.12987 7.86632 7.12957 7.86114 7.12937 7.85595C7.12915 7.85074 7.12903 7.84556 7.12901 7.84037C7.129 7.83516 7.12908 7.82998 7.12923 7.82479C7.1294 7.81958 7.12967 7.8144 7.13002 7.80922C7.13038 7.80404 7.13082 7.79886 7.13136 7.79369C7.13189 7.78852 7.13252 7.78336 7.13324 7.77822C7.13397 7.77307 7.13479 7.76793 7.1357 7.7628C7.13661 7.75769 7.1376 7.75258 7.1387 7.74749C7.13979 7.7424 7.14097 7.73732 7.14223 7.73226C7.14351 7.72722 7.14488 7.72219 7.14632 7.71718C7.14779 7.71216 7.14932 7.70718 7.15096 7.70222L7.17918 7.63482L7.21836 7.57037L7.27088 7.51185C7.27531 7.50768 7.2798 7.50359 7.2844 7.49958C7.289 7.49555 7.29366 7.49162 7.29841 7.48779C7.30316 7.48395 7.30799 7.48019 7.31289 7.47653C7.31779 7.47286 7.32276 7.46929 7.32781 7.46581C7.33286 7.46232 7.33798 7.45892 7.34316 7.45562C7.34835 7.45233 7.3536 7.44911 7.35892 7.44601C7.36423 7.44291 7.36962 7.43988 7.37506 7.43697C7.38049 7.43406 7.38598 7.43126 7.39154 7.42854C7.3971 7.42582 7.4027 7.42321 7.40836 7.42071C7.41402 7.41819 7.41973 7.41579 7.42549 7.41348C7.43125 7.41119 7.43705 7.40899 7.4429 7.40691C7.44874 7.40482 7.45463 7.40283 7.46056 7.40096C7.46649 7.39908 7.47245 7.39731 7.47846 7.39564C7.48445 7.39399 7.49048 7.39244 7.49656 7.39099C7.50262 7.38955 7.50872 7.38823 7.51483 7.387C7.52094 7.38579 7.52709 7.38469 7.53325 7.38369C7.53941 7.38269 7.54559 7.38181 7.55179 7.38103C7.55799 7.38027 7.5642 7.37962 7.57043 7.37906C7.57664 7.37852 7.58287 7.37809 7.58912 7.37777C7.59537 7.37745 7.60161 7.37724 7.60786 7.37716C7.61411 7.37707 7.62037 7.37709 7.62662 7.37723C7.63287 7.37737 7.63911 7.37761 7.64536 7.37798C7.65161 7.37834 7.65784 7.37882 7.66405 7.37941C7.67026 7.38 7.67648 7.3807 7.68266 7.38151C7.68885 7.38232 7.69503 7.38326 7.70118 7.38429C7.70734 7.38533 7.71347 7.38649 7.71958 7.38775C7.7257 7.38901 7.73178 7.39039 7.73782 7.39187C7.74387 7.39335 7.74989 7.39496 7.75587 7.39666C7.76187 7.39836 7.76781 7.40016 7.77372 7.40209C7.77963 7.40401 7.78551 7.40603 7.79135 7.40817C7.79717 7.4103 7.80295 7.41254 7.80869 7.41488C7.81443 7.41722 7.82013 7.41967 7.82577 7.42222ZM11.4232 0C11.525 0 11.623 0.0251765 11.7053 0.0696253C11.7315 0.0815929 11.7564 0.0955341 11.78 0.111448C11.8037 0.127363 11.8258 0.145028 11.8464 0.164443C11.9177 0.231108 11.9639 0.31703 11.9804 0.4037L11.9945 0.473325L11.9992 0.545178L11.9992 3.20148C11.9991 3.2087 11.9989 3.21593 11.9984 3.22314C11.998 3.23034 11.9974 3.23755 11.9966 3.24473C11.9958 3.25191 11.9948 3.25907 11.9937 3.26622C11.9925 3.27336 11.9912 3.28047 11.9897 3.28756C11.9882 3.29464 11.9866 3.30169 11.9847 3.30871C11.9829 3.31573 11.9809 3.32268 11.9787 3.3296C11.9765 3.33652 11.9742 3.3434 11.9716 3.35023C11.9691 3.35704 11.9664 3.3638 11.9636 3.3705C11.9607 3.3772 11.9577 3.38384 11.9546 3.39041C11.9514 3.39698 11.948 3.40348 11.9445 3.40991C11.941 3.41632 11.9374 3.42267 11.9336 3.42894C11.9298 3.43519 11.9258 3.44137 11.9217 3.44746C11.9176 3.45356 11.9133 3.45954 11.9089 3.46545C11.9045 3.47135 11.9 3.47716 11.8953 3.48286C11.8906 3.48857 11.8857 3.49416 11.8808 3.49965C11.8758 3.50514 11.8707 3.51052 11.8655 3.51578C11.8603 3.52105 11.8549 3.52621 11.8494 3.53124C11.8439 3.53627 11.8383 3.54117 11.8326 3.54596C11.8269 3.55075 11.821 3.5554 11.8151 3.55993C11.8091 3.56447 11.8031 3.56886 11.7969 3.57312C11.7907 3.57739 11.7845 3.58151 11.7781 3.58551C11.7717 3.5895 11.7652 3.59334 11.7587 3.59704C11.7521 3.60075 11.7455 3.6043 11.7387 3.60772C11.732 3.61113 11.7252 3.61439 11.7183 3.61751C11.7114 3.62061 11.7044 3.62357 11.6974 3.62639C11.6903 3.62919 11.6832 3.63185 11.6761 3.63435C11.6689 3.63684 11.6616 3.63917 11.6544 3.64135C11.6471 3.64353 11.6397 3.64553 11.6323 3.6474C11.625 3.64926 11.6175 3.65094 11.6101 3.65249C11.6026 3.65402 11.5951 3.65539 11.5876 3.65658C11.58 3.65777 11.5725 3.65881 11.5649 3.65968C11.5573 3.66056 11.5497 3.66126 11.5421 3.66178C11.5344 3.66232 11.5268 3.66269 11.5192 3.6629C11.5115 3.6631 11.5039 3.66314 11.4962 3.66299C11.4886 3.66285 11.481 3.66255 11.4733 3.66209C11.4657 3.66161 11.4581 3.66097 11.4505 3.66018C11.4429 3.65936 11.4353 3.65839 11.4278 3.65726C11.4202 3.65613 11.4127 3.65483 11.4052 3.65335C11.3977 3.65188 11.3903 3.65026 11.3829 3.64846C11.3755 3.64666 11.3681 3.64472 11.3608 3.64261C11.3535 3.64049 11.3463 3.63821 11.3391 3.63578C11.3319 3.63334 11.3247 3.63075 11.3177 3.628C11.3106 3.62524 11.3036 3.62235 11.2967 3.61929C11.2898 3.61624 11.2829 3.61304 11.2762 3.60968C11.2694 3.60632 11.2627 3.60282 11.2561 3.59918C11.2495 3.59553 11.243 3.59173 11.2366 3.5878C11.2302 3.58387 11.2239 3.57981 11.2177 3.57559C11.2114 3.57137 11.2053 3.56703 11.1994 3.56256C11.1933 3.55808 11.1875 3.55347 11.1817 3.54873C11.1759 3.544 11.1703 3.53913 11.1648 3.53415C11.1592 3.52917 11.1538 3.52406 11.1485 3.51884C11.1432 3.5136 11.1381 3.50827 11.1331 3.50283C11.1281 3.49737 11.1232 3.49182 11.1184 3.48617C11.1137 3.4805 11.1091 3.47474 11.1046 3.46887C11.1002 3.463 11.0958 3.45704 11.0917 3.451C11.0875 3.44493 11.0835 3.43879 11.0796 3.43257C11.0757 3.42635 11.072 3.42003 11.0685 3.41363C11.0649 3.40723 11.0615 3.40077 11.0583 3.39423C11.055 3.38769 11.052 3.38107 11.049 3.3744C11.0461 3.36772 11.0434 3.36097 11.0408 3.35417C11.0382 3.34738 11.0358 3.34054 11.0335 3.33363C11.0313 3.32672 11.0292 3.31977 11.0273 3.31278C11.0254 3.30578 11.0237 3.29874 11.0221 3.29168C11.0205 3.2846 11.0192 3.2775 11.018 3.27037L11.0125 3.20148L11.0125 1.60148L0.833176 11.2237C0.829291 11.2274 0.825341 11.231 0.821322 11.2346C0.817314 11.2381 0.813239 11.2416 0.809097 11.245C0.804955 11.2484 0.80075 11.2518 0.796485 11.255C0.79222 11.2583 0.787903 11.2615 0.783536 11.2647C0.779158 11.2678 0.774725 11.2709 0.770234 11.2739C0.765743 11.2769 0.761204 11.2798 0.756612 11.2827C0.75202 11.2856 0.74738 11.2883 0.742687 11.291C0.737994 11.2938 0.733252 11.2964 0.728458 11.2989C0.723676 11.3015 0.718849 11.304 0.713977 11.3064C0.709094 11.3088 0.704172 11.3111 0.69921 11.3133C0.69426 11.3156 0.689264 11.3178 0.684224 11.3198C0.679184 11.3219 0.674109 11.3239 0.669002 11.3258C0.663895 11.3278 0.658753 11.3296 0.653578 11.3314C0.648404 11.3331 0.643201 11.3348 0.637969 11.3364C0.632728 11.338 0.627462 11.3395 0.622175 11.3409C0.616888 11.3423 0.611572 11.3436 0.606229 11.3449C0.600896 11.3461 0.595542 11.3473 0.590165 11.3484C0.584789 11.3495 0.579389 11.3504 0.573967 11.3513C0.568557 11.3523 0.563128 11.3531 0.557684 11.3538C0.552241 11.3545 0.546785 11.3552 0.541318 11.3557C0.53585 11.3563 0.530378 11.3567 0.5249 11.3571C0.519411 11.3575 0.513922 11.3578 0.508432 11.358C0.502931 11.3582 0.497437 11.3583 0.491948 11.3583C0.486447 11.3584 0.480947 11.3583 0.475446 11.3582C0.469957 11.358 0.464468 11.3578 0.458978 11.3574C0.453489 11.3571 0.448011 11.3567 0.442544 11.3562C0.437067 11.3557 0.431599 11.3551 0.426144 11.3544C0.4207 11.3537 0.415266 11.353 0.409844 11.3521C0.40441 11.3513 0.399 11.3503 0.393612 11.3493C0.388224 11.3483 0.382852 11.3472 0.377498 11.346C0.372155 11.3448 0.366827 11.3435 0.361518 11.3421C0.356219 11.3408 0.350944 11.3393 0.34569 11.3378L0.274363 11.3111L0.206185 11.2741L0.14427 11.2244C0.139814 11.2202 0.135453 11.2159 0.131187 11.2116C0.12691 11.2072 0.122729 11.2028 0.118642 11.1982C0.114545 11.1937 0.110549 11.1891 0.106654 11.1844C0.102747 11.1798 0.0989417 11.175 0.0952372 11.1702C0.0915328 11.1654 0.0879296 11.1605 0.0844271 11.1556C0.0809136 11.1506 0.0775067 11.1456 0.0742064 11.1405C0.0709061 11.1355 0.0677123 11.1303 0.0646254 11.1252C0.0615382 11.12 0.0585579 11.1147 0.0556841 11.1094C0.0528103 11.1041 0.0500491 11.0988 0.0473998 11.0934C0.0447506 11.088 0.0422081 11.0825 0.0397721 11.077C0.0373473 11.0716 0.0350348 11.066 0.0328347 11.0604C0.0306346 11.0549 0.0285465 11.0492 0.0265707 11.0436C0.0246063 11.0379 0.0227541 11.0322 0.0210142 11.0265C0.0192852 11.0208 0.0176689 11.0151 0.0161646 11.0093C0.0146605 11.0035 0.0132798 10.9977 0.0120224 10.9919C0.0107652 10.986 0.0096257 10.9802 0.0086044 10.9743C0.00758284 10.9684 0.0066846 10.9625 0.00591021 10.9566C0.00513556 10.9507 0.00447884 10.9448 0.00394006 10.9389C0.00340127 10.9329 0.00299146 10.927 0.00271088 10.9211C0.00241901 10.9151 0.00225072 10.9092 0.00220577 10.9032C0.00216079 10.8973 0.00223943 10.8913 0.00244137 10.8854C0.00263226 10.8794 0.00295214 10.8735 0.00340127 10.8675C0.00385038 10.8616 0.00441717 10.8557 0.0051019 10.8497C0.00578662 10.8438 0.00659494 10.8379 0.00752657 10.832C0.00845847 10.8262 0.00951367 10.8203 0.0106922 10.8144C0.0118597 10.8086 0.0131506 10.8028 0.014565 10.797C0.0159683 10.7912 0.017495 10.7854 0.019145 10.7797C0.0207953 10.7739 0.0225633 10.7682 0.0244492 10.7625C0.0263351 10.7568 0.0283389 10.7512 0.0304603 10.7456C0.0325708 10.74 0.0347992 10.7344 0.0371451 10.7289C0.0394912 10.7234 0.0419498 10.7179 0.0445205 10.7124C0.047091 10.707 0.0497738 10.7016 0.052569 10.6963L0.0917517 10.6319L0.14427 10.5733L10.3447 0.931849L8.65967 0.932597C8.65318 0.932597 8.6467 0.932475 8.64022 0.932231C8.63374 0.931988 8.62725 0.931622 8.62079 0.931133C8.61432 0.930656 8.60787 0.930056 8.60142 0.929335C8.59499 0.928603 8.58858 0.927759 8.58216 0.926805C8.57574 0.925839 8.56936 0.924756 8.56301 0.923558C8.55665 0.92236 8.55032 0.921039 8.544 0.919595C8.53769 0.918163 8.53143 0.916608 8.52518 0.914932C8.51893 0.913266 8.51274 0.911484 8.50657 0.909585C8.50041 0.907687 8.49428 0.90567 8.4882 0.903538C8.48212 0.901405 8.47608 0.899161 8.47008 0.896806C8.46411 0.894451 8.45816 0.891989 8.45227 0.889422C8.44639 0.886844 8.44055 0.884159 8.43477 0.881369C8.429 0.878568 8.42329 0.875667 8.41763 0.872664C8.41199 0.869661 8.4064 0.866553 8.40086 0.863338C8.39534 0.860123 8.38988 0.856808 8.38451 0.853392C8.37912 0.849975 8.3738 0.846458 8.36857 0.84284C8.36333 0.839223 8.35816 0.835515 8.35308 0.831716C8.34799 0.827908 8.34299 0.824003 8.33807 0.820003C8.33314 0.816014 8.32831 0.811935 8.32356 0.807765C8.31881 0.803584 8.31414 0.799319 8.30956 0.79497C8.305 0.79063 8.30052 0.786201 8.29613 0.781682C8.29173 0.777173 8.28744 0.772578 8.28325 0.7679C8.27905 0.763232 8.27495 0.758483 8.27095 0.753656C8.26696 0.748829 8.26306 0.743928 8.25925 0.738951C8.25546 0.733975 8.25178 0.728937 8.24819 0.723833C8.2446 0.71872 8.24113 0.713541 8.23775 0.7083C8.23438 0.70306 8.23113 0.69776 8.22798 0.692402C8.22483 0.687044 8.22179 0.681628 8.21887 0.676153C8.21596 0.670679 8.21315 0.665152 8.21045 0.659571C8.20776 0.654001 8.20518 0.648378 8.20273 0.642701C8.20027 0.637025 8.19793 0.631307 8.19572 0.625546C8.1935 0.619785 8.19139 0.613987 8.18942 0.608151L8.17139 0.53555L8.16592 0.466657C8.1659 0.45975 8.16607 0.452848 8.16639 0.445952C8.16671 0.439045 8.1672 0.43215 8.16785 0.425264C8.16851 0.418389 8.16932 0.411525 8.17028 0.40467C8.17124 0.397827 8.17238 0.391005 8.17368 0.384204C8.17498 0.377404 8.17642 0.37063 8.17802 0.363882C8.17962 0.357145 8.18139 0.350445 8.18333 0.343782C8.18525 0.337119 8.18732 0.330498 8.18956 0.323921C8.1918 0.317343 8.19419 0.310812 8.19673 0.30433C8.19927 0.297848 8.20197 0.291429 8.20481 0.285074C8.20766 0.278708 8.21064 0.272406 8.21379 0.266168C8.21694 0.259918 8.22022 0.253743 8.22364 0.247643C8.22707 0.241543 8.23064 0.235517 8.23436 0.229565C8.23807 0.223613 8.24193 0.217745 8.24592 0.211963C8.24991 0.206171 8.25401 0.200468 8.25828 0.194855C8.26254 0.189233 8.26693 0.183704 8.27144 0.178273C8.27597 0.172841 8.2806 0.167503 8.28537 0.162263C8.29013 0.157032 8.29503 0.151897 8.30003 0.146858C8.30505 0.141829 8.31017 0.136906 8.31541 0.132089C8.32064 0.127273 8.326 0.122567 8.33147 0.117973C8.33693 0.113379 8.3425 0.108902 8.34818 0.104541C8.35385 0.100181 8.35961 0.0959424 8.36548 0.0918259C8.37136 0.0877094 8.37732 0.0837202 8.38338 0.0798584C8.38943 0.0759965 8.39557 0.0722617 8.40182 0.0686547C8.40805 0.0650367 8.41437 0.0615569 8.42076 0.0582147C8.42716 0.0548727 8.43363 0.0516687 8.44018 0.0486025C8.44673 0.0455257 8.45335 0.0425924 8.46003 0.039802C8.46672 0.0370115 8.47347 0.0343593 8.48029 0.0318448C8.48709 0.0293302 8.49396 0.0269643 8.50088 0.024747C8.5078 0.0225293 8.51477 0.0204554 8.52179 0.0185243C8.52882 0.0165936 8.53587 0.0148112 8.54298 0.0131771C8.55008 0.0115434 8.55722 0.0100579 8.56439 0.00872113C8.57157 0.00739502 8.57878 0.00621728 8.586 0.00518814L8.65889 0L11.4232 0ZM0.69916 0.686657L0.771261 0.727398L0.833176 0.776287L4.07241 3.83778C4.07743 3.84254 4.08234 3.84741 4.08714 3.85239C4.09194 3.85737 4.09662 3.86243 4.10119 3.8676C4.10575 3.87278 4.11019 3.87803 4.11452 3.88339C4.11885 3.88874 4.12304 3.89418 4.1271 3.8997C4.13116 3.90522 4.1351 3.91084 4.1389 3.91652C4.14271 3.92221 4.14638 3.92798 4.14993 3.93382C4.15347 3.93966 4.15687 3.94558 4.16014 3.95157C4.1634 3.95755 4.16652 3.9636 4.1695 3.96971C4.17248 3.97582 4.17532 3.982 4.17802 3.98822C4.18073 3.99444 4.18327 4.00073 4.18568 4.00708C4.18809 4.01341 4.19034 4.01979 4.19245 4.02622C4.19455 4.03265 4.19652 4.03913 4.19833 4.04564C4.20013 4.05215 4.20179 4.05869 4.20329 4.06528C4.20479 4.07185 4.20614 4.07845 4.20733 4.08509C4.20853 4.09172 4.20957 4.09839 4.21047 4.10506C4.21136 4.11175 4.21208 4.11845 4.21267 4.12515C4.21324 4.13186 4.21367 4.13858 4.21394 4.14531C4.21419 4.15204 4.21431 4.15876 4.21426 4.16549C4.2142 4.17222 4.214 4.17895 4.21363 4.18568C4.21328 4.1924 4.21276 4.19912 4.21208 4.20582C4.21143 4.21251 4.2106 4.2192 4.20961 4.22587C4.20861 4.23254 4.20749 4.23917 4.20619 4.24579C4.20489 4.25241 4.20346 4.259 4.20186 4.26557C4.20026 4.27213 4.19851 4.27866 4.19661 4.28515C4.19471 4.29163 4.19267 4.29807 4.19046 4.30448C4.18826 4.31088 4.18592 4.31723 4.18342 4.32353C4.18092 4.32985 4.17827 4.33611 4.17549 4.3423C4.17272 4.34849 4.16979 4.35463 4.16672 4.36069C4.16364 4.36677 4.16044 4.37279 4.15709 4.37872C4.15374 4.38466 4.15025 4.39053 4.14663 4.39633C4.14301 4.40212 4.13926 4.40783 4.13537 4.41348C4.13148 4.41913 4.12745 4.42469 4.12331 4.43014C4.11917 4.43562 4.11489 4.44101 4.1105 4.44631C4.1061 4.45161 4.10157 4.4568 4.09694 4.46191C4.09231 4.46702 4.08755 4.47203 4.08268 4.47695C4.07781 4.48187 4.07283 4.48667 4.06775 4.49137C4.06264 4.49608 4.05744 4.50068 4.05214 4.50516C4.04683 4.50965 4.04141 4.51403 4.0359 4.51829C4.0304 4.52256 4.02479 4.52671 4.01908 4.53074C4.01337 4.53476 4.00758 4.53868 4.00171 4.54248C3.99583 4.54627 3.98985 4.54993 3.98379 4.55348C3.97774 4.55703 3.9716 4.56043 3.96538 4.56373C3.95917 4.56702 3.95287 4.57017 3.94653 4.57321C3.94016 4.57624 3.93373 4.57913 3.92725 4.58189C3.92075 4.58466 3.91418 4.58728 3.90756 4.58977C3.90094 4.59226 3.89428 4.59462 3.88756 4.59683C3.88082 4.59904 3.87405 4.60111 3.86723 4.60304C3.86042 4.60496 3.85355 4.60676 3.84662 4.60842C3.83972 4.61006 3.83278 4.61157 3.82581 4.61292C3.81882 4.61427 3.81182 4.6155 3.8048 4.61656C3.79776 4.61763 3.7907 4.61855 3.78363 4.61933C3.77656 4.62011 3.76947 4.62073 3.76237 4.62121C3.75526 4.62169 3.74815 4.62202 3.74103 4.62221C3.73391 4.62241 3.72679 4.62244 3.71966 4.62233C3.71254 4.62221 3.70544 4.62196 3.69831 4.62156C3.69121 4.62116 3.68412 4.62061 3.67703 4.61991C3.66994 4.61921 3.66289 4.61836 3.65583 4.61736C3.64879 4.61637 3.64177 4.61524 3.63478 4.61395C3.62779 4.61267 3.62082 4.61125 3.6139 4.60967C3.60698 4.6081 3.6001 4.6064 3.59324 4.60453C3.58639 4.60267 3.5796 4.60068 3.57285 4.59853C3.5661 4.59639 3.5594 4.59411 3.55275 4.59169C3.54609 4.58927 3.53951 4.58673 3.53298 4.58404C3.52646 4.58135 3.52 4.57851 3.5136 4.57555L3.4454 4.53852L3.38349 4.48888L0.14427 1.42741C0.139196 1.42266 0.134241 1.41782 0.129402 1.41288C0.124564 1.40792 0.119838 1.40287 0.115224 1.39773C0.110622 1.39258 0.106137 1.38735 0.10177 1.38202C0.097404 1.37668 0.0931661 1.37126 0.0890578 1.36575C0.0849492 1.36025 0.0809641 1.35466 0.0771024 1.349C0.0732521 1.34332 0.0695366 1.33757 0.0659554 1.33175C0.0623746 1.32592 0.0589283 1.32002 0.0556167 1.31405C0.0523051 1.30808 0.0491342 1.30204 0.0461031 1.29594C0.0430724 1.28984 0.0401873 1.28368 0.0374484 1.27746C0.0346982 1.27123 0.0320993 1.26495 0.0296522 1.25862C0.027205 1.2523 0.0249037 1.24592 0.0227485 1.23949C0.0205931 1.23307 0.0185893 1.2266 0.0167371 1.22009C0.0148851 1.21359 0.0131842 1.20705 0.0116352 1.20047C0.0100861 1.19388 0.00868841 1.18727 0.00744254 1.18064C0.00619643 1.174 0.00510754 1.16733 0.00417591 1.16065C0.00324402 1.15398 0.00246962 1.14728 0.00185223 1.14057C0.00123481 1.13385 0.000768741 1.12712 0.000454513 1.12039C0.00015159 1.11365 0 1.10691 0 1.10018C1.10481e-05 1.09344 0.000173943 1.0867 0.000488171 1.07996C0.000802656 1.07323 0.00127952 1.06651 0.00191953 1.0598C0.00254799 1.05308 0.00333395 1.04639 0.00427689 1.0397C0.00521984 1.03302 0.00632002 1.02636 0.00757718 1.01973C0.0088233 1.0131 0.0102264 1.00649 0.0117868 0.999915C0.0133471 0.993338 0.015059 0.986797 0.0169223 0.980293C0.0187858 0.973779 0.0208007 0.967311 0.0229674 0.960893C0.0251339 0.954475 0.0274463 0.948098 0.0299048 0.941764C0.0323632 0.935441 0.0349731 0.929171 0.0377346 0.922953C0.0404848 0.916736 0.0433808 0.910577 0.046423 0.904477C0.0494541 0.898386 0.0526308 0.892355 0.0559537 0.886382C0.0592762 0.880419 0.0627338 0.874526 0.0663261 0.868701C0.0699182 0.862888 0.073645 0.857147 0.0775067 0.851482C0.081368 0.845805 0.0853591 0.840219 0.0894787 0.834724C0.0935982 0.829218 0.0978472 0.823807 0.102225 0.818491C0.106592 0.813165 0.111088 0.807929 0.115713 0.802784C0.120326 0.797648 0.125058 0.79261 0.129907 0.787665C0.134757 0.782732 0.139719 0.777894 0.144793 0.773151C0.149866 0.76842 0.155053 0.763794 0.160351 0.759274C0.165638 0.754754 0.171027 0.750346 0.176516 0.746049C0.182017 0.741752 0.187612 0.737572 0.193304 0.733509C0.198995 0.729446 0.204776 0.725504 0.210647 0.721684C0.216519 0.717865 0.222479 0.714168 0.228529 0.710592C0.234569 0.707016 0.240692 0.703569 0.2469 0.700248C0.253108 0.696926 0.259389 0.693734 0.265742 0.690667C0.272095 0.687612 0.278517 0.684684 0.285005 0.681883C0.291493 0.679093 0.298043 0.676435 0.304655 0.673909C0.311278 0.671395 0.317952 0.669013 0.324676 0.666764C0.3314 0.664525 0.338175 0.662424 0.345 0.660462C0.351814 0.6585 0.358678 0.656679 0.365593 0.655003C0.372497 0.653327 0.379439 0.651793 0.386422 0.650404C0.393393 0.649015 0.400398 0.647767 0.407436 0.646664C0.414475 0.645571 0.421535 0.644622 0.428619 0.643815C0.435691 0.643009 0.442785 0.642351 0.449902 0.641842C0.457008 0.641333 0.464126 0.640972 0.471253 0.64076C0.478381 0.640548 0.485515 0.640485 0.492655 0.640569C0.499783 0.640644 0.506905 0.640871 0.514023 0.641253C0.52114 0.641635 0.528251 0.64216 0.535357 0.642829C0.542451 0.643508 0.549523 0.644329 0.556573 0.645295C0.563633 0.646261 0.570667 0.647375 0.577671 0.648637C0.584676 0.64989 0.591652 0.651295 0.598601 0.652855C0.605539 0.654403 0.612437 0.656097 0.619296 0.657931C0.626154 0.659766 0.632968 0.66174 0.639737 0.663852C0.646518 0.665973 0.653237 0.668233 0.659893 0.670631C0.666561 0.673029 0.673166 0.675565 0.679712 0.678238C0.686257 0.680912 0.692739 0.683717 0.69916 0.686657Z"   fill="#000000" ></path></g></svg>